<svg width="291" height="563" viewBox="0 0 291 563" fill="none" xmlns="http://www.w3.org/2000/svg">
<path fill-rule="evenodd" clip-rule="evenodd" d="M249.413 1.58459C248.304 2.85276 246.401 3.48685 245.133 3.01128C243.865 2.53572 242.914 3.01128 242.914 3.96241C242.914 4.91354 241.487 5.70615 239.743 5.70615C238 5.70615 235.78 7.29137 234.829 9.19363C233.878 11.2544 231.025 14.2663 228.33 16.0101C225.476 17.7538 222.623 21.5583 221.672 24.7287C220.404 28.5333 218.977 30.1185 217.075 29.8014C215.173 29.4844 214.38 30.4355 214.38 33.1304C214.38 35.3497 213.27 37.569 211.844 38.0446C210.575 38.5201 209.783 39.6298 210.258 40.4224C210.734 41.215 209.783 42.1661 208.039 42.6417C206.137 43.1172 204.869 44.861 204.869 46.7632C204.869 48.6655 203.918 50.0922 202.649 50.0922C201.381 50.0922 199.796 51.5189 199.32 53.2626C198.686 55.0064 197.577 56.116 196.784 55.6404C195.357 54.6893 194.723 56.7501 195.199 61.3472C195.357 62.9324 193.614 64.3591 190.285 65.3103C187.431 66.1029 184.261 68.4807 183.31 70.5415C182.2 72.4437 180.615 74.9801 179.664 75.9312C178.713 76.8823 177.92 78.7846 177.92 80.0528C177.92 81.4795 174.749 86.0766 170.786 90.5152C166.823 94.7953 163.653 98.7583 163.653 99.3924C163.653 100.026 162.068 100.819 160.165 101.295C158.263 101.929 157.154 102.721 157.629 103.197C158.263 103.831 156.202 106.843 153.349 109.855C150.337 113.025 148.276 116.196 148.593 116.83C149.069 117.464 147.484 119.049 145.265 120.634C143.045 122.061 141.619 124.122 142.094 125.39C142.57 126.658 141.619 128.085 139.716 128.56C138.131 129.194 136.704 130.304 136.704 131.097C136.704 131.889 135.912 132.523 134.961 132.523C132.424 132.523 127.51 139.023 126.4 143.937C125.766 146.315 124.815 148.059 124.181 147.9C122.596 147.424 111.975 158.838 107.536 165.813C105.476 168.825 100.561 174.849 96.4399 179.129C92.4769 183.409 89.1479 187.53 89.1479 188.164C89.1479 188.957 87.7212 190.225 85.9774 191.176C84.2337 192.128 82.807 194.03 82.807 195.615C82.807 198.151 78.6855 203.224 65.2111 217.491C61.8822 221.137 59.0287 224.783 59.0287 225.734C59.0287 226.685 57.7606 228.429 56.1754 229.539C54.7487 230.648 52.2123 233.343 50.7856 235.562C49.3589 237.782 46.03 241.903 43.3352 244.915C40.6403 247.927 38.1039 251.732 37.4698 253.317C36.9943 254.902 35.409 256.17 34.1408 256.17C32.7141 256.17 31.9215 256.646 32.5556 257.121C33.0312 257.597 31.446 259.816 28.9096 261.877C24.7881 265.364 17.179 278.363 17.0205 282.326C16.862 283.119 16.0694 283.753 14.9598 283.436C13.8501 283.277 13.2161 283.594 13.2161 284.229C14.0087 289.143 12.7405 292.947 10.8382 292.155C8.61894 291.204 5.92405 295.167 6.55814 298.02C6.71666 298.654 5.76555 300.081 4.49738 301.19C0.217295 304.361 -1.36792 311.177 1.32695 314.031C3.07068 315.616 3.22919 316.408 1.80249 316.408C0.692841 316.408 1.0099 317.677 2.91216 319.737C5.13146 322.274 5.28999 323.225 3.70477 324.176C2.27808 325.127 2.11954 325.761 3.38771 326.554C4.33884 327.188 4.8144 328.456 4.18032 329.249C3.70475 330.041 2.59504 330.2 1.64391 329.724C0.37574 328.932 0.217218 329.566 0.851304 331.309C1.48539 332.895 1.96097 334.48 1.96097 334.797C1.96097 335.273 2.75364 335.114 3.70477 334.48C4.97294 333.687 5.13141 335.431 4.3388 340.028C3.22915 346.528 4.33878 347.796 10.3626 346.686C11.1552 346.528 11.3137 347.162 10.6797 348.113C7.03367 353.978 22.4103 351.917 29.0682 345.576C31.2875 343.516 33.8238 341.772 34.9334 341.772C36.0431 341.772 36.8357 341.138 36.8357 340.345C36.8357 339.553 40.0062 337.492 43.9692 335.59C47.9322 333.687 51.1027 331.468 51.1027 330.517C51.1027 329.724 51.7368 329.249 52.5294 329.883C53.322 330.358 55.2243 329.09 56.4924 327.188C57.9191 325.286 59.0287 324.176 59.0287 324.81C59.0287 326.712 74.881 318.152 75.8321 315.774C76.3077 314.506 78.0513 313.872 79.6366 314.348C81.5388 314.823 82.807 314.031 83.4411 311.97C84.0752 310.226 85.9774 308.482 87.5626 308.007C89.3064 307.531 90.5746 306.263 90.2575 304.995C89.9405 303.885 89.9405 303.41 90.2575 304.044C90.7331 304.836 92.4769 305.312 94.0621 305.312C95.8058 305.312 96.7569 304.519 96.2813 303.727C95.8058 302.776 96.4399 301.983 97.7081 301.983C99.1347 301.824 101.037 301.666 102.147 301.507C103.256 301.507 105 299.605 106.11 297.386C107.219 295.167 108.17 294.374 108.17 295.325C108.17 296.752 110.39 296.276 115.304 293.898C122.437 290.411 123.389 287.399 117.206 288.033C109.122 288.509 105.951 287.875 107.853 285.972C109.122 284.704 110.231 284.704 111.975 286.131C113.719 287.558 114.511 287.558 115.462 285.972C116.255 284.863 116.889 283.119 116.889 282.326C116.889 281.375 117.999 280.741 119.267 280.741C120.535 280.741 122.279 279.948 122.913 279.156C123.547 278.205 124.023 278.997 123.706 280.741C123.388 282.485 122.754 284.229 122.279 284.704C121.645 285.18 122.12 286.448 123.389 287.557C124.657 288.667 125.608 288.826 125.608 287.875C125.608 287.082 127.352 286.289 129.571 286.289C131.949 286.289 135.278 284.546 137.338 282.326C139.399 280.107 142.094 278.363 143.362 278.363C146.691 278.363 164.287 270.437 165.555 268.376C166.031 267.584 167.775 266.633 169.518 266.316C174.908 265.682 179.505 263.779 179.505 262.194C179.505 261.401 180.298 261.243 181.09 261.719C182.041 262.194 182.676 261.718 182.676 260.609C182.676 259.024 182.993 259.024 184.102 260.767C184.895 261.877 186.322 262.353 187.273 261.877C188.224 261.243 186.956 264.096 184.261 268.218C181.566 272.498 178.237 276.461 176.969 277.254C174.908 278.522 174.75 278.997 176.493 280.107C178.079 281.058 177.603 281.692 174.749 282.96C172.53 283.753 171.421 284.546 172.055 284.546C173.64 284.704 169.043 289.46 167.299 289.46C164.604 289.618 152.398 303.727 153.508 305.47C154.142 306.739 153.983 306.897 152.715 306.263C151.605 305.47 150.02 307.214 148.435 310.86C147.167 314.189 144.63 317.043 142.887 317.518C141.301 317.994 138.765 320.847 137.338 323.7C135.912 326.712 133.692 329.09 132.424 329.09C130.839 329.09 130.363 330.041 130.998 331.468C131.632 333.212 130.522 334.48 127.986 335.431C125.766 336.224 124.023 338.284 124.023 339.87C124.023 341.455 122.279 343.833 120.06 344.942C116.255 347.003 106.902 357.624 108.963 357.624C109.439 357.624 109.122 359.209 108.012 360.953C106.585 363.648 105.951 363.965 104.842 362.221C103.89 360.636 103.415 360.953 103.415 363.489C103.415 365.55 102.781 367.135 101.988 367.135C99.7688 367.135 92.6353 373.952 92.0012 376.647C91.6842 377.915 88.5137 382.036 84.8677 385.999C81.0632 389.962 78.0513 394.084 78.0513 395.035C78.0513 395.986 76.4662 398.047 74.7224 399.791C69.9668 403.912 57.4435 420.399 57.4435 422.301C57.4435 423.252 56.8095 424.203 56.1754 424.52C52.2123 426.105 23.3614 468.748 12.899 488.563C3.86327 505.525 3.22921 508.22 2.91216 526.45C2.59512 535.168 2.75356 541.034 3.22913 539.448C4.4973 533.424 5.92403 537.229 5.44847 545.631C4.81438 553.557 5.28993 554.983 9.09445 559.105C14.1671 564.336 18.2887 563.385 20.0325 556.569C20.6666 554.349 23.8369 548.167 27.0074 542.619C31.9215 534.851 34.775 531.839 41.75 528.193C46.5056 525.657 50.6271 523.121 51.1027 522.487C51.5782 521.852 53.322 520.584 55.0657 519.633C56.8094 518.682 57.285 517.731 56.1754 517.731C54.5902 517.731 54.5902 517.255 56.1754 515.512C57.285 514.402 59.1873 513.768 60.1384 514.085C61.2481 514.56 62.1992 514.085 62.1992 513.134C62.1992 512.183 63.1503 511.39 64.4185 511.39C67.4304 511.39 69.1741 506.317 66.6378 504.732C65.0525 503.781 65.0526 503.147 66.9548 501.879C68.223 501.086 70.2838 500.293 71.3934 500.293C72.5031 500.293 72.9786 499.501 72.5031 498.708C72.0275 497.757 72.5031 497.123 73.7712 497.123C75.3564 497.123 75.832 496.013 75.3565 493.953C74.8809 492.209 75.3565 490.782 76.3076 490.782C77.1002 490.782 77.5758 489.673 77.1002 488.404C76.4662 487.136 75.515 486.502 74.7224 486.978C73.9298 487.453 73.2957 486.978 73.2957 486.185C73.2957 483.966 75.9906 483.966 77.2587 486.027C77.8928 486.978 79.0025 487.295 79.7951 486.661C80.9048 486.027 80.7463 485.075 79.7951 483.807C78.6855 482.381 79.161 481.112 81.5388 479.052C83.9167 476.991 84.2337 475.881 82.9656 474.93C81.5389 474.137 81.6973 473.503 83.5996 472.869C85.0263 472.235 85.6604 472.394 85.1848 473.345C84.7092 474.296 85.0263 474.93 85.9774 474.93C86.9285 474.93 88.1967 473.662 88.6723 472.077C89.3064 470.65 90.8916 468.589 92.1598 467.479C94.3791 465.736 94.3791 465.577 92.3183 465.419C90.416 465.26 90.5746 464.785 92.9524 463.041C94.5376 461.931 95.3302 460.188 94.8547 459.236C94.2206 458.285 95.6473 457.176 98.0251 456.542C101.037 455.749 101.513 455.115 99.9273 454.164C98.1836 453.054 98.1836 452.737 100.086 452.737C101.83 452.737 101.83 452.261 100.086 450.042C98.8177 448.457 98.6592 447.823 99.7688 448.457C100.878 449.091 102.305 448.457 103.256 446.872C104.207 445.286 105 444.652 105 445.445C105 446.238 106.427 445.604 108.012 444.177C109.756 442.592 110.707 440.372 110.231 439.104C109.756 437.836 110.073 436.885 110.865 436.885C113.243 436.885 122.913 426.739 121.011 426.105C118.633 425.313 118.791 422.459 121.328 422.935C122.279 423.252 123.071 422.459 122.754 421.35C122.596 420.399 123.547 419.447 124.815 419.447C126.083 419.447 127.193 418.179 127.193 416.594C127.193 415.167 129.729 412.155 132.583 409.936C135.595 407.717 137.655 405.498 137.18 404.705C136.863 404.071 137.18 403.595 137.972 403.595C138.924 403.595 139.241 402.169 138.765 400.266C137.972 397.73 138.448 397.096 140.826 397.572C143.204 397.889 143.679 397.254 143.362 393.608C143.045 390.755 143.679 389.487 144.947 389.645C145.899 389.962 147.959 387.109 149.228 383.305C150.654 379.659 152.556 376.647 153.666 376.647C154.934 376.647 156.52 374.903 157.312 372.842C158.897 368.562 162.068 365.867 162.068 368.879C162.068 372.208 163.812 369.355 164.604 364.599C165.555 359.051 166.665 357.307 168.567 358.417C169.36 359.051 169.994 358.258 169.994 356.99C169.994 355.563 171.421 354.454 173.164 354.454C174.908 354.454 176.335 353.344 176.335 352.076C176.335 350.649 177.444 349.222 178.713 348.588C180.139 348.113 181.09 346.369 180.773 344.784C180.139 341.296 191.711 330.2 194.406 331.785C195.357 332.261 195.674 332.261 195.04 331.627C193.931 330.2 199.32 324.335 201.698 324.335C202.649 324.335 203.283 323.542 203.283 322.591C203.283 321.798 202.649 321.323 201.857 321.798C201.064 322.432 200.747 321.323 201.223 319.579C201.698 317.835 202.966 316.408 204.235 316.408C205.344 316.408 207.088 314.982 208.039 313.238C208.99 311.494 210.575 310.226 211.685 310.543C212.795 310.702 213.587 309.433 213.587 307.69C213.587 305.629 214.697 304.678 216.441 304.678C218.343 304.836 219.136 303.727 219.136 301.349C219.136 298.971 220.404 297.227 222.465 296.593C225.001 295.801 225.318 295.167 223.891 294.215C222.464 293.264 222.782 292.63 225.159 291.996C226.903 291.362 229.122 288.826 230.074 286.131C231.025 283.436 232.451 281.692 233.402 282.326C234.195 282.802 234.988 282.168 234.988 280.9C234.988 279.473 235.78 278.363 236.573 278.363C237.524 278.363 238.158 277.412 238.158 276.144C238.158 274.876 239.585 272.339 241.487 270.279C243.231 268.218 244.341 267.267 243.865 268.376C243.231 269.486 244.023 269.803 246.243 269.328C248.145 268.852 249.096 267.584 248.621 266.316C248.145 265.047 248.462 264.096 249.255 264.096C252.108 264.096 256.864 258.073 260.668 249.988C263.046 244.598 265.582 241.428 267.96 240.952C269.862 240.318 271.448 239.05 271.448 237.782C271.448 236.672 272.874 234.928 274.618 233.977C276.362 233.026 277.313 231.441 276.837 230.014C276.203 228.587 276.837 227.636 278.423 227.636C281.276 227.636 281.752 225.893 279.215 223.356C278.106 222.247 278.264 221.137 279.691 219.552C280.959 218.284 282.386 216.064 282.861 214.638C283.654 212.894 285.081 212.26 287.458 212.894C290.629 213.686 290.787 213.369 289.678 208.455C289.044 205.443 287.934 202.273 287.141 201.322C286.349 200.371 286.032 198.31 286.666 196.883C287.458 194.822 286.824 194.505 282.861 195.298C278.581 196.249 278.106 195.932 278.898 193.079C279.532 190.384 278.106 189.433 269.228 186.579C256.705 182.458 244.182 182.458 231.817 186.421C227.062 188.006 221.038 189.75 218.343 190.225C212.319 191.493 187.907 200.371 182.359 203.383C179.822 204.651 177.92 205.285 177.92 204.809C177.92 204.334 173.798 206.394 168.884 209.406C163.811 212.418 158.105 214.955 156.202 214.955C154.142 214.955 152.556 215.589 152.556 216.381C152.556 217.174 150.496 218.284 147.959 218.918C145.582 219.393 141.936 221.295 140.192 223.039C138.29 224.624 134.644 226.368 131.949 226.685C129.254 227.002 125.766 228.429 124.181 229.856C122.754 231.282 120.694 232.392 119.742 232.392C118.95 232.392 115.145 234.611 111.499 237.148C107.853 239.843 104.049 241.586 103.098 240.952C101.988 240.318 101.83 240.477 102.464 241.586C104.207 244.281 94.6962 243.964 92.4769 241.269C91.0502 239.525 91.5257 238.891 94.5376 238.099C97.074 237.465 98.1836 236.355 97.7081 234.928C97.2325 233.819 98.9762 230.807 101.354 228.27C103.732 225.734 106.902 221.613 108.17 219.235C109.439 216.698 113.085 212.418 116.414 209.723C119.743 207.029 122.437 203.858 122.437 202.907C122.437 201.797 124.181 199.578 126.4 197.834C129.095 195.615 129.729 194.347 128.461 193.871C127.352 193.396 127.986 192.92 130.046 192.92C132.107 192.762 133.375 192.128 132.9 191.335C132.266 190.542 132.741 189.591 133.534 189.274C134.485 188.957 135.436 187.213 135.595 185.311C135.595 183.409 136.229 182.141 136.704 182.458C137.18 182.775 138.924 181.982 140.667 180.714C142.253 179.446 143.045 178.495 142.411 178.495C141.777 178.495 142.411 177.385 143.679 175.958C145.106 174.69 146.216 172.471 146.216 171.361C146.216 170.093 147.484 168.825 149.069 168.191C151.922 167.24 159.373 156.46 158.58 154.241C158.263 153.448 159.848 151.863 162.068 150.753C164.287 149.485 165.555 148.534 164.921 148.376C164.287 148.376 165.555 145.839 167.616 142.669C169.835 139.498 171.579 136.011 171.579 134.901C171.579 133.792 173.323 132.365 175.384 131.889C177.92 131.255 179.981 129.036 181.249 125.548C182.676 121.744 183.944 120.476 185.529 121.11C187.114 121.585 187.59 121.268 186.797 120.159C186.322 119.208 187.273 117.622 189.016 116.671C190.76 115.72 192.187 113.501 192.187 111.916C192.187 110.172 192.979 108.745 193.772 108.745C194.723 108.745 195.357 107.636 195.357 106.367C195.357 105.099 196.308 103.99 197.577 103.99C199.003 103.99 199.479 102.721 198.845 100.026C198.528 97.6487 198.845 96.0634 199.954 96.0634C202.808 96.0634 209.783 87.8203 208.99 85.4425C208.515 84.3329 209.466 82.4306 211.209 81.4795C212.953 80.3698 214.38 78.9431 214.38 78.309C214.38 77.5164 215.648 75.6142 217.233 74.029C223.099 67.5296 224.05 65.9443 222.306 65.9443C221.355 65.9443 221.038 65.1517 221.513 64.2006C222.147 63.2495 223.574 62.9324 224.684 63.408C226.745 64.0421 230.232 58.1768 230.232 54.0552C230.232 52.9456 231.5 51.5189 233.085 51.0433C234.671 50.4092 237.207 46.7632 238.792 42.3246C240.536 37.2519 242.597 34.24 244.816 33.7645C246.56 33.2889 247.511 32.1793 246.877 31.2281C246.401 30.277 247.035 29.0088 248.462 28.5333C250.047 27.8992 250.523 26.4725 250.047 24.7287C249.413 22.668 250.206 21.5583 252.425 20.7657C254.644 20.1316 255.437 18.8634 254.961 17.2782C254.327 15.8515 255.12 14.5834 257.022 14.1078C258.925 13.6322 259.717 12.3641 259.241 11.0959C258.766 9.82771 259.083 8.87658 260.034 8.87658C262.57 8.87658 260.351 3.01128 257.498 1.90163C255.913 1.42607 254.01 0.63346 253.059 0.157895C252.108 -0.31767 250.364 0.316417 249.413 1.58459ZM89.9405 248.403C88.8308 250.146 84.3922 250.305 84.3922 248.561C84.3922 247.927 85.8189 247.293 87.5626 247.135C89.3064 246.976 90.416 247.452 89.9405 248.403ZM182.676 253C182.676 253.792 181.883 254.585 180.932 254.585C180.139 254.585 179.822 253.792 180.298 253C180.773 252.049 181.566 251.415 182.042 251.415C182.359 251.415 182.676 252.049 182.676 253ZM133.692 278.839C132.107 280.266 131.949 280.107 132.9 277.888C133.375 276.302 134.326 275.51 134.802 275.985C135.278 276.461 134.802 277.729 133.692 278.839ZM130.363 281.534C130.363 282.326 130.046 283.119 129.729 283.119C129.254 283.119 128.461 282.326 127.986 281.534C127.51 280.583 127.827 279.948 128.62 279.948C129.571 279.948 130.363 280.583 130.363 281.534ZM163.97 296.118C162.86 297.227 162.068 297.386 162.068 296.435C162.068 294.215 163.97 292.313 165.08 293.423C165.397 293.898 164.921 295.167 163.97 296.118ZM82.9656 306.422C81.6974 308.799 81.3803 308.799 81.2218 306.739C81.2218 304.044 82.807 301.666 84.0751 302.776C84.3922 303.251 83.9167 304.836 82.9656 306.422ZM79.6366 306.897C79.6366 307.69 79.3196 308.482 79.0025 308.482C78.527 308.482 77.7343 307.69 77.2587 306.897C76.7832 305.946 77.1002 305.312 77.8929 305.312C78.844 305.312 79.6366 305.946 79.6366 306.897ZM82.807 310.702C82.807 311.177 82.1729 311.97 81.2218 312.445C80.4292 312.921 79.6366 312.604 79.6366 311.811C79.6366 310.86 80.4292 310.068 81.2218 310.068C82.1729 310.068 82.807 310.385 82.807 310.702ZM18.4473 346.369C18.9228 347.162 18.2887 348.113 17.0205 348.747C15.5938 349.222 14.6427 348.747 14.6427 347.32C14.6427 344.784 17.1791 344.15 18.4473 346.369ZM113.402 358.417C114.036 359.685 113.56 361.112 112.451 361.746C111.341 362.38 111.024 362.38 111.658 361.587C112.292 360.953 112.134 359.368 111.182 358.1C110.073 356.831 109.914 356.039 111.024 356.039C111.816 356.039 112.926 357.149 113.402 358.417Z" fill="#DD8004"/>
<path fill-rule="evenodd" clip-rule="evenodd" d="M103.416 451.31C103.416 452.103 104.209 452.42 105.001 451.944C105.952 451.469 106.586 450.676 106.586 450.201C106.586 449.884 105.952 449.567 105.001 449.567C104.209 449.567 103.416 450.359 103.416 451.31Z" fill="#DD8004"/>
</svg>
