<svg width="70" height="57" viewBox="0 0 70 57" fill="none" xmlns="http://www.w3.org/2000/svg">
<path fill-rule="evenodd" clip-rule="evenodd" d="M45.7823 5.52114C45.165 5.79149 44.4919 6.16318 44.3378 6.36061C44.1651 6.53411 44.0268 6.60367 44.0372 6.51841C44.0477 6.43316 43.6805 6.60442 43.2311 6.91703C42.7603 7.22701 42.2974 7.47306 42.1909 7.45998C42.0843 7.44689 41.9115 7.62039 41.8162 7.8683C41.6995 8.1136 41.5133 8.22054 41.3293 8.13305C41.148 8.02424 41.0257 8.13904 40.9917 8.41611C40.9629 8.65056 40.862 8.76797 40.7419 8.68833C40.6432 8.6113 40.5262 8.68347 40.5026 8.87529C40.4739 9.10974 40.3568 9.18191 40.1542 9.07048C39.9915 8.98561 39.8397 8.9886 39.8266 9.09517C39.8161 9.18042 39.3775 9.5809 38.875 9.97352C38.3725 10.3661 37.9739 10.7932 38.006 10.8837C38.0408 10.9528 37.9825 11.0755 37.8441 11.145C37.7297 11.1959 37.5918 11.4386 37.563 11.673C37.5368 11.8861 37.428 12.0675 37.3001 12.0518C37.1935 12.0387 37.0687 12.1748 37.0477 12.3453C37.0268 12.5158 36.9471 12.6359 36.8619 12.6254C36.3182 12.4721 36.132 12.579 36.2075 13.021C36.2801 13.3112 36.2218 13.4338 36.1043 13.3329C35.8669 13.1523 35.3113 13.6249 35.5009 13.8429C35.5543 13.936 35.4612 13.9895 35.2694 13.9659C34.9071 13.9214 34.8248 14.0628 34.7332 14.8087C34.7071 15.0219 34.6009 15.1819 34.4943 15.1688C34.3877 15.1557 34.3559 15.2384 34.4042 15.3741C34.4524 15.5098 34.3646 15.5207 34.2019 15.4358C33.8766 15.2661 33.7412 15.4874 33.748 16.1373C33.7723 16.2917 33.6792 16.3452 33.5805 16.2682C33.4818 16.1911 33.1441 16.4742 32.8308 16.9117C32.4909 17.3892 32.3398 17.7384 32.4786 17.842C32.5986 17.9216 32.4154 18.1804 32.083 18.4208C31.7506 18.6613 31.4638 19.0588 31.435 19.2932C31.4062 19.5276 31.2656 19.7916 31.1512 19.8425C31.0129 19.912 30.9014 20.1147 30.8992 20.3091C30.8943 20.5249 30.6266 21.1194 30.2976 21.6848C29.9499 22.2262 29.6369 22.8369 29.5733 23.0021C29.5098 23.1674 29.4488 23.3114 29.4275 23.3087C29.3849 23.3035 29.1703 23.818 28.805 24.8549C28.633 25.3746 28.1166 26.7608 27.6665 27.9603C26.3477 31.4763 26.3134 31.5802 26.3171 32.0783C26.3283 32.3393 26.2595 32.5472 26.153 32.5341C25.9825 32.5132 25.5798 33.5022 25.3158 34.5948C25.2579 34.8905 25.1864 35.1198 25.1651 35.1171C25.1438 35.1145 25.0776 35.3011 25.0275 35.5329C24.6312 36.9987 24.3243 37.9129 23.9769 38.6275C23.7675 39.0994 23.5742 39.6165 23.5533 39.787C23.511 39.9549 23.2258 41.0449 22.9113 42.1962C21.9201 45.6875 21.7538 48.8041 22.5364 48.5973C22.7148 48.5543 22.8849 48.4021 22.9058 48.2316C22.9268 48.0611 23.1343 47.9568 23.3687 47.9855C23.6032 48.0143 23.8773 47.8965 23.9622 47.7339C24.0683 47.5738 24.2067 47.5043 24.3054 47.5813C24.4041 47.6583 24.492 47.6475 24.5264 47.5435C24.5369 47.4583 24.6187 47.1438 24.6741 46.8694C24.7533 46.5762 24.9152 46.3148 25.0483 46.2879C25.2028 46.2636 25.3355 46.0636 25.3617 45.8504C25.3852 45.6586 25.5711 45.3785 25.7812 45.2529C25.9726 45.1033 26.145 44.7567 26.139 44.4531C26.1435 44.0642 26.2471 43.9255 26.4337 43.9917C26.6202 44.0578 26.676 43.9565 26.6169 43.7329C26.5765 43.5332 26.6954 43.0935 26.913 42.7308C27.303 42.0215 27.3639 41.8775 27.4058 41.5365C27.4189 41.4299 27.5307 41.4004 27.6294 41.4774C27.7468 41.5784 27.8556 41.397 27.8975 41.056C27.9367 40.7363 28.1543 40.3736 28.3884 40.2293C28.6402 40.0583 28.648 39.9943 28.412 40.0374C27.9247 40.1291 27.9378 40.0225 28.4452 39.4141C28.6737 39.1393 28.9291 38.9976 29.0278 39.0746C29.1265 39.1516 29.217 39.1195 29.2327 38.9916C29.2458 38.885 29.1815 38.704 29.0614 38.6244C28.9627 38.5474 28.8771 38.3638 28.8902 38.2572C28.9059 38.1293 28.975 38.0946 29.0764 38.1503C29.1538 38.2247 29.2222 37.8437 29.2637 37.3295C29.2783 36.6823 29.4106 36.3091 29.6739 36.1034C29.8892 35.9352 30.0855 35.5698 30.1222 35.2715C30.1562 34.9944 30.4344 34.3146 30.7208 33.744C31.0259 33.1973 31.1926 32.7202 31.1287 32.7123C31.0434 32.7019 31.1418 32.6058 31.328 32.4988C31.6047 32.3597 31.6151 32.2745 31.4125 32.1631C31.2098 32.0516 31.2203 31.9664 31.4435 31.7342C31.6854 31.5259 31.6985 31.4193 31.5037 31.244C31.3063 31.0899 31.3141 31.026 31.5138 30.9856C31.8466 30.9183 32.1176 29.4155 31.8349 29.251C31.7362 29.174 31.7628 29.1339 31.912 29.1523C32.0425 29.1467 32.1887 29.0132 32.2096 28.8427C32.2305 28.6721 32.4751 28.4426 32.7465 28.3461C33.0801 28.214 33.1188 28.0745 32.8628 27.9277C32.6388 27.8136 32.5854 27.7205 32.7345 27.7388C32.865 27.7332 33.0139 27.5784 33.0614 27.3679C33.0954 27.0908 33.1541 27.1413 33.2588 27.522C33.3313 27.8121 33.4835 27.9822 33.6192 27.934C33.9172 27.7975 33.9879 27.2221 33.7108 27.188C33.6043 27.175 33.5186 26.9914 33.5448 26.7782C33.5762 26.5225 33.6428 26.509 33.7284 26.6926C33.7953 26.8523 33.9198 26.543 34.0118 25.9702C34.235 24.5048 34.3356 24.2143 34.5809 24.3309C34.7035 24.3892 34.7387 24.6315 34.6912 24.8421C34.5932 25.1113 34.6493 25.1831 34.8168 25.0522C34.9844 24.9213 35.0449 24.6042 34.9533 24.117C34.8344 23.3236 35.2823 22.3185 35.5205 22.8453C35.7239 23.303 36.1861 22.7107 36.0357 22.173C35.9363 21.7497 35.915 21.7471 35.86 22.1947C35.7942 22.5544 35.6985 22.6292 35.4345 22.4886C35.2105 22.3746 35.1997 22.2867 35.3567 22.2411C35.5111 22.2168 35.6439 22.0167 35.6727 21.7823C35.7015 21.5478 35.8794 21.3317 36.0578 21.2887C36.2388 21.2244 36.4063 21.0935 36.4246 20.9443C36.4403 20.8164 36.6609 20.6055 36.9137 20.4851C37.4405 20.2469 37.6334 19.5567 37.1436 19.6696C36.92 19.7287 36.8452 19.633 36.9032 19.3372C36.9506 19.1267 37.1021 18.9506 37.2513 18.9689C37.4005 18.9872 37.5441 18.875 37.565 18.7045C37.5833 18.5553 37.9127 18.1631 38.2982 17.8426C38.6811 17.5435 38.9944 17.106 38.9993 16.8902C39.0015 16.6958 39.2161 16.1813 39.4842 15.7599C39.7523 15.3385 39.9778 14.9118 39.9935 14.7839C40.0066 14.6774 40.2407 14.533 40.4829 14.4979C40.861 14.4145 40.9114 14.3558 40.6953 14.1778C40.4792 13.9998 40.5057 13.9598 40.8041 13.9965C41.0173 14.0226 41.1874 13.8704 41.2214 13.5934C41.2502 13.3589 41.3538 13.2202 41.4525 13.2972C41.7086 13.5017 42.4523 12.5546 42.3502 12.1526C42.3072 11.9743 42.4639 11.7555 42.738 11.6377C43.0094 11.5413 43.2327 11.3091 43.2536 11.1386C43.2745 10.968 43.7688 10.4662 44.3593 10.0628C44.9523 9.63798 45.42 9.17619 45.3744 9.01914C45.3288 8.8621 45.5759 8.61119 45.9031 8.41338C46.4831 8.09517 46.8342 7.87866 48.5549 6.72696L49.3794 6.17915L48.9202 5.69008C48.2927 4.98563 47.1527 4.93219 45.7823 5.52114ZM35.8689 20.1838C35.8611 20.2477 35.7627 20.3438 35.627 20.392C35.5126 20.4429 35.4113 20.3872 35.4243 20.2806C35.44 20.1527 35.5597 20.0593 35.6663 20.0723C35.7941 20.088 35.8742 20.1411 35.8689 20.1838ZM32.6452 27.0572C32.6321 27.1638 32.5124 27.2572 32.3846 27.2415C32.278 27.2285 32.2484 27.1167 32.3255 27.0179C32.4051 26.8979 32.5221 26.8257 32.5861 26.8336C32.6287 26.8388 32.6609 26.9293 32.6452 27.0572ZM24.2665 46.841C24.3226 46.9128 24.1816 47.0036 23.918 47.0362C23.6331 47.0661 23.4917 46.9838 23.5127 46.8133C23.5467 46.5362 24.0421 46.5538 24.2665 46.841Z" fill="#DD8004"/>
<path fill-rule="evenodd" clip-rule="evenodd" d="M6.57649 6.78656C6.52677 7.19151 5.72585 7.5475 5.33922 7.34858C5.09654 7.21061 5.02512 7.43983 4.9399 8.66254C4.75636 11.2145 5.13931 13.3817 7.20724 21.2078C7.34972 21.8094 7.47087 22.4084 7.45255 22.5576C7.43685 22.6855 7.66459 23.2976 7.96149 23.8749C8.25578 24.4736 8.44349 25.0591 8.36123 25.2004C8.21541 25.5071 8.74902 27.1519 9.00478 27.1833C9.09004 27.1938 9.13605 27.524 9.08894 27.9076C9.04184 28.2912 9.16598 29.0421 9.36156 29.5637C9.55451 30.1066 9.69699 30.7082 9.67343 30.9C9.64726 31.1132 9.75197 31.4938 9.89369 31.7492C10.038 31.9833 10.1427 32.3639 10.1192 32.5557C10.093 32.7689 10.1786 32.9525 10.3065 32.9682C10.4131 32.9812 10.4666 33.0743 10.3922 33.1518C10.2886 33.2905 10.5994 35.3407 10.9239 36.3973C11.0608 36.8685 11.5945 39.7465 11.9239 41.8206C12.0372 42.4836 12.1614 43.2344 12.2392 43.4819C12.2956 43.7268 12.4276 44.4137 12.4822 45.0262C12.9026 48.4745 13.3988 50.0714 14.2039 50.3866C14.6997 50.5773 14.7472 50.3668 14.3882 49.4141C14.1444 48.7567 14.1496 48.7141 14.4379 49.0091C14.7049 49.3015 14.8141 49.2933 15.173 49.0128C15.4123 48.8259 15.5877 48.6311 15.5742 48.5645C15.5395 48.4953 15.6539 48.4445 15.8031 48.4628C15.931 48.4785 16.125 48.3076 16.2177 48.081C16.3344 47.8357 16.6376 47.6566 17.0291 47.6398C17.6177 47.6039 17.716 47.5078 17.922 46.7109C18.0488 46.2073 18.3034 45.7193 18.487 45.6337C18.7637 45.4946 18.7689 45.452 18.5154 45.2261C18.358 45.0986 18.2585 44.6753 18.2843 44.2891C18.4249 42.7919 18.4058 42.5949 17.9604 42.3455L17.4964 42.0721L17.9788 42.1963C18.4424 42.2965 18.4981 42.1951 18.6667 41.3505C18.7826 40.7589 18.7636 40.5619 18.6256 40.8045C18.4532 41.1512 18.4185 41.082 18.4091 40.4534C18.3949 40.0406 18.4872 39.6409 18.6016 39.5901C18.74 39.5205 18.6731 39.3608 18.4783 39.1855C18.2399 39.012 18.2779 38.9373 18.5923 38.9615C18.848 38.9929 19.0743 38.9125 19.09 38.7846C19.103 38.6781 19.0257 38.6037 18.9325 38.6571C18.8394 38.7106 18.6764 38.4526 18.5904 38.0959C18.4775 37.6061 18.4958 37.4569 18.6611 37.5204C19.0155 37.6288 19.0462 37.0268 18.6996 36.8545C18.5369 36.7696 18.4651 36.8257 18.532 36.9853C18.6016 37.1237 18.5459 37.225 18.4393 37.2119C18.2049 37.1832 18.2015 36.8582 18.3813 35.0414C18.4307 34.4633 18.3712 34.0666 18.222 34.0482C17.7531 33.9907 17.7071 33.6605 18.0496 33.1617C18.3151 32.7616 18.3573 32.5937 18.1891 32.3783C18.0582 32.2108 17.9856 31.9206 18.0118 31.7075C18.0354 31.5157 17.9176 31.2416 17.7601 31.1141C17.5814 30.984 17.4524 30.4489 17.4644 29.823C17.4498 29.2371 17.3364 28.5741 17.1708 28.3374C17.0238 28.1247 16.9674 27.8797 17.0392 27.8237C17.1136 27.7463 17.081 27.4826 16.9419 27.2059C16.8002 26.9506 16.6955 26.5699 16.7217 26.3568C16.7478 26.1437 16.6835 25.9627 16.5556 25.947C16.4491 25.9339 16.3661 25.729 16.3949 25.4945C16.4236 25.2601 16.3619 25.0578 16.2341 25.0421C16.1275 25.029 15.9854 24.6005 15.899 24.0707C15.8313 23.5648 15.7158 23.0963 15.6384 23.0218C15.4649 22.8491 14.6366 20.4325 14.6654 20.198C14.6811 20.0702 14.518 19.8122 14.3045 19.6129C14.091 19.4136 13.9306 19.1343 13.9489 18.9851C13.9908 18.6441 13.7414 17.8562 13.348 17.0074C13.158 16.6163 13.0159 16.1878 13.0369 16.0173C13.0339 15.8655 12.8439 15.4744 12.5795 15.1607C12.3152 14.847 12.1252 14.4559 12.1488 14.264C12.1697 14.0935 12.0388 13.926 11.8683 13.9051C11.5699 13.8684 11.5191 13.754 11.5707 12.9815C11.5755 12.7658 11.3721 12.3081 11.1156 11.9304C10.8591 11.5528 10.693 11.143 10.7514 11.0203C10.8097 10.8977 10.5315 10.3443 10.1254 9.7752C9.71933 9.20611 9.18497 8.44819 8.96847 8.09708C8.73065 7.74336 8.44235 7.44835 8.29316 7.43003C8.16789 7.39302 8.02917 7.28944 8.00224 7.15633C7.99402 7.04715 7.65001 6.85346 7.29815 6.72372C6.7784 6.55173 6.60266 6.57342 6.57649 6.78656Z" fill="#DD8004"/>
<path fill-rule="evenodd" clip-rule="evenodd" d="M65.1844 24.5837C65.1739 24.669 64.9342 24.6828 64.665 24.5849C64.3319 24.4791 64.063 24.5542 63.909 24.7516C63.7549 24.9491 63.6218 24.976 63.5522 24.8377C63.3997 24.4944 60.2453 25.3403 59.634 25.9142C59.4612 26.0878 59.1872 26.2055 59.0593 26.1898C58.9314 26.1741 58.6308 26.3319 58.3889 26.5402C58.1682 26.7511 57.825 26.9037 57.6545 26.8827C57.484 26.8618 57.3243 26.9287 57.3086 27.0566C57.2955 27.1632 57.1333 27.2514 56.9628 27.2305C56.7709 27.2069 56.5608 27.3326 56.4759 27.4952C56.3697 27.6553 56.117 27.7757 55.9038 27.7495C55.6907 27.7233 55.4832 27.8277 55.4649 27.9769C55.4125 28.4031 54.7103 28.8361 53.9408 28.9364C53.5893 28.9798 53.0438 29.194 52.7566 29.4184C52.4694 29.6427 51.8682 29.9583 51.4158 30.1191C50.982 30.3039 50.6096 30.5177 50.5991 30.603C50.5861 30.7096 50.4503 30.7578 50.3011 30.7395C49.9814 30.7002 48.8249 31.6616 48.8814 31.9065C48.8896 32.0157 48.7112 32.0587 48.4555 32.0273C48.221 31.9985 48.0614 32.0654 48.1148 32.1585C48.1657 32.273 47.7963 32.6387 47.2777 32.986C46.7591 33.3334 46.3205 33.7339 46.3048 33.8618C46.2865 34.011 46.1429 34.1232 46.015 34.1075C45.7166 34.0708 43.7091 35.62 43.6724 35.9184C43.662 36.0036 43.2391 36.2762 42.7335 36.517C42.2306 36.7365 41.8077 37.0091 41.7973 37.0944C41.779 37.2436 41.2581 37.7854 40.6307 38.3141C40.4605 38.4663 40.3065 38.6638 40.2908 38.7916C40.2751 38.9195 40.0597 39.0878 39.7882 39.1843C39.5142 39.3021 39.3575 39.5208 39.4005 39.6992C39.4435 39.8775 39.3852 40.0002 39.2786 39.9871C39.1721 39.974 38.877 40.2623 38.6194 40.5984C38.1707 41.2573 38.1124 41.3799 37.9987 41.777C37.9857 41.8836 37.8021 41.9692 37.6316 41.9483C37.2479 41.9012 37.1529 42.3222 37.534 42.3907C37.6592 42.4277 37.5448 42.4785 37.236 42.5271C36.8606 42.5892 36.6665 42.7601 36.5981 43.1411C36.4403 44.0737 36.3846 44.175 36.0436 44.1331C35.8304 44.107 35.7295 44.2244 35.7725 44.4027C35.8155 44.5811 35.7919 44.7729 35.7201 44.829C35.627 44.8825 35.5025 45.1917 35.442 45.5088C35.3627 45.8019 35.2169 46.1086 35.1025 46.1594C34.8018 46.3172 34.5323 48.5125 34.7413 49.1007C34.9317 49.6649 35.4701 49.8608 35.5251 49.4132C35.604 48.947 36.7448 48.1135 37.235 48.1737C37.5973 48.2182 37.6665 48.1834 37.4503 48.0054C37.1355 47.7504 37.3082 47.5769 39.459 45.7424C40.0864 45.2137 41.2216 44.2497 42.0191 43.5688C43.8083 42.036 51.6099 36.1141 54.4236 34.1663C54.9875 33.8029 55.3834 33.3972 55.3326 33.2828C55.2817 33.1683 55.5054 33.1093 55.8037 33.1459C56.1234 33.1852 56.3257 33.1234 56.2562 32.9851C56.2079 32.8494 56.3463 32.7798 56.6021 32.8112C56.8578 32.8426 56.9988 32.7518 56.9479 32.6373C56.8997 32.5016 56.9315 32.419 57.038 32.4321C57.1446 32.4451 57.3173 32.2716 57.4101 32.045C57.5028 31.8184 57.7182 31.6502 57.91 31.6737C58.1018 31.6973 58.2693 31.5664 58.2903 31.3959C58.3112 31.2254 58.4361 31.0893 58.5853 31.1076C58.7131 31.1233 59.0325 30.9894 59.2931 30.8051C59.6442 30.5886 59.7773 30.5617 59.8177 30.7613C59.885 31.0941 60.542 30.6772 60.5917 30.2722C60.61 30.123 60.7671 30.0774 60.9271 30.1836C61.1511 30.2976 61.2494 30.2016 61.2913 29.8605C61.3439 29.5497 61.4522 29.5486 61.6162 29.8572C61.7803 30.1658 62.0378 30.183 62.3887 29.9087L62.8913 29.5161L62.3001 29.5733C61.866 29.5849 61.7433 29.5266 61.8708 29.3692C61.9718 29.2518 62.198 29.1714 62.3685 29.1923C62.539 29.2133 62.6905 29.0371 62.7193 28.8027C62.748 28.5682 62.8568 28.3869 62.9634 28.4C63.07 28.4131 63.6686 28.1188 64.3016 27.7205C64.9321 27.3436 65.81 26.8889 66.2172 26.7442C67.508 26.2753 67.7125 26.0191 67.3277 25.4527C67.1433 25.192 66.8846 25.0088 66.7275 25.0545C66.5705 25.1001 66.4292 25.0178 66.3996 24.906C66.3458 24.6398 65.2158 24.328 65.1844 24.5837Z" fill="#DD8004"/>
</svg>
