<svg width="109" height="82" viewBox="0 0 109 82" fill="none" xmlns="http://www.w3.org/2000/svg">
<path d="M55.3157 81.8816C54.5835 81.6629 53.8492 81.0114 53.5633 80.3264C53.4497 80.0543 53.3061 79.8317 53.2442 79.8317C53.1823 79.8317 52.7611 80.1861 52.3082 80.6191C50.9244 81.9424 49.2101 82.2707 47.2005 81.5975C45.948 81.1778 44.944 80.44 44.5219 79.6289C44.2119 79.0332 43.8684 78.856 43.6629 79.1858C43.4 79.6078 41.82 80.2075 40.7739 80.2823C39.7985 80.3521 39.5635 80.3053 38.5701 79.8441C37.1337 79.1773 36.4742 78.669 36.0188 77.8777C35.8163 77.5259 35.5905 77.2375 35.5171 77.2368C35.4436 77.2362 35.1448 77.4162 34.853 77.637C33.2293 78.8656 29.8656 78.385 27.5261 76.5899C24.2512 74.0772 23.3869 70.1647 25.4184 67.0491C27.0076 64.6119 29.5958 63.2349 32.6249 63.2149C33.7967 63.2072 34.1609 63.2731 34.9433 63.6346C36.0527 64.1472 37.235 65.1889 37.8078 66.1585C38.3818 67.1303 38.4991 68.6767 38.0519 69.379C37.7157 69.907 36.8187 70.4207 36.2327 70.4207C35.7195 70.4207 34.7402 69.8767 34.1786 69.2797C33.5243 68.5841 32.7973 68.2849 32.1848 68.4591C30.9578 68.8083 29.8438 69.7674 29.845 70.4737C29.846 70.9944 30.4211 71.8383 31.0287 72.2104C31.5103 72.5053 31.9115 72.6388 33.9844 73.1935C34.3273 73.2853 34.8937 73.6166 35.243 73.9297C35.8781 74.4989 35.8781 74.4989 36.206 73.8613C36.6685 72.962 38.041 71.7958 39.0993 71.4029C40.4959 70.8845 41.4014 70.9569 42.905 71.7068C44.0746 72.2902 44.6356 72.7721 45.3953 73.8458C45.6538 74.2111 45.6538 74.2111 46.2178 73.7844C47.0913 73.1234 48.1712 72.6998 48.9926 72.6959C49.8491 72.6918 51.8693 73.327 52.5667 73.8197C52.8259 74.0028 53.0718 74.1526 53.1131 74.1526C53.1545 74.1526 53.224 73.4772 53.2677 72.6517C53.3966 70.2167 54.2574 69.0741 55.7532 69.3525C56.9304 69.5716 57.9759 71.0268 57.9759 72.4459C57.9759 73.0364 58.2677 73.1772 58.9258 72.9044C59.9702 72.4715 61.1259 72.8704 61.7449 73.8775C62.1482 74.5337 62.1433 75.0199 61.7241 75.9368C61.3906 76.6662 61.3906 76.6662 61.8504 77.0312C62.6958 77.7024 62.7441 77.6016 62.6553 75.3496C62.5849 73.5626 62.5311 73.2554 62.234 72.9416C61.392 72.0525 61.4559 70.7282 62.3877 69.7565C62.9662 69.1531 63.0441 69.1226 64.0046 69.1226C64.9203 69.1226 65.0687 69.1727 65.6089 69.6638C66.1294 70.137 66.2137 70.3202 66.2809 71.1241C66.3613 72.0852 66.4633 72.2118 66.8169 71.7892C67.1623 71.3763 67.8942 71.0697 68.5344 71.0697C68.9429 71.0697 69.2952 70.9334 69.6465 70.6395C70.3807 70.0252 71.1447 69.7484 72.1053 69.7485C73.0139 69.7486 73.4933 69.8965 74.2497 70.41C74.5196 70.5932 74.7872 70.7435 74.8445 70.7441C74.9017 70.7448 74.9992 70.4099 75.0612 70C75.2218 68.9374 75.6858 67.9547 76.3942 67.1768C77.1704 66.3243 77.8707 65.9817 79.3565 65.7273C81.2729 65.3991 81.7828 65.6916 83.2275 67.9485C84.4547 69.8655 85.404 71.7398 85.6207 72.6736C86.0687 74.6038 85.4803 76.7107 84.1478 77.9472C83.174 78.8509 82.2826 79.1503 81.3717 78.8795C79.9744 78.4642 79.2739 77.3892 79.4657 75.9546C79.5671 75.1963 79.5671 75.1963 78.7075 75.0122C78.2347 74.911 77.654 74.7787 77.417 74.7184C76.9943 74.6108 76.9861 74.6241 76.9861 75.4192C76.9861 77.2857 75.4324 78.3245 73.4009 77.8162C72.9156 77.6948 72.863 77.7237 72.6451 78.2314C72.0022 79.7295 70.0391 80.3246 68.7044 79.4261C68.373 79.203 68.0499 79.0206 67.9864 79.0209C67.923 79.021 67.7238 79.2927 67.5439 79.6243C66.8245 80.9505 65.2051 81.3794 63.9956 80.5641C63.3972 80.1607 63.3972 80.1607 63.0416 80.7314C62.6234 81.4028 61.6531 81.9411 60.8613 81.9411C60.552 81.9411 59.8792 81.722 59.3662 81.4543C58.4139 80.9574 57.9759 80.851 57.9759 81.1166C57.9759 81.3358 56.9888 81.8856 56.4222 81.982C56.1523 82.0279 55.6544 81.9828 55.3157 81.8816ZM49.144 77.164C49.144 77.1247 49.0704 77.0473 48.9804 76.9922C48.8904 76.937 48.8168 76.9692 48.8168 77.0637C48.8168 77.1582 48.8904 77.2356 48.9804 77.2356C49.0704 77.2356 49.144 77.2034 49.144 77.164ZM15.989 67.5891C13.0504 66.678 10.8232 63.9661 10.3475 60.7201C10.1685 59.4985 10.2712 58.6368 10.7885 57.0177C10.8916 56.6951 10.8267 56.6719 9.58736 56.5876C7.96326 56.4772 7.03661 56.0168 5.63072 54.6221C4.47823 53.4787 3.55441 51.7751 3.40565 50.5189C3.16285 48.4685 3.76533 47.3621 5.45808 46.7498C5.9924 46.5565 6.60112 46.2565 6.81079 46.0832C7.19202 45.768 7.19201 45.768 5.94169 45.7626C1.18855 45.7421 -1.3422 41.8821 0.728869 37.8118C1.70937 35.8848 3.70557 34.6749 7.05284 33.9788C9.44677 33.481 10.2732 33.5302 11.0119 34.2148C11.2774 34.4609 11.5862 34.9656 11.6982 35.3365C11.8727 35.9142 11.8614 36.1162 11.6195 36.7444C11.2537 37.6948 10.8019 37.998 8.11724 39.0949C4.9033 40.4081 5.08524 40.7283 8.67719 40.0806C10.7845 39.7006 11.8308 39.6721 12.5613 39.9749C13.3282 40.2928 13.9409 41.091 14.0691 41.9389C14.1683 42.5951 14.2456 42.6946 14.9016 43.0096C15.7595 43.4216 17.3162 45.2963 18.1007 46.8621C19.0028 48.6626 18.6753 50.6241 17.2406 52.014C16.8863 52.3572 16.5964 52.6854 16.5964 52.7435C16.5964 52.8015 16.9578 52.8145 17.3993 52.7725C18.3699 52.6799 20.0664 52.9551 21.2623 53.399C23.8809 54.371 25.6411 57.844 24.6461 60.0755C24.2238 61.0227 23.6293 61.4153 22.6174 61.4153C21.9582 61.4153 21.7556 61.335 21.3169 60.8998C21.0312 60.6163 20.5698 59.9604 20.2916 59.4422C20.0134 58.9241 19.6018 58.404 19.3769 58.2865C18.8046 57.9875 17.1575 58.1366 16.6123 58.5366C15.1768 59.59 15.8197 61.1257 18.4445 62.9132C19.8621 63.8786 20.2575 65.226 19.5103 66.5449C18.8769 67.663 17.5226 68.0646 15.989 67.5891ZM89.7057 66.9526C87.989 66.4837 86.7268 65.5408 85.6254 63.9044C84.6071 62.3917 84.2587 61.0482 84.3366 58.9344C84.4133 56.8543 84.8134 55.8218 86.0519 54.5082C87.124 53.3711 88.1735 52.8658 89.6648 52.7688C90.317 52.7264 90.8506 52.6737 90.8506 52.6517C90.8506 52.6297 90.7402 52.3496 90.6052 52.0292C90.2718 51.2376 90.298 50.4844 90.6804 49.8621C91.3708 48.7387 92.7437 48.5391 94.4079 49.3202C94.9701 49.584 95.4386 49.7483 95.4489 49.6851C95.4593 49.622 95.4543 49.4404 95.4378 49.2816C95.3766 48.691 95.8004 47.8552 96.4339 47.3172C97.0706 46.7766 97.0827 46.747 96.9161 46.1331C96.6661 45.2122 96.956 44.35 97.7655 43.6072C98.1302 43.2726 98.3979 42.9723 98.3605 42.9399C98.323 42.9076 97.8132 42.6566 97.2276 42.3823C96.642 42.108 95.8748 41.6366 95.5228 41.3347C94.9344 40.8301 94.8778 40.7082 94.8203 39.8235C94.7711 39.0654 94.8277 38.7509 95.0867 38.3417C95.7253 37.3331 97.1091 37.0041 98.4109 37.5513C99.0872 37.8357 98.9995 37.9005 99.7115 36.5895C100.072 35.9254 101.187 35.096 102.02 34.8714C103.017 34.6028 104.582 34.6413 105.544 34.9581C106.608 35.3088 107.911 36.4623 108.467 37.5456C109.111 38.7993 109.175 40.413 108.639 41.8318C108.413 42.429 108.147 43.2128 108.048 43.5734C107.84 44.3281 107.139 45.0658 106.453 45.2521C106.074 45.3549 105.99 45.4586 106.031 45.7717C106.242 47.362 106.238 47.6945 106.005 48.1427C105.868 48.4054 105.64 48.7153 105.5 48.8313C105.352 48.9531 105.243 49.2955 105.243 49.6422C105.243 49.9751 105.043 50.6345 104.794 51.1232C104.211 52.2647 103.189 52.9721 101.889 53.1331C101.043 53.238 100.985 53.2708 101.203 53.5184C102.037 54.4632 102.18 55.8839 101.531 56.7688C101.145 57.2951 99.937 57.9267 99.3166 57.9267C98.8564 57.9267 98.8564 57.9267 99.1226 58.4374C99.3175 58.8113 99.3728 59.2618 99.3291 60.1195C99.2137 62.3867 97.4291 64.9671 95.145 66.1692C93.44 67.0664 91.268 67.3793 89.7057 66.9526ZM92.5817 61.1313C93.1712 60.7362 93.5225 60.3191 93.9826 59.4681C94.7328 58.0803 95.4118 57.343 96.0721 57.1992C96.3466 57.1393 96.6053 57.0357 96.6469 56.9689C96.7139 56.8614 93.8167 54.7653 92.8681 54.235C92.5141 54.037 92.505 54.052 92.511 54.8256C92.5192 55.8728 92.184 56.3486 90.8323 57.2081C89.9676 57.758 89.7125 58.0131 89.623 58.4176C89.3714 59.5537 89.958 61.1842 90.7289 61.4917C91.3745 61.7492 91.7765 61.671 92.5817 61.1313ZM55.0806 65.3684C53.2516 64.953 53.0544 62.8245 54.7349 61.6374C55.1812 61.3222 55.2246 61.2171 55.1556 60.6204C55.0629 59.8192 54.2428 57.8234 53.5095 56.6146C52.9187 55.6405 53.0656 55.6782 50.9474 55.9584C48.9223 56.2264 45.2811 56.1902 43.7806 55.8873C42.3686 55.6022 41.0889 55.0769 40.2377 54.4328C39.548 53.9109 38.7381 52.7353 38.584 52.0323C38.4987 51.6432 35.5976 45.9698 35.3004 45.6107C35.2707 45.5748 34.6904 45.6753 34.0109 45.834C29.7143 46.8379 26.4369 44.6392 27.045 41.1609C27.2623 39.9184 28.1503 38.1449 29.2059 36.8452C29.9185 35.9679 30.008 35.7702 30.008 35.073C30.008 34.6415 30.1068 33.9626 30.2276 33.5646C32.1008 27.3896 49.3225 18.4592 64.1592 15.969C67.4886 15.4103 70.9828 15.3472 72.9145 15.811C73.9297 16.0548 74.3037 16.082 74.7136 15.9419C75.7196 15.598 76.8474 15.5517 78.068 15.8042C80.3969 16.2859 81.9899 17.3381 82.7626 18.905C83.1407 19.6717 83.1914 19.9495 83.1394 20.9705C83.0528 22.6718 82.4942 23.6661 80.4147 25.8201C78.7292 27.5661 78.7292 27.5661 79.5497 31.6274C80.001 33.8611 80.4916 35.9215 80.6399 36.206C80.7882 36.4905 80.9478 37.1419 80.9945 37.6535C81.2897 40.8826 78.0988 44.7569 72.1497 48.3928C71.2645 48.9337 70.5079 49.4602 70.4683 49.5626C70.4063 49.7227 70.7698 50.8346 71.4092 52.4414C71.583 52.8782 71.5843 52.8785 72.9231 52.7848C74.481 52.6757 75.1231 52.9048 75.6465 53.7564C76.5305 55.1946 75.5819 57.0771 73.1725 58.6661C71.0674 60.0545 70.0439 60.1197 68.899 58.9383C68.2879 58.3076 66.9245 55.7302 65.9821 53.424C65.6113 52.5163 65.3493 52.0853 65.1684 52.0853C65.0217 52.0853 64.429 52.2775 63.8512 52.5123C63.2735 52.7472 61.8808 53.2496 60.7564 53.6287C59.5972 54.0196 58.6924 54.4147 58.6668 54.5411C58.642 54.6638 59.3728 56.3336 60.2909 58.2519C62.1791 62.1973 62.2786 62.629 61.4887 63.4481C60.8025 64.1596 60.2018 64.4957 58.7937 64.9558C57.3258 65.4354 56.0164 65.581 55.0806 65.3684ZM58.5466 62.9231C59.0704 62.7142 59.5746 62.4244 59.667 62.2791C59.7974 62.074 59.467 61.24 58.1901 58.551C56.7786 55.5787 56.49 55.0804 56.1564 55.0397C55.9426 55.0136 55.6292 55.0927 55.4599 55.2155C55.1757 55.4217 55.1717 55.4685 55.4077 55.8308C55.8601 56.5253 56.8219 58.8387 57.0902 59.8774C57.4208 61.1578 57.2944 61.8326 56.5765 62.621C56.2667 62.9611 56.0133 63.2955 56.0133 63.3641C56.0133 63.5847 57.5652 63.3145 58.5466 62.9231ZM71.8186 57.1271C72.3461 56.7766 73.0238 56.2367 73.3246 55.9273C74.2918 54.9325 73.692 54.3363 72.3879 54.9963C70.901 55.7489 70.3081 55.2748 69.274 52.5064C68.7623 51.1366 68.4971 50.625 68.2984 50.625C67.9803 50.625 67.2986 51.0656 67.2986 51.2712C67.2986 51.5361 69.5307 56.3837 69.971 57.0748C70.2126 57.4541 70.5113 57.7644 70.6349 57.7644C70.7584 57.7644 71.2911 57.4776 71.8186 57.1271ZM50.0908 52.2363C58.4071 51.3275 69.6308 46.555 74.6143 41.8086C76.2773 40.2246 76.9509 39.2577 76.9412 38.4683C76.9291 37.4953 74.4055 25.4181 74.2 25.3501C74.0955 25.3156 73.6223 25.6247 73.1485 26.037C71.056 27.8581 67.6591 30.008 63.8261 31.9373C55.3008 36.2284 44.2262 39.4291 37.9038 39.4291C36.9486 39.4291 36.5502 39.4873 36.5502 39.6268C36.5502 39.8269 42.4995 51.0123 42.8156 51.4064C43.5206 52.2855 46.515 52.6271 50.0908 52.2363ZM53.7224 48.3744C52.4011 47.9422 51.5108 47.0206 51.3334 45.9016C51.2417 45.3229 51.5742 44.328 51.9674 44.0042C52.0915 43.9021 52.9237 43.5197 53.8169 43.1543C54.7101 42.789 56.7816 41.8379 58.4202 41.0407C62.0195 39.2898 62.5325 39.2059 63.5381 40.2035C64.1244 40.7851 64.5152 41.6836 64.5172 42.4544C64.5177 42.6458 64.3731 43.2664 64.1957 43.8336C63.618 45.6812 62.0428 47.0517 59.446 47.966C58.4253 48.3254 57.8807 48.4065 56.1768 48.4529C55.0524 48.4834 53.9479 48.4481 53.7224 48.3744ZM57.4622 46.3986C59.4826 46.0734 61.6577 44.7491 62.1716 43.5313C62.4515 42.868 62.4552 41.9548 62.179 41.7274C62.0192 41.5958 61.314 41.8696 59.3576 42.8225C57.923 43.5213 56.1973 44.323 55.5226 44.6041C53.2044 45.5701 53.0243 45.7757 54.0506 46.2843C54.7037 46.608 55.9106 46.6484 57.4622 46.3986ZM41.0733 44.0001C40.7201 43.6129 40.728 42.9538 41.0897 42.6291C41.2477 42.4873 42.8213 41.7443 44.5867 40.978C47.3321 39.7862 47.8578 39.6078 48.2203 39.7445C48.7098 39.9291 48.9373 40.5795 48.6959 41.1042C48.5788 41.3587 47.624 41.8537 45.2762 42.8771C43.4848 43.658 41.8671 44.2969 41.6815 44.2969C41.4959 44.2969 41.2222 44.1633 41.0733 44.0001ZM64.191 36.0216C63.7777 35.6116 63.7718 35.0189 64.1773 34.6547C64.4517 34.4084 70.214 32.1985 71.6856 31.7752C72.4643 31.5512 73.023 31.9354 73.023 32.6949C73.023 33.1478 72.933 33.3011 72.5521 33.4965C71.872 33.8454 65.0251 36.3461 64.7499 36.3461C64.6224 36.3461 64.3709 36.2001 64.191 36.0216ZM32.5355 40.7393C32.6714 40.5211 32.282 39.7536 32.0354 39.7536C31.7955 39.7536 31.3164 40.3723 31.3164 40.6821C31.3164 40.9229 32.3898 40.9733 32.5355 40.7393ZM42.1929 35.2184C49.6894 33.9822 59.2435 30.4405 66.0394 26.3787C70.3415 23.8074 73.5791 20.737 72.8753 19.8958C72.5703 19.5311 71.2317 19.3089 69.3406 19.3089C59.2359 19.3089 40.4021 26.9229 34.8688 33.2449C34.0379 34.1942 33.7777 34.7964 34.0722 35.0885C34.7354 35.7465 38.6147 35.8085 42.1929 35.2184ZM49.6075 29.7699C48.5121 29.4247 47.9989 28.7619 47.9997 27.6934C48.0005 26.6723 48.375 26.0013 49.3257 25.3181C51.3202 23.8847 55.3195 22.6699 56.7519 23.0623C58.5349 23.5507 59.2936 25.6047 58.2936 27.236C57.2663 28.9119 51.8753 30.4845 49.6075 29.7699ZM77.9256 20.4545C78.1669 19.8766 78.0432 19.6334 77.508 19.6334C77.1542 19.6334 77.1176 19.6873 77.2042 20.0796C77.4317 21.1096 77.6128 21.2037 77.9256 20.4545ZM35.1392 22.4057C34.8579 22.2356 32.9811 20.1757 30.9685 17.8282C28.956 15.4806 26.7757 12.9588 26.1235 12.224C24.6259 10.5367 24.5768 10.1689 25.6859 8.94512C26.4341 8.11957 26.4341 8.11957 25.5068 7.71272C24.9968 7.48895 24.2737 7.22477 23.9 7.12565C22.9894 6.88417 22.8115 6.7114 22.8115 6.06861C22.8115 5.34726 23.3841 4.94829 24.201 5.10034C24.5163 5.15901 24.7742 5.14156 24.7742 5.06157C24.7742 4.98157 24.4062 4.57983 23.9564 4.16879C23.0899 3.3769 22.9822 3.05216 23.3933 2.47C23.7689 1.93801 24.4361 2.00849 25.2775 2.669C25.6695 2.9768 26.0247 3.19454 26.0667 3.15288C26.1087 3.11122 25.8969 2.57233 25.596 1.95535C25.0676 0.871669 25.0583 0.819419 25.3243 0.416787C25.5322 0.101999 25.7382 0 26.1661 0C26.6502 0 26.7935 0.0954488 27.1496 0.655144C27.5958 1.35624 28.6826 3.72867 29.2282 5.19231C29.7092 6.4827 29.7206 6.49085 30.667 6.21563C31.7475 5.9014 32.4147 6.12258 33.26 7.07525C34.3673 8.32325 35.8835 11.5374 36.8508 14.6869C38.1815 19.0199 38.2547 21.9096 37.0499 22.5493C36.5592 22.8098 35.7006 22.7453 35.1392 22.4057ZM35.896 19.7324C35.896 19.0271 35.2512 16.2207 34.7422 14.7104C33.6294 11.4089 31.919 8.11298 31.3184 8.11298C30.9392 8.11298 28.2732 9.44457 27.6575 9.94151C27.1879 10.3205 27.1879 10.3205 28.2036 11.4884C28.7622 12.1307 29.2679 12.654 29.3274 12.6512C29.3869 12.6484 29.7299 12.4662 30.0898 12.2464C30.8567 11.7777 31.2598 11.7439 31.6715 12.1135C32.1643 12.5559 32.0518 13.2272 31.3982 13.7446C30.7316 14.2722 30.7064 14.409 31.1683 14.9916C31.4566 15.3552 31.5963 15.4077 32.0506 15.3232C33.0626 15.1348 33.656 15.81 33.2768 16.7183C33.0886 17.1689 33.1295 17.2428 34.3456 18.6535C35.0411 19.4602 35.6744 20.1202 35.753 20.1202C35.8316 20.1202 35.896 19.9457 35.896 19.7324ZM47.5902 19.2147C47.2304 19.0878 46.7342 18.8118 46.4877 18.6015C46.1216 18.2891 45.7917 18.2025 44.6886 18.1291C41.3305 17.9055 39.2015 16.5001 38.5651 14.087C38.3211 13.1619 38.3067 12.8426 38.4672 11.913C38.8701 9.57939 40.2405 7.78643 43.9465 4.74407C45.3614 3.58259 46.8542 1.71206 46.8542 1.10073C46.8542 0.945655 47.0467 0.69366 47.2819 0.540737C47.9559 0.102644 48.3997 0.47535 49.3429 2.27163C49.7881 3.11944 50.7586 4.65279 51.4996 5.67909C53.8502 8.93468 54.4894 10.1897 54.9528 12.4589C55.3988 14.6426 54.9018 16.1749 53.2364 17.7509C51.9107 19.0053 50.8601 19.4712 49.3893 19.4568C48.7596 19.4506 47.95 19.3417 47.5902 19.2147ZM49.5228 16.0053C50.4876 14.5445 50.5602 11.2057 49.6872 8.44974C49.3336 7.33378 49.2301 7.61656 49.4581 9.07496C49.7973 11.2438 49.6205 14.3185 49.0549 16.0864C48.9182 16.5138 49.2217 16.4611 49.5228 16.0053ZM52.7262 15.2039C52.9189 14.8091 53.0693 14.1806 53.0693 13.7703C53.0693 13.0444 52.6254 11.2577 52.4807 11.4012C52.4391 11.4425 52.3722 12.1111 52.332 12.887C52.2679 14.1255 52.1518 14.8177 51.8174 15.9559C51.6462 16.5387 52.3653 15.9437 52.7262 15.2039ZM41.9475 15.1648C41.9475 15.1166 41.7863 14.7698 41.5892 14.3941C41.3159 13.8732 41.2285 13.4174 41.2212 12.4749C41.2124 11.3556 41.2695 11.1267 41.8262 10.05C42.4409 8.86101 42.4409 8.86101 41.9379 9.33886C41.3896 9.85973 40.5765 11.4442 40.4156 12.3053C40.2722 13.073 40.6023 14.2055 41.1342 14.7704C41.5409 15.2023 41.9475 15.3995 41.9475 15.1648ZM47.4561 14.0233C47.6736 12.986 47.7118 10.7184 47.523 10.0601C47.4066 9.65445 47.4066 9.65445 47.2088 10.0152C46.5802 11.1614 46.4707 15.244 47.0739 15.0445C47.1733 15.0117 47.3453 14.5521 47.4561 14.0233ZM44.6658 13.021C44.6768 12.1399 44.8035 10.9977 44.952 10.4423C45.3118 9.09694 45.2939 8.95979 44.8169 9.40442C44.2157 9.96471 43.5799 10.9325 43.3185 11.6853C43.0338 12.5052 43.2232 13.3734 43.8472 14.1092C44.5331 14.9178 44.6441 14.7703 44.6658 13.021ZM59.7902 15.5408C58.9701 15.2645 58.0408 14.3118 57.829 13.5301C57.6139 12.7359 57.7276 12.0271 58.2306 11.0267C58.6746 10.1439 59.033 8.94905 59.3481 7.30168C59.6564 5.68965 60.0703 4.64935 60.8684 3.47992C61.2305 2.94923 61.6512 2.27496 61.8032 1.98156C61.9581 1.68258 62.31 1.35088 62.6038 1.22693C63.4142 0.884972 67.1821 0.434952 68.1894 0.559808C69.3319 0.701415 70.4364 1.40279 71.0646 2.38554C71.7021 3.38272 71.8761 4.04196 71.8772 5.46328C71.8782 6.78619 71.0463 9.93732 70.3114 11.3942C69.4276 13.1461 67.6967 14.3232 64.7633 15.167C63.0725 15.6534 60.6622 15.8346 59.7902 15.5408ZM64.3255 13.2C67.3843 12.3306 68.3917 11.3693 69.2317 8.51863C69.7542 6.74526 69.7538 6.73791 69.1257 6.70682C68.0864 6.65537 67.5951 5.72601 68.2815 5.10979C68.4997 4.91382 68.833 4.82337 69.2736 4.8405C69.8903 4.86447 69.9291 4.84061 69.8238 4.50195C69.6106 3.81636 69.2678 3.27382 68.8336 2.935C68.4737 2.65414 68.1862 2.59915 67.1539 2.61367C66.4688 2.6233 65.4309 2.71457 64.8474 2.81649C63.8006 2.99934 63.7758 3.01584 62.9865 4.05649C61.9317 5.44726 61.6405 6.12595 61.2356 8.13669C61.0495 9.0607 60.711 10.2548 60.4834 10.7903C59.7463 12.5241 59.6703 12.9215 60.0056 13.2891C60.1674 13.4665 60.4578 13.643 60.6508 13.6814C61.2919 13.8087 62.947 13.5919 64.3255 13.2ZM61.5177 12.035C60.9513 11.414 61.377 10.3846 62.2004 10.3846C62.6455 10.3846 63.2097 10.9289 63.2097 11.3582C63.2097 11.7985 62.6413 12.3317 62.172 12.3317C61.961 12.3317 61.6666 12.1982 61.5177 12.035ZM66.9715 9.57332C66.7916 9.39483 66.6444 9.10276 66.6444 8.92428C66.6444 8.48393 67.2127 7.95072 67.6821 7.95072C68.4948 7.95072 68.9168 9.08261 68.3079 9.6293C67.9058 9.99037 67.3692 9.9679 66.9715 9.57332ZM64.0639 8.99621C63.6553 8.71233 63.556 7.78049 63.9048 7.50367C64.4035 7.10788 64.8361 7.11557 65.2514 7.52762C65.7679 8.03996 65.7702 8.34593 65.2616 8.85052C64.7938 9.31462 64.5626 9.34274 64.0639 8.99621ZM64.3546 5.30791C63.8918 5.07687 63.7059 4.19749 64.0364 3.8025C64.3464 3.43188 65.2746 3.50915 65.572 3.93033C65.9213 4.42509 65.8929 4.65445 65.4251 5.11855C64.9648 5.57521 64.9096 5.58498 64.3546 5.30791Z" fill="#FFF9E1"/>
<path d="M47.2233 80.5743C46.6617 80.3673 46.0864 80.1026 45.9449 79.9861C45.4563 79.5838 45.2185 78.8779 45.2185 77.8301C45.2185 76.3888 45.8098 75.2707 47.0131 74.4367C47.7964 73.8939 47.9999 73.8281 48.8967 73.8281C50.6242 73.8281 52.2015 74.4328 52.6608 75.2711C52.7882 75.5038 52.8955 75.6028 52.8991 75.4913C52.9027 75.3797 53.0896 75.2885 53.3145 75.2885C53.6416 75.2885 53.7234 75.3696 53.7234 75.6941C53.7234 76.0186 53.6416 76.0997 53.3145 76.0997C52.9329 76.0997 52.9056 76.1538 52.9056 76.911C52.9056 77.6142 52.9492 77.7223 53.2327 77.7223C53.4726 77.7223 53.5598 77.8305 53.5598 78.128C53.5598 78.462 53.4804 78.5339 53.11 78.5349C52.7583 78.5359 52.58 78.6756 52.2921 79.1758C51.3398 80.8304 49.3829 81.3703 47.2233 80.5743ZM49.5708 77.303C49.6407 77.0267 49.5919 76.7993 49.4279 76.6365C49.2049 76.4153 49.1428 76.4252 48.8342 76.7314C48.3099 77.2516 48.3778 77.7223 48.9772 77.7223C49.3651 77.7223 49.4864 77.6366 49.5708 77.303ZM54.9183 80.5762C54.4594 80.1848 54.4594 80.1848 54.4109 75.6712C54.3552 70.4872 54.3683 70.4207 55.443 70.4207C56.4596 70.4207 56.6497 70.7296 56.9867 72.9288C57.1452 73.9632 57.3172 74.8513 57.3688 74.9026C57.4205 74.9538 57.8096 74.7331 58.2335 74.4119C58.8634 73.9347 59.1433 73.8281 59.7657 73.8281C60.7095 73.8281 60.9198 74.0268 60.9198 74.9189C60.9198 75.5107 60.8184 75.7293 60.2704 76.3192C59.6209 77.0182 59.6209 77.0182 60.597 77.481C61.9776 78.1356 62.31 78.5339 62.31 79.5334C62.31 80.5491 62.009 80.8053 60.8154 80.8053C60.0388 80.8053 59.8531 80.7282 58.8925 80.0068C57.8291 79.2083 57.8291 79.2083 57.6453 79.7609C57.2529 80.9403 55.8404 81.3626 54.9183 80.5762ZM64.9031 79.8817C64.2179 79.7487 64.0066 79.2912 63.8555 77.6129C63.6244 75.047 63.6591 73.5676 63.9573 73.2718C64.2458 72.9856 65.1993 72.9329 65.6604 73.1777C65.8271 73.2662 66.0117 73.5765 66.0707 73.8673C66.274 74.869 66.3317 74.9639 66.737 74.9639C67.0524 74.9639 67.1349 75.0481 67.1349 75.3696C67.1349 75.5927 67.2085 75.7752 67.2985 75.7752C67.3884 75.7752 67.462 75.9943 67.462 76.262C67.462 76.5297 67.5356 76.7488 67.6256 76.7488C67.7155 76.7488 67.7891 77.0409 67.7891 77.3978C67.7891 77.982 67.7482 78.0469 67.3802 78.0469C67.0122 78.0469 66.9714 77.982 66.9714 77.3978C66.9714 77.0409 66.9126 76.7488 66.8408 76.7488C66.769 76.7488 66.7138 77.339 66.7182 78.0605C66.7253 79.2479 66.6895 79.4016 66.3399 79.6831C65.9676 79.9828 65.6503 80.0267 64.9031 79.8817ZM66.5924 75.9071C66.5402 75.7776 66.5014 75.8161 66.4936 76.0051C66.4865 76.1761 66.5252 76.272 66.5795 76.2181C66.6339 76.1641 66.6397 76.0242 66.5924 75.9071ZM39.5657 79.2021C38.7491 78.993 37.3674 78.1774 37.0275 77.7039C35.946 76.1971 36.8565 73.6444 38.8294 72.6517C40.1321 71.9963 41.5125 72.0258 42.8431 72.7374C43.9159 73.3111 44.5643 74.0978 44.5643 74.8257C44.5643 75.1289 44.6489 75.2885 44.8096 75.2885C44.9445 75.2885 45.0539 75.4162 45.0527 75.5724C45.0484 76.1141 44.8521 76.5865 44.6312 76.5865C44.5091 76.5865 44.2968 76.8019 44.1596 77.0652C43.8394 77.6796 43.8444 77.7223 44.2372 77.7223C44.4552 77.7223 44.5643 77.8305 44.5643 78.0469C44.5643 78.2848 44.4552 78.3714 44.1554 78.3714C43.8808 78.3714 43.7465 78.2815 43.7465 78.0976C43.7465 77.8757 43.6614 77.9028 43.2967 78.2414C42.3526 79.1177 40.7988 79.5178 39.5657 79.2021ZM41.1352 75.7649C41.3313 75.4013 41.1079 74.9639 40.7261 74.9639C40.4084 74.9639 39.9355 75.5763 40.0415 75.8503C40.1841 76.2188 40.9214 76.1612 41.1352 75.7649ZM69.3106 78.7027C68.8244 78.4967 68.5719 77.9585 67.9719 75.849C67.3689 73.7293 67.3016 72.4644 67.7784 72.2112C68.1875 71.994 69.2113 71.9942 69.3466 72.2115C69.4049 72.3051 69.6588 72.0959 69.918 71.7409C70.7693 70.5751 72.5626 70.4087 73.9347 71.3683C74.3328 71.6466 74.6585 71.8028 74.6585 71.7154C74.6585 71.628 74.8714 71.5565 75.1316 71.5565C75.6127 71.5565 75.8033 71.7905 75.8033 72.3811C75.8033 72.5523 75.8769 72.6923 75.9669 72.6923C76.0569 72.6923 76.1305 72.8749 76.1305 73.098C76.1305 73.3954 76.2177 73.5036 76.4576 73.5036C76.8363 73.5036 76.8608 73.6339 76.557 74.031C76.2453 74.4383 75.9669 74.3809 75.9669 73.9093C75.9669 73.6862 75.8847 73.5036 75.7843 73.5036C75.6718 73.5036 75.6433 73.6438 75.7101 73.8687C75.7698 74.0695 75.8598 74.6354 75.9102 75.1262C75.9877 75.8819 75.9471 76.087 75.6453 76.4649C75.3513 76.833 75.1603 76.9111 74.5541 76.9111C73.5287 76.9111 73.2588 76.7186 72.6687 75.5663C72.1525 74.5583 72.1525 74.5583 72.0112 75.0451C71.9335 75.3128 71.8241 76.1326 71.7682 76.8669C71.6925 77.8588 71.5902 78.2704 71.3699 78.4681C71.0197 78.7826 69.8213 78.919 69.3106 78.7027ZM80.9145 77.6433C80.3514 77.2396 80.4046 76.0329 81.0371 74.8569C81.307 74.3552 81.5278 73.7976 81.5278 73.6179C81.5278 73.2993 81.5193 73.2986 81.1945 73.5902C80.8212 73.9254 79.3048 74.0998 78.3343 73.9192C77.5577 73.7746 76.5091 72.8212 76.2982 72.0678C76.0033 71.0148 76.0962 69.607 76.5193 68.7169C77.1936 67.2985 77.7993 66.935 79.787 66.7563C81.2909 66.6211 81.3123 66.6383 82.9083 69.2678C84.3794 71.6915 84.6356 72.3866 84.6344 73.9516C84.6333 75.6021 84.4119 76.3265 83.6669 77.1189C83.1231 77.6972 82.9506 77.7802 82.1674 77.8398C81.5253 77.8886 81.1815 77.8347 80.9145 77.6433ZM30.4985 76.9753C30.0038 76.8439 29.289 76.588 28.91 76.4066C27.9459 75.945 26.5691 74.5246 25.9948 73.3989C25.545 72.5173 25.5101 72.3205 25.5101 70.664C25.5101 69.0153 25.5456 68.8122 25.9764 68.0003C26.5951 66.8343 27.916 65.5498 29.0265 65.0342C31.4897 63.8905 34.3215 64.0102 35.8677 65.3233C36.8734 66.1773 37.2304 66.9647 37.171 68.1979C37.1225 69.2037 37.1225 69.2037 36.3611 69.2525C35.6417 69.2987 35.544 69.2519 34.5873 68.4051C33.9292 67.8225 33.3707 67.4709 32.9913 67.4003C31.8848 67.1943 30.1416 68.0745 29.3714 69.2281C28.599 70.3849 28.7042 71.1842 29.785 72.371C30.5574 73.2192 31.2889 73.5872 32.9793 73.9777C33.7951 74.1661 34.4111 74.4025 34.5392 74.5764C34.6557 74.7344 34.751 75.2524 34.751 75.7275C34.751 76.5279 34.712 76.6149 34.2194 76.9128C33.568 77.3068 31.8552 77.3356 30.4985 76.9753ZM62.9735 72.3317C62.8335 72.1333 62.7189 71.6952 62.7189 71.3581C62.7189 70.5311 63.1698 70.0961 64.0274 70.0961C64.8849 70.0961 65.3358 70.5311 65.3358 71.3581C65.3358 72.3265 64.9771 72.6923 64.0274 72.6923C63.3869 72.6923 63.1776 72.6207 62.9735 72.3317ZM15.3138 66.2654C13.9561 65.5942 12.761 64.3995 12.0801 63.0328C11.5689 62.0067 11.4745 61.6372 11.4023 60.3809C11.3519 59.5048 11.3962 58.6089 11.513 58.14C11.9344 56.4484 13.3556 55.0184 15.3697 54.2595C16.344 53.8923 19.3657 53.8331 20.4656 54.1596C21.5221 54.4731 22.6678 55.3274 23.2155 56.21C23.6407 56.8951 23.719 57.1972 23.7679 58.3409C23.8412 60.058 23.6886 60.3606 22.7492 60.3606C21.9422 60.3606 21.703 60.157 21.2233 59.0625C20.8262 58.1563 19.9202 57.3479 19.0374 57.1121C17.195 56.6199 14.7876 58.1625 14.8008 59.8268C14.81 60.983 15.7678 62.2752 17.4128 63.3503C18.0366 63.758 18.6233 64.233 18.7165 64.4059C19.0558 65.0348 18.8427 66.2249 18.3301 66.5645C18.2311 66.6301 17.7045 66.6848 17.16 66.6862C16.4172 66.6881 15.9561 66.583 15.3138 66.2654ZM89.329 65.8141C86.5393 64.7877 84.9233 61.599 85.4215 58.1036C85.6436 56.5459 86.0158 55.7592 86.9096 54.958C87.8066 54.1541 88.5657 53.8702 89.8181 53.8702C91.1709 53.8702 91.5047 54.0453 91.5047 54.755C91.5047 55.5909 91.3803 55.7712 90.4336 56.3086C88.7726 57.2514 88.2469 58.2985 88.625 59.9105C88.9856 61.4475 90.1507 62.6303 91.3055 62.6316C92.601 62.6331 94.0448 61.5035 94.9236 59.8008C95.6521 58.3894 96.1062 58.0325 97.0415 58.1362C98.097 58.2532 98.2929 58.5334 98.2885 59.9206C98.2853 60.9253 98.205 61.2496 97.7203 62.2146C97.0016 63.6454 95.8941 64.7432 94.4906 65.4159C93.4928 65.8942 93.2189 65.9503 91.6682 65.9942C90.4851 66.0277 89.7574 65.9717 89.329 65.8141ZM55.6043 65.1486C55.5143 65.1188 55.2364 65.0497 54.9868 64.995C53.9944 64.7776 53.6035 63.8018 54.1183 62.827C54.2456 62.586 54.6136 62.1372 54.9361 61.8296C55.646 61.1526 55.6739 60.767 55.1184 59.303C54.5554 57.8189 53.4074 55.6723 53.0853 55.5013C52.9255 55.4165 52.4862 55.4298 52.0024 55.5339C51.5546 55.6304 49.5691 55.7153 47.5901 55.7227C44.5168 55.7342 43.8487 55.6921 43.0105 55.4343C40.912 54.7888 39.4403 53.6038 39.0046 52.2089C38.8858 51.8286 38.0457 50.1119 37.1378 48.3941C35.9804 46.2043 35.4038 45.2707 35.2087 45.2706C35.0557 45.2705 34.5037 45.3832 33.9821 45.521C31.2417 46.2451 28.6689 45.4577 27.6778 43.5916C27.187 42.6675 27.2071 41.1359 27.726 39.9159C28.2124 38.772 29.0764 37.3943 29.7611 36.6707C30.2498 36.1543 30.3052 35.9916 30.3719 34.8769C30.4733 33.1826 31.1248 31.9932 32.9505 30.1693C39.5919 23.5342 56.6488 16.5874 68.198 15.8138C69.9551 15.6961 72.3999 15.9173 73.4658 16.2904C73.9857 16.4723 74.1971 16.4765 74.5905 16.3124C75.91 15.762 78.2136 15.9235 79.9569 16.6885C80.9396 17.1198 82.1643 18.2641 82.5406 19.1026C82.9001 19.9038 82.9569 21.2896 82.6666 22.1767C82.3337 23.1943 81.3738 24.4946 79.8338 26.0143C78.3827 27.4463 78.3827 27.4463 79.1598 31.3689C79.5872 33.5263 80.0784 35.62 80.2512 36.0216C80.424 36.4232 80.6059 37.1899 80.6555 37.7253C80.9444 40.8478 77.8066 44.5846 71.8426 48.2206C70.9464 48.767 70.1739 49.3155 70.1259 49.4394C70.0112 49.7359 71.2466 53.0771 71.5078 53.1769C71.619 53.2194 72.0974 53.1888 72.5709 53.1089C74.975 52.7033 76.248 54.0675 75.3321 56.0679C74.9256 56.9559 73.3617 58.3063 71.9176 59.0163C70.8108 59.5604 70.6873 59.587 70.0897 59.4094C69.7372 59.3046 69.254 58.9892 69.0159 58.7085C68.5076 58.1092 67.3097 55.7674 66.3166 53.4318C65.9295 52.5213 65.5239 51.7426 65.4153 51.7013C65.3067 51.6599 64.6058 51.8747 63.8576 52.1785C63.1095 52.4823 61.5536 53.0399 60.4002 53.4176C58.5913 54.0098 58.3029 54.1515 58.3029 54.4478C58.3029 54.6367 59.0437 56.3511 59.9491 58.2576C60.8546 60.164 61.6302 61.91 61.6728 62.1375C61.812 62.8806 61.1996 63.5736 59.8618 64.1868C58.3555 64.8773 56.2331 65.3567 55.6043 65.1486ZM57.9995 63.4462C59.3235 63.0363 60.102 62.5619 60.102 62.1649C60.102 61.6354 56.7476 54.7673 56.4622 54.7125C56.0103 54.6257 54.8683 55.0069 54.8683 55.2446C54.8683 55.3689 55.1712 56.0729 55.5414 56.809C57.1765 60.0598 57.3583 61.907 56.1223 62.7104C55.6818 62.9968 55.4657 63.3833 55.6134 63.6204C55.7679 63.8684 56.9035 63.7855 57.9995 63.4462ZM71.6833 57.5918C73.0233 56.8295 74.1678 55.66 74.1678 55.0532C74.1678 54.2736 73.455 54.1317 72.3497 54.6911C70.9865 55.381 70.5191 54.9734 69.5087 52.2131C68.7217 50.0632 68.6745 50.0146 67.8022 50.4561C67.4264 50.6463 67.0776 50.909 67.0269 51.0398C66.9118 51.3374 67.3913 52.5443 68.6994 55.2494C69.6996 57.3178 70.2216 58.0904 70.6168 58.0874C70.7258 58.0866 71.2057 57.8636 71.6833 57.5918ZM52.2514 52.2472C59.5792 50.9408 67.5945 47.5922 72.9557 43.5974C75.5465 41.667 77.2753 39.6825 77.2753 38.639C77.2753 38.0671 74.7323 25.2378 74.566 24.9709C74.3928 24.6928 74.1162 24.8314 73.062 25.7242C67.0155 30.845 55.4417 36.0298 45.2185 38.1974C42.6734 38.7371 40.9559 38.9613 38.4328 39.0831C36.5673 39.1732 36.3015 39.2212 36.2523 39.4766C36.2215 39.6367 37.0612 41.3891 38.1184 43.3709C39.1756 45.3527 40.4821 47.8138 41.0218 48.8401C42.7514 52.1291 42.8447 52.222 44.7656 52.5659C46.0749 52.8003 50.1134 52.6283 52.2514 52.2472ZM53.478 47.949C52.6833 47.6721 51.8035 46.7164 51.6639 45.9781C51.6012 45.6463 51.656 45.1992 51.805 44.8287C52.0299 44.2693 52.1799 44.1683 53.7447 43.5227C54.6775 43.1378 56.7927 42.1689 58.4452 41.3694C62.1589 39.5727 62.7906 39.511 63.6951 40.8567C64.4979 42.0511 64.0956 44.2533 62.8332 45.5747C61.7828 46.6741 59.8562 47.6499 58.0087 48.0183C56.791 48.2611 54.263 48.2224 53.478 47.949ZM57.4034 46.7242C59.4899 46.4283 61.7177 45.121 62.4014 43.7913C62.9106 42.8012 62.7815 41.5592 62.1441 41.3166C61.9947 41.2597 60.8733 41.7226 59.4634 42.4231C58.1304 43.0855 56.2383 43.9656 55.2589 44.3789C53.0643 45.305 52.8991 45.4413 53.2398 46.0454C53.6859 46.8363 55.0478 47.0583 57.4034 46.7242ZM41.321 43.8306C41.1996 43.7543 41.1273 43.4946 41.1574 43.2434C41.2076 42.8246 41.4442 42.6915 44.524 41.349C47.2548 40.1588 47.894 39.9356 48.1631 40.0785C48.5285 40.2724 48.6018 40.9265 48.2852 41.1676C47.9481 41.4243 42.026 43.9725 41.7728 43.9699C41.6439 43.9686 41.4406 43.9058 41.321 43.8306ZM64.3872 35.8269C64.2792 35.7198 64.1909 35.4617 64.1909 35.2532C64.1909 34.8015 64.2547 34.7724 68.8864 33.1045C72.4191 31.8325 72.6958 31.8049 72.6958 32.7243C72.6958 33.0339 72.5457 33.1836 72.0007 33.4175C71.0369 33.8312 64.928 36.0216 64.7382 36.0216C64.6531 36.0216 64.4951 35.934 64.3872 35.8269ZM32.6931 41.1154C32.8354 41.0613 32.9519 40.9123 32.9519 40.7845C32.9519 40.3889 32.303 39.2668 32.0743 39.2668C31.6591 39.2668 30.7953 40.5992 30.9435 41.0111C31.0194 41.2222 32.2239 41.2941 32.6931 41.1154ZM41.7838 35.6109C52.9042 33.9526 68.6653 26.7574 72.6253 21.5313C73.9639 19.7647 73.3759 19.1622 70.1766 19.0221C62.0905 18.6681 46.9941 23.8228 38.1772 29.9482C35.6902 31.6761 33.6061 33.9021 33.6061 34.8307C33.6061 35.9321 37.2797 36.2825 41.7838 35.6109ZM49.7582 29.4986C48.8496 29.2591 48.3261 28.5549 48.3261 27.5721C48.3261 26.883 48.4068 26.6851 48.9165 26.1254C49.921 25.0223 53.2548 23.6003 55.5706 23.2871C57.2907 23.0545 58.6438 24.3851 58.3906 26.0602C58.1415 27.7084 56.2539 28.8343 52.7345 29.4341C51.0365 29.7235 50.6438 29.732 49.7582 29.4986ZM78.154 20.7151C78.5341 19.9431 78.3463 19.3949 77.6567 19.2636C76.9942 19.1374 76.7563 19.3963 76.8862 20.1021C77.161 21.5955 77.613 21.8141 78.154 20.7151ZM97.4283 57.592C97.5829 57.5027 97.7831 57.3041 97.8731 57.1508C98.0112 56.9157 98.0377 56.942 98.0419 57.3182C98.0462 57.6992 97.9811 57.7637 97.5971 57.7595C97.2179 57.7553 97.1914 57.729 97.4283 57.592ZM97.9272 56.3944C96.8424 55.779 92.9329 53.1106 92.1823 52.4732C91.5417 51.9293 91.5047 51.8494 91.5047 51.014C91.5047 50.1995 91.5399 50.1168 91.9544 49.959C92.6986 49.6759 93.5535 49.9299 95.5208 51.0186C96.7419 51.6943 97.3927 51.9752 97.3927 51.8265C97.3927 51.6915 97.5594 51.5985 97.8015 51.5985C98.0264 51.5985 98.2104 51.6658 98.2104 51.7479C98.2104 51.8301 98.436 51.9464 98.7118 52.0065C99.1423 52.1003 99.2064 52.1799 99.1652 52.5693C99.1265 52.9361 99.2574 53.1386 99.8496 53.628C100.802 54.4149 100.822 54.4524 100.825 55.443C100.827 56.1315 100.761 56.3319 100.464 56.5383C99.9133 56.9208 98.7378 56.8541 97.9272 56.3944ZM11.5261 56.2229C11.5261 56.0877 11.3807 55.9796 11.199 55.9796C11.0191 55.9796 10.8719 55.9065 10.8719 55.8173C10.8719 55.7281 11.0559 55.655 11.2808 55.655C11.6079 55.655 11.6897 55.7362 11.6897 56.0607C11.6897 56.2838 11.6529 56.4663 11.6079 56.4663C11.5629 56.4663 11.5261 56.3568 11.5261 56.2229ZM7.8215 55.1592C6.98048 54.7462 5.47841 53.2059 4.97506 52.2403C4.69427 51.7017 4.57995 51.1604 4.52664 50.117C4.48729 49.3468 4.51887 48.6062 4.59683 48.4711C4.67478 48.336 6.39456 47.3874 8.41856 46.3631C11.2187 44.9459 12.1496 44.3987 12.3119 44.0742C12.4881 43.7222 12.6373 43.6478 13.1673 43.6478C14.551 43.6478 15.5169 44.4265 16.9204 46.6735C17.9238 48.2799 17.7403 50.3468 16.4982 51.4287C15.9741 51.8852 15.8373 51.9231 14.7097 51.9231C13.6251 51.9231 13.4888 51.957 13.4888 52.2272C13.4888 52.3944 13.3816 52.8326 13.2507 53.2007C13.1198 53.5689 13.0768 53.8702 13.1553 53.8702C13.2338 53.8702 13.3355 53.7789 13.3813 53.6674C13.4371 53.5314 13.5738 53.5983 13.7957 53.8702C13.9924 54.1112 14.0554 54.3005 13.9509 54.3367C13.8542 54.3701 13.637 54.5344 13.4683 54.7018C13.1598 55.0079 12.3439 55.1269 12.3439 54.8658C12.3439 54.7887 12.0002 54.8982 11.5802 55.1092C10.5583 55.6224 8.81212 55.6456 7.8215 55.1592ZM10.0424 52.2538C10.2041 52.168 10.4272 51.8802 10.5382 51.6143C10.7668 51.0669 10.5929 50.3387 10.0739 49.6696C9.77337 49.2822 9.77337 49.2822 8.77537 49.8402C7.77737 50.3981 7.77737 50.3981 8.0707 50.8766C8.34606 51.3259 9.47089 52.4098 9.66167 52.4098C9.70943 52.4098 9.88077 52.3396 10.0424 52.2538ZM14.6337 48.6698C14.6337 48.3911 14.1988 47.6418 13.8735 47.3598C13.5939 47.1175 13.5351 47.119 13.1112 47.38C12.6518 47.6627 12.6518 47.6627 13.3451 48.2514C14.0148 48.8202 14.6337 49.0211 14.6337 48.6698ZM99.7642 51.8584C98.7651 51.5449 98.0795 51.1483 97.2922 50.4283C96.661 49.8511 96.5749 49.6895 96.5749 49.0827C96.5749 48.6737 96.6728 48.3125 96.8155 48.195C97.1694 47.9036 98.4385 48.0668 99.7642 48.574C100.909 49.0121 100.909 49.0121 100.082 48.2365C99.6276 47.8099 98.9468 47.1976 98.5694 46.8757C97.9469 46.3446 97.8833 46.2206 97.8833 45.537C97.8833 44.5292 98.2745 44.1346 99.2735 44.1346C99.9496 44.1346 100.01 44.1016 100.01 43.729C100.01 43.4044 100.091 43.3233 100.418 43.3233C100.746 43.3233 100.827 43.4044 100.827 43.729C100.827 44.041 100.742 44.135 100.459 44.1361C99.7502 44.1391 101.351 44.9093 103.128 45.4204C104.079 45.6938 104.923 46.0336 105.038 46.1893C105.361 46.6278 105.293 47.6549 104.916 48.0288C104.736 48.2073 104.479 48.3534 104.344 48.3534C104.15 48.3534 104.098 48.5835 104.098 49.4486C104.097 50.7521 103.766 51.4101 102.907 51.8144C102.226 52.1348 100.713 52.156 99.7642 51.8584ZM95.9207 50.8046C95.9207 50.5231 96.2155 50.3005 96.5882 50.3005C96.6709 50.3005 96.7384 50.483 96.7384 50.7061C96.7384 51.0306 96.6567 51.1118 96.3295 51.1118C96.0374 51.1118 95.9207 51.0241 95.9207 50.8046ZM8.74567 44.8648C8.74567 44.5403 8.82745 44.4591 9.15456 44.4591C9.48167 44.4591 9.56345 44.5403 9.56345 44.8648C9.56345 45.1893 9.48167 45.2704 9.15456 45.2704C8.82745 45.2704 8.74567 45.1893 8.74567 44.8648ZM103.076 45.1542C102.72 45.1007 102.626 44.9999 102.626 44.6705C102.626 44.28 102.664 44.2606 103.24 44.355C103.577 44.4103 103.945 44.4564 104.058 44.4573C104.17 44.4583 104.262 44.6417 104.262 44.8648C104.262 45.2893 104.153 45.316 103.076 45.1542ZM3.83795 44.4698C2.52713 44.0742 1.69693 43.2863 1.29594 42.0571C0.724523 40.3056 1.32869 37.9728 2.65233 36.8199C3.81502 35.8071 6.39186 34.9464 8.78859 34.7702C10.3597 34.6547 10.7083 34.8707 10.7083 35.9593C10.7083 36.9231 10.3931 37.1658 7.87727 38.1384C5.47627 39.0666 5.14289 39.2714 4.6598 40.1144C4.38711 40.5903 4.35102 40.7881 4.4899 41.0455C4.8265 41.6695 5.18881 41.659 10.3812 40.8759C12.0097 40.6303 12.9981 41.0167 12.9981 41.8991C12.9981 42.0793 13.1208 42.1875 13.3252 42.1875C13.5651 42.1875 13.6523 42.2957 13.6523 42.5931C13.6523 42.8574 13.5608 42.9988 13.3897 42.9988C13.2453 42.9988 12.9038 43.1852 12.6309 43.413C12.358 43.6409 11.9241 43.869 11.6668 43.9201C11.4095 43.9711 11.199 44.1133 11.199 44.236C11.199 44.4885 10.4394 44.548 10.354 44.3022C10.32 44.2046 9.71243 44.2341 8.74567 44.3804C7.09955 44.6295 4.52281 44.6765 3.83795 44.4698ZM104.036 43.9557C102.753 43.5927 98.4264 41.8865 97.0308 41.193C96.517 40.9376 96.0131 40.5739 95.911 40.3848C95.6466 39.8946 95.8615 38.6606 96.247 38.4559C96.9291 38.0938 98.3679 38.4138 99.5563 39.192C99.8917 39.4116 100.186 39.5913 100.21 39.5913C100.235 39.5913 100.255 39.135 100.256 38.5772C100.257 36.5689 101.229 35.7775 103.69 35.7794C104.883 35.7804 105.285 35.8467 105.816 36.1296C107.293 36.9175 107.86 37.9618 107.86 39.8905C107.86 40.9063 107.775 41.3646 107.451 42.0908C107.226 42.5953 107.042 43.1844 107.042 43.3999C107.042 44.2973 105.955 44.4983 104.036 43.9557ZM104.541 39.6747C104.234 39.0358 103.562 38.5383 103.194 38.6782C102.967 38.7646 102.967 38.8228 103.196 39.2617C103.336 39.5298 103.685 40.0144 103.972 40.3385C104.478 40.9108 104.498 40.9177 104.651 40.5784C104.764 40.3265 104.733 40.0743 104.541 39.6747ZM99.059 43.5379C99.2109 43.4981 99.3665 43.3058 99.4048 43.1105C99.462 42.8182 99.4783 42.8343 99.4966 43.2016C99.5149 43.5677 99.4528 43.6444 99.1509 43.629C98.8901 43.6157 98.8634 43.5891 99.059 43.5379ZM35.0975 21.9775C34.8246 21.7497 33.5125 20.3036 32.1819 18.764C25.6485 11.2048 25.2648 10.7348 25.2648 10.2911C25.2648 9.99073 25.4937 9.62804 26.0008 9.12496C26.4056 8.72337 26.7368 8.29029 26.7368 8.16258C26.7368 7.91287 25.1295 7.1278 24.0026 6.82708C23.2661 6.63052 22.9696 6.30246 23.0958 5.82366C23.2052 5.40877 23.662 5.30713 24.4597 5.52023C25.7804 5.87303 25.6642 5.15562 24.209 3.97264C23.4576 3.3618 23.3038 2.98391 23.6619 2.6286C24.0292 2.26423 24.5737 2.43257 25.3938 3.16405C25.844 3.56565 26.2936 3.89422 26.3928 3.89422C26.7222 3.89422 26.58 3.25048 25.9969 2.10178C25.5259 1.17397 25.4532 0.906045 25.599 0.635772C25.7242 0.403747 25.9084 0.320067 26.2162 0.35535C26.5739 0.396342 26.7672 0.615627 27.2619 1.54146C27.5957 2.16616 28.1723 3.44395 28.5432 4.381C28.9142 5.31805 29.2872 6.25699 29.3721 6.46753C29.4751 6.72304 29.6201 6.82346 29.8081 6.76951C31.476 6.29074 31.5543 6.28294 32.1585 6.53537C33.8661 7.24867 36.5288 13.3063 37.4523 18.5787C37.8931 21.0953 37.4754 22.3918 36.2236 22.3918C35.787 22.3918 35.4417 22.2648 35.0975 21.9775ZM36.1767 20.3304C36.2355 20.1783 36.1577 19.3151 36.0037 18.4122C35.2483 13.9826 32.5162 7.78845 31.3179 7.78845C30.9561 7.78845 28.5168 8.97228 27.6267 9.5799C27.2272 9.85258 26.9012 10.1634 26.9023 10.2707C26.9049 10.5303 29.0131 12.9808 29.2339 12.9808C29.3289 12.9808 29.7318 12.7918 30.1291 12.5607C31.0513 12.0246 31.6434 12.1182 31.6434 12.8C31.6434 13.1594 31.498 13.3576 30.9892 13.6917C30.6294 13.9279 30.335 14.1876 30.335 14.2687C30.335 14.3498 30.5337 14.6591 30.7765 14.956C31.0194 15.2529 31.2464 15.5323 31.281 15.5769C31.3156 15.6215 31.6788 15.658 32.0881 15.658C32.9702 15.658 33.3291 16.0115 32.9916 16.5477C32.8798 16.7253 32.7883 16.9752 32.7883 17.103C32.7883 17.4268 35.5579 20.607 35.8398 20.607C35.9662 20.607 36.1178 20.4825 36.1767 20.3304ZM47.5949 18.8879C47.2378 18.7582 46.7594 18.4799 46.5318 18.2695C46.1793 17.9436 45.9002 17.8748 44.6461 17.8047C42.0581 17.6601 40.1015 16.6523 39.2619 15.0313C37.8957 12.3937 39.0818 9.16495 42.4052 6.4749C45.1842 4.22552 46.9155 2.33173 47.12 1.31769C47.2233 0.804955 47.5438 0.585171 47.9811 0.727058C48.1258 0.774021 48.6023 1.50021 49.04 2.3408C49.4776 3.1814 50.515 4.81793 51.3453 5.97753C52.1756 7.13714 53.1602 8.6679 53.5332 9.37923C54.3501 10.937 54.9449 13.2277 54.8021 14.2657C54.5579 16.04 53.123 17.9027 51.3645 18.728C50.3272 19.2148 48.6867 19.2844 47.5949 18.8879ZM49.4622 16.5591C51.0883 14.9459 50.9624 10.0462 49.1941 6.12765C48.374 4.31014 47.8026 4.46198 48.4397 6.32812C49.3076 8.87009 49.5632 12.3656 49.0507 14.6845C48.5924 16.7583 48.5831 16.875 48.8771 16.875C49.0238 16.875 49.2871 16.7328 49.4622 16.5591ZM52.4472 16.1182C53.3936 15.1308 53.6039 13.9129 53.1389 12.1118C52.84 10.954 52.5136 10.3846 52.1488 10.3846C51.9258 10.3846 51.9054 10.5577 52.0006 11.6421C52.1173 12.9726 51.924 14.6016 51.5036 15.8302C51.1014 17.0054 51.4846 17.1224 52.4472 16.1182ZM42.5139 15.7486C42.5663 15.6646 42.3682 15.14 42.0738 14.5827C41.6158 13.7159 41.5386 13.4041 41.5389 12.4233C41.5394 11.123 41.8364 10.382 42.9266 8.96154C44.1637 7.3497 43.626 7.12836 42.1579 8.64512C39.9088 10.9687 39.4376 13.5682 41.0003 15.0306C41.8221 15.7995 42.3316 16.0413 42.5139 15.7486ZM47.6607 14.6826C47.9777 13.5866 47.9951 9.55411 47.6844 9.18269C47.3405 8.77161 47.0896 9.11577 46.7066 10.5239C46.0944 12.7751 46.3449 15.6974 47.1372 15.5469C47.3257 15.5111 47.5081 15.21 47.6607 14.6826ZM44.9888 13.1428C45.0109 12.0163 45.1293 10.9234 45.2876 10.3846C45.7543 8.79599 45.788 8.43749 45.4706 8.43749C45.1563 8.43749 44.8849 8.72126 43.832 10.151C43.4338 10.6918 43.0419 11.4255 42.9613 11.7814C42.7381 12.7671 43.0878 13.9009 43.8207 14.5672C44.8122 15.4686 44.9464 15.305 44.9888 13.1428ZM59.8792 15.1882C59.0185 14.8685 58.332 14.1771 58.1276 13.4241C57.9411 12.7369 58.0867 12.1074 58.8498 10.3035C59.0763 9.76802 59.4096 8.59975 59.5905 7.70732C60.0241 5.56807 60.2344 5.02 61.211 3.48292C62.5881 1.3155 62.4383 1.40604 65.2169 1.06118C68.0444 0.710248 68.9671 0.822543 69.9657 1.63915C71.0238 2.50445 71.443 3.42179 71.5212 5.04289C71.5803 6.27026 71.5199 6.70148 71.0642 8.2994C70.096 11.695 69.1622 13.0236 67.0453 14.018C64.7161 15.1121 61.2138 15.684 59.8792 15.1882ZM64.323 13.5278C67.7126 12.558 68.6583 11.6092 69.6632 8.17048C70.2192 6.26787 70.2187 6.26446 69.4364 6.38856C68.4584 6.54371 67.9337 5.88337 68.5495 5.27242C68.7218 5.1015 68.9434 5.04343 69.1628 5.11167C70.2991 5.46494 70.3019 5.46382 70.1781 4.69605C69.9112 3.03987 68.9656 2.26865 67.2167 2.28077C65.8413 2.29029 63.8074 2.63044 63.4713 2.90714C63.338 3.01692 62.8667 3.63633 62.4241 4.2836C61.6208 5.45808 61.1938 6.48008 60.9935 7.70732C60.7874 8.96977 60.3961 10.3166 59.9248 11.3854C59.3688 12.6465 59.3296 13.1488 59.7574 13.5329C60.504 14.2032 61.9679 14.2016 64.323 13.5278ZM61.7654 11.8688C61.6423 11.7895 61.5713 11.5249 61.6018 11.2594C61.6475 10.8626 61.7287 10.7903 62.1287 10.7903C62.7116 10.7903 63.0462 11.2258 62.7832 11.6421C62.5785 11.966 62.0863 12.0757 61.7654 11.8688ZM67.1676 9.3786C66.6999 8.91455 67.1303 8.2062 67.821 8.30334C68.0993 8.34248 68.2122 8.47918 68.252 8.82553C68.3284 9.48912 67.6353 9.84259 67.1676 9.3786ZM64.3136 8.74901C63.782 8.44182 64.1071 7.46393 64.7409 7.46393C64.9118 7.46393 65.3358 7.98437 65.3358 8.1941C65.3358 8.42461 64.9021 8.92784 64.7108 8.91933C64.6497 8.91662 64.471 8.83998 64.3136 8.74901ZM64.4771 5.01704C64.1006 4.79949 64.1103 4.11069 64.4927 3.90765C64.71 3.7923 64.8933 3.81601 65.147 3.99227C65.5644 4.28234 65.5952 4.58727 65.2423 4.93732C64.9444 5.23287 64.865 5.24115 64.4771 5.01704Z" fill="#FFF9E1"/>
<path d="M47.5188 80.3141C46.4337 79.927 45.7632 79.318 45.5142 78.4934C45.111 77.1585 46.2562 75.1552 47.8833 74.3491C48.2815 74.1518 48.7982 73.9904 49.0317 73.9904C49.6157 73.9904 51.5422 74.702 51.9504 75.0685C53.1098 76.1095 52.9322 78.0097 51.538 79.4809C50.4321 80.6478 49.181 80.9072 47.5188 80.3141ZM49.6345 77.7224C50.0274 77.3326 50.0547 76.8643 49.7046 76.517C49.3279 76.1433 49.0605 76.2017 48.5859 76.7613C48.0901 77.3459 48.0534 77.6432 48.4487 77.8716C48.89 78.1266 49.276 78.078 49.6345 77.7224ZM55.3313 80.4751C55.1812 80.3882 54.9326 79.9904 54.7789 79.5911C54.5352 78.958 54.5097 78.3917 54.58 75.1702C54.6244 73.138 54.7161 71.3456 54.7837 71.1869C54.9681 70.7546 55.4639 70.5404 55.83 70.7348C56.2879 70.9779 56.6008 71.9283 56.8375 73.7948C56.9539 74.7135 57.1074 75.5008 57.1784 75.5443C57.2494 75.5879 57.7339 75.3015 58.255 74.908C59.4697 73.9907 59.8587 73.8965 60.3638 74.3975C60.8577 74.8876 60.7696 75.141 59.7371 76.2011C58.9272 77.0325 58.9272 77.0325 60.2888 77.7488C61.0803 78.1652 61.7477 78.6371 61.8827 78.8757C62.3782 79.7514 61.5958 80.7805 60.5995 80.5634C60.3261 80.5038 59.5812 80.0505 58.9442 79.556C58.3072 79.0616 57.7273 78.7205 57.6554 78.7982C57.5835 78.8758 57.4366 79.2129 57.3289 79.5473C57.0235 80.4954 56.104 80.9225 55.3313 80.4751ZM64.8257 79.5061C64.3686 79.2411 64.1902 78.5188 64.0445 76.3432C63.8791 73.8713 63.9855 73.4504 64.7953 73.3724C65.1943 73.334 65.3745 73.4114 65.5679 73.7041C65.8848 74.184 66.4807 77.0163 66.4807 78.0429C66.4807 79.2905 65.6781 80.0002 64.8257 79.5061ZM39.1716 78.6842C37.0919 77.7483 36.4404 76.5015 37.1832 74.8792C37.7649 73.609 39.516 72.3732 40.7397 72.3694C41.5312 72.3669 43.5041 73.4198 43.9006 74.0562C44.4531 74.9432 44.484 75.4846 44.037 76.4531C43.0477 78.597 41.0319 79.5214 39.1716 78.6842ZM40.9731 76.2583C41.5164 75.9698 41.6793 75.4832 41.3828 75.0342C41.0506 74.5312 40.7871 74.5367 40.1609 75.0595C39.5657 75.5563 39.5163 75.9825 40.0256 76.2262C40.5023 76.4543 40.5979 76.4575 40.9731 76.2583ZM69.3664 78.1985C69.0511 77.9524 68.8078 77.4455 68.4512 76.2919C67.6021 73.5446 67.55 73.2367 67.8555 72.7741C68.1652 72.3052 68.933 72.2189 69.2649 72.6157C69.4447 72.8306 69.5729 72.7522 70.227 72.0277C70.9105 71.2707 71.06 71.1844 71.8117 71.1127C72.8272 71.0159 73.3616 71.2618 74.2769 72.2468C75.0027 73.028 75.6398 74.4906 75.6398 75.3757C75.6398 76.1091 75.1618 76.5865 74.4277 76.5865C73.7677 76.5865 73.3121 76.1219 72.707 74.8312C72.4883 74.3647 72.2314 74.0088 72.1361 74.0403C71.8579 74.1323 71.5771 75.2866 71.5635 76.3944C71.5506 77.4423 71.3704 77.9757 70.9109 78.3257C70.5156 78.6267 69.8444 78.5714 69.3664 78.1985ZM81.049 77.1326C80.6048 76.5723 80.6197 76.379 81.1834 75.3893C81.7372 74.417 81.9149 73.7161 81.7614 73.1093C81.6511 72.6733 81.6511 72.6733 81.301 72.9996C80.2914 73.9405 78.7963 74.0184 77.6436 73.19C75.8127 71.8742 76.0626 68.7177 78.0985 67.4436C78.5585 67.1557 80.685 66.9215 80.9798 67.1261C81.2619 67.3219 83.2718 70.5151 83.8658 71.711C84.5461 73.0808 84.5995 74.7642 84.0012 75.9825C83.2664 77.4788 81.782 78.0571 81.049 77.1326ZM79.618 70.948C79.8051 70.6327 79.8754 69.8276 79.7349 69.6102C79.6002 69.4018 79.5432 69.4133 79.3315 69.6913C79.0774 70.0248 78.9906 70.7702 79.1835 70.9615C79.3281 71.105 79.5286 71.0988 79.618 70.948ZM31.2291 76.8344C28.9578 76.3438 27.2959 75.073 26.293 73.06C25.7599 71.9899 25.6831 71.6891 25.6853 70.6816C25.6885 69.2156 26.2139 68.0197 27.4024 66.773C28.8111 65.2954 30.4699 64.5672 32.4488 64.5578C34.2053 64.5495 35.7134 65.315 36.4727 66.6004C37.0764 67.6223 37.1644 68.3509 36.7358 68.7761C36.305 69.2035 36.0568 69.1151 34.9426 68.1374C33.8307 67.1619 32.9717 66.8983 31.8072 67.1754C30.225 67.552 28.8388 68.7885 28.6034 70.0332C28.2379 71.9665 29.8321 73.6253 32.6327 74.2256C33.6319 74.4398 34.0062 74.5991 34.259 74.918C34.6364 75.394 34.6602 75.6016 34.4017 76.1645C34.2056 76.5913 33.207 77.0826 32.5806 77.0604C32.38 77.0533 31.7718 76.9516 31.2291 76.8344ZM63.7003 72.4174C62.6549 72.0468 62.9445 70.4207 64.0558 70.4207C64.7727 70.4207 65.2841 71.3832 64.8835 71.9784C64.7714 72.145 64.1122 72.5458 63.9972 72.5172C63.9688 72.5102 63.8352 72.4653 63.7003 72.4174ZM16.4328 66.3363C15.6775 66.1197 13.7858 64.8639 13.2264 64.2077C12.9822 63.9213 12.5737 63.2461 12.3187 62.7073C10.7714 59.4385 11.8162 56.3512 14.9918 54.8086C17.5066 53.587 20.763 54.0425 22.3958 55.8442C23.6253 57.2008 23.9955 59.2181 23.1409 59.9046C22.6084 60.3323 22.1671 60.0557 21.5703 58.92C20.8865 57.6189 20.7346 57.4477 19.9492 57.0932C18.4933 56.4362 16.0308 56.9014 15.1616 57.9976C13.7593 59.7663 14.5807 61.9534 17.3323 63.7767C18.332 64.4391 18.5471 64.6988 18.5538 65.251C18.5649 66.1644 17.5839 66.6664 16.4328 66.3363ZM90.0246 65.6564C88.4546 65.2363 87.0765 63.9765 86.216 62.1746C85.7326 61.1621 85.6985 60.9732 85.6985 59.3059C85.6985 57.6775 85.7388 57.4396 86.1586 56.5914C86.8498 55.195 88.1822 54.2338 89.6549 54.0691C90.5796 53.9657 91.219 54.3538 91.1466 54.9746C91.1077 55.3077 90.8469 55.5701 90.0327 56.0951C88.7404 56.9284 88.2331 57.7384 88.2345 58.9663C88.2372 61.4389 89.7178 63.135 91.673 62.9053C93.1961 62.7263 94.1981 61.9052 95.2802 59.9492C96.1686 58.3433 96.7274 58.0564 97.6159 58.7498C98.2907 59.2763 98.2189 60.3067 97.3932 61.9433C96.4172 63.8777 94.9218 65.1036 92.9014 65.6256C91.7557 65.9216 91.044 65.9292 90.0246 65.6564ZM98.0469 56.0454C97.6421 55.8161 96.1471 54.8188 94.7247 53.8293C91.7511 51.7607 91.2089 51.0877 91.9673 50.4068C92.5825 49.8545 92.846 49.9514 96.8744 52.2122C100.192 54.0738 101.094 55.0687 100.334 56.0272C99.8755 56.6054 99.0469 56.6121 98.0469 56.0454ZM8.81305 55.1857C8.11672 55.0093 6.93211 54.1733 6.20484 53.3451C4.92841 51.8914 4.26416 49.4968 4.92423 48.7285C5.09199 48.5332 6.77485 47.5979 8.66391 46.6499C11.0852 45.4348 12.2434 44.7616 12.5894 44.368C13.0321 43.8645 13.1303 43.8238 13.5889 43.9543C14.4713 44.2054 14.7567 44.4316 15.7116 45.6368C16.8792 47.1104 17.2424 47.8896 17.247 48.9301C17.2497 49.558 17.1408 49.922 16.782 50.4832C16.1552 51.4636 15.369 51.834 14.2031 51.6981C13.3525 51.5989 13.3297 51.607 13.2333 52.0438C12.9161 53.4816 12.4604 54.1805 11.4613 54.7613C10.6936 55.2077 9.59473 55.3838 8.81305 55.1857ZM10.2423 52.5591C10.7117 52.3098 11.0784 51.3519 10.9424 50.7299C10.7654 49.9195 10.1732 49.0051 9.82451 49.0037C9.38297 49.0019 7.43724 50.1116 7.43724 50.3651C7.43724 50.6721 8.2695 51.8459 8.74569 52.2106C9.43831 52.7409 9.75907 52.8156 10.2423 52.5591ZM14.8539 48.5473C14.824 47.907 14.0834 46.7308 13.7102 46.7308C13.3288 46.7308 12.3439 47.3687 12.3439 47.6158C12.3439 47.731 12.6783 48.131 13.0869 48.5047C13.6895 49.0557 13.9291 49.1747 14.3545 49.1339C14.8348 49.0878 14.8769 49.0384 14.8539 48.5473ZM100.01 51.6091C98.6069 51.1843 96.902 49.8187 96.902 49.1201C96.902 48.7372 97.2661 48.1911 97.5214 48.1911C97.5793 48.1911 98.3918 48.4532 99.3269 48.7735C101.884 49.6496 101.94 49.1673 99.5151 47.1531C98.3676 46.2002 98.2104 46.0051 98.2104 45.533C98.2104 44.3949 99.1941 44.1641 100.76 44.9348C101.292 45.1963 102.303 45.5555 103.008 45.7329C103.712 45.9102 104.43 46.1821 104.602 46.3371C105.193 46.8673 104.913 47.78 104.068 48.0761C103.842 48.1554 103.808 48.3267 103.874 49.0337C104.029 50.6804 103.007 51.7723 101.335 51.7469C100.831 51.7392 100.234 51.6772 100.01 51.6091ZM4.21916 44.2256C3.09496 43.8768 2.38334 43.3399 1.87124 42.4541C0.94337 40.8492 1.32431 38.7092 2.79519 37.2636C3.14441 36.9204 3.64663 36.528 3.91124 36.3915C5.31578 35.6672 8.89157 34.7938 9.6644 34.9862C10.4853 35.1906 10.6442 36.3006 9.92522 36.8085C9.67441 36.9856 8.58881 37.4771 7.51278 37.9007C5.29227 38.7747 4.75372 39.097 4.409 39.7583C4.11632 40.3198 4.09185 41.2376 4.3624 41.506C4.66237 41.8036 6.82781 41.7429 8.93035 41.3779C11.276 40.9707 11.707 40.972 12.2401 41.388C13.0988 42.0581 12.685 43.2495 11.4586 43.6377C10.7899 43.8494 6.29855 44.4621 5.51674 44.4483C5.17871 44.4423 4.5948 44.3421 4.21916 44.2256ZM103.771 43.5047C102.286 43.0184 98.5557 41.5412 97.4744 41.0112C96.1472 40.3607 95.8008 39.7405 96.3388 38.9784C96.7793 38.3546 97.7909 38.552 99.4995 39.595C100.634 40.2874 100.682 40.2596 100.567 38.9829C100.479 38.0074 100.51 37.8272 100.852 37.3346C101.509 36.3891 102.02 36.1199 103.294 36.0484C105.782 35.909 107.439 37.2526 107.652 39.5801C107.718 40.3029 107.653 40.6805 107.328 41.4579C107.104 41.993 106.871 42.7038 106.811 43.0374C106.618 44.1044 105.927 44.2106 103.771 43.5047ZM104.922 40.7925C105.284 39.8485 104.318 38.2933 103.37 38.2933C102.406 38.2933 102.549 39.291 103.693 40.547C104.397 41.3203 104.697 41.3802 104.922 40.7925Z" fill="#FFF9E1"/>
<path d="M47.672 80.2039C45.4667 79.4509 44.9635 77.7184 46.3846 75.7721C46.916 75.0444 48.359 74.1564 49.0138 74.1542C49.7341 74.1517 51.6504 74.9175 52.0398 75.3634C52.8268 76.2648 52.6253 77.9786 51.5854 79.228C50.5975 80.4148 49.2639 80.7474 47.672 80.2039ZM49.7238 77.8108C50.2449 77.2939 50.2452 76.672 49.7245 76.3334C49.1761 75.977 48.8138 76.0842 48.3729 76.7333C47.9 77.4295 47.8981 77.8548 48.3671 78.0418C48.9764 78.2848 49.302 78.2293 49.7238 77.8108ZM55.2157 80.0637C54.7302 79.4514 54.6482 78.5238 54.746 74.7506C54.8269 71.6281 54.8604 71.33 55.1638 71.029C55.4937 70.7017 55.4937 70.7017 55.8951 71.1C56.3062 71.5078 56.5201 72.3723 56.7644 74.6126C56.8284 75.2001 56.965 75.6741 57.0831 75.7191C57.1968 75.7624 57.7467 75.4642 58.3051 75.0564C59.3969 74.259 60.141 74.0966 60.4014 74.5988C60.6174 75.0156 60.4821 75.2762 59.5609 76.2174C59.1045 76.6837 58.7636 77.0949 58.8033 77.1312C58.843 77.1674 59.3539 77.4325 59.9386 77.7203C61.8006 78.6366 62.3171 79.4192 61.5571 80.1731C61.0568 80.6695 60.42 80.4807 59.0288 79.4236C58.3847 78.9341 57.7796 78.5336 57.6841 78.5336C57.5887 78.5336 57.4223 78.8075 57.3143 79.1421C56.8927 80.4482 55.8749 80.8952 55.2157 80.0637ZM64.7153 79.107C64.2204 78.4829 63.9337 74.2501 64.3524 73.7496C64.6491 73.3949 65.2922 73.4439 65.5045 73.8374C65.7526 74.2974 66.3173 77.2569 66.3173 78.0976C66.3173 79.3801 65.3933 79.9622 64.7153 79.107ZM38.8129 78.3155C37.1058 77.4214 36.6565 76.3409 37.3775 74.8632C38.1137 73.3545 40.0987 72.2694 41.4095 72.6591C42.2576 72.9112 43.5023 73.7173 43.8452 74.2364C44.4756 75.1909 44.0131 76.8472 42.8277 77.8797C41.5186 79.02 40.3916 79.1423 38.8129 78.3155ZM41.3059 76.1122C41.8751 75.5475 41.8852 75.4599 41.445 74.9047C40.9942 74.3362 40.6486 74.3657 40.0016 75.0279C39.3892 75.6547 39.3845 76.0752 39.9863 76.3772C40.5833 76.6769 40.7757 76.6383 41.3059 76.1122ZM69.4636 78.1205C69.1206 77.8821 68.4665 76.094 67.9442 73.967C67.6424 72.7378 68.302 72.1026 69.1891 72.7683C69.6362 73.1037 69.6817 73.0868 70.0894 72.4322C70.8815 71.1608 72.2969 70.8629 73.486 71.7175C74.2604 72.274 74.8622 73.1098 75.2247 74.1325C75.7379 75.5802 75.4201 76.4243 74.3618 76.4243C73.8143 76.4243 73.5614 76.133 72.6758 74.4829C72.462 74.0845 72.2134 73.7559 72.1235 73.7527C71.8308 73.7425 71.402 75.3425 71.3946 76.4722C71.3885 77.4213 71.3316 77.6303 70.986 77.9731C70.5257 78.4298 69.9842 78.4822 69.4636 78.1205ZM81.2008 77.0733C80.7645 76.6404 80.7871 76.3734 81.3437 75.3893C81.921 74.3687 82.0612 73.8129 81.9242 73.0882C81.7992 72.4273 81.5591 72.3846 81.0417 72.931C79.9004 74.1362 77.7076 73.6567 76.8517 72.0147C76.4747 71.2915 76.5095 69.8138 76.9224 69.0109C77.5013 67.8851 78.2359 67.3832 79.5015 67.2487C80.1601 67.1787 80.7072 67.1959 80.8613 67.2914C81.003 67.3793 81.5774 68.1741 82.1377 69.0576C84.1016 72.1546 84.5085 73.3518 84.1543 74.9908C83.7433 76.8924 82.1505 78.0155 81.2008 77.0733ZM79.6862 71.0291C80.1041 70.5027 80.0699 69.2848 79.6372 69.2848C79.1389 69.2848 78.6462 70.7529 79.0201 71.1238C79.1928 71.2952 79.5108 71.25 79.6862 71.0291ZM31.5664 76.738C29.1079 76.3302 27.3327 74.987 26.2916 72.7468C25.0517 70.0788 26.414 66.9374 29.4584 65.4447C30.5044 64.9319 30.8836 64.8341 32.0664 64.7725C33.1338 64.717 33.6252 64.7666 34.2139 64.9897C35.7335 65.5654 37.0801 67.3255 36.8119 68.3854C36.6403 69.0639 36.0026 68.9273 34.9696 67.9906C33.6134 66.761 32.5675 66.6016 30.8258 67.3589C29.4482 67.9578 28.3724 69.3354 28.3724 70.5005C28.3724 72.2664 29.9977 73.8165 32.3795 74.3222C32.9193 74.4368 33.5622 74.6294 33.8083 74.7502C34.764 75.2194 34.4694 76.4236 33.3215 76.7398C32.6423 76.927 32.706 76.927 31.5664 76.738ZM63.5732 72.1152C63.1727 71.8369 63.0807 71.1004 63.406 70.7776C63.5139 70.6705 63.7936 70.5829 64.0275 70.5829C64.5747 70.5829 64.8453 70.8591 64.8453 71.4175C64.8453 71.803 64.3592 72.3678 64.0275 72.3678C63.9776 72.3678 63.7731 72.2541 63.5732 72.1152ZM16.4074 66.1416C14.0265 65.2836 12.2428 63.1625 11.8458 60.7169C11.5529 58.9123 12.2517 56.962 13.5774 55.8843C16.8777 53.2013 22.204 54.0949 23.2241 57.5028C23.5142 58.472 23.5269 58.9141 23.2801 59.4516C22.8937 60.2929 22.2137 60.0082 21.6638 58.7749C21.0054 57.2983 19.9794 56.6383 18.3328 56.6322C17.0195 56.6273 16.215 56.8979 15.3831 57.6244C14.5715 58.3331 14.2089 59.3062 14.3806 60.3144C14.545 61.2796 15.3627 62.5584 16.1969 63.1549C16.6061 63.4475 17.2498 63.909 17.6274 64.1805C19.1078 65.2451 18.1577 66.7723 16.4074 66.1416ZM90.0006 65.4881C88.4602 65.0767 87.1642 63.8654 86.3251 62.053C85.7521 60.8155 85.6095 58.7549 86.0037 57.4098C86.6089 55.3444 89.2805 53.6102 90.6977 54.3627C91.2041 54.6315 91.1034 55.297 90.5071 55.622C88.7309 56.5903 88.0802 57.4925 88.0737 58.9961C88.0601 62.1254 90.4419 63.9361 92.9443 62.699C93.9034 62.2249 94.6699 61.414 95.3442 60.1603C96.1966 58.5754 96.8524 58.2019 97.5563 58.9002C98.0843 59.4241 97.9895 60.4311 97.2795 61.8397C96.5665 63.2542 95.5224 64.3244 94.2561 64.9386C92.6653 65.7104 91.4301 65.8698 90.0006 65.4881ZM95.966 54.4803C93.1364 52.5957 91.8319 51.5196 91.8319 51.07C91.8319 50.6995 92.2844 50.3005 92.7045 50.3005C93.1238 50.3005 97.1237 52.4245 98.783 53.5284C99.4868 53.9966 100.05 54.5142 100.246 54.8719C100.548 55.4259 100.55 55.4742 100.283 55.879C100.058 56.2194 99.8728 56.3041 99.3531 56.3041C98.7977 56.3041 98.3092 56.041 95.966 54.4803ZM8.74579 54.9776C6.63716 54.3834 4.43756 51.0762 4.91576 49.219C5.06115 48.6544 5.18207 48.5775 8.81674 46.7379C11.3002 45.4809 12.6198 44.7235 12.7219 44.4964C12.9193 44.0577 13.1228 43.9915 13.7563 44.16C14.386 44.3276 15.2232 45.1602 16.2364 46.6265C16.9678 47.6849 17.0053 47.7933 17.0053 48.8457C17.0053 50.0847 16.7519 50.575 15.7636 51.2479C15.2305 51.6109 14.4682 51.6677 13.4959 51.4167C13.3307 51.374 13.1989 51.5822 13.0665 52.0949C12.7964 53.1406 12.4484 53.7457 11.7844 54.324C10.9045 55.0905 9.9072 55.305 8.74579 54.9776ZM10.5738 52.4315C11.031 52.0262 11.0985 51.8628 11.0985 51.1604C11.0985 50.1338 10.3973 48.8391 9.8429 48.8421C9.40066 48.8444 7.60518 49.8155 7.37569 50.1765C7.05727 50.6773 8.07302 52.085 9.15468 52.642C9.82639 52.9879 9.97022 52.9665 10.5738 52.4315ZM14.9652 49.0784C15.3844 48.5772 14.3703 46.5685 13.6981 46.5685C13.4207 46.5685 12.3275 47.1865 12.1514 47.4429C12.0201 47.6342 12.6785 48.4476 13.3809 48.9618C13.9578 49.3842 14.6658 49.4363 14.9652 49.0784ZM100.009 51.4469C98.7615 51.0706 97.0657 49.7082 97.0657 49.0827C97.0657 48.324 97.4494 48.2672 98.9084 48.8102C100.723 49.4854 101.291 49.5866 101.418 49.2575C101.568 48.8689 101.118 48.3064 99.7571 47.1812C98.4682 46.1158 98.2124 45.6704 98.5134 45.0151C98.7562 44.4864 99.5078 44.4935 100.582 45.0347C101.032 45.2612 101.805 45.5569 102.299 45.6918C102.794 45.8267 103.508 46.0473 103.886 46.1822C104.934 46.5556 105.038 47.3712 104.105 47.896C103.646 48.1546 103.626 48.21 103.716 48.9659C103.834 49.9533 103.45 50.8521 102.721 51.2926C102.195 51.6112 100.813 51.6898 100.009 51.4469ZM4.44715 44.1197C1.01194 43.3173 0.486672 39.0258 3.55386 36.8215C4.29721 36.2873 6.61861 35.5068 8.31292 35.2215C9.2749 35.0595 9.48941 35.0689 9.82581 35.2875C10.3052 35.5991 10.3399 36.2206 9.9006 36.6267C9.72614 36.7879 8.59222 37.309 7.38078 37.7847C5.2293 38.6294 4.62069 39.0257 4.18623 39.8646C3.90355 40.4105 3.96228 41.2896 4.30179 41.5944C4.71952 41.9695 6.58075 41.9473 8.99112 41.5385C11.3025 41.1464 11.6724 41.1388 12.153 41.4727C12.4435 41.6746 12.5145 41.8584 12.4756 42.3085C12.3937 43.2574 11.9436 43.4579 8.89372 43.9037C6.04492 44.3202 5.43264 44.35 4.44715 44.1197ZM103.526 43.2547C101.586 42.6024 97.4281 40.8937 96.8215 40.4994C96.3039 40.163 96.1799 39.882 96.3145 39.3501C96.5318 38.4912 97.4901 38.6217 99.5173 39.7861C100.833 40.5416 101.079 40.4893 100.807 39.5124C100.592 38.7389 100.703 37.7764 101.071 37.2188C101.764 36.1692 104.019 35.8529 105.52 36.5949C107.34 37.4947 107.99 39.4977 107.124 41.5385C106.899 42.0685 106.715 42.6342 106.715 42.7955C106.715 42.9569 106.601 43.2511 106.461 43.4495C106.105 43.9528 105.479 43.9112 103.526 43.2547ZM105.092 40.7515C105.478 39.4741 104.235 37.8989 103.071 38.1888C102.846 38.2447 102.615 38.4131 102.557 38.5629C102.41 38.9427 103.192 40.4621 103.792 40.9631C104.509 41.5613 104.865 41.5034 105.092 40.7515Z" fill="#FFF9E1"/>
<path d="M47.7538 80.1438C46.3954 79.6924 45.7093 78.9605 45.7093 77.9629C45.7093 77.0482 46.0003 76.3367 46.6956 75.551C47.5141 74.6262 48.3681 74.257 49.4358 74.3664C50.4876 74.4741 51.7068 75.0447 52.134 75.6292C53.1073 76.9609 51.7263 79.7901 49.8507 80.3068C49.0237 80.5346 48.9013 80.5251 47.7538 80.1438ZM49.5456 78.1083C49.918 77.9666 50.3255 77.1189 50.204 76.7389C50.148 76.5639 49.8791 76.3063 49.6064 76.1664C49.1348 75.9244 49.0907 75.9305 48.7029 76.2898C48.3443 76.6221 47.8356 77.4033 47.8356 77.6216C47.8356 77.6642 47.9512 77.8139 48.0926 77.9541C48.3547 78.2141 49.0686 78.2899 49.5456 78.1083ZM55.6431 80.3685C54.9652 80.1931 54.8684 79.5735 54.8684 75.4086C54.8684 71.1719 54.9412 70.754 55.6402 70.9741C56.1035 71.1199 56.2821 71.6542 56.5944 73.8281C56.7419 74.8544 56.8966 75.7489 56.9382 75.8158C57.0735 76.0332 57.2499 75.9488 58.2159 75.2046C59.281 74.3842 59.8268 74.1831 60.1861 74.4789C60.5991 74.8189 60.4613 75.1883 59.6115 76.0186C59.1618 76.4581 58.7938 76.908 58.7938 77.0184C58.7938 77.1288 59.3858 77.5247 60.1094 77.8982C61.6003 78.6677 62.0139 79.1791 61.6821 79.843C61.5454 80.1164 61.3227 80.253 60.9562 80.2883C60.397 80.3421 59.9859 80.115 58.6075 78.9904C58.1902 78.6499 57.7731 78.3714 57.6806 78.3714C57.5881 78.3714 57.3853 78.7182 57.2301 79.1421C56.9448 79.921 56.4598 80.4965 56.1179 80.4619C56.0154 80.4516 55.8018 80.4095 55.6431 80.3685ZM64.6088 78.8229C64.4816 78.521 64.3286 77.3416 64.2643 76.1678C64.1619 74.2991 64.1806 74.0239 64.4268 73.7797C65.1605 73.0519 65.5226 73.6317 66.0097 76.3143C66.3515 78.1963 66.3642 78.4363 66.1429 78.8293C65.9702 79.1359 65.7421 79.2789 65.3679 79.3149C64.9009 79.36 64.8102 79.3011 64.6088 78.8229ZM39.8789 78.7027C39.1612 78.5336 37.8704 77.7186 37.4633 77.1775C36.192 75.4878 38.6304 72.4621 41.0458 72.7321C41.9372 72.8318 43.4311 73.6913 43.8053 74.3197C44.3606 75.2524 43.9981 76.6367 42.9179 77.7083C42.0299 78.5892 40.9276 78.9499 39.8789 78.7027ZM41.445 76.159C41.8878 75.6006 41.8733 75.2 41.3932 74.7237C40.9008 74.2352 40.4776 74.3284 39.8216 75.0696C39.2418 75.7247 39.2267 75.8343 39.6578 76.262C40.1448 76.7452 41.0203 76.6947 41.445 76.159ZM69.8281 78.217C69.275 77.9946 69.1089 77.6732 68.519 75.6842C67.8532 73.4397 67.8166 72.9383 68.2996 72.6819C68.5848 72.5305 68.7328 72.5612 69.1334 72.855C69.4012 73.0515 69.6725 73.15 69.7361 73.074C69.7997 72.9979 70.0574 72.6572 70.3088 72.3169C71.2964 70.9797 72.5246 70.9186 73.8419 72.1411C74.6586 72.8989 75.2005 73.9258 75.3895 75.0734C75.4818 75.6341 75.4426 75.8088 75.1616 76.0875C74.4441 76.7994 73.7315 76.3531 72.8642 74.6486C72.505 73.9426 72.273 73.6604 72.0819 73.6969C71.7143 73.7671 71.3875 74.9254 71.3138 76.4198C71.2609 77.4921 71.2039 77.6751 70.821 78.0019C70.3477 78.4057 70.315 78.4128 69.8281 78.217ZM81.4008 77.1452C80.9108 76.8047 80.9433 76.3101 81.528 75.2073C82.0046 74.3084 82.1639 73.2568 81.9193 72.6244C81.7938 72.2999 81.4289 72.2914 81.3056 72.6102C81.1346 73.0523 80.1717 73.5025 79.4017 73.5003C76.6987 73.4927 75.666 70.0953 77.741 68.0367C78.2543 67.5275 78.4807 67.4466 79.9129 67.2601C80.6167 67.1685 80.6999 67.1976 81.1071 67.6777C81.7324 68.415 83.7402 71.8462 83.9788 72.5854C84.2636 73.4676 84.1301 75.2282 83.7184 76.0186C83.3701 76.6874 82.5008 77.3978 82.0308 77.3978C81.8842 77.3978 81.6007 77.2842 81.4008 77.1452ZM79.8491 70.8946C80.0899 70.4265 80.1125 69.624 79.8946 69.2848C79.6662 68.9295 79.2094 69.2634 78.931 69.9889C78.7316 70.5087 78.7375 70.6247 78.9823 70.9954C79.3024 71.48 79.5637 71.4496 79.8491 70.8946ZM30.8429 76.5005C27.231 75.5021 25.0896 71.9646 26.2474 68.9089C26.7476 67.5888 28.2016 66.0706 29.5335 65.4776C30.7624 64.9305 32.2949 64.6539 33.2799 64.8014C35.0927 65.073 36.7804 66.6938 36.6796 68.0665C36.6119 68.9888 36.2363 68.9864 35.198 68.0569C34.0686 67.0459 33.4329 66.792 32.2881 66.895C30.5573 67.0507 28.6819 68.4297 28.4366 69.727C28.0162 71.9502 29.5395 73.7645 32.3576 74.3971C32.9994 74.5411 33.6901 74.7658 33.8925 74.8963C34.3623 75.1993 34.38 75.9421 33.9272 76.3486C33.485 76.7457 31.9952 76.819 30.8429 76.5005ZM63.4668 71.9505C63.12 71.6065 63.1435 71.2977 63.5469 70.8975C63.9725 70.4753 64.3563 70.5446 64.6707 71.1003C64.8949 71.4966 64.8896 71.5635 64.6101 71.8699C64.245 72.2701 63.8192 72.3001 63.4668 71.9505ZM15.6837 65.7414C13.7098 64.6614 12.621 63.3518 12.0953 61.4253C11.3319 58.6272 12.4795 56.2481 15.2023 54.984C16.9239 54.1848 19.4115 54.1957 21.0196 55.0096C21.7533 55.381 22.7252 56.4338 23.0532 57.2127C23.3396 57.8927 23.3807 59.1008 23.133 59.5599C22.7956 60.1853 22.3696 59.932 21.7309 58.7262C21.3966 58.095 20.8913 57.4032 20.6082 57.189C19.8333 56.6027 18.6598 56.3855 17.4287 56.6006C15.5578 56.9276 14.4682 57.9446 14.3395 59.484C14.2025 61.1232 15.0385 62.498 16.959 63.7919C18.139 64.5869 18.4612 65.036 18.2489 65.59C17.9567 66.3525 16.9133 66.4141 15.6837 65.7414ZM89.5803 65.2901C88.5522 64.9176 87.1865 63.5999 86.6021 62.4167C85.141 59.458 85.8015 56.1626 88.1203 54.8433C88.7578 54.4806 89.1789 54.3596 89.8084 54.3585C91.2256 54.3559 91.3671 55.1412 90.0683 55.8001C88.3726 56.6603 87.7271 57.9863 88.0727 59.9C88.4387 61.9273 89.6618 63.1223 91.3635 63.1154C93.0657 63.1085 94.3999 62.1141 95.5042 60.0293C96.1526 58.8052 96.6539 58.4325 97.2362 58.7417C98.0781 59.1887 98.0403 60.2761 97.1227 62.0085C96.407 63.3597 95.425 64.2832 93.9875 64.9567C93.0859 65.3791 92.6665 65.475 91.5866 65.5058C90.724 65.5303 90.0404 65.4568 89.5803 65.2901ZM98.2959 55.892C97.3407 55.3882 92.8724 52.3169 92.3635 51.8144C91.9024 51.3592 91.8833 50.696 92.3246 50.4617C92.747 50.2374 93.4278 50.5317 96.5681 52.2962C99.9644 54.2046 100.925 55.2394 100.038 56.0355C99.6241 56.4069 99.2068 56.3725 98.2959 55.892ZM8.25517 54.7327C7.40935 54.3132 5.9223 52.7696 5.47031 51.8419C5.21477 51.3174 5.0531 50.6553 5.013 49.9689C4.94388 48.7857 5.04012 48.6304 6.11445 48.1911C7.79841 47.5025 12.3093 45.0336 12.7062 44.5833C13.1358 44.0959 13.1712 44.086 13.8079 44.2753C14.9482 44.6142 16.883 47.2796 17.0393 48.7271C17.1326 49.5905 16.5528 50.7334 15.8005 51.1693C15.3138 51.4512 15.0407 51.4778 13.5775 51.3856C13.1308 51.3575 13.0845 51.407 12.9753 52.0296C12.6599 53.8279 11.5377 54.8752 9.83077 54.9643C9.1169 55.0015 8.66254 54.9347 8.25517 54.7327ZM10.6386 52.522C11.3222 51.9386 11.3685 50.809 10.7562 49.6514C10.4601 49.0915 10.1652 48.7436 9.96478 48.7176C9.78912 48.6949 9.1302 48.9554 8.50051 49.2965C7.11337 50.0479 6.97919 50.4279 7.73915 51.4531C8.77247 52.8471 9.8096 53.2294 10.6386 52.522ZM14.705 49.3309C15.0393 49.2048 15.1245 49.0631 15.1245 48.6325C15.1245 47.9843 14.3157 46.6447 13.8325 46.4925C13.4543 46.3735 12.0169 47.248 12.0169 47.5972C12.0169 48.0093 13.4319 49.1989 14.2552 49.4789C14.2718 49.4846 14.4742 49.418 14.705 49.3309ZM99.9002 51.3069C98.9002 50.9537 97.2989 49.8002 97.1463 49.3231C97.0223 48.9357 97.3103 48.5153 97.6991 48.5162C97.8455 48.5165 98.5173 48.7331 99.1919 48.9974C100.69 49.5844 101.482 49.6402 101.482 49.1589C101.482 48.6406 101.066 48.1343 99.7649 47.0663C98.4218 45.9641 98.2208 45.6079 98.6097 45.0191C98.9554 44.4956 99.2402 44.5161 100.682 45.1682C101.347 45.469 102.428 45.8429 103.086 45.9992C104.788 46.404 105.23 47.2048 104.079 47.7956C103.637 48.0223 103.608 48.0996 103.606 49.0471C103.604 49.6026 103.512 50.2326 103.401 50.4471C102.866 51.4809 101.407 51.8391 99.9002 51.3069ZM4.1277 43.973C2.28057 43.4213 1.20984 41.4823 1.70708 39.5897C1.97418 38.573 2.77189 37.4598 3.65957 36.8652C4.92877 36.0149 8.62795 35.0236 9.6148 35.2693C10.0999 35.3901 10.3088 35.8743 10.0683 36.3202C9.90332 36.626 9.27598 36.9305 6.38972 38.1058C4.71854 38.7863 4.03459 39.45 3.88812 40.5334C3.81227 41.0944 3.86379 41.2531 4.24437 41.6307C4.68207 42.0649 4.71363 42.0704 6.18602 41.9693C7.00921 41.9127 8.47691 41.7272 9.44758 41.5571C10.4183 41.387 11.3751 41.287 11.5738 41.3349C12.1107 41.4643 12.5076 41.8657 12.5076 42.2794C12.5076 42.646 11.6795 43.4821 11.3093 43.4893C11.2037 43.4913 10.1606 43.6357 8.99117 43.8101C6.78123 44.1396 4.89676 44.2028 4.1277 43.973ZM104.262 43.422C101.486 42.5832 96.8996 40.6045 96.5355 40.0887C96.2135 39.6327 96.3481 39.1262 96.8517 38.8986C97.1931 38.7443 97.4723 38.8344 98.9143 39.564C99.8316 40.0281 100.683 40.4067 100.805 40.4052C100.981 40.4032 101 40.2386 100.895 39.6319C100.61 37.9787 100.876 37.2403 101.989 36.5895C102.405 36.3466 102.833 36.2662 103.69 36.2698C105.088 36.2757 106.005 36.6974 106.706 37.6569C107.585 38.8612 107.652 40.2749 106.903 41.863C106.714 42.2646 106.557 42.7522 106.556 42.9466C106.551 43.372 106.142 43.8134 105.763 43.8014C105.612 43.7966 104.937 43.6259 104.262 43.422ZM104.989 41.1778C105.533 40.4076 105.131 38.9772 104.201 38.3727C103.955 38.2133 103.55 38.13 103.171 38.161C102.63 38.2052 102.538 38.2709 102.494 38.646C102.424 39.2466 102.967 40.2299 103.76 40.9411C104.538 41.6387 104.649 41.6599 104.989 41.1778Z" fill="#516F94"/>
<path d="M47.4266 79.9127C46.8868 79.6937 46.3188 79.3617 46.1642 79.1748C45.159 77.9592 46.118 75.5914 48.0017 74.638C48.8055 74.2312 49.1633 74.2331 50.4096 74.6506C51.5863 75.0449 52.2021 75.5926 52.3504 76.377C52.5811 77.5969 51.6061 79.4006 50.404 79.9779C49.4801 80.4216 48.6355 80.4031 47.4266 79.9127ZM49.8107 77.8971C50.3794 77.3329 50.4186 76.8257 49.9332 76.313C49.415 75.7659 48.9242 75.8373 48.3326 76.546C47.7269 77.2714 47.7245 77.862 48.3261 78.1624C48.952 78.475 49.2889 78.4147 49.8107 77.8971ZM55.2401 79.8778C54.9816 79.485 54.951 79.0013 54.9587 75.4303C54.9679 71.1667 55.0424 70.7279 55.6977 71.0759C56.0663 71.2716 56.2541 71.9464 56.5224 74.0399C56.8118 76.298 56.8603 76.3343 58.2205 75.3128C59.53 74.3293 60.2657 74.1857 60.2657 74.9136C60.2657 75.2306 60.0361 75.5605 59.4262 76.1196C58.9108 76.5922 58.6214 76.9791 58.6767 77.122C58.7262 77.25 59.2502 77.5792 59.8411 77.8535C61.6175 78.6782 62.1926 79.5285 61.3461 80.0788C60.7823 80.4452 60.3126 80.2677 58.967 79.1797C58.3196 78.6562 57.695 78.264 57.5791 78.3081C57.4632 78.3522 57.277 78.6948 57.1653 79.0695C56.9009 79.9566 56.5608 80.3185 55.9916 80.3185C55.6698 80.3185 55.4423 80.1851 55.2401 79.8778ZM64.7445 78.9333C64.5246 78.6005 64.4691 78.065 64.4545 76.1344C64.437 73.8306 64.4483 73.7453 64.7777 73.6986C64.9655 73.672 65.2072 73.7555 65.3148 73.8841C65.5613 74.1787 66.1536 77.1716 66.1536 78.1222C66.1536 79.2829 65.2999 79.7743 64.7445 78.9333ZM39.0852 78.2964C38.6355 78.0621 38.0197 77.6099 37.7169 77.2914C37.2133 76.7618 37.1728 76.6449 37.2427 75.9232C37.3833 74.4712 38.5339 73.2638 40.1918 72.8283C40.9489 72.6295 41.0062 72.6408 42.1885 73.2212C42.8579 73.5498 43.5315 74.0091 43.6852 74.2418C44.1259 74.9091 44.0451 75.9586 43.4837 76.8595C42.4277 78.554 40.6776 79.1257 39.0852 78.2964ZM41.0132 76.5727C41.2274 76.4758 41.5282 76.1858 41.6817 75.9282C41.9369 75.4996 41.9389 75.4182 41.7057 74.9708C41.3397 74.2685 40.7693 74.1778 40.0662 74.7098C39.1462 75.406 39.1439 76.2257 40.0609 76.5944C40.5126 76.776 40.5661 76.7748 41.0132 76.5727ZM69.4537 77.9133C69.2897 77.7507 68.8727 76.6228 68.5269 75.407C68.0043 73.5698 67.9337 73.1539 68.109 72.9444C68.3764 72.6248 68.8342 72.6207 69.0976 72.9357C69.4347 73.3385 69.8117 73.2057 70.2268 72.5378C71.3518 70.7277 73.5555 71.1427 74.7179 73.3834C75.2572 74.4231 75.4585 75.6489 75.1503 76.0173C74.8804 76.3399 74.096 76.3298 73.7629 75.9994C73.6173 75.8549 73.2408 75.2296 72.9261 74.6097C72.5164 73.8027 72.2764 73.4974 72.0806 73.5348C71.6904 73.6094 71.2459 75.1475 71.2338 76.4648C71.2259 77.3351 71.1567 77.6267 70.8968 77.8846C70.4889 78.2892 69.8456 78.3021 69.4537 77.9133ZM81.2942 76.9806C80.9369 76.6261 80.9724 76.2697 81.4318 75.599C82.1786 74.5086 82.3663 72.8561 81.7966 72.387C81.6356 72.2545 81.4678 72.331 81.1126 72.6989C80.2202 73.623 78.7822 73.6824 77.7024 72.8397C76.3415 71.7777 76.4653 69.1529 77.9342 67.9267C78.5232 67.4351 80.6095 67.155 80.946 67.5224C81.2799 67.887 82.9314 70.5888 83.511 71.7187C83.9823 72.6374 84.0516 72.9303 84.0489 73.9904C84.0454 75.3518 83.6736 76.2925 82.9006 76.8957C82.3847 77.2982 81.6533 77.3369 81.2942 76.9806ZM80.0107 70.7044C80.2673 69.9251 80.1199 69.1226 79.7202 69.1226C79.2947 69.1226 78.7474 69.8926 78.7474 70.4912C78.7474 71.5633 79.6763 71.72 80.0107 70.7044ZM31.8888 76.6377C30.1442 76.3819 28.8059 75.7007 27.6602 74.4856C25.4175 72.107 25.4433 69.1679 27.7275 66.8415C28.903 65.6442 30.3499 65.0186 32.1399 64.9337C33.3273 64.8774 33.6725 64.9231 34.3987 65.2331C35.3825 65.6529 36.3042 66.6215 36.5758 67.521C36.9795 68.8579 36.2973 68.9933 35.0055 67.8327C33.4988 66.479 32.0801 66.3952 30.1713 67.5472C27.9829 68.8679 27.6007 71.0439 29.2461 72.8149C30.0535 73.6838 31.0236 74.1901 32.5283 74.5278C33.8471 74.8237 34.3539 75.221 34.1981 75.8369C34.1403 76.0656 33.9637 76.3213 33.8056 76.4052C33.4154 76.6124 32.4854 76.7252 31.8888 76.6377ZM63.6343 71.9936C63.021 71.5487 63.6729 70.4452 64.3136 70.8437C64.7166 71.0943 64.7762 71.7356 64.4206 71.9936C64.2599 72.1101 64.083 72.2055 64.0274 72.2055C63.9719 72.2055 63.7949 72.1101 63.6343 71.9936ZM16.6507 66.0445C15.2232 65.712 13.3906 64.188 12.6685 62.7327C11.4322 60.2413 11.7653 57.81 13.5691 56.1605C15.8996 54.0294 20.0291 53.879 22.0187 55.8529C23.0053 56.8317 23.5713 58.5849 23.1517 59.3627C22.8109 59.9944 22.3667 59.7924 21.8458 58.7688C21.2642 57.6257 20.2615 56.6862 19.465 56.5379C17.5892 56.1888 15.5941 56.8331 14.717 58.0712C14.2954 58.6663 14.2259 58.9093 14.2326 59.7661C14.2458 61.4807 15.0499 62.6448 17.2097 64.0762C18.0634 64.642 18.2319 64.8296 18.2319 65.2145C18.2319 65.9368 17.6038 66.2665 16.6507 66.0445ZM90.0244 65.3419C88.375 64.8783 86.7256 63.1076 86.1668 61.2007C85.8467 60.1082 85.9363 57.84 86.336 56.9186C86.955 55.4918 88.3448 54.4927 89.7591 54.4578C90.3718 54.4428 90.605 54.5077 90.7467 54.7331C90.9485 55.0539 90.8944 55.1115 89.3785 56.1905C88.4413 56.8576 87.9065 57.8734 87.9065 58.9863C87.9065 61.3955 89.4431 63.2701 91.4229 63.2761C92.8833 63.2805 94.6112 61.9716 95.5202 60.1724C96.0843 59.056 96.3755 58.738 96.8339 58.738C97.8839 58.738 98.0176 60.0511 97.144 61.7834C96.4106 63.2378 95.5275 64.1094 94.0603 64.8272C92.7026 65.4914 91.2262 65.6797 90.0244 65.3419ZM98.2486 55.7742C96.9786 55.1003 92.493 51.9222 92.2126 51.4976C91.8573 50.9597 92.0938 50.5439 92.7551 50.5439C93.4817 50.5439 98.4098 53.2915 99.4651 54.285C100.381 55.1468 100.503 55.4666 100.08 55.8868C99.7189 56.2447 99.0588 56.2041 98.2486 55.7742ZM8.72694 54.7885C6.91231 54.1256 5.26009 52.0581 5.0431 50.1786C4.91797 49.0948 5.15706 48.5912 5.91426 48.3435C7.03807 47.9758 12.4161 45.0817 12.8346 44.6193C13.219 44.1946 13.2778 44.1795 13.8159 44.3667C14.4692 44.5941 16.0595 46.3607 16.5906 47.4491C17.2425 48.7851 16.8945 50.3123 15.762 51.0857C15.3197 51.3877 15.0559 51.4497 14.4702 51.3893C14.0654 51.3475 13.606 51.2604 13.4493 51.1957C13.1377 51.067 13.1557 51.0344 12.7626 52.4396C12.4845 53.4341 11.9084 54.2364 11.2183 54.5905C10.5377 54.9396 9.39031 55.0308 8.72694 54.7885ZM10.4956 52.7412C11.1611 52.3386 11.455 51.4057 11.2057 50.4872C10.9704 49.6202 10.3583 48.769 9.92568 48.7071C9.38542 48.6298 7.28114 49.8091 7.16911 50.2519C6.96208 51.0702 8.77131 52.9866 9.80884 53.048C9.8988 53.0533 10.2079 52.9152 10.4956 52.7412ZM15.0309 49.2342C15.1723 49.0939 15.2879 48.8348 15.2879 48.6582C15.2879 47.9006 14.1748 46.4062 13.6104 46.4062C13.2605 46.4062 11.8533 47.3176 11.8533 47.5442C11.8533 47.7858 12.876 48.8698 13.4071 49.1911C14.0098 49.5557 14.6886 49.5738 15.0309 49.2342ZM99.6007 51.1045C98.5291 50.6918 97.2292 49.5866 97.2292 49.0883C97.2292 48.5045 97.6284 48.4829 98.9311 48.9963C100.409 49.5788 101.284 49.6797 101.534 49.2966C101.78 48.9185 101.227 48.1901 99.7234 46.912C98.9028 46.2146 98.5376 45.7917 98.5376 45.5387C98.5376 44.6992 99.2655 44.5686 100.496 45.1871C100.937 45.4091 101.873 45.7446 102.576 45.9327C103.278 46.1208 104.019 46.379 104.221 46.5065C104.75 46.8393 104.683 47.328 104.058 47.7053C103.538 48.0186 103.526 48.0527 103.526 49.1754C103.526 50.2954 103.51 50.339 102.915 50.8805C102.363 51.3823 102.213 51.4355 101.361 51.4278C100.838 51.4231 100.055 51.2792 99.6007 51.1045ZM4.30039 43.9083C2.18957 43.3444 1.18526 41.2779 1.9614 39.0955C2.64298 37.179 4.10003 36.2773 7.72293 35.5299C9.48193 35.167 10.0542 35.2674 10.0542 35.9389C10.0542 36.4657 9.51974 36.7955 7.27374 37.6549C5.17376 38.4585 4.46233 38.9053 4.10997 39.6419C3.5555 40.8012 3.93217 42.0032 4.8613 42.0396C5.96841 42.083 7.09419 41.9851 9.11993 41.6694C11.8337 41.2464 12.2361 41.3159 12.3123 42.2212C12.3873 43.1114 11.9799 43.2915 8.87168 43.7424C5.86531 44.1785 5.37832 44.1962 4.30039 43.9083ZM103.771 43.1804C101.946 42.5829 97.9867 40.969 97.1065 40.4636C96.3863 40.0501 96.1964 39.545 96.6076 39.137C96.9679 38.7796 97.5849 38.9354 99.2056 39.793C101.028 40.7571 101.308 40.7351 101.005 39.6514C100.428 37.5906 101.435 36.3533 103.69 36.3533C106.531 36.3533 108.168 38.9378 106.959 41.514C106.735 41.9914 106.552 42.5256 106.552 42.701C106.552 43.7615 105.893 43.875 103.771 43.1804ZM105.041 41.3356C105.409 40.8822 105.433 40.1028 105.102 39.3603C104.562 38.1493 103.197 37.578 102.547 38.2908C102.265 38.5997 102.265 38.6439 102.542 39.3641C102.701 39.7772 103.141 40.4354 103.519 40.8268C104.207 41.5397 104.733 41.7153 105.041 41.3356Z" fill="#305585"/>
<path d="M47.9991 80.0456C46.4803 79.5194 45.8695 78.8882 45.8764 77.8521C45.8865 76.3556 47.6219 74.4772 48.9944 74.4772C49.5049 74.4772 51.1309 74.9429 51.4412 75.178C52.351 75.8673 52.4884 77.0248 51.8186 78.3582C51.2375 79.5152 50.2426 80.1616 49.071 80.1434C48.6164 80.1364 48.134 80.0924 47.9991 80.0456ZM50.1745 77.7332C50.3274 77.4766 50.4524 77.1201 50.4524 76.941C50.4524 76.5579 49.5769 75.7752 49.1483 75.7752C48.7823 75.7752 47.8776 76.7692 47.7367 77.3262C47.437 78.5109 49.5059 78.8563 50.1745 77.7332ZM55.3382 79.8883C54.9907 79.4734 54.9202 71.7669 55.2598 71.3131C55.7168 70.7022 56.0028 71.304 56.3465 73.6004C56.5189 74.7519 56.6617 75.7877 56.6637 75.902C56.6721 76.363 57.1778 76.2541 57.9914 75.6162C59.2103 74.6603 59.7405 74.409 60.0321 74.6491C60.3985 74.9507 60.3264 75.0964 59.3505 76.0266C58.8471 76.5064 58.4646 76.993 58.5005 77.1079C58.5363 77.2227 59.1226 77.6088 59.8033 77.9657C60.4841 78.3227 61.1647 78.7181 61.3159 78.8443C61.6466 79.1205 61.5977 79.8147 61.2315 80.0421C60.8075 80.3052 60.25 80.0628 59.0837 79.1085C57.7632 78.0279 57.4215 77.9764 57.1526 78.8176C56.8346 79.8126 56.5463 80.1562 56.0295 80.1562C55.7728 80.1562 55.4616 80.0357 55.3382 79.8883ZM64.8541 78.9499C64.6466 78.7018 64.2681 74.4481 64.4188 74.0584C64.4678 73.9317 64.6548 73.8281 64.8344 73.8281C65.3416 73.8281 65.4033 74.0024 65.9082 76.8614C66.1878 78.4442 66.033 79.1827 65.4217 79.1827C65.2167 79.1827 64.9612 79.0779 64.8541 78.9499ZM38.9834 78.1278C37.8951 77.5654 37.368 76.8835 37.368 76.0379C37.368 74.6175 38.9213 73.0776 40.5363 72.897C41.0911 72.835 41.4381 72.9224 42.2495 73.3288C43.9559 74.1833 44.2975 75.1811 43.4096 76.7171C42.4183 78.432 40.6578 78.9931 38.9834 78.1278ZM41.5464 76.3195C42.0678 75.7614 42.0676 75.0683 41.5461 74.5509C41.0778 74.0864 40.948 74.0697 40.3168 74.3936C39.6583 74.7314 39.1125 75.5372 39.2293 75.9991C39.4339 76.8076 40.9009 77.0105 41.5464 76.3195ZM69.5232 77.7968C69.1355 77.4122 68.0118 73.5213 68.1701 73.1119C68.296 72.7865 68.8304 72.7784 69.0977 73.0979C69.4562 73.5265 69.8665 73.3716 70.2953 72.6458C70.5212 72.2632 70.9005 71.847 71.1381 71.7209C72.6226 70.9327 74.4759 72.3208 75.0938 74.6837C75.3295 75.5854 75.2012 76.01 74.6395 76.1869C74.1767 76.3326 73.7682 75.9096 73.0344 74.5247C72.3799 73.2893 72.0156 73.091 71.6622 73.7775C71.349 74.3857 71.0604 75.781 71.0604 76.6863C71.0604 77.0894 70.9842 77.5604 70.8911 77.733C70.6838 78.1172 69.8837 78.1545 69.5232 77.7968ZM81.6507 77.1219C81.1409 76.993 81.1519 76.3871 81.6823 75.3869C82.2126 74.3867 82.3632 73.0066 82.0128 72.3571C81.7865 71.9377 81.597 71.9615 81.1588 72.4644C80.413 73.3203 79.409 73.5563 78.3742 73.1189C77.2914 72.6611 76.6654 71.4514 76.8567 70.1862C76.9784 69.3812 77.7433 68.0972 78.2667 67.8192C78.6824 67.5985 80.3688 67.3438 80.6673 67.4567C80.9554 67.5656 83.2984 71.3997 83.6703 72.3708C84.2412 73.8613 84.0095 75.5739 83.1106 76.5082C82.5734 77.0665 82.1447 77.2468 81.6507 77.1219ZM79.887 71.3195C80.1398 71.0173 80.2915 69.9161 80.1548 69.3758C79.9447 68.5456 78.8638 69.154 78.6481 70.2237C78.4576 71.1688 79.3516 71.9595 79.887 71.3195ZM31.5618 76.4763C30.1 76.1517 29.1192 75.6869 28.2688 74.9159C27.1521 73.9034 26.6794 73.1853 26.3183 71.953C25.7892 70.1475 26.3489 68.3322 27.8953 66.8379C28.8979 65.8691 30.1399 65.2794 31.6774 65.0422C33.1359 64.8173 34.3238 65.0954 35.2874 65.8875C36.0188 66.4888 36.5898 67.5182 36.519 68.1083C36.439 68.7744 36.1504 68.7144 35.1615 67.8259C34.6542 67.3701 34.0551 66.9277 33.8302 66.8429C33.1685 66.5933 31.8725 66.6653 30.9814 67.0013C28.0179 68.1184 27.2261 70.9751 29.2943 73.0879C30.0162 73.8252 30.8204 74.2309 32.237 74.572C33.6627 74.9154 34.0969 75.1802 34.0969 75.7061C34.0969 76.365 32.8147 76.7545 31.5618 76.4763ZM63.5617 71.765C63.3353 71.3452 63.6242 70.9074 64.1277 70.9074C64.4931 70.9074 64.5332 70.9662 64.4876 71.4348C64.4489 71.8335 64.3493 71.9744 64.0794 72.0125C63.8623 72.0432 63.6595 71.9462 63.5617 71.765ZM15.8007 65.5934C14.3312 64.8138 13.4018 63.8856 12.7197 62.5166C12.1431 61.3591 12.0993 61.1705 12.1076 59.8822C12.1182 58.2234 12.3556 57.5984 13.3928 56.4983C14.8024 55.0033 16.985 54.2967 19.0881 54.6545C21.0345 54.9856 22.2738 55.8628 22.9017 57.3536C23.2106 58.0871 23.2099 59.2886 22.9005 59.5434C22.5635 59.8209 22.3574 59.6389 21.926 58.6825C21.4946 57.7261 20.9494 57.0969 20.2344 56.7301C18.9884 56.0909 17.102 56.206 15.7601 57.0032C14.6068 57.6883 14.1482 58.4825 14.1495 59.7927C14.1511 61.5011 15.008 62.7932 16.9645 64.0374C17.921 64.6457 18.0685 64.8039 18.0685 65.2216C18.0685 66.1326 17.1124 66.2894 15.8007 65.5934ZM90.0317 65.2495C88.3656 64.7041 86.9974 63.2722 86.3567 61.4037C86.003 60.3719 85.9973 58.3393 86.3454 57.2998C86.8833 55.6932 88.5047 54.4483 89.9252 54.5513C90.9473 54.6254 90.9112 55.03 89.8208 55.722C88.1852 56.76 87.612 57.8453 87.8109 59.5277C88.1022 61.991 89.8949 63.7082 91.817 63.3651C93.37 63.0879 94.5536 62.1039 95.6569 60.1728C96.2236 59.1809 96.4156 58.9725 96.8033 58.9281C97.0595 58.8988 97.3454 58.9506 97.4387 59.0432C97.6922 59.2946 97.6185 60.5162 97.3056 61.2493C96.267 63.6832 94.1749 65.2011 91.6918 65.3226C91.0042 65.3562 90.2572 65.3234 90.0317 65.2495ZM98.7282 55.8941C98.1149 55.6299 93.9272 52.8329 92.8451 51.9648C92.0224 51.3048 91.9489 50.7396 92.6749 50.6563C93.238 50.5916 98.2533 53.3429 99.3742 54.3314C100.21 55.0686 100.346 55.46 99.9162 55.8868C99.6041 56.1964 99.4323 56.1975 98.7282 55.8941ZM8.31022 54.5091C7.47312 54.098 6.12755 52.7123 5.63457 51.7537C5.18148 50.8726 4.99933 49.1395 5.33167 48.8718C5.4553 48.7722 7.10206 47.9153 8.99112 46.9675C11.1188 45.9 12.5893 45.06 12.8554 44.7601C13.2742 44.2881 13.2995 44.2818 13.8537 44.5115C14.4525 44.7598 15.6543 46.1045 16.3893 47.3487C17.1597 48.6529 16.8666 50.2597 15.7298 50.9636C15.3115 51.2227 14.9791 51.2783 14.0764 51.2404C12.9467 51.1929 12.9467 51.1929 12.7243 52.1548C12.452 53.3324 11.863 54.1322 10.9728 54.5333C10.0901 54.931 9.15191 54.9224 8.31022 54.5091ZM10.554 52.8918C11.5074 52.3856 11.6209 50.4848 10.7695 49.2807C10.4985 48.8975 10.1271 48.574 9.92462 48.5449C9.45109 48.4769 7.1567 49.7374 7.02934 50.1355C6.88483 50.5872 7.46522 51.5954 8.31946 52.3766C9.1028 53.0929 9.85049 53.2653 10.554 52.8918ZM14.769 49.5459C15.6373 49.3152 15.5126 47.9692 14.5221 46.8815C14.2028 46.5309 13.8204 46.244 13.6724 46.244C13.3419 46.244 11.8176 47.2249 11.7309 47.4934C11.6439 47.7626 12.8904 49.0713 13.5334 49.3858C14.1258 49.6756 14.2301 49.6891 14.769 49.5459ZM100.325 51.2215C98.8301 50.8074 97.1153 49.4856 97.3353 48.9169C97.4629 48.587 97.6264 48.6104 99.0283 49.1597C101.284 50.0434 102.339 49.6978 101.417 48.3774C101.185 48.0457 100.626 47.4949 100.175 47.1534C98.9415 46.2205 98.4993 45.6447 98.7125 45.2495C98.995 44.7258 99.2901 44.7252 100.373 45.2462C100.938 45.5178 101.989 45.8981 102.708 46.0913C103.428 46.2845 104.109 46.5164 104.221 46.6066C104.578 46.8927 104.446 47.361 103.935 47.6232C103.665 47.7616 103.441 47.9278 103.438 47.9924C103.435 48.0571 103.416 48.6015 103.397 49.2023C103.366 50.1779 103.31 50.3463 102.872 50.7777C102.279 51.3619 101.39 51.5166 100.325 51.2215ZM4.12683 43.7415C2.85971 43.2928 2.2192 42.6084 1.86517 41.3246C1.4782 39.9215 2.39074 37.8717 3.79604 36.9873C4.72521 36.4026 6.54467 35.8103 8.31361 35.5167C9.52451 35.3158 9.6119 35.3213 9.82607 35.6118C10.2364 36.1686 9.77165 36.5271 7.40158 37.482C4.76853 38.5428 4.43589 38.7489 4.00479 39.5873C3.54782 40.4759 3.57456 41.2907 4.07703 41.7892C4.43278 42.1422 4.61432 42.1862 5.67169 42.1757C6.32796 42.1691 7.2329 42.1062 7.68268 42.0358C10.6542 41.5708 11.3343 41.4962 11.7227 41.5929C12.5551 41.8002 12.4599 42.7838 11.5734 43.1349C10.9443 43.384 6.73723 43.972 5.63824 43.9644C5.14348 43.9609 4.46335 43.8606 4.12683 43.7415ZM104.527 43.3066C103.237 42.9417 98.9141 41.236 97.5053 40.5358C96.6616 40.1164 96.5604 40.014 96.6057 39.6245C96.6524 39.2236 96.7155 39.1868 97.3368 39.1986C97.8292 39.2079 98.3258 39.3967 99.1373 39.8832C99.7537 40.2526 100.441 40.5754 100.665 40.6005C101.073 40.646 101.073 40.646 101.02 39.323C100.981 38.3669 101.036 37.8667 101.217 37.5195C101.565 36.8514 102.494 36.4505 103.69 36.452C106.468 36.4555 107.977 38.9577 106.797 41.604C106.572 42.1085 106.388 42.6992 106.388 42.9166C106.388 43.2356 105.954 43.6921 105.704 43.6363C105.676 43.63 105.146 43.4816 104.527 43.3066ZM105.152 41.3401C105.292 41.1418 105.407 40.6635 105.407 40.2774C105.407 38.9371 104.554 37.9687 103.373 37.9687C102.56 37.9687 102.299 38.1856 102.299 38.8619C102.299 39.7918 103.841 41.7007 104.592 41.7007C104.76 41.7007 105.012 41.5384 105.152 41.3401Z" fill="#083674"/>
</svg>
