<svg width="370" height="281" viewBox="0 0 370 281" fill="none" xmlns="http://www.w3.org/2000/svg">
<g opacity="0.2">
<path d="M187.269 280.594C184.79 279.845 182.304 277.612 181.336 275.265C180.951 274.333 180.465 273.57 180.256 273.57C180.046 273.57 178.62 274.784 177.087 276.268C172.402 280.803 166.598 281.928 159.795 279.621C155.555 278.183 152.156 275.654 150.727 272.875C149.677 270.833 148.514 270.226 147.819 271.356C146.929 272.802 141.58 274.857 138.038 275.114C134.736 275.353 133.94 275.193 130.577 273.612C125.715 271.327 123.482 269.585 121.94 266.874C121.254 265.668 120.49 264.68 120.241 264.677C119.993 264.675 118.981 265.292 117.993 266.049C112.496 270.259 101.109 268.612 93.1882 262.461C82.1012 253.85 79.1751 240.442 86.0528 229.766C91.4331 221.414 100.195 216.695 110.45 216.627C114.417 216.6 115.65 216.826 118.299 218.065C122.055 219.821 126.057 223.391 127.996 226.714C129.94 230.044 130.337 235.343 128.823 237.75C127.685 239.559 124.648 241.32 122.664 241.32C120.927 241.32 117.611 239.455 115.71 237.41C113.495 235.026 111.034 234.001 108.96 234.598C104.806 235.794 101.035 239.081 101.039 241.501C101.042 243.286 102.989 246.178 105.046 247.453C106.677 248.463 108.035 248.921 115.052 250.822C116.213 251.136 118.131 252.271 119.314 253.344C121.464 255.295 121.464 255.295 122.574 253.11C124.139 250.028 128.786 246.032 132.369 244.686C137.097 242.909 140.163 243.157 145.253 245.727C149.212 247.726 151.112 249.378 153.684 253.057C154.559 254.309 154.559 254.309 156.468 252.847C159.425 250.581 163.081 249.13 165.862 249.116C168.762 249.102 175.601 251.279 177.962 252.968C178.84 253.595 179.672 254.108 179.812 254.108C179.952 254.108 180.187 251.794 180.335 248.965C180.772 240.621 183.686 236.705 188.75 237.659C192.735 238.41 196.275 243.397 196.275 248.26C196.275 250.283 197.262 250.766 199.49 249.831C203.026 248.347 206.939 249.714 209.034 253.166C210.4 255.414 210.383 257.08 208.964 260.222C207.835 262.722 207.835 262.722 209.392 263.973C212.254 266.273 212.417 265.928 212.117 258.21C211.878 252.086 211.696 251.034 210.69 249.959C207.84 246.912 208.056 242.373 211.211 239.044C213.169 236.976 213.433 236.871 216.684 236.871C219.784 236.871 220.287 237.043 222.116 238.726C223.878 240.348 224.163 240.975 224.391 243.73C224.663 247.024 225.008 247.458 226.205 246.009C227.375 244.594 229.853 243.544 232.02 243.544C233.403 243.544 234.596 243.077 235.785 242.069C238.271 239.965 240.857 239.016 244.109 239.016C247.185 239.017 248.808 239.523 251.369 241.283C252.282 241.911 253.189 242.426 253.382 242.428C253.576 242.43 253.906 241.283 254.116 239.878C254.66 236.237 256.231 232.869 258.629 230.203C261.257 227.282 263.627 226.108 268.658 225.236C275.146 224.111 276.872 225.114 281.763 232.848C285.917 239.417 289.131 245.84 289.865 249.04C291.382 255.655 289.39 262.875 284.879 267.112C281.582 270.209 278.564 271.234 275.48 270.307C270.75 268.883 268.378 265.2 269.028 260.283C269.371 257.685 269.371 257.685 266.461 257.054C264.86 256.707 262.894 256.254 262.092 256.047C260.66 255.679 260.633 255.724 260.633 258.449C260.633 264.845 255.373 268.405 248.495 266.663C246.852 266.247 246.674 266.346 245.937 268.086C243.76 273.219 237.114 275.259 232.595 272.18C231.474 271.415 230.38 270.79 230.165 270.791C229.95 270.792 229.276 271.722 228.667 272.859C226.231 277.404 220.749 278.873 216.654 276.079C214.628 274.697 214.628 274.697 213.424 276.653C212.009 278.953 208.724 280.798 206.043 280.798C204.996 280.798 202.718 280.047 200.981 279.13C197.757 277.427 196.275 277.062 196.275 277.973C196.275 278.724 192.933 280.608 191.015 280.938C190.101 281.096 188.415 280.941 187.269 280.594ZM166.375 264.428C166.375 264.293 166.125 264.028 165.821 263.839C165.516 263.65 165.267 263.76 165.267 264.084C165.267 264.408 165.516 264.673 165.821 264.673C166.125 264.673 166.375 264.563 166.375 264.428ZM54.13 231.616C44.1816 228.494 36.6413 219.201 35.031 208.077C34.4251 203.891 34.7725 200.938 36.524 195.39C36.873 194.285 36.6533 194.205 32.4575 193.916C26.9592 193.538 23.8221 191.96 19.0625 187.181C15.1608 183.263 12.0333 177.425 11.5297 173.12C10.7077 166.093 12.7474 162.302 18.4781 160.204C20.287 159.541 22.3478 158.513 23.0576 157.919C24.3482 156.839 24.3482 156.839 20.1153 156.821C4.02379 156.75 -4.54396 143.523 2.46755 129.575C5.787 122.971 12.545 118.825 23.8771 116.44C31.9816 114.734 34.7793 114.902 37.2803 117.248C38.179 118.091 39.2245 119.821 39.6038 121.092C40.1944 123.072 40.1562 123.764 39.3374 125.917C38.0988 129.174 36.5694 130.213 27.4805 133.972C16.5999 138.472 17.2158 139.569 29.3762 137.349C36.5105 136.047 40.0527 135.95 42.5258 136.987C45.1219 138.077 47.1964 140.812 47.6303 143.717C47.9661 145.966 48.228 146.307 50.4487 147.387C53.3529 148.798 58.6233 155.223 61.2791 160.589C64.3329 166.759 63.2242 173.48 58.3671 178.243C57.1678 179.419 56.1865 180.544 56.1865 180.743C56.1865 180.942 57.4097 180.986 58.9047 180.842C62.1903 180.525 67.9337 181.468 71.9826 182.989C80.8476 186.32 86.8066 198.222 83.4382 205.869C82.0084 209.114 79.996 210.46 76.5703 210.46C74.3383 210.46 73.6525 210.184 72.1675 208.693C71.2001 207.722 69.638 205.474 68.6962 203.698C67.7544 201.923 66.3609 200.14 65.5995 199.738C63.6622 198.713 58.0858 199.224 56.2401 200.595C51.3803 204.205 53.5568 209.467 62.4429 215.593C67.2421 218.901 68.5808 223.518 66.0513 228.038C63.9068 231.87 59.322 233.246 54.13 231.616ZM303.694 229.435C297.883 227.828 293.609 224.597 289.881 218.989C286.433 213.806 285.254 209.202 285.518 201.958C285.777 194.83 287.132 191.292 291.325 186.79C294.954 182.894 298.507 181.162 303.556 180.83C305.764 180.684 307.57 180.504 307.57 180.428C307.57 180.353 307.197 179.393 306.74 178.295C305.611 175.583 305.699 173.001 306.994 170.869C309.332 167.019 313.979 166.335 319.613 169.012C321.517 169.916 323.103 170.479 323.138 170.262C323.173 170.046 323.156 169.424 323.1 168.88C322.893 166.856 324.328 163.991 326.472 162.148C328.628 160.295 328.669 160.194 328.105 158.09C327.259 154.935 328.24 151.98 330.98 149.435C332.215 148.288 333.122 147.259 332.995 147.148C332.868 147.037 331.142 146.177 329.159 145.237C327.177 144.297 324.58 142.681 323.388 141.647C321.396 139.918 321.204 139.5 321.01 136.468C320.843 133.871 321.035 132.793 321.912 131.39C324.074 127.934 328.758 126.807 333.165 128.682C335.455 129.656 335.158 129.879 337.569 125.386C338.79 123.11 342.563 120.268 345.384 119.498C348.76 118.578 354.058 118.71 357.313 119.795C360.916 120.997 365.329 124.95 367.211 128.662C369.389 132.958 369.608 138.488 367.792 143.351C367.027 145.397 366.127 148.083 365.791 149.319C365.089 151.905 362.716 154.433 360.392 155.071C359.108 155.423 358.823 155.779 358.964 156.852C359.677 162.302 359.665 163.441 358.874 164.977C358.41 165.877 357.641 166.939 357.164 167.336C356.663 167.754 356.297 168.927 356.297 170.115C356.297 171.256 355.619 173.516 354.774 175.191C352.801 179.102 349.34 181.526 344.941 182.078C342.078 182.438 341.88 182.55 342.619 183.398C345.442 186.636 345.926 191.504 343.728 194.537C342.421 196.341 338.332 198.505 336.232 198.505C334.674 198.505 334.674 198.505 335.575 200.255C336.235 201.536 336.422 203.08 336.274 206.019C335.883 213.789 329.841 222.631 322.109 226.75C316.337 229.825 308.984 230.897 303.694 229.435ZM313.431 209.487C315.427 208.133 316.616 206.703 318.174 203.787C320.713 199.031 323.012 196.505 325.248 196.012C326.177 195.807 327.053 195.452 327.194 195.223C327.42 194.854 317.612 187.671 314.401 185.854C313.202 185.176 313.171 185.227 313.192 187.878C313.219 191.467 312.084 193.097 307.508 196.042C304.581 197.927 303.718 198.801 303.414 200.187C302.563 204.08 304.549 209.668 307.158 210.722C309.344 211.604 310.705 211.336 313.431 209.487ZM186.473 224.006C180.281 222.583 179.613 215.289 185.302 211.221C186.813 210.141 186.96 209.781 186.727 207.736C186.413 204.99 183.636 198.151 181.154 194.008C179.154 190.671 179.651 190.8 172.48 191.76C165.624 192.678 153.297 192.554 148.217 191.516C143.437 190.539 139.105 188.739 136.223 186.532C133.888 184.743 131.146 180.715 130.624 178.306C130.335 176.972 120.514 157.531 119.508 156.3C119.407 156.177 117.443 156.521 115.142 157.065C100.596 160.505 89.5009 152.971 91.5597 141.051C92.2951 136.793 95.3014 130.716 98.8752 126.262C101.288 123.256 101.591 122.578 101.591 120.189C101.591 118.71 101.925 116.384 102.334 115.02C108.676 93.8596 166.979 63.2565 217.208 54.7232C228.479 52.8083 240.309 52.5922 246.849 54.1816C250.285 55.017 251.552 55.1102 252.939 54.6301C256.345 53.4517 260.163 53.2931 264.296 54.1583C272.18 55.8091 277.573 59.4148 280.189 64.7842C281.469 67.4116 281.641 68.3635 281.465 71.8624C281.171 77.6924 279.28 81.0998 272.24 88.4809C266.534 94.4642 266.534 94.4642 269.312 108.382C270.84 116.036 272.5 123.097 273.002 124.072C273.505 125.047 274.045 127.279 274.203 129.032C275.202 140.098 264.4 153.374 244.259 165.834C241.263 167.688 238.701 169.492 238.567 169.843C238.357 170.391 239.588 174.202 241.752 179.708C242.341 181.205 242.345 181.206 246.878 180.884C252.152 180.511 254.326 181.296 256.098 184.214C259.09 189.142 255.879 195.593 247.722 201.039C240.595 205.797 237.13 206.02 233.254 201.971C231.185 199.81 226.57 190.978 223.379 183.075C222.124 179.964 221.237 178.488 220.625 178.488C220.128 178.488 218.121 179.146 216.165 179.951C214.209 180.756 209.495 182.477 205.688 183.777C201.763 185.116 198.7 186.47 198.614 186.903C198.53 187.323 201.004 193.046 204.112 199.619C210.504 213.14 210.841 214.619 208.167 217.426C205.844 219.864 203.81 221.016 199.043 222.592C194.074 224.236 189.641 224.735 186.473 224.006ZM198.207 215.627C199.98 214.911 201.687 213.918 202 213.42C202.441 212.717 201.323 209.859 197 200.644C192.221 190.459 191.244 188.751 190.115 188.612C189.391 188.522 188.33 188.793 187.757 189.214C186.795 189.921 186.781 190.081 187.58 191.323C189.112 193.703 192.368 201.63 193.276 205.19C194.395 209.577 193.968 211.89 191.537 214.591C190.488 215.757 189.63 216.903 189.63 217.138C189.63 217.894 194.884 216.968 198.207 215.627ZM243.139 195.765C244.924 194.564 247.219 192.714 248.237 191.653C251.511 188.244 249.481 186.201 245.066 188.463C240.032 191.042 238.025 189.417 234.524 179.93C232.792 175.236 231.894 173.483 231.221 173.483C230.144 173.483 227.836 174.993 227.836 175.697C227.836 176.606 235.393 193.217 236.883 195.586C237.701 196.885 238.713 197.949 239.131 197.949C239.549 197.949 241.353 196.966 243.139 195.765ZM169.58 179.005C197.735 175.89 235.732 159.536 252.603 143.271C258.233 137.843 260.514 134.529 260.481 131.824C260.44 128.49 251.896 87.1035 251.201 86.8706C250.847 86.7522 249.245 87.8114 247.641 89.2244C240.557 95.4648 229.057 102.832 216.08 109.444C187.218 124.149 149.726 135.117 128.322 135.117C125.088 135.117 123.739 135.316 123.739 135.794C123.739 136.48 143.88 174.811 144.95 176.161C147.337 179.174 157.474 180.344 169.58 179.005ZM181.875 165.771C177.402 164.29 174.387 161.132 173.787 157.297C173.476 155.314 174.602 151.905 175.933 150.795C176.353 150.445 179.171 149.134 182.195 147.882C185.218 146.631 192.231 143.371 197.779 140.64C209.964 134.639 211.701 134.352 215.105 137.77C217.09 139.764 218.413 142.843 218.42 145.484C218.422 146.14 217.932 148.267 217.332 150.21C215.376 156.542 210.043 161.238 201.252 164.371C197.796 165.603 195.952 165.881 190.184 166.04C186.377 166.144 182.638 166.023 181.875 165.771ZM194.535 159C201.376 157.886 208.739 153.347 210.479 149.175C211.427 146.901 211.439 143.772 210.504 142.993C209.963 142.542 207.576 143.48 200.952 146.745C196.096 149.14 190.253 151.887 187.969 152.851C180.121 156.161 179.511 156.865 182.986 158.608C185.197 159.717 189.283 159.856 194.535 159ZM139.052 150.781C137.856 149.454 137.883 147.196 139.107 146.082C139.642 145.597 144.969 143.051 150.946 140.424C160.241 136.341 162.02 135.729 163.248 136.198C164.905 136.83 165.675 139.059 164.858 140.857C164.461 141.729 161.229 143.426 153.281 146.932C147.216 149.608 141.739 151.798 141.111 151.798C140.482 151.798 139.556 151.34 139.052 150.781ZM217.316 123.44C215.916 122.035 215.896 120.004 217.269 118.756C218.198 117.912 237.706 110.339 242.688 108.888C245.324 108.121 247.216 109.437 247.216 112.04C247.216 113.592 246.911 114.117 245.622 114.787C243.319 115.982 220.139 124.552 219.208 124.552C218.776 124.552 217.925 124.052 217.316 123.44ZM110.147 139.607C110.608 138.859 109.289 136.229 108.454 136.229C107.642 136.229 106.02 138.349 106.02 139.411C106.02 140.236 109.654 140.408 110.147 139.607ZM142.842 120.688C168.221 116.451 200.566 104.314 223.573 90.3952C238.138 81.5838 249.098 71.0621 246.716 68.1794C245.683 66.9299 241.151 66.1683 234.749 66.1683C200.54 66.1683 136.779 92.2601 118.047 113.925C115.234 117.178 114.353 119.241 115.35 120.242C117.595 122.497 130.728 122.71 142.842 120.688ZM167.944 102.016C164.235 100.833 162.498 98.5622 162.501 94.9005C162.503 91.4015 163.771 89.102 166.99 86.7608C173.742 81.8489 187.281 77.6859 192.131 79.0305C198.167 80.7042 200.736 87.7428 197.35 93.3331C193.872 99.0762 175.621 104.465 167.944 102.016ZM263.813 70.0941C264.63 68.1136 264.212 67.2803 262.4 67.2803C261.202 67.2803 261.078 67.4649 261.371 68.8094C262.141 72.3391 262.754 72.6615 263.813 70.0941ZM118.962 76.7807C118.01 76.1976 111.656 69.1386 104.843 61.0941C98.0291 53.0495 90.6479 44.4075 88.44 41.8895C83.3698 36.1073 83.2037 34.8472 86.9585 30.6534C89.4914 27.8244 89.4914 27.8244 86.352 26.4302C84.6254 25.6633 82.1774 24.758 80.9122 24.4184C77.8297 23.5909 77.2274 22.9988 77.2274 20.7961C77.2274 18.3242 79.1657 16.9569 81.9315 17.478C82.9987 17.679 83.8719 17.6193 83.8719 17.3451C83.8719 17.071 82.6261 15.6943 81.1034 14.2857C78.1698 11.5721 77.8053 10.4592 79.1968 8.46426C80.4683 6.64124 82.7273 6.88274 85.5757 9.14621C86.903 10.201 88.1053 10.9471 88.2475 10.8044C88.3896 10.6616 87.6726 8.81494 86.6541 6.70066C84.8651 2.98706 84.8338 2.80801 85.7341 1.42826C86.4379 0.349534 87.1354 0 88.5843 0C90.2231 0 90.7081 0.327087 91.9138 2.24507C93.4241 4.64759 97.1036 12.7775 98.9506 17.7931C100.579 22.2151 100.618 22.243 103.822 21.2999C107.48 20.2231 109.738 20.981 112.6 24.2457C116.349 28.5223 121.482 39.5366 124.757 50.3296C129.262 65.1781 129.509 75.0805 125.431 77.2725C123.769 78.1654 120.863 77.9444 118.962 76.7807ZM121.524 67.6196C121.524 65.2027 119.341 55.5856 117.618 50.41C113.851 39.0964 108.06 27.8018 106.027 27.8018C104.743 27.8018 95.7176 32.3649 93.6331 34.0679C92.0433 35.3667 92.0433 35.3667 95.4819 39.3688C97.3731 41.5699 99.0852 43.363 99.2865 43.3534C99.4879 43.3439 100.649 42.7196 101.867 41.9662C104.464 40.3602 105.829 40.2442 107.223 41.5109C108.891 43.027 108.51 45.3273 106.297 47.1003C104.04 48.9085 103.955 49.3774 105.519 51.3737C106.495 52.6196 106.968 52.7996 108.506 52.5099C111.932 51.8644 113.941 54.1781 112.657 57.2908C112.02 58.8347 112.158 59.088 116.275 63.9222C118.63 66.6867 120.774 68.9485 121.04 68.9485C121.306 68.9485 121.524 68.3505 121.524 67.6196ZM161.114 65.8456C159.896 65.4106 158.217 64.465 157.382 63.7441C156.143 62.6738 155.026 62.3769 151.291 62.1252C139.923 61.3591 132.715 56.5432 130.56 48.2736C129.734 45.1037 129.686 44.0093 130.229 40.8237C131.593 32.8269 136.232 26.6828 148.779 16.2571C153.569 12.2769 158.623 5.86695 158.623 3.772C158.623 3.2406 159.274 2.37705 160.071 1.85301C162.352 0.351743 163.855 1.62894 167.048 7.7845C168.555 10.6898 171.841 15.9443 174.35 19.4613C182.307 30.6176 184.471 34.9182 186.04 42.6946C187.55 50.1776 185.868 55.4285 180.229 60.8291C175.741 65.1281 172.185 66.7244 167.205 66.675C165.073 66.6539 162.332 66.2806 161.114 65.8456ZM167.657 54.8473C170.923 49.8414 171.169 38.4001 168.214 28.9558C167.017 25.1316 166.666 26.1007 167.438 31.0983C168.587 38.5306 167.988 49.0671 166.073 55.1255C165.61 56.5899 166.638 56.4094 167.657 54.8473ZM178.502 52.1012C179.154 50.7483 179.664 48.5945 179.664 47.1884C179.664 44.7008 178.161 38.5781 177.671 39.07C177.53 39.2114 177.304 41.5026 177.168 44.1616C176.95 48.4058 176.558 50.7777 175.425 54.6783C174.846 56.6752 177.28 54.6363 178.502 52.1012ZM142.011 51.9672C142.011 51.8021 141.465 50.6136 140.798 49.326C139.873 47.541 139.577 45.9791 139.552 42.7495C139.523 38.9136 139.716 38.1294 141.601 34.4395C143.682 30.3652 143.682 30.3652 141.979 32.0027C140.122 33.7876 137.37 39.2175 136.825 42.1682C136.34 44.7988 137.457 48.6799 139.258 50.6155C140.635 52.0956 142.011 52.7714 142.011 51.9672ZM160.66 48.0556C161.397 44.5009 161.526 36.73 160.887 34.4742C160.493 33.0841 160.493 33.0841 159.823 34.3203C157.695 38.2481 157.324 52.2386 159.366 51.555C159.703 51.4424 160.285 49.8677 160.66 48.0556ZM151.214 44.6207C151.251 41.6013 151.68 37.6873 152.183 35.7841C153.401 31.1736 153.34 30.7037 151.725 32.2273C149.69 34.1474 147.538 37.4638 146.653 40.0436C145.689 42.8531 146.33 45.8284 148.443 48.3498C150.765 51.1209 151.141 50.6153 151.214 44.6207ZM202.417 53.2558C199.64 52.3089 196.494 49.044 195.777 46.3653C195.049 43.6437 195.434 41.215 197.137 37.7867C198.64 34.7613 199.854 30.6669 200.92 25.0216C201.964 19.4975 203.365 15.9325 206.067 11.9251C207.293 10.1065 208.717 7.79591 209.232 6.79046C209.756 5.76592 210.948 4.62923 211.942 4.20447C214.686 3.03265 227.442 1.49051 230.852 1.91837C234.72 2.40363 238.459 4.80711 240.586 8.17484C242.744 11.592 243.333 13.8511 243.337 18.7217C243.34 23.2551 240.524 34.0535 238.036 39.0458C235.044 45.0496 229.184 49.083 219.253 51.9748C213.529 53.6417 205.369 54.2625 202.417 53.2558ZM217.771 45.2343C228.126 42.2548 231.537 38.9607 234.381 29.1919C236.15 23.1148 236.148 23.0897 234.022 22.9831C230.503 22.8068 228.84 19.6221 231.164 17.5104C231.903 16.8388 233.031 16.5289 234.522 16.5876C236.61 16.6697 236.742 16.588 236.385 15.4274C235.663 13.078 234.503 11.2188 233.033 10.0577C231.814 9.09529 230.841 8.90685 227.346 8.95659C225.027 8.9896 221.513 9.30237 219.538 9.65164C215.994 10.2782 215.91 10.3348 213.238 13.9009C209.667 18.6668 208.681 20.9926 207.31 27.883C206.68 31.0495 205.534 35.1415 204.764 36.9764C202.268 42.918 202.011 44.2799 203.146 45.5394C203.694 46.1474 204.677 46.7524 205.33 46.8837C207.501 47.32 213.104 46.5771 217.771 45.2343ZM208.265 41.2419C206.348 39.1139 207.789 35.5863 210.576 35.5863C212.083 35.5863 213.993 37.4513 213.993 38.9225C213.993 40.4315 212.069 42.2587 210.48 42.2587C209.766 42.2587 208.769 41.8011 208.265 41.2419ZM226.729 32.8061C226.12 32.1945 225.621 31.1936 225.621 30.582C225.621 29.073 227.546 27.2458 229.135 27.2458C231.886 27.2458 233.315 31.1246 231.253 32.998C229.892 34.2353 228.075 34.1583 226.729 32.8061ZM216.885 30.8285C215.502 29.8557 215.166 26.6624 216.347 25.7138C218.035 24.3575 219.5 24.3838 220.906 25.7959C222.654 27.5516 222.662 28.6001 220.94 30.3292C219.356 31.9196 218.574 32.016 216.885 30.8285ZM217.869 18.1893C216.303 17.3976 215.673 14.3841 216.792 13.0305C217.842 11.7605 220.984 12.0252 221.991 13.4686C223.173 15.164 223.077 15.95 221.494 17.5404C219.935 19.1053 219.748 19.1388 217.869 18.1893Z" fill="#FDF8E3"/>
<path d="M159.873 276.114C157.971 275.405 156.024 274.498 155.545 274.098C153.891 272.72 153.086 270.301 153.086 266.71C153.086 261.771 155.088 257.94 159.161 255.082C161.813 253.221 162.502 252.996 165.538 252.996C171.386 252.996 176.726 255.068 178.281 257.941C178.713 258.738 179.076 259.078 179.088 258.695C179.1 258.313 179.733 258 180.494 258C181.602 258 181.878 258.278 181.878 259.39C181.878 260.503 181.602 260.781 180.494 260.781C179.202 260.781 179.11 260.966 179.11 263.561C179.11 265.97 179.258 266.341 180.217 266.341C181.029 266.341 181.325 266.712 181.325 267.731C181.325 268.876 181.056 269.122 179.802 269.125C178.611 269.129 178.008 269.607 177.033 271.322C173.809 276.992 167.184 278.842 159.873 276.114ZM167.82 264.904C168.057 263.957 167.892 263.178 167.336 262.62C166.581 261.862 166.371 261.896 165.327 262.945C163.551 264.728 163.781 266.341 165.81 266.341C167.124 266.341 167.534 266.047 167.82 264.904ZM185.924 276.12C184.37 274.779 184.37 274.779 184.206 259.312C184.018 241.547 184.062 241.319 187.7 241.319C191.142 241.319 191.785 242.378 192.926 249.914C193.463 253.459 194.045 256.503 194.22 256.678C194.395 256.854 195.712 256.097 197.147 254.997C199.28 253.361 200.227 252.996 202.335 252.996C205.53 252.996 206.242 253.677 206.242 256.734C206.242 258.762 205.898 259.511 204.043 261.533C201.844 263.928 201.844 263.928 205.149 265.514C209.823 267.757 210.948 269.122 210.948 272.547C210.948 276.028 209.929 276.906 205.888 276.906C203.259 276.906 202.63 276.641 199.378 274.169C195.778 271.433 195.778 271.433 195.156 273.327C193.828 277.368 189.046 278.815 185.924 276.12ZM219.727 273.741C217.407 273.285 216.692 271.717 216.18 265.966C215.398 257.173 215.515 252.103 216.525 251.09C217.502 250.109 220.73 249.928 222.291 250.767C222.855 251.071 223.48 252.134 223.68 253.13C224.368 256.563 224.563 256.888 225.936 256.888C227.003 256.888 227.283 257.177 227.283 258.278C227.283 259.043 227.532 259.668 227.836 259.668C228.141 259.668 228.39 260.419 228.39 261.337C228.39 262.254 228.639 263.005 228.944 263.005C229.248 263.005 229.497 264.006 229.497 265.229C229.497 267.231 229.359 267.453 228.113 267.453C226.867 267.453 226.729 267.231 226.729 265.229C226.729 264.006 226.53 263.005 226.287 263.005C226.044 263.005 225.857 265.027 225.872 267.5C225.896 271.569 225.775 272.095 224.591 273.06C223.331 274.087 222.257 274.238 219.727 273.741ZM225.446 260.12C225.269 259.677 225.138 259.808 225.111 260.456C225.087 261.042 225.218 261.371 225.402 261.186C225.586 261.001 225.606 260.522 225.446 260.12ZM133.948 271.412C131.184 270.695 126.506 267.9 125.355 266.278C121.694 261.114 124.776 252.366 131.456 248.965C135.866 246.719 140.539 246.82 145.044 249.258C148.676 251.224 150.871 253.92 150.871 256.415C150.871 257.453 151.157 258 151.701 258C152.158 258 152.529 258.438 152.524 258.973C152.51 260.83 151.845 262.449 151.097 262.449C150.684 262.449 149.965 263.187 149.501 264.089C148.417 266.194 148.434 266.341 149.763 266.341C150.502 266.341 150.871 266.712 150.871 267.453C150.871 268.269 150.502 268.565 149.487 268.565C148.557 268.565 148.102 268.257 148.102 267.627C148.102 266.866 147.814 266.959 146.58 268.12C143.383 271.123 138.123 272.494 133.948 271.412ZM139.262 259.633C139.926 258.387 139.169 256.888 137.877 256.888C136.801 256.888 135.2 258.987 135.559 259.926C136.042 261.188 138.538 260.991 139.262 259.633ZM234.648 269.7C233.002 268.994 232.148 267.15 230.116 259.921C228.075 252.658 227.847 248.323 229.461 247.455C230.846 246.711 234.312 246.712 234.77 247.456C234.968 247.777 235.827 247.06 236.705 245.843C239.587 241.848 245.658 241.278 250.303 244.567C251.651 245.52 252.753 246.056 252.753 245.756C252.753 245.457 253.474 245.212 254.355 245.212C255.984 245.212 256.629 246.013 256.629 248.037C256.629 248.624 256.878 249.104 257.183 249.104C257.487 249.104 257.737 249.729 257.737 250.494C257.737 251.513 258.032 251.884 258.844 251.884C260.126 251.884 260.209 252.331 259.181 253.691C258.125 255.087 257.183 254.89 257.183 253.274C257.183 252.51 256.905 251.884 256.565 251.884C256.184 251.884 256.087 252.364 256.314 253.135C256.516 253.823 256.82 255.762 256.991 257.444C257.253 260.034 257.116 260.737 256.094 262.032C255.099 263.293 254.452 263.561 252.4 263.561C248.929 263.561 248.015 262.901 246.017 258.953C244.27 255.498 244.27 255.498 243.791 257.166C243.528 258.084 243.158 260.893 242.968 263.41C242.712 266.808 242.366 268.219 241.62 268.897C240.435 269.974 236.377 270.442 234.648 269.7ZM273.933 266.07C272.027 264.687 272.206 260.551 274.348 256.522C275.261 254.802 276.009 252.892 276.009 252.276C276.009 251.184 275.98 251.182 274.881 252.181C273.617 253.329 268.483 253.927 265.198 253.308C262.568 252.813 259.018 249.546 258.304 246.964C257.306 243.355 257.621 238.531 259.053 235.481C261.336 230.62 263.386 229.375 270.116 228.762C275.207 228.299 275.279 228.358 280.683 237.369C285.663 245.674 286.53 248.056 286.526 253.419C286.522 259.075 285.773 261.558 283.251 264.273C281.41 266.255 280.826 266.539 278.175 266.743C276.001 266.911 274.837 266.726 273.933 266.07ZM103.252 263.781C101.577 263.331 99.1569 262.454 97.8741 261.832C94.6099 260.25 89.9491 255.383 88.0047 251.525C86.4818 248.504 86.3637 247.83 86.3637 242.153C86.3637 236.503 86.484 235.807 87.9424 233.025C90.037 229.03 94.5088 224.628 98.2684 222.861C106.607 218.942 116.194 219.352 121.429 223.851C124.834 226.778 126.042 229.476 125.841 233.702C125.677 237.149 125.677 237.149 123.099 237.316C120.664 237.474 120.333 237.314 117.094 234.412C114.866 232.416 112.975 231.211 111.691 230.969C107.945 230.263 102.043 233.279 99.4359 237.233C96.8211 241.197 97.1772 243.936 100.836 248.003C103.451 250.91 105.928 252.17 111.65 253.509C114.412 254.154 116.498 254.964 116.931 255.56C117.326 256.102 117.648 257.877 117.648 259.505C117.648 262.248 117.516 262.546 115.849 263.567C113.643 264.917 107.845 265.016 103.252 263.781ZM213.194 247.868C212.72 247.188 212.332 245.687 212.332 244.532C212.332 241.698 213.859 240.207 216.762 240.207C219.665 240.207 221.192 241.698 221.192 244.532C221.192 247.85 219.977 249.104 216.762 249.104C214.594 249.104 213.885 248.858 213.194 247.868ZM51.8446 227.08C47.2481 224.78 43.2021 220.686 40.897 216.002C39.1665 212.486 38.8468 211.22 38.6024 206.915C38.4319 203.913 38.5818 200.842 38.9772 199.236C40.4038 193.439 45.2153 188.538 52.0337 185.938C55.3322 184.68 65.5622 184.477 69.2858 185.595C72.8627 186.67 76.7413 189.597 78.5956 192.622C80.0351 194.97 80.3002 196.005 80.4655 199.924C80.7136 205.808 80.197 206.845 77.017 206.845C74.2849 206.845 73.4748 206.148 71.851 202.397C70.5066 199.292 67.4393 196.521 64.4508 195.713C58.2134 194.027 50.0632 199.313 50.1079 205.016C50.139 208.978 53.3818 213.406 58.9507 217.09C61.0625 218.488 63.0487 220.115 63.3644 220.708C64.513 222.863 63.7917 226.941 62.056 228.105C61.721 228.33 59.9384 228.517 58.0948 228.522C55.5801 228.528 54.019 228.168 51.8446 227.08ZM302.42 225.533C292.975 222.016 287.504 211.089 289.191 199.111C289.943 193.773 291.203 191.077 294.229 188.332C297.266 185.577 299.836 184.604 304.075 184.604C308.655 184.604 309.785 185.204 309.785 187.636C309.785 190.5 309.364 191.118 306.159 192.96C300.536 196.19 298.756 199.779 300.036 205.303C301.257 210.57 305.202 214.623 309.111 214.627C313.497 214.633 318.385 210.762 321.36 204.927C323.826 200.09 325.364 198.867 328.53 199.223C332.103 199.623 332.766 200.584 332.752 205.337C332.741 208.78 332.469 209.892 330.828 213.199C328.395 218.102 324.645 221.864 319.894 224.169C316.516 225.808 315.589 226 310.339 226.151C306.334 226.266 303.87 226.073 302.42 225.533ZM188.246 223.253C187.942 223.151 187.001 222.914 186.156 222.727C182.796 221.982 181.473 218.638 183.215 215.297C183.646 214.471 184.892 212.933 185.984 211.879C188.388 209.559 188.482 208.238 186.601 203.221C184.695 198.135 180.809 190.779 179.718 190.193C179.177 189.903 177.69 189.948 176.052 190.305C174.536 190.636 167.814 190.927 161.114 190.952C150.71 190.991 148.448 190.847 145.611 189.964C138.506 187.752 133.524 183.691 132.049 178.911C131.646 177.607 128.802 171.725 125.729 165.838C121.81 158.334 119.858 155.135 119.198 155.134C118.68 155.134 116.811 155.52 115.045 155.992C105.768 158.474 97.0577 155.775 93.7023 149.381C92.0409 146.214 92.1089 140.966 93.8655 136.785C95.5123 132.865 98.4374 128.144 100.755 125.664C102.41 123.894 102.597 123.337 102.823 119.517C103.167 113.711 105.372 109.635 111.553 103.385C134.037 80.6476 191.782 56.8418 230.882 54.1909C236.83 53.7876 245.107 54.5455 248.715 55.824C250.475 56.4476 251.191 56.4618 252.523 55.8995C256.99 54.0134 264.789 54.5667 270.691 57.1885C274.018 58.6663 278.164 62.5876 279.438 65.4612C280.655 68.2067 280.847 72.9557 279.865 75.9956C278.737 79.4825 275.488 83.9386 270.274 89.1464C265.362 94.0536 265.361 94.0535 267.992 107.496C269.439 114.889 271.102 122.064 271.687 123.44C272.272 124.816 272.888 127.443 273.056 129.278C274.034 139.978 263.411 152.784 243.22 165.244C240.186 167.116 237.571 168.995 237.409 169.42C237.02 170.436 241.202 181.886 242.087 182.228C242.463 182.374 244.083 182.269 245.686 181.995C253.825 180.605 258.135 185.28 255.034 192.135C253.657 195.178 248.363 199.805 243.474 202.238C239.727 204.103 239.309 204.194 237.286 203.586C236.092 203.227 234.457 202.146 233.651 201.184C231.93 199.13 227.874 191.105 224.512 183.101C223.202 179.981 221.829 177.313 221.461 177.171C221.093 177.029 218.72 177.765 216.188 178.807C213.655 179.848 208.387 181.758 204.482 183.053C198.358 185.082 197.382 185.568 197.382 186.583C197.382 187.23 199.89 193.105 202.955 199.638C206.021 206.172 208.647 212.155 208.791 212.934C209.262 215.481 207.189 217.856 202.66 219.957C197.56 222.323 190.375 223.966 188.246 223.253ZM196.355 217.419C200.838 216.014 203.473 214.389 203.473 213.028C203.473 211.214 192.117 187.678 191.15 187.49C189.621 187.193 185.754 188.499 185.754 189.314C185.754 189.74 186.78 192.152 188.033 194.675C193.569 205.814 194.184 212.144 190 214.898C188.509 215.879 187.777 217.203 188.277 218.016C188.8 218.866 192.645 218.582 196.355 217.419ZM242.681 197.357C247.218 194.745 251.092 190.737 251.092 188.658C251.092 185.986 248.679 185.5 244.937 187.417C240.322 189.781 238.74 188.384 235.319 178.925C232.655 171.558 232.495 171.391 229.542 172.904C228.269 173.556 227.088 174.456 226.917 174.905C226.527 175.924 228.151 180.06 232.579 189.33C235.965 196.418 237.733 199.066 239.07 199.055C239.439 199.053 241.064 198.288 242.681 197.357ZM176.895 179.042C201.703 174.565 228.839 163.09 246.989 149.401C255.76 142.786 261.613 135.985 261.613 132.409C261.613 130.449 253.003 86.4853 252.44 85.5707C251.854 84.6179 250.918 85.0927 247.348 88.1523C226.878 105.7 187.696 123.468 153.086 130.896C144.469 132.745 138.655 133.513 130.113 133.931C123.798 134.24 122.898 134.404 122.731 135.279C122.627 135.828 125.47 141.833 129.049 148.624C132.628 155.416 137.051 163.85 138.878 167.367C144.733 178.637 145.049 178.956 151.552 180.134C155.985 180.937 169.657 180.348 176.895 179.042ZM181.048 164.313C178.357 163.364 175.379 160.089 174.906 157.559C174.694 156.422 174.88 154.89 175.384 153.62C176.145 151.703 176.653 151.357 181.951 149.145C185.109 147.826 192.27 144.505 197.864 141.766C210.436 135.609 212.575 135.397 215.637 140.009C218.355 144.102 216.993 151.648 212.719 156.176C209.163 159.944 202.641 163.288 196.386 164.55C192.264 165.382 183.705 165.25 181.048 164.313ZM194.337 160.116C201.401 159.101 208.943 154.622 211.258 150.065C212.981 146.672 212.544 142.416 210.386 141.585C209.881 141.39 206.084 142.976 201.311 145.377C196.798 147.646 190.393 150.662 187.077 152.079C179.647 155.252 179.088 155.719 180.241 157.789C181.752 160.5 186.362 161.261 194.337 160.116ZM139.891 150.2C139.48 149.938 139.235 149.048 139.337 148.187C139.507 146.752 140.308 146.296 150.735 141.696C159.979 137.617 162.143 136.852 163.055 137.342C164.291 138.006 164.539 140.248 163.468 141.074C162.327 141.954 142.278 150.686 141.42 150.677C140.984 150.672 140.296 150.457 139.891 150.2ZM217.98 122.772C217.615 122.405 217.316 121.521 217.316 120.807C217.316 119.259 217.532 119.159 233.212 113.443C245.172 109.084 246.109 108.99 246.109 112.14C246.109 113.201 245.601 113.714 243.755 114.516C240.493 115.933 219.811 123.44 219.169 123.44C218.88 123.44 218.346 123.139 217.98 122.772ZM110.682 140.895C111.163 140.71 111.557 140.199 111.557 139.761C111.557 138.406 109.361 134.56 108.587 134.56C107.181 134.56 104.257 139.126 104.758 140.538C105.015 141.261 109.093 141.507 110.682 140.895ZM141.458 122.032C179.105 116.35 232.464 91.6929 245.87 73.7839C250.402 67.7299 248.411 65.6654 237.58 65.1854C210.205 63.9723 159.097 81.6363 129.247 102.627C120.828 108.548 113.772 116.177 113.772 119.359C113.772 123.133 126.209 124.334 141.458 122.032ZM168.455 101.086C165.378 100.266 163.606 97.8526 163.606 94.4848C163.606 92.1231 163.88 91.4449 165.605 89.527C169.006 85.7469 180.292 80.874 188.132 79.8008C193.955 79.0036 198.536 83.5633 197.679 89.3035C196.836 94.9518 190.446 98.8101 178.531 100.865C172.782 101.857 171.453 101.886 168.455 101.086ZM264.587 70.9868C265.874 68.3412 265.238 66.4628 262.904 66.0128C260.661 65.5805 259.855 66.4677 260.295 68.8862C261.225 74.004 262.756 74.7528 264.587 70.9868ZM329.84 197.358C330.363 197.052 331.04 196.371 331.345 195.846C331.813 195.04 331.903 195.13 331.917 196.419C331.931 197.725 331.711 197.946 330.411 197.932C329.127 197.917 329.037 197.827 329.84 197.358ZM331.529 193.254C327.856 191.145 314.62 182.001 312.079 179.816C309.911 177.953 309.785 177.679 309.785 174.816C309.785 172.025 309.905 171.741 311.308 171.201C313.827 170.23 316.722 171.101 323.382 174.832C327.516 177.147 329.719 178.11 329.719 177.6C329.719 177.138 330.283 176.819 331.103 176.819C331.864 176.819 332.487 177.049 332.487 177.331C332.487 177.613 333.251 178.011 334.185 178.217C335.642 178.539 335.859 178.811 335.72 180.146C335.589 181.403 336.032 182.097 338.037 183.774C341.26 186.47 341.328 186.599 341.338 189.993C341.345 192.353 341.121 193.04 340.116 193.747C338.252 195.058 334.273 194.829 331.529 193.254ZM39.0216 192.666C39.0216 192.203 38.5294 191.832 37.9142 191.832C37.3051 191.832 36.8068 191.582 36.8068 191.276C36.8068 190.97 37.4297 190.72 38.191 190.72C39.2984 190.72 39.5753 190.998 39.5753 192.11C39.5753 192.875 39.4507 193.5 39.2984 193.5C39.1462 193.5 39.0216 193.125 39.0216 192.666ZM26.4798 189.021C23.6326 187.605 18.5474 182.327 16.8433 179.019C15.8927 177.173 15.5057 175.318 15.3252 171.742C15.192 169.103 15.2989 166.565 15.5628 166.102C15.8267 165.639 21.649 162.388 28.5011 158.878C37.9808 154.022 41.1323 152.146 41.6819 151.035C42.2782 149.828 42.7836 149.573 44.5777 149.573C49.2621 149.573 52.5323 152.242 57.2837 159.942C60.6808 165.447 60.0595 172.53 55.8545 176.237C54.0802 177.802 53.617 177.931 49.7996 177.931C46.1277 177.931 45.6661 178.048 45.6661 178.973C45.6661 179.547 45.3034 181.048 44.8601 182.31C44.4168 183.571 44.2714 184.604 44.5371 184.604C44.8027 184.604 45.147 184.291 45.3022 183.909C45.4912 183.443 45.9539 183.672 46.7053 184.604C47.3712 185.429 47.5845 186.078 47.2307 186.202C46.9031 186.317 46.1679 186.88 45.5969 187.453C44.5522 188.502 41.7901 188.91 41.7901 188.015C41.7901 187.751 40.6266 188.127 39.2046 188.85C35.7452 190.608 29.8335 190.688 26.4798 189.021ZM33.9987 179.065C34.546 178.77 35.3012 177.784 35.6771 176.873C36.4509 174.997 35.8623 172.502 34.1052 170.209C33.0878 168.881 33.0878 168.881 29.7091 170.793C26.3304 172.706 26.3304 172.706 27.3235 174.345C28.2557 175.885 32.0637 179.599 32.7096 179.599C32.8713 179.599 33.4514 179.359 33.9987 179.065ZM49.5421 166.783C49.5421 165.828 48.07 163.26 46.9686 162.294C46.022 161.463 45.8231 161.469 44.3877 162.363C42.8325 163.332 42.8326 163.332 45.1796 165.349C47.447 167.298 49.5421 167.987 49.5421 166.783ZM337.748 177.709C334.365 176.635 332.044 175.276 329.379 172.809C327.242 170.831 326.95 170.277 326.95 168.198C326.95 166.796 327.282 165.558 327.765 165.156C328.963 164.157 333.26 164.716 337.748 166.455C341.623 167.956 341.624 167.956 338.824 165.298C337.285 163.836 334.98 161.738 333.703 160.635C331.595 158.815 331.38 158.39 331.38 156.047C331.38 152.594 332.704 151.241 336.086 151.241C338.375 151.241 338.578 151.128 338.578 149.851C338.578 148.739 338.855 148.461 339.962 148.461C341.07 148.461 341.347 148.739 341.347 149.851C341.347 150.921 341.059 151.243 340.101 151.247C337.7 151.257 343.119 153.896 349.136 155.648C352.356 156.585 355.212 157.749 355.601 158.283C356.695 159.785 356.465 163.305 355.189 164.586C354.58 165.198 353.708 165.698 353.251 165.698C352.595 165.698 352.42 166.487 352.419 169.452C352.417 173.919 351.295 176.173 348.388 177.559C346.083 178.657 340.96 178.73 337.748 177.709ZM324.735 174.098C324.735 173.134 325.733 172.371 326.995 172.371C327.275 172.371 327.504 172.996 327.504 173.761C327.504 174.873 327.227 175.151 326.12 175.151C325.131 175.151 324.735 174.851 324.735 174.098ZM29.6085 153.744C29.6085 152.632 29.8854 152.354 30.9928 152.354C32.1002 152.354 32.3771 152.632 32.3771 153.744C32.3771 154.856 32.1002 155.134 30.9928 155.134C29.8854 155.134 29.6085 154.856 29.6085 153.744ZM348.96 154.735C347.755 154.552 347.437 154.207 347.437 153.078C347.437 151.74 347.565 151.673 349.514 151.997C350.656 152.186 351.902 152.344 352.282 152.347C352.663 152.351 352.975 152.979 352.975 153.744C352.975 155.198 352.604 155.29 348.96 154.735ZM12.9937 152.39C8.55596 151.035 5.74537 148.334 4.38782 144.122C2.45332 138.12 4.49869 130.126 8.97981 126.175C12.9161 122.705 21.6398 119.755 29.7538 119.151C35.0726 118.756 36.253 119.496 36.253 123.226C36.253 126.529 35.1857 127.36 26.6686 130.693C18.5402 133.874 17.4115 134.576 15.776 137.465C14.8528 139.096 14.7307 139.773 15.2008 140.656C16.3404 142.794 17.567 142.758 35.1456 140.074C40.6589 139.233 44.005 140.557 44.005 143.581C44.005 144.198 44.4203 144.569 45.1124 144.569C45.9245 144.569 46.2198 144.94 46.2198 145.959C46.2198 146.865 45.9099 147.349 45.3307 147.349C44.8418 147.349 43.6857 147.988 42.7617 148.769C41.8378 149.549 40.3691 150.331 39.498 150.506C38.6269 150.681 37.9142 151.169 37.9142 151.589C37.9142 152.454 35.3425 152.658 35.0533 151.816C34.9385 151.481 32.8815 151.583 29.6085 152.084C24.0357 152.938 15.3122 153.098 12.9937 152.39ZM352.211 150.628C347.866 149.385 333.218 143.538 328.494 141.161C326.754 140.286 325.048 139.04 324.703 138.392C323.807 136.712 324.535 132.483 325.84 131.782C328.149 130.541 333.02 131.637 337.044 134.304C338.179 135.057 339.176 135.672 339.258 135.672C339.341 135.672 339.41 134.109 339.411 132.197C339.417 125.315 342.705 122.603 351.037 122.61C355.076 122.613 356.439 122.84 358.235 123.81C363.234 126.51 365.156 130.088 365.156 136.698C365.156 140.179 364.868 141.749 363.772 144.238C363.01 145.966 362.388 147.985 362.388 148.724C362.388 151.799 358.708 152.488 352.211 150.628ZM353.92 135.958C352.881 133.769 350.604 132.064 349.36 132.543C348.591 132.84 348.592 133.039 349.366 134.543C349.84 135.462 351.021 137.122 351.992 138.233C353.707 140.194 353.773 140.218 354.29 139.055C354.674 138.192 354.571 137.328 353.92 135.958ZM335.36 149.197C335.874 149.06 336.401 148.401 336.531 147.732C336.725 146.73 336.779 146.785 336.842 148.044C336.903 149.299 336.693 149.562 335.671 149.509C334.788 149.463 334.698 149.372 335.36 149.197ZM118.822 75.313C117.897 74.5321 113.456 69.5767 108.951 64.3009C86.8322 38.3968 85.5331 36.7862 85.5331 35.2657C85.5331 34.2363 86.3081 32.9934 88.0248 31.2694C89.3953 29.8933 90.5165 28.4092 90.5165 27.9715C90.5165 27.1158 85.0752 24.4255 81.2602 23.395C78.7667 22.7214 77.763 21.5972 78.1902 19.9565C78.5605 18.5347 80.1072 18.1864 82.8078 18.9166C87.2789 20.1256 86.8854 17.6672 81.9589 13.6133C79.415 11.5201 78.8943 10.2251 80.1068 9.00752C81.3502 7.75888 83.1935 8.33577 85.9699 10.8424C87.4941 12.2186 89.0161 13.3446 89.352 13.3446C90.4672 13.3446 89.9858 11.1386 88.0118 7.20222C86.4173 4.02275 86.1712 3.10463 86.6648 2.17845C87.0885 1.38334 87.712 1.09659 88.7542 1.21749C89.965 1.35797 90.6195 2.10942 92.2943 5.28208C93.4244 7.42282 95.3765 11.8016 96.6323 15.0127C97.8881 18.2238 99.1508 21.4414 99.4383 22.1629C99.7871 23.0385 100.278 23.3826 100.914 23.1977C106.561 21.5571 106.826 21.5303 108.872 22.3954C114.653 24.8397 123.667 45.5982 126.794 63.6658C128.286 72.2898 126.872 76.7327 122.634 76.7327C121.156 76.7327 119.987 76.2973 118.822 75.313ZM122.475 69.6685C122.674 69.1472 122.411 66.1893 121.889 63.0953C119.332 47.9158 110.083 26.6895 106.026 26.6895C104.801 26.6895 96.5429 30.7462 93.5292 32.8284C92.1768 33.7629 91.0732 34.8281 91.0768 35.1957C91.0857 36.0854 98.2231 44.4826 98.9706 44.4826C99.2922 44.4826 100.656 43.8349 102.001 43.0433C105.123 41.206 107.128 41.5267 107.128 43.8633C107.128 45.0948 106.635 45.7741 104.913 46.9188C103.695 47.7283 102.698 48.6181 102.698 48.8961C102.698 49.1741 103.371 50.234 104.193 51.2514C105.015 52.2688 105.784 53.2263 105.901 53.3792C106.018 53.5321 107.248 53.6572 108.633 53.6572C111.62 53.6572 112.835 54.8683 111.692 56.7059C111.313 57.3145 111.004 58.1708 111.004 58.6089C111.004 59.7183 120.38 70.6163 121.334 70.6163C121.762 70.6163 122.276 70.1898 122.475 69.6685ZM161.131 64.7255C159.922 64.281 158.302 63.3274 157.532 62.6063C156.338 61.4894 155.393 61.2537 151.148 61.0136C142.386 60.5181 135.762 57.0643 132.92 51.5096C128.295 42.4708 132.31 31.4065 143.561 22.1881C152.97 14.4799 158.831 7.99019 159.523 4.51528C159.873 2.75821 160.958 2.00505 162.438 2.49127C162.928 2.65221 164.541 5.14072 166.023 8.0213C167.505 10.9019 171.017 16.51 173.828 20.4838C176.639 24.4575 179.972 29.7032 181.235 32.1408C184 37.479 186.014 45.3287 185.53 48.8858C184.704 54.9662 179.846 61.3493 173.892 64.1775C170.381 65.8457 164.827 66.0842 161.131 64.7255ZM167.453 56.745C172.958 51.2168 172.531 34.4265 166.545 20.9982C163.768 14.7699 161.834 15.2902 163.991 21.6851C166.929 30.396 167.794 42.3746 166.059 50.321C164.508 57.4274 164.476 57.8275 165.472 57.8275C165.968 57.8275 166.86 57.3403 167.453 56.745ZM177.558 55.2342C180.762 51.8506 181.474 47.677 179.9 41.5047C178.888 37.5372 177.783 35.586 176.548 35.586C175.793 35.586 175.724 36.1792 176.046 39.8953C176.441 44.4545 175.787 50.0371 174.363 54.2471C173.002 58.2743 174.299 58.6752 177.558 55.2342ZM143.929 53.9677C144.107 53.6797 143.436 51.8818 142.439 49.9723C140.889 47.0017 140.627 45.9334 140.629 42.5724C140.63 38.1162 141.636 35.5772 145.327 30.7094C149.515 25.1859 147.694 24.4274 142.724 29.6251C135.11 37.5877 133.515 46.4957 138.805 51.507C141.587 54.1421 143.312 54.9705 143.929 53.9677ZM161.353 50.3145C162.427 46.5589 162.486 32.7401 161.434 31.4673C160.27 30.0586 159.42 31.2379 158.124 36.0635C156.051 43.7777 156.899 53.7921 159.581 53.2765C160.219 53.1538 160.837 52.1219 161.353 50.3145ZM152.308 45.0379C152.383 41.1774 152.783 37.4326 153.319 35.586C154.9 30.1421 155.014 28.9136 153.939 28.9136C152.875 28.9136 151.956 29.886 148.392 34.7854C147.043 36.6387 145.717 39.153 145.444 40.3727C144.688 43.7505 145.872 47.6356 148.353 49.919C151.71 53.008 152.164 52.4474 152.308 45.0379ZM202.719 52.0472C199.805 50.9516 197.481 48.5822 196.789 46.0019C196.157 43.6469 196.65 41.4896 199.234 35.308C200 33.4731 201.129 29.4696 201.741 26.4114C203.209 19.0806 203.921 17.2024 207.227 11.9351C211.89 4.50776 211.383 4.81802 220.789 3.63627C230.362 2.43367 233.485 2.81848 236.866 5.61685C240.448 8.5821 241.868 11.7256 242.132 17.2809C242.332 21.4869 242.128 22.9646 240.585 28.4404C237.307 40.0765 234.146 44.6296 226.979 48.0371C219.094 51.7864 207.237 53.7463 202.719 52.0472ZM217.763 46.3572C229.238 43.0338 232.44 39.7827 235.842 27.9986C237.724 21.4787 237.723 21.467 235.074 21.8923C231.763 22.424 229.987 20.1611 232.072 18.0674C232.655 17.4817 233.405 17.2827 234.148 17.5166C237.995 18.7272 238.004 18.7233 237.585 16.0923C236.682 10.4169 233.48 7.77406 227.559 7.81557C222.903 7.84821 216.018 9.01383 214.88 9.96204C214.428 10.3382 212.833 12.4608 211.334 14.6789C208.615 18.7037 207.169 22.2059 206.491 26.4114C205.793 30.7376 204.469 35.3529 202.873 39.0154C200.991 43.3371 200.858 45.0586 202.306 46.3747C204.834 48.6718 209.79 48.6662 217.763 46.3572ZM209.104 40.6722C208.688 40.4003 208.447 39.4937 208.551 38.5839C208.705 37.224 208.98 36.9761 210.334 36.9761C212.308 36.9761 213.441 38.4685 212.55 39.8953C211.857 41.0053 210.191 41.381 209.104 40.6722ZM227.393 32.1386C225.81 30.5484 227.267 28.121 229.605 28.4539C230.548 28.588 230.93 29.0565 231.064 30.2434C231.323 32.5173 228.977 33.7286 227.393 32.1386ZM217.731 29.9811C215.931 28.9284 217.032 25.5774 219.178 25.5774C219.756 25.5774 221.192 27.3608 221.192 28.0796C221.192 28.8695 219.724 30.5939 219.076 30.5648C218.869 30.5555 218.264 30.2929 217.731 29.9811ZM218.285 17.1923C217.01 16.4468 217.043 14.0864 218.338 13.3906C219.073 12.9953 219.694 13.0766 220.552 13.6806C221.966 14.6746 222.07 15.7196 220.875 16.9191C219.867 17.9319 219.598 17.9603 218.285 17.1923Z" fill="#FCF7DC"/>
<path d="M160.873 275.223C157.2 273.896 154.93 271.809 154.087 268.984C152.722 264.409 156.599 257.544 162.107 254.782C163.455 254.106 165.205 253.553 165.995 253.553C167.972 253.553 174.494 255.991 175.876 257.247C179.801 260.814 179.2 267.326 174.48 272.367C170.736 276.366 166.5 277.255 160.873 275.223ZM168.036 266.341C169.366 265.006 169.458 263.401 168.273 262.211C166.998 260.93 166.093 261.13 164.486 263.048C162.807 265.051 162.683 266.07 164.022 266.853C165.515 267.727 166.822 267.56 168.036 266.341ZM187.322 275.775C186.814 275.477 185.972 274.114 185.452 272.745C184.627 270.576 184.541 268.635 184.779 257.596C184.929 250.632 185.239 244.489 185.468 243.945C186.093 242.464 187.771 241.73 189.01 242.396C190.561 243.229 191.62 246.486 192.421 252.882C192.816 256.03 193.335 258.728 193.575 258.878C193.816 259.027 195.456 258.046 197.22 256.697C201.333 253.553 202.65 253.231 204.359 254.948C206.032 256.627 205.733 257.496 202.238 261.128C199.496 263.977 199.496 263.977 204.106 266.432C206.785 267.859 209.045 269.476 209.502 270.294C211.179 273.295 208.53 276.821 205.158 276.077C204.232 275.873 201.71 274.32 199.554 272.625C197.397 270.931 195.434 269.762 195.19 270.028C194.947 270.294 194.449 271.449 194.085 272.595C193.051 275.844 189.938 277.308 187.322 275.775ZM219.465 272.454C217.917 271.546 217.313 269.071 216.82 261.615C216.26 253.145 216.621 251.702 219.362 251.435C220.713 251.303 221.323 251.568 221.978 252.572C223.051 254.216 225.068 263.922 225.068 267.44C225.068 271.715 222.351 274.147 219.465 272.454ZM132.614 269.637C125.573 266.43 123.368 262.158 125.883 256.598C127.852 252.245 133.78 248.011 137.923 247.998C140.602 247.989 147.282 251.597 148.624 253.778C150.495 256.818 150.599 258.673 149.086 261.992C145.737 269.339 138.912 272.506 132.614 269.637ZM138.713 261.324C140.553 260.336 141.104 258.668 140.1 257.129C138.976 255.406 138.084 255.425 135.963 257.216C133.948 258.919 133.781 260.379 135.506 261.214C137.119 261.996 137.443 262.007 138.713 261.324ZM234.837 267.973C233.77 267.13 232.946 265.393 231.739 261.44C228.864 252.025 228.688 250.97 229.722 249.385C230.771 247.778 233.37 247.482 234.494 248.842C235.102 249.578 235.536 249.31 237.751 246.827C240.065 244.233 240.571 243.937 243.116 243.691C246.554 243.359 248.363 244.202 251.462 247.578C253.919 250.255 256.076 255.267 256.076 258.3C256.076 260.813 254.458 262.449 251.972 262.449C249.738 262.449 248.195 260.857 246.147 256.434C245.406 254.835 244.537 253.615 244.214 253.723C243.272 254.039 242.322 257.994 242.276 261.791C242.232 265.382 241.622 267.209 240.066 268.409C238.728 269.441 236.455 269.251 234.837 267.973ZM274.388 264.32C272.884 262.4 272.935 261.738 274.843 258.347C276.718 255.014 277.32 252.613 276.8 250.533C276.427 249.039 276.427 249.039 275.241 250.157C271.823 253.382 266.762 253.648 262.86 250.81C256.661 246.301 257.507 235.484 264.4 231.118C265.957 230.131 273.156 229.329 274.154 230.03C275.109 230.701 281.913 241.643 283.924 245.741C286.227 250.436 286.408 256.204 284.383 260.379C281.895 265.507 276.87 267.488 274.388 264.32ZM269.544 243.127C270.177 242.046 270.415 239.287 269.939 238.542C269.483 237.828 269.291 237.868 268.574 238.82C267.714 239.963 267.42 242.517 268.073 243.173C268.562 243.665 269.241 243.643 269.544 243.127ZM105.725 263.298C98.036 261.617 92.4096 257.263 89.0145 250.364C87.2097 246.697 86.9495 245.666 86.957 242.214C86.968 237.19 88.7467 233.092 92.7702 228.82C97.5392 223.756 103.155 221.261 109.855 221.229C115.801 221.2 120.907 223.824 123.477 228.228C125.521 231.73 125.819 234.227 124.368 235.684C122.91 237.149 122.069 236.846 118.297 233.495C114.533 230.152 111.625 229.249 107.683 230.199C102.326 231.489 97.6331 235.726 96.8363 239.992C95.5986 246.617 100.996 252.301 110.477 254.359C113.86 255.093 115.127 255.639 115.983 256.731C117.261 258.362 117.341 259.074 116.466 261.003C115.802 262.465 112.421 264.149 110.301 264.073C109.622 264.049 107.563 263.7 105.725 263.298ZM215.655 248.162C212.116 246.892 213.096 241.32 216.859 241.32C219.286 241.32 221.017 244.618 219.661 246.658C219.281 247.229 217.05 248.602 216.66 248.504C216.564 248.48 216.112 248.326 215.655 248.162ZM55.6331 227.323C53.0759 226.581 46.6718 222.278 44.7779 220.029C43.9511 219.047 42.5683 216.734 41.705 214.887C36.4667 203.686 40.0039 193.106 50.7547 187.82C59.2684 183.634 70.2928 185.194 75.8207 191.369C79.983 196.018 81.2362 202.93 78.343 205.283C76.5403 206.749 75.0463 205.801 73.0258 201.909C70.711 197.45 70.1967 196.863 67.5378 195.649C62.609 193.397 54.2723 194.991 51.3297 198.748C46.582 204.809 49.3631 212.304 58.6785 218.552C62.0626 220.822 62.791 221.712 62.8137 223.604C62.8512 226.734 59.53 228.455 55.6331 227.323ZM304.775 224.993C299.459 223.554 294.794 219.237 291.881 213.062C290.244 209.592 290.129 208.945 290.129 203.231C290.129 197.651 290.265 196.836 291.687 193.929C294.027 189.144 298.537 185.85 303.523 185.286C306.654 184.931 308.818 186.261 308.573 188.389C308.441 189.53 307.559 190.429 304.802 192.228C300.427 195.084 298.71 197.86 298.714 202.068C298.724 210.541 303.736 216.353 310.355 215.566C315.512 214.953 318.904 212.139 322.567 205.436C325.575 199.933 327.467 198.949 330.475 201.326C332.759 203.13 332.516 206.661 329.721 212.269C326.417 218.898 321.354 223.099 314.514 224.888C310.635 225.902 308.226 225.928 304.775 224.993ZM331.934 192.058C330.563 191.272 325.502 187.855 320.687 184.464C310.62 177.375 308.784 175.069 311.352 172.735C313.434 170.843 314.326 171.175 327.965 178.922C339.195 185.302 342.25 188.711 339.677 191.996C338.125 193.977 335.319 194 331.934 192.058ZM29.8368 189.112C27.4794 188.508 23.469 185.643 21.0069 182.805C16.6856 177.823 14.4368 169.617 16.6714 166.984C17.2394 166.315 22.9366 163.11 29.3319 159.861C37.529 155.698 41.4501 153.39 42.6216 152.042C44.12 150.316 44.4526 150.177 46.0051 150.624C48.9926 151.484 49.9588 152.26 53.1916 156.39C57.1442 161.439 58.374 164.11 58.3895 167.675C58.3988 169.827 58.0299 171.074 56.8152 172.998C54.6935 176.357 52.0316 177.626 48.0846 177.161C45.2048 176.821 45.1276 176.849 44.8014 178.345C43.7274 183.273 42.1847 185.667 38.8024 187.658C36.2035 189.187 32.4832 189.791 29.8368 189.112ZM34.6754 180.111C36.2645 179.257 37.5059 175.974 37.0458 173.843C36.4463 171.066 34.4414 167.932 33.2611 167.927C31.7663 167.921 25.1791 171.724 25.1791 172.593C25.1791 173.645 27.9966 177.667 29.6088 178.917C31.9536 180.734 33.0395 180.99 34.6754 180.111ZM50.2879 166.363C50.1865 164.169 47.6794 160.139 46.416 160.139C45.1248 160.139 41.7904 162.325 41.7904 163.171C41.7904 163.566 42.9223 164.937 44.3058 166.218C46.3457 168.106 47.157 168.513 48.5971 168.373C50.2232 168.216 50.3657 168.046 50.2879 166.363ZM338.578 176.856C333.83 175.4 328.058 170.72 328.058 168.326C328.058 167.014 329.29 165.143 330.155 165.143C330.351 165.143 333.101 166.041 336.267 167.139C344.926 170.141 345.115 168.488 336.904 161.586C333.02 158.32 332.488 157.652 332.488 156.034C332.488 152.134 335.818 151.343 341.12 153.984C342.92 154.88 346.344 156.111 348.729 156.719C351.114 157.327 353.543 158.258 354.127 158.789C356.127 160.606 355.178 163.734 352.319 164.749C351.554 165.02 351.436 165.607 351.661 168.03C352.185 173.673 348.726 177.415 343.065 177.328C341.358 177.302 339.34 177.089 338.578 176.856ZM14.2844 151.554C10.4785 150.359 8.06935 148.519 6.33564 145.483C3.19439 139.983 4.48405 132.65 9.46364 127.696C10.6459 126.52 12.3462 125.175 13.242 124.708C17.997 122.226 30.1027 119.233 32.719 119.892C35.4982 120.592 36.0361 124.396 33.602 126.136C32.7529 126.744 29.0777 128.428 25.4348 129.879C17.9174 132.874 16.0942 133.979 14.9271 136.245C13.9363 138.169 13.8534 141.314 14.7694 142.234C15.7849 143.254 23.1159 143.046 30.2339 141.795C38.1751 140.4 39.6343 140.404 41.4388 141.83C44.3461 144.126 42.945 148.209 38.7931 149.539C36.5294 150.264 21.3241 152.364 18.6773 152.317C17.5329 152.296 15.5561 151.953 14.2844 151.554ZM351.314 149.083C346.285 147.417 333.656 142.355 329.996 140.539C325.502 138.309 324.33 136.184 326.151 133.572C327.642 131.435 331.067 132.111 336.852 135.685C340.692 138.058 340.856 137.963 340.465 133.588C340.166 130.245 340.272 129.627 341.43 127.94C343.654 124.699 345.385 123.777 349.699 123.532C358.119 123.054 363.731 127.658 364.452 135.634C364.675 138.111 364.454 139.405 363.353 142.069C362.595 143.903 361.808 146.339 361.604 147.482C360.951 151.138 358.612 151.502 351.314 149.083ZM355.21 139.789C356.435 136.554 353.165 131.225 349.955 131.225C346.692 131.225 347.175 134.644 351.047 138.948C353.431 141.598 354.448 141.803 355.21 139.789Z" fill="#9AA9B4"/>
<path d="M161.391 274.845C153.925 272.265 152.222 266.328 157.033 259.658C158.832 257.164 163.717 254.122 165.934 254.114C168.372 254.105 174.86 256.73 176.178 258.258C178.843 261.347 178.16 267.22 174.64 271.501C171.295 275.568 166.78 276.708 161.391 274.845ZM168.338 266.645C170.102 264.873 170.103 262.742 168.34 261.582C166.483 260.36 165.257 260.728 163.764 262.952C162.163 265.338 162.157 266.795 163.744 267.436C165.807 268.269 166.91 268.079 168.338 266.645ZM186.93 274.365C185.286 272.266 185.009 269.088 185.34 256.158C185.614 245.458 185.727 244.436 186.754 243.404C187.871 242.283 187.871 242.283 189.23 243.648C190.622 245.045 191.346 248.008 192.173 255.685C192.39 257.698 192.852 259.323 193.252 259.477C193.637 259.625 195.499 258.603 197.389 257.206C201.085 254.473 203.604 253.917 204.486 255.638C205.217 257.066 204.759 257.959 201.641 261.184C200.095 262.782 198.941 264.191 199.076 264.316C199.21 264.44 200.94 265.348 202.919 266.334C209.223 269.474 210.971 272.156 208.399 274.74C206.705 276.441 204.549 275.794 199.839 272.171C197.658 270.494 195.61 269.122 195.287 269.122C194.964 269.122 194.4 270.06 194.035 271.207C192.607 275.683 189.162 277.214 186.93 274.365ZM219.09 271.086C217.415 268.948 216.445 254.442 217.862 252.727C218.866 251.512 221.044 251.68 221.762 253.028C222.602 254.605 224.514 264.746 224.514 267.627C224.514 272.022 221.386 274.017 219.09 271.086ZM131.399 268.374C125.62 265.31 124.099 261.607 126.54 256.544C129.032 251.374 135.752 247.655 140.19 248.99C143.061 249.854 147.275 252.617 148.436 254.396C150.57 257.667 149.004 263.342 144.991 266.881C140.559 270.788 136.744 271.208 131.399 268.374ZM139.839 260.824C141.766 258.889 141.8 258.588 140.31 256.686C138.784 254.738 137.614 254.839 135.423 257.108C133.35 259.256 133.334 260.697 135.372 261.732C137.393 262.759 138.044 262.626 139.839 260.824ZM235.166 267.706C234.004 266.889 231.79 260.761 230.022 253.473C229 249.26 231.233 247.084 234.236 249.365C235.75 250.514 235.904 250.456 237.284 248.213C239.966 243.856 244.758 242.835 248.783 245.764C251.405 247.671 253.442 250.535 254.669 254.04C256.407 259.001 255.331 261.893 251.748 261.893C249.895 261.893 249.039 260.895 246.04 255.24C245.316 253.875 244.475 252.749 244.17 252.738C243.18 252.703 241.728 258.186 241.703 262.057C241.682 265.31 241.489 266.026 240.32 267.201C238.761 268.766 236.928 268.945 235.166 267.706ZM274.901 264.117C273.424 262.634 273.501 261.719 275.385 258.347C277.34 254.849 277.814 252.944 277.35 250.461C276.927 248.196 276.114 248.05 274.363 249.922C270.499 254.052 263.075 252.409 260.178 246.782C258.901 244.304 259.019 239.24 260.417 236.489C262.377 232.631 264.864 230.911 269.148 230.45C271.378 230.21 273.23 230.269 273.752 230.596C274.232 230.898 276.176 233.621 278.073 236.649C284.722 247.262 286.099 251.364 284.9 256.981C283.509 263.497 278.116 267.346 274.901 264.117ZM269.774 243.405C271.189 241.601 271.073 237.428 269.608 237.428C267.921 237.428 266.253 242.458 267.519 243.729C268.103 244.317 269.18 244.162 269.774 243.405ZM106.866 262.968C98.5431 261.571 92.5333 256.968 89.0087 249.291C84.811 240.148 89.4233 229.383 99.73 224.268C103.271 222.511 104.555 222.176 108.559 221.965C112.173 221.774 113.836 221.944 115.829 222.709C120.974 224.682 125.533 230.713 124.625 234.345C124.044 236.671 121.885 236.202 118.388 232.993C113.796 228.779 110.256 228.232 104.359 230.828C99.6952 232.88 96.0534 237.601 96.0534 241.593C96.0534 247.645 101.556 252.957 109.619 254.69C111.446 255.082 113.623 255.742 114.456 256.156C117.692 257.764 116.694 261.891 112.808 262.975C110.509 263.616 110.724 263.616 106.866 262.968ZM215.224 247.127C213.868 246.173 213.556 243.649 214.658 242.543C215.023 242.176 215.97 241.876 216.762 241.876C218.614 241.876 219.53 242.822 219.53 244.736C219.53 246.057 217.885 247.992 216.762 247.992C216.593 247.992 215.901 247.603 215.224 247.127ZM55.5463 226.656C47.4859 223.716 41.4474 216.447 40.1034 208.067C39.1117 201.883 41.4775 195.199 45.9654 191.506C57.1387 182.312 75.1705 185.374 78.624 197.053C79.6061 200.374 79.6491 201.889 78.8134 203.731C77.5053 206.614 75.2034 205.638 73.3417 201.412C71.1127 196.352 67.639 194.09 62.0645 194.069C57.6186 194.052 54.8951 194.98 52.0788 197.469C49.3311 199.898 48.1034 203.232 48.6846 206.687C49.2411 209.995 52.0094 214.377 54.8336 216.421C56.2191 217.424 58.3984 219.005 59.6765 219.936C64.6883 223.584 61.4719 228.818 55.5463 226.656ZM304.693 224.417C299.478 223.007 295.09 218.856 292.249 212.645C290.31 208.405 289.827 201.343 291.161 196.734C293.21 189.656 302.255 183.713 307.053 186.292C308.767 187.213 308.426 189.493 306.407 190.607C300.394 193.925 298.191 197.017 298.169 202.17C298.123 212.893 306.186 219.098 314.658 214.859C317.905 213.234 320.5 210.455 322.783 206.159C325.669 200.728 327.889 199.448 330.272 201.841C332.06 203.636 331.739 207.087 329.335 211.914C326.921 216.762 323.387 220.429 319.1 222.534C313.714 225.178 309.532 225.725 304.693 224.417ZM324.888 186.695C315.309 180.237 310.892 176.549 310.892 175.009C310.892 173.739 312.424 172.371 313.847 172.371C315.266 172.371 328.807 179.65 334.425 183.433C336.808 185.037 338.716 186.811 339.377 188.037C340.402 189.935 340.408 190.101 339.503 191.488C338.742 192.654 338.115 192.945 336.355 192.945C334.475 192.945 332.821 192.043 324.888 186.695ZM29.6083 188.399C22.4696 186.363 15.023 175.029 16.6419 168.665C17.1341 166.731 17.5435 166.467 29.8485 160.163C38.2561 155.855 42.7236 153.26 43.0693 152.482C43.7374 150.978 44.4265 150.751 46.571 151.329C48.7028 151.903 51.5374 154.757 54.9676 159.781C57.4434 163.408 57.5706 163.78 57.5706 167.386C57.5706 171.632 56.7127 173.312 53.3669 175.618C51.5619 176.862 48.9813 177.057 45.6895 176.196C45.1303 176.05 44.6842 176.763 44.2358 178.52C43.3213 182.104 42.1432 184.177 39.8953 186.159C36.9165 188.786 33.5402 189.521 29.6083 188.399ZM35.7969 179.674C37.3448 178.285 37.5732 177.725 37.5732 175.318C37.5732 171.8 35.1994 167.363 33.3225 167.374C31.8253 167.382 25.7468 170.71 24.9699 171.946C23.8919 173.663 27.3307 178.487 30.9926 180.395C33.2666 181.581 33.7536 181.507 35.7969 179.674ZM50.6638 168.183C52.0831 166.466 48.6499 159.582 46.3741 159.582C45.4349 159.582 41.7339 161.7 41.1379 162.579C40.6932 163.234 42.9222 166.022 45.3002 167.784C47.2534 169.231 49.6502 169.41 50.6638 168.183ZM338.574 176.3C334.352 175.01 328.611 170.342 328.611 168.198C328.611 165.598 329.91 165.404 334.85 167.264C340.993 169.578 342.915 169.925 343.346 168.797C343.854 167.466 342.331 165.538 337.723 161.682C333.359 158.031 332.493 156.505 333.512 154.259C334.334 152.447 336.879 152.472 340.516 154.326C342.038 155.103 344.655 156.116 346.33 156.578C348.005 157.04 350.422 157.797 351.702 158.259C355.248 159.538 355.6 162.333 352.444 164.131C350.887 165.018 350.819 165.208 351.125 167.798C351.524 171.182 350.223 174.262 347.758 175.771C345.975 176.863 341.299 177.132 338.574 176.3ZM15.0555 151.191C3.42572 148.441 1.64745 133.735 12.0313 126.181C14.5479 124.351 22.4068 121.676 28.1429 120.698C31.3996 120.143 32.1258 120.175 33.2647 120.925C34.8876 121.992 35.0051 124.122 33.5178 125.514C32.9272 126.066 29.0884 127.852 24.9871 129.482C17.7034 132.377 15.643 133.734 14.1721 136.609C13.2151 138.48 13.4139 141.493 14.5633 142.537C15.9776 143.822 22.2787 143.746 30.4389 142.345C38.2638 141.002 39.5161 140.976 41.1433 142.12C42.1268 142.812 42.3671 143.442 42.2355 144.984C41.958 148.236 40.4342 148.923 30.1091 150.451C20.4646 151.878 18.3918 151.98 15.0555 151.191ZM350.483 148.227C343.914 145.991 329.838 140.136 327.784 138.785C326.032 137.632 325.613 136.669 326.068 134.846C326.804 131.903 330.048 132.35 336.911 136.34C341.364 138.929 342.198 138.75 341.278 135.402C340.549 132.752 340.923 129.453 342.17 127.543C344.517 123.946 352.152 122.862 357.233 125.405C363.395 128.488 365.595 135.352 362.664 142.345C361.903 144.162 361.28 146.1 361.28 146.653C361.28 147.206 360.892 148.214 360.418 148.894C359.215 150.619 357.094 150.476 350.483 148.227ZM355.783 139.649C357.089 135.271 352.883 129.873 348.941 130.867C348.181 131.058 347.399 131.635 347.203 132.149C346.705 133.45 349.352 138.657 351.384 140.374C353.81 142.424 355.015 142.225 355.783 139.649Z" fill="#7289A2"/>
<path d="M161.668 274.639C157.069 273.092 154.747 270.584 154.747 267.165C154.747 264.031 155.731 261.593 158.086 258.9C160.856 255.731 163.748 254.466 167.362 254.841C170.923 255.21 175.051 257.165 176.497 259.168C179.792 263.732 175.117 273.427 168.767 275.198C165.967 275.978 165.553 275.946 161.668 274.639ZM167.734 267.664C168.995 267.178 170.374 264.273 169.963 262.971C169.773 262.371 168.863 261.488 167.94 261.009C166.343 260.18 166.194 260.201 164.881 261.432C163.667 262.571 161.945 265.248 161.945 265.996C161.945 266.142 162.336 266.655 162.815 267.135C163.702 268.026 166.119 268.286 167.734 267.664ZM188.377 275.409C186.082 274.808 185.754 272.685 185.754 258.412C185.754 243.894 186 242.462 188.367 243.216C189.935 243.716 190.54 245.547 191.597 252.996C192.097 256.513 192.62 259.578 192.761 259.808C193.219 260.553 193.816 260.264 197.087 257.713C200.693 254.902 202.541 254.213 203.757 255.226C205.155 256.392 204.688 257.657 201.812 260.503C200.289 262.009 199.043 263.551 199.043 263.929C199.043 264.307 201.047 265.664 203.497 266.944C208.545 269.581 209.945 271.333 208.821 273.608C208.359 274.545 207.605 275.013 206.364 275.134C204.471 275.319 203.079 274.54 198.413 270.687C197 269.52 195.588 268.565 195.275 268.565C194.961 268.565 194.275 269.754 193.749 271.206C192.783 273.876 191.142 275.848 189.984 275.729C189.637 275.694 188.914 275.55 188.377 275.409ZM218.73 270.113C218.299 269.078 217.781 265.037 217.563 261.014C217.217 254.61 217.28 253.667 218.114 252.83C220.597 250.336 221.823 252.323 223.473 261.516C224.629 267.965 224.673 268.788 223.923 270.135C223.339 271.185 222.567 271.675 221.3 271.799C219.719 271.953 219.411 271.751 218.73 270.113ZM135.008 269.701C132.578 269.121 128.208 266.328 126.83 264.474C122.526 258.684 130.781 248.315 138.958 249.241C141.976 249.582 147.034 252.527 148.301 254.681C150.181 257.877 148.953 262.621 145.296 266.293C142.29 269.312 138.558 270.548 135.008 269.701ZM140.31 260.984C141.809 259.07 141.76 257.697 140.134 256.065C138.467 254.391 137.035 254.711 134.814 257.251C132.851 259.496 132.8 259.871 134.259 261.337C135.908 262.992 138.872 262.82 140.31 260.984ZM236.399 268.036C234.527 267.274 233.965 266.173 231.967 259.357C229.714 251.665 229.59 249.947 231.225 249.068C232.19 248.549 232.691 248.655 234.047 249.662C234.954 250.335 235.873 250.673 236.088 250.412C236.303 250.151 237.176 248.984 238.027 247.818C241.37 243.235 245.528 243.026 249.988 247.215C252.753 249.812 254.588 253.331 255.227 257.264C255.54 259.185 255.407 259.784 254.456 260.739C252.027 263.178 249.614 261.649 246.678 255.808C245.462 253.388 244.677 252.421 244.03 252.547C242.785 252.787 241.679 256.757 241.429 261.878C241.25 265.552 241.057 266.179 239.761 267.299C238.159 268.683 238.048 268.707 236.399 268.036ZM275.578 264.363C273.919 263.197 274.029 261.501 276.009 257.723C277.622 254.642 278.162 251.038 277.334 248.871C276.909 247.759 275.674 247.73 275.256 248.823C274.677 250.338 271.417 251.88 268.811 251.873C259.659 251.847 256.163 240.205 263.188 233.15C264.926 231.405 265.692 231.128 270.541 230.489C272.924 230.175 273.205 230.275 274.584 231.92C276.701 234.446 283.498 246.205 284.306 248.738C285.27 251.761 284.818 257.794 283.424 260.503C282.245 262.794 279.302 265.229 277.711 265.229C277.215 265.229 276.255 264.84 275.578 264.363ZM270.325 242.944C271.14 241.34 271.217 238.59 270.479 237.427C269.706 236.21 268.159 237.354 267.217 239.84C266.542 241.621 266.562 242.019 267.391 243.289C268.474 244.95 269.359 244.845 270.325 242.944ZM104.417 262.154C92.1891 258.733 84.9394 246.61 88.8592 236.139C90.5525 231.615 95.4749 226.413 99.984 224.381C104.144 222.506 109.333 221.558 112.667 222.063C118.805 222.994 124.518 228.548 124.177 233.252C123.947 236.413 122.676 236.404 119.161 233.219C115.337 229.755 113.185 228.885 109.31 229.238C103.45 229.771 97.1009 234.497 96.2703 238.943C94.8471 246.561 100.004 252.778 109.545 254.946C111.718 255.44 114.056 256.21 114.741 256.657C116.332 257.695 116.392 260.241 114.859 261.634C113.362 262.994 108.318 263.246 104.417 262.154ZM214.864 246.562C213.689 245.383 213.769 244.325 215.135 242.953C216.576 241.507 217.875 241.744 218.939 243.649C219.698 245.006 219.68 245.236 218.734 246.286C217.498 247.657 216.057 247.76 214.864 246.562ZM53.0961 225.284C46.4135 221.584 42.7275 217.096 40.9479 210.494C38.3633 200.905 42.2484 192.753 51.4662 188.421C57.2948 185.682 65.7164 185.719 71.1607 188.508C73.6446 189.781 76.9347 193.389 78.0453 196.058C79.0149 198.388 79.1538 202.528 78.3152 204.102C77.1731 206.245 75.731 205.377 73.5686 201.244C72.4368 199.081 70.7264 196.711 69.7677 195.977C67.1446 193.968 63.1715 193.223 59.0036 193.961C52.6698 195.081 48.981 198.566 48.5454 203.842C48.0815 209.459 50.9118 214.17 57.4136 218.604C61.4086 221.328 62.4993 222.867 61.7806 224.766C60.7912 227.379 57.2589 227.59 53.0961 225.284ZM303.27 223.738C299.789 222.461 295.166 217.946 293.187 213.891C288.24 203.752 290.477 192.46 298.327 187.939C300.485 186.696 301.911 186.281 304.042 186.277C308.84 186.268 309.319 188.959 304.922 191.217C299.181 194.165 296.996 198.709 298.166 205.267C299.405 212.214 303.545 216.309 309.307 216.286C315.069 216.262 319.586 212.854 323.325 205.71C325.52 201.515 327.217 200.238 329.188 201.298C332.039 202.829 331.911 206.556 328.804 212.492C326.381 217.123 323.057 220.287 318.19 222.595C315.138 224.043 313.718 224.372 310.062 224.477C307.141 224.561 304.827 224.309 303.27 223.738ZM332.776 191.532C329.542 189.806 314.415 179.281 312.692 177.559C311.131 175.999 311.066 173.726 312.56 172.924C313.99 172.155 316.295 173.163 326.927 179.21C338.424 185.75 341.675 189.296 338.673 192.024C337.272 193.297 335.86 193.179 332.776 191.532ZM27.9472 187.56C25.0837 186.122 20.0494 180.832 18.5192 177.653C17.6541 175.856 17.1068 173.587 16.971 171.235C16.737 167.18 17.0628 166.648 20.6999 165.143C26.4009 162.783 41.6721 154.323 43.0158 152.779C44.4704 151.109 44.59 151.075 46.7456 151.724C50.6063 152.885 57.1562 162.019 57.6855 166.979C58.0012 169.938 56.0385 173.854 53.4915 175.348C51.844 176.314 50.9193 176.406 45.9656 176.09C44.4533 175.993 44.2965 176.163 43.9269 178.296C42.8593 184.459 39.0601 188.048 33.2813 188.353C30.8646 188.481 29.3264 188.252 27.9472 187.56ZM36.0162 179.984C38.3306 177.985 38.4873 174.114 36.4144 170.147C35.4118 168.228 34.4134 167.036 33.735 166.947C33.1403 166.869 30.9096 167.762 28.7778 168.93C24.0817 171.505 23.6275 172.808 26.2003 176.321C29.6985 181.098 33.2097 182.408 36.0162 179.984ZM49.7827 169.049C50.9147 168.616 51.203 168.131 51.203 166.655C51.203 164.434 48.4649 159.843 46.8289 159.322C45.5485 158.914 40.6825 161.911 40.6825 163.107C40.6825 164.52 45.4729 168.596 48.26 169.556C48.3163 169.575 49.0015 169.347 49.7827 169.049ZM338.207 175.82C334.822 174.609 329.401 170.657 328.884 169.022C328.464 167.694 329.439 166.254 330.755 166.257C331.251 166.258 333.525 167 335.809 167.906C340.881 169.917 343.561 170.108 343.561 168.459C343.561 166.683 342.155 164.948 337.749 161.288C333.202 157.511 332.522 156.29 333.838 154.273C335.009 152.479 335.973 152.549 340.853 154.784C343.104 155.814 346.766 157.096 348.991 157.631C354.754 159.019 356.252 161.763 352.353 163.787C350.858 164.564 350.759 164.829 350.751 168.076C350.747 169.98 350.435 172.138 350.059 172.873C348.246 176.416 343.308 177.644 338.207 175.82ZM13.9739 150.688C7.72047 148.797 4.09557 142.153 5.77895 135.667C6.68321 132.183 9.38383 128.368 12.389 126.331C16.6859 123.417 29.2092 120.02 32.5502 120.862C34.1925 121.276 34.8998 122.935 34.0855 124.463C33.5269 125.511 31.4031 126.555 21.6318 130.582C15.9741 132.914 13.6586 135.188 13.1628 138.901C12.906 140.823 13.0804 141.367 14.3688 142.661C15.8506 144.149 15.9575 144.168 20.9422 143.821C23.7291 143.628 28.6979 142.992 31.9841 142.409C35.2702 141.826 38.5094 141.483 39.1823 141.647C41 142.091 42.3437 143.467 42.3437 144.884C42.3437 146.14 39.5401 149.006 38.2868 149.03C37.9295 149.037 34.3979 149.532 30.4389 150.13C22.9573 151.259 16.5775 151.475 13.9739 150.688ZM352.974 148.8C343.577 145.925 328.049 139.144 326.816 137.377C325.726 135.814 326.182 134.079 327.887 133.299C329.042 132.77 329.988 133.079 334.87 135.579C337.975 137.169 340.856 138.467 341.271 138.462C341.865 138.455 341.93 137.891 341.576 135.812C340.611 130.146 341.51 127.616 345.28 125.386C346.688 124.553 348.134 124.278 351.036 124.29C355.771 124.311 358.876 125.756 361.247 129.044C364.225 133.171 364.449 138.015 361.915 143.457C361.275 144.833 360.745 146.504 360.738 147.171C360.724 148.628 359.339 150.141 358.057 150.1C357.545 150.083 355.258 149.498 352.974 148.8ZM355.435 141.109C357.275 138.47 355.915 133.568 352.766 131.497C351.936 130.95 350.564 130.665 349.279 130.771C347.447 130.923 347.137 131.148 346.989 132.433C346.752 134.491 348.588 137.861 351.275 140.298C353.91 142.689 354.282 142.761 355.435 141.109Z" fill="#516F94"/>
<path d="M160.56 273.847C158.733 273.097 156.81 271.959 156.287 271.318C152.884 267.153 156.13 259.039 162.507 255.772C165.229 254.377 166.44 254.384 170.659 255.815C174.643 257.166 176.728 259.043 177.23 261.731C178.011 265.911 174.71 272.092 170.64 274.07C167.512 275.591 164.653 275.527 160.56 273.847ZM168.632 266.94C170.557 265.006 170.69 263.268 169.046 261.511C167.292 259.636 165.631 259.881 163.628 262.31C161.577 264.796 161.569 266.819 163.606 267.849C165.725 268.92 166.865 268.714 168.632 266.94ZM187.013 273.727C186.138 272.381 186.034 270.724 186.06 258.486C186.091 243.876 186.343 242.372 188.562 243.565C189.81 244.235 190.445 246.548 191.354 253.722C192.334 261.46 192.498 261.584 197.103 258.084C201.536 254.714 204.026 254.221 204.026 256.716C204.026 257.802 203.249 258.933 201.184 260.849C199.44 262.468 198.46 263.794 198.647 264.284C198.815 264.722 200.589 265.85 202.589 266.79C208.603 269.617 210.55 272.53 207.684 274.416C205.776 275.672 204.185 275.063 199.63 271.335C197.438 269.541 195.324 268.197 194.931 268.348C194.539 268.499 193.908 269.674 193.53 270.957C192.635 273.997 191.484 275.238 189.557 275.238C188.467 275.238 187.697 274.781 187.013 273.727ZM219.189 270.491C218.445 269.35 218.257 267.515 218.207 260.899C218.148 253.004 218.186 252.712 219.302 252.552C219.938 252.461 220.756 252.747 221.12 253.188C221.955 254.197 223.96 264.454 223.96 267.711C223.96 271.689 221.07 273.373 219.189 270.491ZM132.321 268.308C130.798 267.505 128.714 265.956 127.689 264.864C125.984 263.049 125.847 262.649 126.083 260.176C126.559 255.2 130.455 251.062 136.067 249.57C138.63 248.889 138.824 248.927 142.827 250.916C145.093 252.042 147.374 253.616 147.894 254.414C149.386 256.701 149.113 260.297 147.212 263.384C143.637 269.191 137.712 271.15 132.321 268.308ZM138.848 262.401C139.573 262.069 140.592 261.076 141.111 260.193C141.975 258.724 141.982 258.445 141.193 256.912C139.953 254.505 138.023 254.194 135.642 256.018C132.528 258.403 132.52 261.212 135.624 262.476C137.153 263.098 137.335 263.094 138.848 262.401ZM235.132 266.995C234.577 266.438 233.165 262.573 231.994 258.407C230.225 252.111 229.986 250.686 230.58 249.968C231.485 248.872 233.035 248.859 233.927 249.938C235.068 251.318 236.344 250.863 237.749 248.574C241.558 242.372 249.019 243.793 252.954 251.472C254.78 255.035 255.461 259.236 254.418 260.498C253.504 261.604 250.848 261.569 249.721 260.437C249.228 259.942 247.953 257.799 246.888 255.674C245.501 252.909 244.688 251.863 244.025 251.991C242.704 252.247 241.199 257.518 241.159 262.032C241.132 265.014 240.897 266.013 240.018 266.897C238.637 268.284 236.459 268.328 235.132 266.995ZM275.218 263.799C274.008 262.584 274.128 261.363 275.683 259.065C278.212 255.328 278.847 249.665 276.918 248.058C276.374 247.604 275.805 247.866 274.603 249.126C271.582 252.293 266.713 252.497 263.058 249.609C258.45 245.97 258.87 236.975 263.843 232.773C265.836 231.088 272.899 230.128 274.039 231.388C275.169 232.637 280.76 241.895 282.723 245.768C284.318 248.916 284.553 249.92 284.544 253.552C284.532 258.217 283.273 261.441 280.656 263.508C278.91 264.888 276.433 265.02 275.218 263.799ZM270.872 242.292C271.741 239.621 271.242 236.871 269.889 236.871C268.448 236.871 266.596 239.51 266.596 241.561C266.596 245.235 269.74 245.772 270.872 242.292ZM107.958 262.624C102.052 261.747 97.5208 259.413 93.6422 255.249C86.0496 247.098 86.1372 237.026 93.87 229.054C97.8496 224.951 102.748 222.807 108.808 222.516C112.828 222.323 113.996 222.48 116.455 223.542C119.786 224.981 122.906 228.3 123.826 231.383C125.192 235.964 122.883 236.428 118.51 232.451C113.409 227.812 108.606 227.525 102.143 231.473C94.7347 235.998 93.4408 243.455 99.0112 249.524C101.744 252.502 105.029 254.237 110.123 255.394C114.588 256.408 116.304 257.769 115.776 259.88C115.58 260.663 114.982 261.54 114.447 261.827C113.126 262.537 109.978 262.924 107.958 262.624ZM215.431 246.71C213.354 245.185 215.562 241.404 217.731 242.769C219.095 243.628 219.297 245.825 218.093 246.71C217.549 247.109 216.95 247.436 216.762 247.436C216.574 247.436 215.975 247.109 215.431 246.71ZM56.37 226.323C51.5374 225.184 45.3332 219.961 42.8884 214.974C38.703 206.436 39.8309 198.105 45.9374 192.452C53.8271 185.149 67.8074 184.634 74.5431 191.398C77.8835 194.752 79.7995 200.76 78.379 203.426C77.2252 205.59 75.7213 204.898 73.958 201.39C71.9889 197.473 68.5943 194.254 65.8977 193.746C59.5472 192.549 52.7931 194.757 49.8236 199C48.3963 201.039 48.1612 201.872 48.1836 204.808C48.2284 210.684 50.9505 214.673 58.2626 219.578C61.1528 221.517 61.7233 222.16 61.7233 223.479C61.7233 225.954 59.5967 227.084 56.37 226.323ZM304.773 223.915C299.189 222.326 293.605 216.259 291.714 209.724C290.63 205.98 290.933 198.207 292.286 195.05C294.382 190.161 299.087 186.737 303.875 186.618C305.949 186.566 306.739 186.789 307.219 187.561C307.902 188.66 307.719 188.857 302.587 192.555C299.414 194.841 297.603 198.322 297.603 202.136C297.603 210.392 302.805 216.816 309.508 216.836C314.452 216.851 320.302 212.366 323.379 206.2C325.289 202.375 326.275 201.285 327.827 201.285C331.381 201.285 331.834 205.784 328.876 211.721C326.393 216.705 323.404 219.692 318.437 222.151C313.84 224.428 308.842 225.073 304.773 223.915ZM332.616 191.128C328.316 188.819 313.131 177.928 312.181 176.473C310.979 174.63 311.779 173.205 314.018 173.205C316.478 173.205 333.162 182.621 336.735 186.025C339.834 188.978 340.249 190.074 338.815 191.514C337.594 192.741 335.359 192.602 332.616 191.128ZM29.5446 187.751C23.4012 185.479 17.8077 178.394 17.0731 171.953C16.6495 168.239 17.4589 166.513 20.0224 165.665C23.827 164.405 42.0341 154.487 43.4509 152.902C44.7524 151.447 44.9511 151.395 46.7732 152.037C48.9848 152.816 54.3687 158.87 56.1667 162.6C58.3737 167.178 57.1956 172.411 53.3614 175.062C51.8639 176.097 50.9709 176.309 48.988 176.102C47.6176 175.959 46.0624 175.66 45.532 175.439C44.4768 174.998 44.5378 174.886 43.2072 179.701C42.2656 183.109 40.3152 185.859 37.979 187.072C35.675 188.268 31.7904 188.581 29.5446 187.751ZM35.5324 180.735C37.7853 179.355 38.7803 176.158 37.9364 173.011C37.1397 170.04 35.0675 167.123 33.6028 166.911C31.7738 166.646 24.6499 170.687 24.2706 172.204C23.5697 175.009 29.6948 181.576 33.2073 181.786C33.5118 181.804 34.5582 181.331 35.5324 180.735ZM50.8864 168.717C51.365 168.236 51.7566 167.348 51.7566 166.743C51.7566 164.147 47.9879 159.026 46.0772 159.026C44.8926 159.026 40.1287 162.149 40.1287 162.926C40.1287 163.754 43.5909 167.468 45.3889 168.569C47.4294 169.819 49.7276 169.881 50.8864 168.717ZM337.193 175.126C333.566 173.712 329.165 169.925 329.165 168.217C329.165 166.216 330.516 166.143 334.927 167.902C339.93 169.898 342.892 170.244 343.738 168.931C344.572 167.635 342.7 165.139 337.609 160.759C334.831 158.369 333.594 156.92 333.594 156.053C333.594 153.176 336.059 152.729 340.224 154.848C341.719 155.609 344.888 156.759 347.266 157.403C349.644 158.048 352.15 158.933 352.836 159.37C354.625 160.51 354.399 162.185 352.282 163.478C350.524 164.551 350.482 164.668 350.482 168.516C350.482 172.354 350.43 172.503 348.414 174.359C346.547 176.078 346.036 176.26 343.154 176.234C341.382 176.218 338.73 175.725 337.193 175.126ZM14.5587 150.466C7.41262 148.534 4.01257 141.452 6.64014 133.973C8.94761 127.406 13.8804 124.316 26.1455 121.755C32.1005 120.511 34.0379 120.855 34.0379 123.156C34.0379 124.961 32.2286 126.092 24.6248 129.037C17.5155 131.79 15.1069 133.322 13.914 135.846C12.0369 139.818 13.3121 143.938 16.4576 144.062C20.2057 144.211 24.017 143.876 30.875 142.794C40.0623 141.344 41.4247 141.582 41.6828 144.685C41.9366 147.735 40.5573 148.352 30.0346 149.898C19.8567 151.392 18.208 151.453 14.5587 150.466ZM351.313 147.972C345.133 145.924 331.729 140.394 328.749 138.662C326.311 137.244 325.668 135.514 327.061 134.116C328.28 132.891 330.369 133.425 335.856 136.364C342.025 139.668 342.974 139.592 341.947 135.878C339.995 128.816 343.404 124.576 351.036 124.576C360.654 124.576 366.198 133.433 362.105 142.261C361.347 143.897 360.726 145.728 360.726 146.329C360.726 149.963 358.497 150.352 351.313 147.972ZM355.611 141.65C356.857 140.096 356.939 137.425 355.818 134.881C353.99 130.731 349.369 128.773 347.168 131.216C346.214 132.274 346.213 132.426 347.152 134.894C347.69 136.309 349.178 138.565 350.457 139.906C352.789 142.349 354.567 142.951 355.611 141.65Z" fill="#305585"/>
<path d="M162.499 274.303C157.357 272.499 155.289 270.336 155.313 266.786C155.347 261.658 161.222 255.22 165.868 255.22C167.597 255.22 173.101 256.816 174.152 257.622C177.232 259.984 177.697 263.951 175.429 268.52C173.462 272.485 170.094 274.7 166.128 274.638C164.589 274.614 162.955 274.463 162.499 274.303ZM169.864 266.378C170.381 265.499 170.804 264.277 170.804 263.664C170.804 262.351 167.84 259.669 166.389 259.669C165.15 259.669 162.087 263.075 161.61 264.984C160.596 269.043 167.6 270.227 169.864 266.378ZM187.345 273.763C186.168 272.342 185.93 245.933 187.08 244.378C188.627 242.284 189.595 244.347 190.759 252.216C191.342 256.162 191.825 259.711 191.832 260.103C191.861 261.683 193.573 261.31 196.327 259.124C200.454 255.848 202.249 254.987 203.236 255.81C204.476 256.843 204.232 257.342 200.928 260.53C199.224 262.174 197.929 263.842 198.051 264.235C198.172 264.629 200.157 265.952 202.461 267.175C204.766 268.398 207.07 269.753 207.582 270.186C208.702 271.132 208.536 273.511 207.296 274.29C205.861 275.192 203.973 274.362 200.025 271.091C195.555 267.388 194.398 267.212 193.488 270.094C192.411 273.504 191.435 274.682 189.685 274.682C188.816 274.682 187.763 274.268 187.345 273.763ZM219.561 270.548C218.858 269.698 217.577 255.121 218.087 253.785C218.253 253.351 218.886 252.996 219.494 252.996C221.211 252.996 221.42 253.594 223.129 263.391C224.076 268.815 223.552 271.345 221.482 271.345C220.788 271.345 219.923 270.986 219.561 270.548ZM131.977 267.731C128.292 265.803 126.508 263.467 126.508 260.569C126.508 255.701 131.766 250.424 137.234 249.806C139.112 249.593 140.287 249.893 143.034 251.285C148.811 254.213 149.967 257.633 146.961 262.896C143.605 268.773 137.645 270.696 131.977 267.731ZM140.654 261.534C142.418 259.621 142.418 257.246 140.652 255.473C139.067 253.881 138.628 253.824 136.491 254.934C134.261 256.092 132.414 258.853 132.809 260.436C133.502 263.206 138.468 263.902 140.654 261.534ZM235.367 266.596C234.055 265.278 230.251 251.945 230.787 250.542C231.213 249.427 233.022 249.399 233.927 250.494C235.141 251.963 236.53 251.432 237.981 248.945C238.746 247.634 240.03 246.207 240.835 245.775C245.861 243.074 252.135 247.831 254.226 255.928C255.025 259.018 254.59 260.473 252.689 261.079C251.122 261.579 249.739 260.129 247.255 255.383C245.039 251.15 243.805 250.47 242.609 252.823C241.549 254.907 240.572 259.689 240.572 262.791C240.572 264.172 240.314 265.786 239.998 266.378C239.297 267.694 236.588 267.822 235.367 266.596ZM276.425 264.283C274.699 263.842 274.736 261.766 276.532 258.338C278.327 254.91 278.837 250.181 277.651 247.955C276.885 246.518 276.243 246.6 274.759 248.323C272.235 251.256 268.836 252.065 265.332 250.566C261.666 248.997 259.547 244.852 260.195 240.516C260.607 237.757 263.196 233.357 264.968 232.405C266.376 231.649 272.085 230.776 273.095 231.162C274.071 231.536 282.003 244.675 283.262 248.002C285.195 253.11 284.41 258.979 281.367 262.18C279.548 264.094 278.097 264.711 276.425 264.283ZM270.454 244.4C271.31 243.364 271.823 239.591 271.36 237.739C270.649 234.894 266.99 236.979 266.26 240.645C265.615 243.883 268.641 246.593 270.454 244.4ZM106.851 262.071C101.902 260.959 98.5816 259.366 95.7027 256.724C91.9222 253.254 90.3218 250.793 89.0993 246.571C87.3082 240.383 89.2029 234.163 94.4383 229.042C97.8324 225.722 102.037 223.701 107.242 222.889C112.18 222.118 116.202 223.071 119.464 225.785C121.94 227.846 123.873 231.373 123.633 233.395C123.363 235.678 122.386 235.472 119.038 232.428C117.32 230.866 115.292 229.35 114.531 229.059C112.29 228.204 107.903 228.451 104.886 229.602C94.8533 233.43 92.1727 243.22 99.1747 250.46C101.618 252.986 104.341 254.376 109.137 255.546C113.963 256.722 115.433 257.63 115.433 259.432C115.433 261.69 111.093 263.024 106.851 262.071ZM215.185 245.926C214.419 244.488 215.397 242.988 217.102 242.988C218.338 242.988 218.474 243.189 218.32 244.795C218.189 246.161 217.852 246.644 216.938 246.775C216.203 246.88 215.516 246.547 215.185 245.926ZM53.4924 224.777C48.5177 222.106 45.3712 218.925 43.0622 214.233C41.1101 210.267 40.9617 209.621 40.9896 205.206C41.0256 199.522 41.8293 197.38 45.3408 193.61C50.1128 188.487 57.502 186.065 64.622 187.291C71.2113 188.426 75.4069 191.432 77.5327 196.541C78.5784 199.054 78.5762 203.172 77.5288 204.045C76.3876 204.996 75.69 204.372 74.2295 201.095C72.769 197.817 70.9234 195.661 68.5025 194.404C64.2844 192.214 57.8981 192.608 53.355 195.34C49.4508 197.688 47.8983 200.41 47.9024 204.899C47.9079 210.754 50.8088 215.182 57.4326 219.445C60.6708 221.53 61.1701 222.072 61.1701 223.503C61.1701 226.625 57.9331 227.162 53.4924 224.777ZM304.798 223.599C299.158 221.73 294.526 216.823 292.357 210.42C291.159 206.884 291.14 199.919 292.318 196.356C294.139 190.851 299.629 186.585 304.438 186.938C307.898 187.192 307.775 188.578 304.084 190.95C298.547 194.507 296.606 198.226 297.28 203.991C298.266 212.433 304.335 218.317 310.842 217.141C316.1 216.191 320.107 212.819 323.842 206.202C325.76 202.803 326.41 202.088 327.723 201.937C328.59 201.836 329.558 202.014 329.874 202.331C330.732 203.192 330.483 207.378 329.423 209.891C325.907 218.231 318.825 223.433 310.418 223.849C308.091 223.964 305.562 223.852 304.798 223.599ZM334.24 191.539C332.164 190.634 317.986 181.049 314.323 178.075C311.538 175.813 311.289 173.876 313.747 173.59C315.653 173.369 332.632 182.797 336.427 186.185C339.256 188.71 339.718 190.052 338.262 191.515C337.205 192.575 336.623 192.579 334.24 191.539ZM28.1339 186.793C25.2999 185.385 20.7446 180.636 19.0756 177.351C17.5417 174.332 16.925 168.393 18.0502 167.475C18.4687 167.134 24.0437 164.197 30.4391 160.95C37.6421 157.291 42.6205 154.413 43.5215 153.385C44.9392 151.768 45.0249 151.746 46.9012 152.533C48.9284 153.384 52.9971 157.992 55.4853 162.256C58.0935 166.725 57.1011 172.231 53.2527 174.643C51.8363 175.531 50.7111 175.722 47.6552 175.592C43.8304 175.429 43.8304 175.429 43.0775 178.726C42.1559 182.761 40.1618 185.502 37.1479 186.876C34.1597 188.239 30.9834 188.21 28.1339 186.793ZM35.73 181.251C38.9579 179.516 39.3419 173.003 36.4596 168.876C35.5423 167.563 34.2847 166.455 33.5994 166.355C31.9963 166.122 24.2287 170.441 23.7976 171.806C23.3083 173.354 25.2732 176.809 28.1652 179.486C30.8171 181.94 33.3484 182.531 35.73 181.251ZM49.9998 169.785C52.9394 168.995 52.5171 164.382 49.1639 160.655C48.0828 159.453 46.7884 158.47 46.2874 158.47C45.1685 158.47 40.0081 161.832 39.7144 162.752C39.4199 163.674 43.64 168.159 45.8167 169.237C47.8222 170.23 48.1753 170.276 49.9998 169.785ZM339.646 175.527C334.585 174.108 328.779 169.579 329.524 167.63C329.956 166.499 330.51 166.58 335.256 168.462C342.892 171.49 346.464 170.306 343.341 165.781C342.557 164.644 340.665 162.757 339.137 161.587C334.962 158.39 333.465 156.416 334.187 155.062C335.143 153.268 336.142 153.266 339.809 155.051C341.72 155.982 345.278 157.285 347.714 157.947C350.151 158.609 352.455 159.404 352.836 159.713C354.044 160.693 353.598 162.298 351.867 163.196C350.953 163.671 350.196 164.24 350.185 164.462C350.173 164.683 350.111 166.549 350.046 168.608C349.942 171.951 349.751 172.528 348.268 174.007C346.259 176.008 343.253 176.539 339.646 175.527ZM13.9713 149.894C9.68148 148.357 7.51306 146.011 6.31449 141.612C5.00444 136.804 8.09378 129.78 12.8514 126.749C15.997 124.745 22.1567 122.716 28.1454 121.71C32.2448 121.021 32.5407 121.04 33.2658 122.036C34.655 123.944 33.0815 125.172 25.0577 128.444C16.1437 132.079 15.0175 132.786 13.5581 135.659C12.011 138.704 12.1015 141.496 13.8026 143.204C15.007 144.414 15.6216 144.565 19.2013 144.529C21.4231 144.506 24.4867 144.291 26.0094 144.05C36.0694 142.456 38.3717 142.2 39.6865 142.532C42.5048 143.242 42.1824 146.613 39.1811 147.816C37.0513 148.67 22.8086 150.684 19.088 150.658C17.4131 150.646 15.1105 150.303 13.9713 149.894ZM353.872 148.404C349.503 147.154 334.869 141.309 330.1 138.909C327.243 137.472 326.901 137.121 327.054 135.786C327.212 134.413 327.426 134.286 329.529 134.327C331.196 134.359 332.878 135.006 335.625 136.673C337.711 137.939 340.039 139.045 340.798 139.131C342.177 139.287 342.177 139.287 341.997 134.753C341.867 131.477 342.052 129.763 342.665 128.573C343.843 126.284 346.988 124.91 351.036 124.915C360.441 124.927 365.551 133.501 361.557 142.57C360.796 144.299 360.173 146.323 360.173 147.068C360.173 148.161 358.703 149.725 357.856 149.534C357.76 149.512 355.967 149.004 353.872 148.404ZM355.988 141.665C356.463 140.986 356.85 139.347 356.85 138.024C356.85 133.431 353.962 130.112 349.965 130.112C347.213 130.112 346.33 130.856 346.33 133.173C346.33 136.36 351.55 142.901 354.093 142.901C354.661 142.901 355.514 142.345 355.988 141.665Z" fill="#083674"/>
</g>
</svg>
