<svg width="819" height="618" viewBox="0 0 819 618" fill="none" xmlns="http://www.w3.org/2000/svg">
<g opacity="0.2">
<path d="M415.629 622.101C410.127 620.439 404.61 615.489 402.462 610.285C401.608 608.218 400.529 606.526 400.064 606.526C399.599 606.526 396.434 609.218 393.031 612.509C382.634 622.562 369.753 625.057 354.654 619.942C345.242 616.754 337.699 611.148 334.527 604.985C332.198 600.46 329.616 599.113 328.073 601.619C326.097 604.825 314.226 609.381 306.365 609.95C299.036 610.48 297.271 610.125 289.806 606.621C279.014 601.555 274.059 597.693 270.637 591.681C269.115 589.008 267.419 586.817 266.867 586.811C266.315 586.806 264.069 588.174 261.877 589.852C249.677 599.186 224.403 595.534 206.824 581.896C182.217 562.806 175.723 533.08 190.988 509.41C202.929 490.893 222.376 480.431 245.135 480.279C253.94 480.22 256.677 480.721 262.556 483.468C270.891 487.362 279.775 495.277 284.079 502.643C288.392 510.026 289.273 521.775 285.913 527.111C283.387 531.123 276.647 535.025 272.244 535.025C268.388 535.025 261.029 530.892 256.81 526.357C251.893 521.072 246.431 518.799 241.829 520.122C232.61 522.775 224.239 530.062 224.248 535.428C224.256 539.385 228.577 545.796 233.142 548.623C236.761 550.864 239.776 551.878 255.35 556.092C257.927 556.79 262.183 559.306 264.807 561.685C269.58 566.01 269.58 566.01 272.043 561.166C275.518 554.333 285.831 545.473 293.783 542.488C304.277 538.55 311.081 539.099 322.378 544.797C331.166 549.229 335.381 552.891 341.09 561.048C343.032 563.824 343.032 563.824 347.269 560.581C353.833 555.559 361.947 552.341 368.119 552.311C374.554 552.28 389.733 557.106 394.974 560.85C396.921 562.241 398.769 563.379 399.079 563.379C399.39 563.379 399.913 558.248 400.241 551.976C401.21 533.476 407.677 524.795 418.917 526.91C427.761 528.575 435.617 539.63 435.617 550.412C435.617 554.898 437.809 555.968 442.754 553.895C450.602 550.606 459.286 553.637 463.937 561.289C466.967 566.275 466.93 569.968 463.78 576.934C461.275 582.476 461.275 582.476 464.729 585.249C471.082 590.349 471.444 589.583 470.777 572.473C470.248 558.896 469.844 556.562 467.612 554.179C461.285 547.423 461.765 537.362 468.766 529.979C473.113 525.395 473.698 525.163 480.915 525.163C487.795 525.163 488.911 525.543 492.969 529.275C496.881 532.87 497.514 534.262 498.019 540.37C498.623 547.672 499.389 548.634 502.046 545.423C504.641 542.286 510.141 539.956 514.951 539.956C518.02 539.956 520.667 538.921 523.307 536.688C528.824 532.021 534.564 529.918 541.782 529.919C548.609 529.919 552.211 531.043 557.894 534.944C559.922 536.336 561.933 537.478 562.363 537.483C562.794 537.488 563.526 534.943 563.992 531.829C565.199 523.756 568.685 516.29 574.008 510.379C579.84 503.903 585.102 501.3 596.266 499.367C610.666 496.873 614.496 499.096 625.352 516.243C634.572 530.807 641.705 545.048 643.334 552.142C646.7 566.807 642.279 582.814 632.267 592.209C624.95 599.075 618.252 601.349 611.408 599.292C600.908 596.136 595.645 587.969 597.087 577.069C597.848 571.309 597.848 571.309 591.39 569.91C587.837 569.141 583.474 568.136 581.693 567.678C578.516 566.86 578.455 566.961 578.455 573.002C578.455 587.183 566.781 595.075 551.517 591.214C547.871 590.291 547.475 590.511 545.838 594.368C541.008 605.749 526.257 610.271 516.228 603.444C513.738 601.749 511.311 600.364 510.834 600.366C510.357 600.367 508.861 602.431 507.509 604.951C502.104 615.026 489.935 618.285 480.848 612.091C476.351 609.026 476.351 609.026 473.68 613.362C470.537 618.463 463.247 622.552 457.297 622.552C454.973 622.552 449.918 620.888 446.063 618.854C438.908 615.078 435.617 614.27 435.617 616.288C435.617 617.953 428.201 622.131 423.943 622.863C421.915 623.212 418.174 622.87 415.629 622.101ZM369.256 586.258C369.256 585.959 368.703 585.372 368.027 584.953C367.351 584.534 366.798 584.778 366.798 585.496C366.798 586.214 367.351 586.802 368.027 586.802C368.703 586.802 369.256 586.557 369.256 586.258ZM120.138 513.512C98.0579 506.59 81.3226 485.986 77.7487 461.324C76.4039 452.044 77.1751 445.497 81.0623 433.196C81.8368 430.745 81.3492 430.568 72.0371 429.928C59.834 429.089 52.8714 425.591 42.3079 414.995C33.6483 406.308 26.707 393.365 25.5892 383.82C23.7649 368.242 28.2918 359.836 41.0107 355.184C45.0255 353.716 49.5992 351.437 51.1747 350.12C54.0391 347.725 54.0391 347.725 44.6444 347.684C8.9305 347.528 -10.085 318.202 5.47655 287.278C12.8438 272.637 27.8428 263.445 52.9934 258.156C70.9808 254.374 77.1902 254.748 82.7408 259.949C84.7354 261.818 87.056 265.653 87.8976 268.472C89.2084 272.86 89.1236 274.395 87.3065 279.168C84.5574 286.389 81.1631 288.692 60.991 297.026C36.8422 307.003 38.2093 309.436 65.1984 304.515C81.0323 301.628 88.8939 301.411 94.3829 303.712C100.145 306.127 104.749 312.191 105.712 318.633C106.457 323.619 107.038 324.375 111.967 326.768C118.413 329.898 130.11 344.142 136.004 356.038C142.782 369.717 140.322 384.62 129.541 395.179C126.88 397.787 124.702 400.281 124.702 400.722C124.702 401.163 127.417 401.262 130.735 400.942C138.027 400.239 150.774 402.33 159.76 405.702C179.435 413.087 192.661 439.473 185.185 456.427C182.012 463.624 177.545 466.606 169.942 466.606C164.988 466.606 163.466 465.996 160.17 462.69C158.023 460.536 154.556 455.553 152.466 451.616C150.376 447.679 147.283 443.728 145.593 442.835C141.294 440.564 128.917 441.696 124.821 444.735C114.035 452.739 118.865 464.407 138.587 477.987C149.239 485.322 152.21 495.559 146.596 505.579C141.836 514.074 131.661 517.125 120.138 513.512ZM674.027 508.676C661.129 505.114 651.644 497.95 643.368 485.518C635.718 474.025 633.1 463.817 633.685 447.758C634.261 431.954 637.267 424.109 646.573 414.129C654.629 405.49 662.515 401.651 673.72 400.914C678.62 400.592 682.629 400.192 682.629 400.025C682.629 399.858 681.8 397.729 680.786 395.295C678.281 389.281 678.477 383.558 681.351 378.831C686.539 370.295 696.854 368.779 709.358 374.713C713.583 376.718 717.103 377.965 717.181 377.486C717.258 377.006 717.221 375.626 717.097 374.42C716.637 369.933 719.822 363.583 724.581 359.496C729.365 355.388 729.456 355.163 728.204 350.499C726.326 343.503 728.505 336.952 734.586 331.309C737.327 328.766 739.339 326.484 739.057 326.239C738.775 325.993 734.945 324.086 730.545 322.002C726.145 319.918 720.381 316.337 717.736 314.043C713.315 310.209 712.889 309.283 712.457 302.561C712.088 296.802 712.512 294.412 714.459 291.303C719.257 283.64 729.654 281.141 739.436 285.299C744.518 287.459 743.858 287.952 749.208 277.991C751.918 272.946 760.292 266.644 766.555 264.938C774.046 262.897 785.805 263.189 793.03 265.596C801.027 268.261 810.82 277.024 814.998 285.255C819.833 294.78 820.318 307.04 816.286 317.82C814.589 322.357 812.591 328.312 811.846 331.052C810.287 336.785 805.021 342.39 799.863 343.805C797.014 344.587 796.382 345.375 796.694 347.753C798.277 359.836 798.249 362.362 796.494 365.767C795.465 367.763 793.757 370.117 792.698 370.998C791.587 371.924 790.774 374.526 790.774 377.16C790.774 379.689 789.269 384.699 787.394 388.412C783.016 397.084 775.335 402.459 765.572 403.682C759.216 404.479 758.777 404.728 760.418 406.609C766.682 413.787 767.758 424.581 762.879 431.305C759.978 435.303 750.903 440.101 746.241 440.101C742.783 440.101 742.783 440.101 744.783 443.981C746.248 446.822 746.663 450.245 746.335 456.762C745.468 473.987 732.059 493.592 714.897 502.724C702.086 509.541 685.766 511.918 674.027 508.676ZM695.637 464.449C700.066 461.447 702.706 458.278 706.163 451.813C711.8 441.269 716.901 435.667 721.863 434.574C723.926 434.12 725.869 433.332 726.182 432.825C726.685 432.008 704.916 416.083 697.789 412.053C695.129 410.549 695.06 410.664 695.106 416.541C695.167 424.497 692.648 428.112 682.492 434.642C675.995 438.82 674.078 440.758 673.406 443.831C671.516 452.463 675.923 464.851 681.716 467.187C686.566 469.143 689.586 468.549 695.637 464.449ZM413.862 496.64C400.12 493.484 398.638 477.313 411.265 468.294C414.618 465.899 414.945 465.101 414.426 460.567C413.73 454.48 407.567 439.317 402.058 430.133C397.618 422.732 398.723 423.018 382.806 425.148C367.59 427.183 340.232 426.909 328.957 424.607C318.348 422.441 308.732 418.45 302.337 413.557C297.154 409.591 291.069 400.66 289.911 395.318C289.27 392.362 267.472 349.258 265.239 346.53C265.015 346.257 260.655 347.021 255.55 348.227C223.266 355.853 198.641 339.149 203.21 312.722C204.842 303.282 211.514 289.808 219.446 279.934C224.801 273.268 225.473 271.766 225.473 266.47C225.473 263.191 226.215 258.033 227.123 255.009C241.197 208.094 370.598 140.245 482.077 121.326C507.093 117.08 533.348 116.601 547.862 120.125C555.49 121.977 558.3 122.184 561.38 121.119C568.939 118.507 577.413 118.155 586.584 120.073C604.083 123.733 616.052 131.727 621.858 143.632C624.699 149.457 625.08 151.567 624.69 159.325C624.039 172.25 619.841 179.805 604.217 196.169C591.552 209.435 591.552 209.435 597.717 240.291C601.108 257.262 604.794 272.915 605.909 275.077C607.023 277.239 608.222 282.188 608.574 286.075C610.791 310.608 586.815 340.043 542.115 367.667C535.465 371.777 529.779 375.777 529.482 376.555C529.016 377.771 531.747 386.219 536.552 398.427C537.858 401.745 537.867 401.748 547.927 401.035C559.633 400.207 564.457 401.947 568.39 408.417C575.032 419.344 567.904 433.647 549.801 445.719C533.984 456.268 526.293 456.763 517.691 447.787C513.099 442.996 502.855 423.414 495.774 405.892C492.987 398.996 491.019 395.721 489.66 395.721C488.557 395.721 484.104 397.181 479.763 398.966C475.422 400.75 464.958 404.567 456.509 407.448C447.799 410.417 441.001 413.419 440.808 414.379C440.622 415.311 446.113 427.998 453.011 442.573C467.199 472.548 467.946 475.827 462.011 482.051C456.855 487.456 452.342 490.01 441.762 493.505C430.732 497.15 420.894 498.255 413.862 496.64ZM439.905 478.062C443.841 476.475 447.629 474.273 448.324 473.169C449.304 471.611 446.821 465.275 437.226 444.845C426.621 422.262 424.452 418.477 421.946 418.167C420.339 417.969 417.984 418.57 416.713 419.503C414.577 421.07 414.547 421.426 416.32 424.178C419.719 429.455 426.947 447.031 428.962 454.922C431.446 464.65 430.497 469.777 425.102 475.767C422.775 478.351 420.87 480.892 420.87 481.412C420.87 483.088 432.531 481.036 439.905 478.062ZM539.628 434.027C543.591 431.364 548.683 427.262 550.943 424.911C558.211 417.353 553.704 412.823 543.905 417.838C532.733 423.556 528.279 419.954 520.508 398.92C516.664 388.513 514.671 384.626 513.178 384.626C510.788 384.626 505.666 387.974 505.666 389.536C505.666 391.549 522.437 428.379 525.745 433.629C527.56 436.511 529.805 438.869 530.734 438.869C531.662 438.869 535.664 436.69 539.628 434.027ZM376.371 396.868C438.857 389.963 523.189 353.704 560.634 317.643C573.13 305.609 578.191 298.262 578.118 292.265C578.027 284.873 559.065 193.116 557.521 192.599C556.736 192.337 553.18 194.685 549.62 197.818C533.898 211.653 508.375 227.987 479.574 242.645C415.517 275.247 332.305 299.565 284.8 299.565C277.623 299.565 274.629 300.007 274.629 301.067C274.629 302.588 319.331 387.569 321.706 390.563C327.003 397.242 349.502 399.837 376.371 396.868ZM403.658 367.527C393.73 364.244 387.04 357.242 385.707 348.741C385.018 344.344 387.516 336.785 390.471 334.325C391.403 333.549 397.656 330.643 404.367 327.868C411.078 325.092 426.643 317.866 438.956 311.809C466 298.507 469.854 297.869 477.41 305.448C481.815 309.867 484.752 316.694 484.767 322.55C484.771 324.004 483.684 328.719 482.351 333.028C478.011 347.066 466.175 357.478 446.663 364.425C438.994 367.155 434.902 367.772 422.099 368.124C413.651 368.356 405.352 368.087 403.658 367.527ZM431.757 352.516C446.938 350.045 463.282 339.984 467.143 330.732C469.246 325.692 469.274 318.754 467.198 317.026C465.998 316.027 460.699 318.107 445.999 325.347C435.22 330.655 422.253 336.747 417.184 338.883C399.766 346.221 398.412 347.783 406.123 351.648C411.03 354.107 420.099 354.414 431.757 352.516ZM308.615 334.294C305.961 331.352 306.02 326.344 308.739 323.877C309.925 322.8 321.749 317.155 335.014 311.333C355.642 302.278 359.592 300.923 362.316 301.961C365.994 303.364 367.703 308.306 365.889 312.292C365.009 314.225 357.835 317.986 340.195 325.761C326.734 331.694 314.58 336.548 313.185 336.548C311.79 336.548 309.734 335.534 308.615 334.294ZM482.316 273.677C479.21 270.561 479.166 266.058 482.213 263.291C484.275 261.42 527.571 244.63 538.629 241.414C544.479 239.712 548.678 242.631 548.678 248.401C548.678 251.842 548.001 253.007 545.139 254.491C540.029 257.143 488.583 276.142 486.515 276.142C485.558 276.142 483.668 275.033 482.316 273.677ZM244.464 309.519C245.485 307.862 242.56 302.03 240.707 302.03C238.904 302.03 235.304 306.731 235.304 309.085C235.304 310.914 243.369 311.297 244.464 309.519ZM317.027 267.574C373.354 258.182 445.141 231.274 496.204 200.414C528.529 180.878 552.856 157.551 547.568 151.159C545.276 148.389 535.218 146.7 521.009 146.7C445.085 146.7 303.572 204.548 261.996 252.58C255.753 259.792 253.798 264.368 256.011 266.587C260.994 271.586 290.141 272.057 317.027 267.574ZM372.739 226.178C364.508 223.556 360.652 218.52 360.658 210.402C360.664 202.645 363.478 197.546 370.621 192.356C385.608 181.466 415.657 172.236 426.42 175.217C439.817 178.928 445.518 194.533 438.004 206.927C430.285 219.66 389.779 231.608 372.739 226.178ZM585.514 155.404C587.327 151.014 586.398 149.166 582.377 149.166C579.719 149.166 579.443 149.575 580.094 152.556C581.804 160.382 583.164 161.097 585.514 155.404ZM264.028 170.229C261.914 168.936 247.812 153.286 232.69 135.451C217.568 117.615 201.186 98.4551 196.286 92.8725C185.033 80.0529 184.664 77.2591 192.998 67.9611C198.62 61.6889 198.62 61.6889 191.652 58.5978C187.82 56.8977 182.387 54.8906 179.579 54.1375C172.737 52.3029 171.401 50.9903 171.401 46.1066C171.401 40.6262 175.702 37.5949 181.841 38.7501C184.21 39.1959 186.148 39.0633 186.148 38.4556C186.148 37.8478 183.382 34.7955 180.003 31.6727C173.492 25.6562 172.683 23.189 175.771 18.766C178.594 14.7242 183.607 15.2596 189.929 20.2779C192.875 22.6164 195.543 24.2707 195.859 23.9542C196.174 23.6377 194.583 19.5434 192.322 14.8559C188.352 6.62256 188.282 6.22559 190.28 3.16656C191.843 0.774946 193.391 0 196.606 0C200.243 0 201.32 0.725178 203.996 4.97749C207.348 10.3041 215.514 28.3288 219.613 39.4489C223.228 49.2527 223.314 49.3146 230.424 47.2237C238.543 44.8362 243.556 46.5167 249.907 53.7546C258.227 63.2364 269.62 87.656 276.888 111.585C286.887 144.505 287.437 166.46 278.384 171.319C274.697 173.299 268.246 172.809 264.028 170.229ZM269.714 149.918C269.714 144.56 264.869 123.238 261.044 111.763C252.684 86.6799 239.832 61.6389 235.319 61.6389C232.47 61.6389 212.438 71.7557 207.812 75.5312C204.283 78.4109 204.283 78.4109 211.915 87.2837C216.112 92.1638 219.912 96.1393 220.359 96.1181C220.806 96.097 223.384 94.713 226.087 93.0425C231.85 89.482 234.879 89.2247 237.972 92.033C241.675 95.3944 240.83 100.494 235.919 104.425C230.91 108.434 230.72 109.474 234.191 113.9C236.357 116.662 237.407 117.061 240.821 116.419C248.425 114.988 252.883 120.117 250.034 127.018C248.62 130.441 248.927 131.003 258.065 141.721C263.29 147.85 268.049 152.864 268.64 152.864C269.23 152.864 269.714 151.539 269.714 149.918ZM357.581 145.985C354.878 145.021 351.15 142.924 349.297 141.326C346.547 138.953 344.068 138.295 335.779 137.737C310.548 136.038 294.551 125.361 289.769 107.027C287.936 99.9986 287.828 97.5722 289.034 90.5096C292.061 72.78 302.358 59.1579 330.204 36.0434C340.834 27.219 352.051 13.0075 352.051 8.36283C352.051 7.18467 353.497 5.27012 355.265 4.10828C360.329 0.779843 363.663 3.6115 370.751 17.2589C374.096 23.7001 381.388 35.3499 386.956 43.1472C404.617 67.8817 409.42 77.4165 412.903 94.6575C416.254 111.248 412.519 122.89 400.006 134.863C390.044 144.394 382.151 147.933 371.099 147.824C366.368 147.777 360.285 146.95 357.581 145.985ZM372.103 121.601C379.352 110.502 379.897 85.1361 373.337 64.1974C370.681 55.7189 369.903 57.8673 371.617 68.9475C374.165 85.4254 372.837 108.786 368.587 122.218C367.56 125.464 369.84 125.064 372.103 121.601ZM396.172 115.513C397.62 112.513 398.75 107.738 398.75 104.621C398.75 99.1053 395.415 85.5308 394.328 86.6213C394.015 86.9349 393.512 92.0147 393.21 97.9098C392.728 107.32 391.856 112.578 389.344 121.226C388.057 125.654 393.46 121.133 396.172 115.513ZM315.184 115.216C315.184 114.85 313.972 112.214 312.491 109.36C310.438 105.402 309.781 101.939 309.726 94.779C309.66 86.2746 310.089 84.5359 314.272 76.3552C318.891 67.3221 318.891 67.3221 315.111 70.9525C310.991 74.9099 304.882 86.9483 303.673 93.4904C302.596 99.3227 305.076 107.927 309.073 112.219C312.128 115.5 315.184 116.998 315.184 115.216ZM356.574 106.543C358.208 98.6622 358.495 81.4334 357.076 76.4322C356.202 73.3502 356.202 73.3502 354.715 76.0908C349.992 84.7992 349.17 115.817 353.702 114.302C354.449 114.052 355.741 110.561 356.574 106.543ZM335.608 98.9277C335.69 92.2335 336.643 83.5557 337.759 79.3362C340.462 69.1145 340.328 68.0725 336.743 71.4506C332.226 75.7075 327.449 83.0602 325.485 88.7799C323.346 95.0089 324.769 101.605 329.458 107.196C334.611 113.339 335.445 112.218 335.608 98.9277ZM449.249 118.072C443.087 115.973 436.105 108.735 434.514 102.796C432.897 96.7617 433.751 91.3769 437.531 83.7762C440.867 77.0686 443.56 67.9909 445.928 55.475C448.244 43.2275 451.354 35.3237 457.35 26.4389C460.072 22.4069 463.233 17.2842 464.375 15.055C465.539 12.7835 468.183 10.2634 470.39 9.32166C476.479 6.72363 504.791 3.30457 512.359 4.25317C520.943 5.32904 529.242 10.6578 533.963 18.1243C538.752 25.7004 540.06 30.7091 540.068 41.5076C540.076 51.5585 533.825 75.4994 528.303 86.5678C521.662 99.8786 508.657 108.821 486.616 115.232C473.912 118.928 455.801 120.304 449.249 118.072ZM483.327 100.288C506.309 93.6824 513.879 86.3791 520.19 64.7208C524.117 51.2475 524.113 51.1917 519.394 50.9555C511.585 50.5646 507.894 43.5037 513.051 38.8219C514.691 37.333 517.195 36.6459 520.505 36.776C525.139 36.9581 525.43 36.7769 524.639 34.2039C523.037 28.995 520.461 24.873 517.199 22.2988C514.495 20.165 512.335 19.7472 504.578 19.8575C499.431 19.9307 491.632 20.6241 487.248 21.3985C479.382 22.7876 479.196 22.913 473.266 30.8194C465.34 41.3859 463.152 46.5423 460.11 61.819C458.711 68.8392 456.168 77.9115 454.458 81.9797C448.92 95.1527 448.349 98.1722 450.868 100.965C452.084 102.313 454.265 103.654 455.716 103.945C460.533 104.912 472.969 103.265 483.327 100.288ZM462.23 91.4366C457.973 86.7186 461.172 78.8977 467.359 78.8977C470.703 78.8977 474.943 83.0326 474.943 86.2944C474.943 89.64 470.672 93.6911 467.145 93.6911C465.56 93.6911 463.348 92.6766 462.23 91.4366ZM503.208 72.7338C501.856 71.3778 500.75 69.1588 500.75 67.8027C500.75 64.4572 505.02 60.4061 508.547 60.4061C514.654 60.4061 517.825 69.0057 513.25 73.1592C510.228 75.9025 506.196 75.7317 503.208 72.7338ZM481.361 68.3492C478.291 66.1924 477.545 59.1128 480.166 57.0096C483.912 54.0025 487.163 54.061 490.284 57.1915C494.164 61.0841 494.182 63.4087 490.36 67.2424C486.845 70.7684 485.108 70.9821 481.361 68.3492ZM483.545 40.3272C480.068 38.5719 478.671 31.8907 481.154 28.8897C483.483 26.0739 490.458 26.6609 492.692 29.861C495.317 33.6199 495.104 35.3625 491.589 38.8885C488.13 42.358 487.715 42.4323 483.545 40.3272Z" fill="#FDF8E3"/>
<path d="M354.825 612.168C350.606 610.596 346.284 608.585 345.22 607.699C341.549 604.643 339.762 599.28 339.762 591.319C339.762 580.369 344.205 571.874 353.246 565.538C359.132 561.413 360.661 560.914 367.399 560.914C380.379 560.914 392.23 565.508 395.681 571.877C396.639 573.645 397.445 574.397 397.472 573.55C397.499 572.702 398.904 572.009 400.593 572.009C403.051 572.009 403.666 572.625 403.666 575.091C403.666 577.556 403.051 578.173 400.593 578.173C397.726 578.173 397.521 578.584 397.521 584.337C397.521 589.679 397.849 590.5 399.979 590.5C401.781 590.5 402.437 591.322 402.437 593.582C402.437 596.12 401.84 596.666 399.057 596.674C396.414 596.681 395.075 597.743 392.911 601.543C385.756 614.114 371.052 618.216 354.825 612.168ZM372.464 587.314C372.989 585.215 372.623 583.487 371.39 582.251C369.715 580.57 369.249 580.646 366.93 582.972C362.99 586.924 363.5 590.5 368.004 590.5C370.918 590.5 371.83 589.849 372.464 587.314ZM412.644 612.182C409.196 609.209 409.196 609.209 408.832 574.917C408.413 535.531 408.511 535.025 416.586 535.025C424.225 535.025 425.653 537.373 428.186 554.082C429.376 561.94 430.668 568.688 431.057 569.077C431.445 569.467 434.368 567.789 437.553 565.349C442.287 561.724 444.389 560.914 449.066 560.914C456.158 560.914 457.738 562.424 457.738 569.201C457.738 573.698 456.976 575.359 452.858 579.84C447.978 585.15 447.978 585.15 455.312 588.667C465.686 593.64 468.184 596.666 468.184 604.26C468.184 611.977 465.922 613.923 456.954 613.923C451.118 613.923 449.723 613.337 442.505 607.857C434.515 601.79 434.515 601.79 433.134 605.988C430.186 614.949 419.572 618.158 412.644 612.182ZM487.667 606.906C482.519 605.896 480.931 602.42 479.796 589.669C478.06 570.174 478.32 558.934 480.561 556.687C482.729 554.512 489.893 554.112 493.357 555.972C494.61 556.645 495.997 559.002 496.441 561.212C497.968 568.822 498.401 569.543 501.447 569.543C503.817 569.543 504.437 570.182 504.437 572.625C504.437 574.32 504.99 575.707 505.666 575.707C506.342 575.707 506.895 577.371 506.895 579.405C506.895 581.44 507.448 583.104 508.123 583.104C508.799 583.104 509.352 585.323 509.352 588.035C509.352 592.473 509.045 592.966 506.28 592.966C503.515 592.966 503.208 592.473 503.208 588.035C503.208 585.323 502.766 583.104 502.227 583.104C501.688 583.104 501.273 587.588 501.305 593.069C501.359 602.091 501.09 603.259 498.463 605.397C495.666 607.675 493.282 608.008 487.667 606.906ZM500.361 576.709C499.968 575.725 499.677 576.017 499.618 577.453C499.565 578.753 499.855 579.481 500.264 579.072C500.672 578.662 500.716 577.599 500.361 576.709ZM297.288 601.743C291.153 600.155 280.771 593.958 278.217 590.36C270.091 578.912 276.932 559.518 291.756 551.976C301.544 546.996 311.916 547.22 321.914 552.627C329.974 556.986 334.846 562.963 334.846 568.493C334.846 570.796 335.482 572.009 336.69 572.009C337.704 572.009 338.526 572.98 338.516 574.166C338.484 578.282 337.009 581.871 335.349 581.871C334.431 581.871 332.837 583.508 331.806 585.508C329.4 590.175 329.438 590.5 332.389 590.5C334.027 590.5 334.846 591.322 334.846 592.966C334.846 594.774 334.027 595.432 331.774 595.432C329.711 595.432 328.702 594.748 328.702 593.352C328.702 591.665 328.063 591.872 325.322 594.444C318.228 601.102 306.553 604.142 297.288 601.743ZM309.081 575.628C310.555 572.866 308.876 569.543 306.007 569.543C303.62 569.543 300.067 574.195 300.864 576.278C301.934 579.077 307.475 578.639 309.081 575.628ZM520.784 597.948C517.131 596.384 515.234 592.295 510.725 576.267C506.195 560.163 505.689 550.553 509.272 548.629C512.346 546.979 520.038 546.98 521.055 548.632C521.493 549.342 523.4 547.753 525.348 545.056C531.744 536.199 545.219 534.935 555.529 542.225C558.52 544.34 560.967 545.527 560.967 544.862C560.967 544.198 562.567 543.655 564.522 543.655C568.137 543.655 569.569 545.433 569.569 549.92C569.569 551.22 570.122 552.285 570.798 552.285C571.474 552.285 572.027 553.671 572.027 555.367C572.027 557.627 572.682 558.448 574.485 558.448C577.33 558.448 577.515 559.438 575.232 562.455C572.89 565.55 570.798 565.114 570.798 561.53C570.798 559.835 570.181 558.448 569.426 558.448C568.581 558.448 568.367 559.513 568.869 561.222C569.317 562.748 569.994 567.047 570.372 570.776C570.954 576.518 570.649 578.076 568.382 580.947C566.173 583.743 564.738 584.337 560.182 584.337C552.478 584.337 550.45 582.874 546.017 574.12C542.138 566.461 542.138 566.461 541.076 570.16C540.492 572.194 539.67 578.422 539.25 584.001C538.682 591.537 537.913 594.664 536.258 596.167C533.626 598.555 524.622 599.592 520.784 597.948ZM607.973 589.9C603.743 586.833 604.142 577.664 608.895 568.73C610.922 564.918 612.581 560.682 612.581 559.316C612.581 556.896 612.518 556.891 610.077 559.106C607.272 561.653 595.878 562.978 588.586 561.606C582.751 560.507 574.872 553.264 573.287 547.54C571.072 539.539 571.77 528.843 574.949 522.081C580.015 511.304 584.567 508.543 599.502 507.185C610.802 506.158 610.962 506.289 622.954 526.266C634.008 544.68 635.932 549.961 635.924 561.852C635.915 574.392 634.252 579.896 628.654 585.916C624.568 590.31 623.272 590.94 617.388 591.393C612.563 591.764 609.979 591.354 607.973 589.9ZM229.16 584.825C225.442 583.827 220.071 581.882 217.224 580.504C209.98 576.997 199.635 566.205 195.32 557.653C191.94 550.954 191.678 549.459 191.678 536.875C191.678 524.348 191.945 522.805 195.182 516.637C199.83 507.778 209.755 498.018 218.099 494.101C236.607 485.412 257.884 486.322 269.503 496.298C277.059 502.786 279.742 508.769 279.295 518.138C278.931 525.78 278.931 525.78 273.21 526.151C267.805 526.501 267.07 526.146 259.882 519.712C254.937 515.286 250.74 512.614 247.89 512.078C239.575 510.513 226.477 517.2 220.69 525.965C214.887 534.754 215.677 540.827 223.798 549.844C229.602 556.288 235.098 559.083 247.799 562.05C253.929 563.482 258.558 565.278 259.52 566.599C260.395 567.799 261.111 571.735 261.111 575.344C261.111 581.426 260.818 582.086 257.117 584.35C252.223 587.344 239.353 587.562 229.16 584.825ZM473.169 549.544C472.117 548.038 471.256 544.709 471.256 542.148C471.256 535.864 474.644 532.56 481.087 532.56C487.531 532.56 490.919 535.864 490.919 542.148C490.919 549.505 488.223 552.284 481.087 552.284C476.275 552.284 474.702 551.74 473.169 549.544ZM115.065 503.456C104.863 498.356 95.8838 489.279 90.7679 478.896C86.927 471.1 86.2176 468.293 85.675 458.748C85.2967 452.092 85.6293 445.285 86.5069 441.722C89.6732 428.87 100.352 418.006 115.485 412.24C122.806 409.45 145.51 409 153.775 411.481C161.713 413.863 170.322 420.353 174.437 427.059C177.632 432.264 178.22 434.559 178.587 443.249C179.138 456.295 177.991 458.593 170.933 458.593C164.87 458.593 163.072 457.047 159.468 448.731C156.484 441.846 149.677 435.705 143.044 433.913C129.2 430.174 111.112 441.893 111.211 454.538C111.28 463.323 118.477 473.14 130.837 481.308C135.524 484.405 139.932 488.014 140.633 489.328C143.182 494.106 141.581 503.148 137.729 505.728C136.985 506.226 133.029 506.642 128.937 506.653C123.356 506.667 119.891 505.868 115.065 503.456ZM671.198 500.027C650.236 492.229 638.094 468.002 641.838 441.446C643.506 429.611 646.303 423.634 653.019 417.547C659.759 411.439 665.463 409.282 674.872 409.282C685.037 409.282 687.545 410.613 687.545 416.005C687.545 422.355 686.611 423.726 679.497 427.808C667.017 434.971 663.067 442.926 665.908 455.174C668.618 466.852 677.372 475.838 686.049 475.848C695.783 475.859 706.631 467.277 713.234 454.341C718.708 443.617 722.12 440.906 729.148 441.693C737.079 442.582 738.55 444.711 738.517 455.25C738.494 462.884 737.89 465.348 734.248 472.68C728.848 483.55 720.526 491.891 709.981 497.002C702.484 500.635 700.425 501.062 688.774 501.395C679.885 501.65 674.417 501.224 671.198 500.027ZM417.798 494.971C417.122 494.745 415.034 494.219 413.158 493.804C405.702 492.152 402.765 484.739 406.633 477.332C407.589 475.501 410.354 472.091 412.778 469.755C418.112 464.611 418.321 461.681 414.148 450.559C409.917 439.283 401.291 422.974 398.871 421.675C397.671 421.031 394.369 421.131 390.734 421.923C387.37 422.655 372.451 423.301 357.581 423.357C334.489 423.444 329.47 423.125 323.172 421.166C307.404 416.261 296.346 407.259 293.072 396.66C292.179 393.771 285.867 380.729 279.045 367.677C270.349 351.04 266.017 343.947 264.551 343.946C263.401 343.946 259.253 344.802 255.334 345.849C234.743 351.35 215.412 345.368 207.965 331.19C204.278 324.169 204.429 312.533 208.327 303.263C211.982 294.573 218.474 284.105 223.619 278.608C227.291 274.684 227.707 273.448 228.208 264.98C228.97 252.107 233.865 243.071 247.583 229.213C297.485 178.803 425.646 126.024 512.425 120.146C525.627 119.252 543.997 120.933 552.005 123.767C555.912 125.15 557.501 125.181 560.456 123.934C570.37 119.753 587.679 120.98 600.778 126.792C608.162 130.069 617.364 138.763 620.191 145.134C622.892 151.221 623.319 161.749 621.138 168.489C618.637 176.22 611.424 186.1 599.853 197.646C588.95 208.525 588.95 208.525 594.789 238.327C598.001 254.718 601.691 270.626 602.989 273.677C604.288 276.728 605.655 282.553 606.027 286.621C608.198 310.344 584.621 338.735 539.809 366.359C533.075 370.51 527.271 374.677 526.911 375.619C526.049 377.872 535.331 403.257 537.293 404.015C538.129 404.338 541.724 404.105 545.281 403.498C563.345 400.417 572.911 410.781 566.029 425.979C562.974 432.726 551.223 442.986 540.373 448.38C532.056 452.514 531.128 452.716 526.638 451.367C523.99 450.571 520.359 448.174 518.57 446.042C514.751 441.489 505.75 423.697 498.288 405.951C495.38 399.034 492.332 393.118 491.516 392.804C490.7 392.49 485.433 394.121 479.812 396.429C474.191 398.738 462.5 402.974 453.833 405.843C440.242 410.343 438.075 411.419 438.075 413.67C438.075 415.106 443.641 428.131 450.445 442.616C457.248 457.1 463.076 470.365 463.396 472.093C464.442 477.739 459.84 483.005 449.788 487.663C438.47 492.909 422.523 496.552 417.798 494.971ZM435.795 482.037C445.744 478.922 451.593 475.318 451.593 472.302C451.593 468.279 426.389 416.098 424.244 415.682C420.849 415.022 412.268 417.919 412.268 419.724C412.268 420.669 414.544 426.018 417.326 431.61C429.612 456.308 430.978 470.342 421.691 476.447C418.381 478.622 416.757 481.558 417.867 483.36C419.028 485.244 427.561 484.614 435.795 482.037ZM538.612 437.558C548.681 431.766 557.28 422.881 557.28 418.27C557.28 412.347 551.924 411.269 543.62 415.519C533.377 420.761 529.865 417.664 522.273 396.692C516.359 380.359 516.005 379.989 509.45 383.344C506.627 384.789 504.006 386.784 503.625 387.779C502.761 390.04 506.363 399.208 516.192 419.761C523.707 435.476 527.63 441.346 530.599 441.323C531.418 441.317 535.024 439.622 538.612 437.558ZM392.605 396.951C447.665 387.026 507.89 361.585 548.173 331.234C567.639 316.568 580.63 301.49 580.63 293.563C580.63 289.217 561.522 191.746 560.272 189.718C558.971 187.606 556.893 188.658 548.971 195.442C503.54 234.347 416.577 273.739 339.762 290.208C320.639 294.308 307.734 296.011 288.776 296.936C274.759 297.621 272.762 297.985 272.392 299.926C272.161 301.142 278.47 314.456 286.414 329.513C294.357 344.57 304.174 363.269 308.229 371.066C321.225 396.055 321.926 396.76 336.359 399.373C346.197 401.154 376.541 399.847 392.605 396.951ZM401.822 364.295C395.85 362.192 389.24 354.931 388.191 349.322C387.72 346.801 388.132 343.404 389.251 340.589C390.941 336.339 392.068 335.572 403.826 330.666C410.835 327.742 426.728 320.381 439.144 314.307C467.048 300.656 471.794 300.188 478.591 310.412C484.623 319.486 481.6 336.217 472.115 346.256C464.223 354.609 449.746 362.024 435.864 364.822C426.715 366.667 407.72 366.373 401.822 364.295ZM431.316 354.99C446.994 352.742 463.733 342.81 468.871 332.708C472.696 325.185 471.726 315.749 466.937 313.906C465.814 313.473 457.389 316.99 446.795 322.312C436.779 327.345 422.562 334.031 415.203 337.171C398.713 344.207 397.472 345.243 400.032 349.833C403.384 355.842 413.617 357.529 431.316 354.99ZM310.477 333.006C309.565 332.426 309.022 330.453 309.248 328.544C309.625 325.363 311.403 324.351 334.544 314.152C355.062 305.109 359.865 303.413 361.887 304.499C364.632 305.972 365.183 310.942 362.804 312.774C360.272 314.724 315.774 334.084 313.872 334.064C312.904 334.054 311.376 333.577 310.477 333.006ZM483.791 272.197C482.98 271.384 482.316 269.422 482.316 267.839C482.316 264.407 482.795 264.185 517.597 251.514C544.141 241.85 546.22 241.64 546.22 248.625C546.22 250.977 545.092 252.115 540.997 253.892C533.755 257.035 487.855 273.677 486.428 273.677C485.789 273.677 484.602 273.011 483.791 272.197ZM245.649 312.377C246.719 311.966 247.593 310.834 247.593 309.863C247.593 306.857 242.718 298.332 241 298.332C237.88 298.332 231.39 308.455 232.503 311.585C233.074 313.189 242.124 313.734 245.649 312.377ZM313.955 270.556C397.511 257.957 515.936 203.291 545.69 163.586C555.748 150.163 551.33 145.586 527.291 144.522C466.534 141.832 353.103 180.995 286.855 227.534C268.168 240.661 252.509 257.574 252.509 264.629C252.509 272.996 280.111 275.659 313.955 270.556ZM373.873 224.118C367.045 222.298 363.111 216.948 363.111 209.481C363.111 204.245 363.718 202.742 367.548 198.489C375.096 190.109 400.145 179.305 417.545 176.926C430.47 175.158 440.637 185.267 438.734 197.994C436.862 210.517 422.68 219.071 396.235 223.628C383.477 225.826 380.526 225.891 373.873 224.118ZM587.232 157.384C590.087 151.519 588.676 147.354 583.495 146.357C578.517 145.398 576.73 147.365 577.705 152.727C579.77 164.074 583.167 165.734 587.232 157.384ZM732.054 437.559C733.216 436.88 734.719 435.372 735.396 434.207C736.434 432.421 736.633 432.621 736.664 435.479C736.696 438.373 736.208 438.863 733.322 438.831C730.473 438.8 730.274 438.6 732.054 437.559ZM735.803 428.46C727.652 423.784 698.276 403.511 692.637 398.669C687.824 394.536 687.545 393.929 687.545 387.582C687.545 381.394 687.81 380.765 690.925 379.567C696.516 377.416 702.94 379.345 717.721 387.617C726.896 392.751 731.786 394.885 731.786 393.755C731.786 392.73 733.039 392.023 734.858 392.023C736.548 392.023 737.931 392.534 737.931 393.158C737.931 393.782 739.626 394.666 741.698 395.123C744.933 395.836 745.414 396.44 745.105 399.399C744.814 402.185 745.797 403.724 750.247 407.442C757.401 413.42 757.552 413.705 757.575 421.232C757.59 426.463 757.094 427.985 754.862 429.553C750.725 432.46 741.893 431.953 735.803 428.46ZM86.6054 427.157C86.6054 426.13 85.5131 425.308 84.1476 425.308C82.7958 425.308 81.6898 424.754 81.6898 424.076C81.6898 423.397 83.0723 422.843 84.7621 422.843C87.2199 422.843 87.8344 423.459 87.8344 425.925C87.8344 427.62 87.5578 429.007 87.2199 429.007C86.8819 429.007 86.6054 428.174 86.6054 427.157ZM58.7699 419.075C52.4507 415.937 41.1644 404.235 37.3824 396.899C35.2726 392.807 34.4137 388.695 34.0131 380.768C33.7174 374.916 33.9547 369.289 34.5405 368.262C35.1262 367.236 48.0482 360.029 63.256 352.246C84.2956 341.479 91.2899 337.322 92.5098 334.857C93.8332 332.183 94.9549 331.617 98.9368 331.617C109.333 331.617 116.591 337.534 127.137 354.605C134.676 366.81 133.298 382.513 123.965 390.733C120.027 394.202 118.999 394.489 110.527 394.489C102.377 394.489 101.352 394.747 101.352 396.799C101.352 398.07 100.547 401.399 99.5636 404.196C98.5797 406.993 98.2571 409.282 98.8467 409.282C99.4363 409.282 100.2 408.589 100.545 407.741C100.964 406.708 101.991 407.217 103.659 409.282C105.137 411.113 105.61 412.552 104.825 412.826C104.098 413.081 102.466 414.329 101.199 415.6C98.8802 417.926 92.75 418.83 92.75 416.847C92.75 416.261 90.1677 417.093 87.0116 418.696C79.3338 422.595 66.2132 422.771 58.7699 419.075ZM75.4574 397.001C76.6721 396.349 78.3484 394.163 79.1825 392.143C80.8999 387.984 79.5937 382.452 75.6939 377.368C73.4358 374.425 73.4358 374.425 65.937 378.664C58.4383 382.903 58.4383 382.903 60.6423 386.539C62.7113 389.952 71.163 398.187 72.5965 398.187C72.9553 398.187 74.2428 397.654 75.4574 397.001ZM109.955 369.772C109.955 367.655 106.688 361.962 104.243 359.819C102.142 357.978 101.701 357.99 98.5152 359.973C95.0636 362.121 95.0636 362.121 100.273 366.593C105.305 370.915 109.955 372.441 109.955 369.772ZM749.605 393.997C742.098 391.615 736.947 388.602 731.031 383.132C726.289 378.747 725.642 377.519 725.642 372.909C725.642 369.801 726.377 367.057 727.449 366.165C730.108 363.951 739.645 365.19 749.605 369.044C758.208 372.373 758.208 372.373 751.996 366.48C748.579 363.239 743.464 358.587 740.628 356.141C735.95 352.106 735.473 351.164 735.473 345.971C735.473 338.314 738.412 335.316 745.919 335.316C750.998 335.316 751.449 335.064 751.449 332.234C751.449 329.768 752.063 329.152 754.521 329.152C756.979 329.152 757.593 329.768 757.593 332.234C757.593 334.604 756.955 335.318 754.828 335.327C749.5 335.35 761.527 341.201 774.881 345.084C782.027 347.162 788.367 349.743 789.229 350.926C791.658 354.258 791.148 362.061 788.316 364.902C786.964 366.258 785.029 367.368 784.015 367.368C782.559 367.368 782.171 369.116 782.167 375.689C782.162 385.592 779.674 390.592 773.221 393.663C768.106 396.098 756.734 396.259 749.605 393.997ZM720.726 385.991C720.726 383.853 722.941 382.161 725.742 382.161C726.363 382.161 726.87 383.548 726.87 385.243C726.87 387.709 726.256 388.325 723.798 388.325C721.603 388.325 720.726 387.659 720.726 385.991ZM65.7139 340.863C65.7139 338.397 66.3283 337.781 68.7862 337.781C71.244 337.781 71.8584 338.397 71.8584 340.863C71.8584 343.329 71.244 343.945 68.7862 343.945C66.3283 343.945 65.7139 343.329 65.7139 340.863ZM774.491 343.062C771.816 342.655 771.111 341.889 771.111 339.387C771.111 336.42 771.395 336.273 775.72 336.99C778.255 337.41 781.02 337.76 781.864 337.768C782.709 337.775 783.401 339.168 783.401 340.863C783.401 344.088 782.579 344.291 774.491 343.062ZM28.8384 337.862C18.9892 334.857 12.7514 328.87 9.73836 319.532C5.44489 306.224 9.98443 288.501 19.93 279.741C28.6661 272.047 48.0279 265.507 66.0364 264.169C77.841 263.292 80.4609 264.933 80.4609 273.203C80.4609 280.526 78.092 282.369 59.1889 289.759C41.1484 296.811 38.6435 298.367 35.0137 304.772C32.9647 308.388 32.6935 309.89 33.737 311.846C36.2662 316.586 38.9885 316.507 78.003 310.557C90.2394 308.691 97.6657 311.627 97.6657 318.331C97.6657 319.7 98.5875 320.522 100.124 320.522C101.926 320.522 102.581 321.344 102.581 323.604C102.581 325.612 101.894 326.686 100.608 326.686C99.5229 326.686 96.9571 328.102 94.9064 329.833C92.8558 331.564 89.5961 333.298 87.6628 333.686C85.7294 334.074 84.1476 335.154 84.1476 336.086C84.1476 338.005 78.44 338.457 77.7982 336.589C77.5433 335.847 72.9779 336.072 65.7139 337.183C53.3453 339.076 33.9843 339.432 28.8384 337.862ZM781.706 333.956C772.062 331.199 739.553 318.236 729.067 312.966C725.206 311.026 721.42 308.263 720.654 306.826C718.667 303.102 720.281 293.727 723.178 292.172C728.303 289.42 739.114 291.851 748.043 297.764C750.563 299.432 752.775 300.798 752.959 300.798C753.142 300.798 753.295 297.331 753.298 293.093C753.311 277.834 760.609 271.822 779.099 271.836C788.065 271.844 791.091 272.347 795.075 274.497C806.171 280.484 810.437 288.417 810.437 303.07C810.437 310.788 809.797 314.27 807.364 319.788C805.675 323.62 804.292 328.096 804.292 329.733C804.292 336.552 796.125 338.079 781.706 333.956ZM785.5 301.431C783.192 296.577 778.139 292.797 775.379 293.86C773.672 294.517 773.674 294.959 775.393 298.293C776.443 300.331 779.065 304.012 781.221 306.475C785.026 310.822 785.174 310.875 786.321 308.297C787.172 306.383 786.943 304.467 785.5 301.431ZM744.307 330.782C745.448 330.48 746.617 329.019 746.905 327.535C747.335 325.314 747.457 325.436 747.595 328.227C747.732 331.009 747.266 331.592 744.997 331.474C743.038 331.373 742.837 331.171 744.307 330.782ZM263.716 166.976C261.665 165.245 251.806 154.258 241.808 142.561C192.717 85.1296 189.834 81.5587 189.834 78.1878C189.834 75.9054 191.554 73.1498 195.364 69.3277C198.406 66.2765 200.895 62.9862 200.895 62.0159C200.895 60.1188 188.818 54.1542 180.351 51.8694C174.817 50.376 172.589 47.8835 173.537 44.2459C174.359 41.0937 177.792 40.3215 183.786 41.9405C193.709 44.621 192.836 39.1703 181.902 30.1826C176.256 25.5417 175.1 22.6706 177.791 19.9712C180.551 17.2028 184.642 18.4818 190.804 24.0393C194.187 27.0904 197.565 29.5868 198.31 29.5868C200.785 29.5868 199.717 24.696 195.336 15.9687C191.797 8.91952 191.25 6.88397 192.346 4.83056C193.286 3.06773 194.67 2.43197 196.983 2.70003C199.671 3.01147 201.123 4.6775 204.84 11.7115C207.348 16.4577 211.681 26.1659 214.468 33.2851C217.255 40.4044 220.058 47.5381 220.696 49.1377C221.47 51.0789 222.559 51.8419 223.972 51.432C236.504 47.7945 237.092 47.7353 241.633 49.6531C254.463 55.0724 274.469 101.096 281.409 141.153C284.721 160.273 281.582 170.123 272.177 170.123C268.896 170.123 266.301 169.158 263.716 166.976ZM271.824 154.462C272.266 153.306 271.681 146.748 270.524 139.888C264.848 106.234 244.32 59.1735 235.317 59.1735C232.598 59.1735 214.27 68.1677 207.581 72.7841C204.579 74.8558 202.13 77.2176 202.138 78.0325C202.158 80.0051 217.999 98.6223 219.658 98.6223C220.372 98.6223 223.398 97.1863 226.384 95.4312C233.313 91.3579 237.762 92.0688 237.762 97.2492C237.762 99.9797 236.669 101.486 232.846 104.024C230.143 105.818 227.931 107.791 227.931 108.407C227.931 109.024 229.424 111.374 231.249 113.629C233.073 115.885 234.779 118.008 235.039 118.347C235.299 118.686 238.028 118.963 241.104 118.963C247.731 118.963 250.428 121.648 247.892 125.722C247.052 127.072 246.364 128.97 246.364 129.941C246.364 132.401 267.174 156.563 269.293 156.563C270.243 156.563 271.382 155.617 271.824 154.462ZM357.618 143.502C354.934 142.517 351.34 140.403 349.63 138.804C346.981 136.328 344.884 135.805 335.461 135.273C316.016 134.174 301.314 126.517 295.005 114.202C284.74 94.1619 293.652 69.6315 318.624 49.1937C339.504 32.1039 352.513 17.7157 354.049 10.0115C354.826 6.11593 357.234 4.44611 360.52 5.52411C361.607 5.88091 365.187 11.3981 368.476 17.7846C371.764 24.1711 379.559 36.6047 385.798 45.4149C392.036 54.2251 399.434 65.8552 402.237 71.2595C408.375 83.0948 412.844 100.498 411.771 108.385C409.936 121.865 399.154 136.017 385.941 142.287C378.148 145.986 365.821 146.515 357.618 143.502ZM371.648 125.809C383.867 113.553 382.92 76.327 369.634 46.5554C363.472 32.7468 359.178 33.9004 363.965 48.0785C370.487 67.3913 372.407 93.9487 368.556 111.566C365.112 127.322 365.043 128.209 367.252 128.209C368.354 128.209 370.333 127.129 371.648 125.809ZM394.076 122.459C401.188 114.958 402.768 105.705 399.274 92.02C397.028 83.2237 394.576 78.8979 391.835 78.8979C390.159 78.8979 390.006 80.213 390.721 88.4519C391.598 98.5601 390.146 110.937 386.987 120.271C383.965 129.2 386.844 130.088 394.076 122.459ZM319.441 119.652C319.834 119.013 318.346 115.027 316.134 110.793C312.692 104.207 312.112 101.839 312.114 94.3872C312.118 84.5075 314.35 78.8782 322.541 68.0861C331.837 55.8401 327.796 54.1584 316.765 65.682C299.867 83.3358 296.326 103.086 308.068 114.196C314.242 120.038 318.071 121.875 319.441 119.652ZM358.112 111.552C360.494 103.226 360.625 72.5882 358.29 69.7663C355.706 66.6431 353.821 69.2578 350.943 79.9565C346.343 97.0596 348.225 119.262 354.179 118.119C355.595 117.847 356.965 115.559 358.112 111.552ZM338.036 99.8535C338.202 91.2945 339.091 82.9918 340.281 78.8979C343.788 66.8283 344.041 64.1046 341.656 64.1046C339.295 64.1046 337.256 66.2605 329.344 77.1229C326.352 81.2318 323.408 86.8062 322.802 89.5102C321.125 96.9993 323.753 105.613 329.259 110.675C336.709 117.524 337.717 116.281 338.036 99.8535ZM449.919 115.394C443.452 112.965 438.293 107.711 436.758 101.991C435.356 96.7694 436.451 91.9867 442.184 78.2815C443.886 74.2133 446.391 65.3374 447.75 58.5571C451.008 42.304 452.588 38.14 459.926 26.4619C470.273 9.99483 469.148 10.6827 490.025 8.06265C511.27 5.39639 518.203 6.24956 525.706 12.4538C533.657 19.028 536.807 25.9975 537.394 38.3139C537.838 47.6389 537.384 50.9151 533.96 63.0555C526.685 88.8536 519.67 98.9482 503.764 106.503C486.262 114.815 459.947 119.161 449.919 115.394ZM483.309 102.778C508.777 95.4102 515.883 88.2022 523.433 62.076C527.611 47.6207 527.608 47.5948 521.73 48.5377C514.381 49.7165 510.439 44.6995 515.066 40.0578C516.36 38.7592 518.025 38.318 519.674 38.8364C528.212 41.5204 528.233 41.5119 527.303 35.6787C525.297 23.0958 518.192 17.2365 505.051 17.3285C494.717 17.4009 479.435 19.9851 476.91 22.0874C475.908 22.9215 472.367 27.6274 469.04 32.5451C463.005 41.4683 459.796 49.233 458.291 58.5571C456.743 68.1486 453.803 78.381 450.262 86.5012C446.084 96.0826 445.789 99.8994 449.003 102.817C454.614 107.91 465.613 107.898 483.309 102.778ZM464.091 90.1744C463.166 89.5715 462.633 87.5615 462.862 85.5444C463.206 82.5293 463.816 81.9798 466.821 81.9798C471.201 81.9798 473.715 85.2886 471.739 88.4519C470.201 90.9128 466.502 91.7459 464.091 90.1744ZM504.683 71.2547C501.168 67.729 504.402 62.3473 509.592 63.0854C511.683 63.3827 512.531 64.4213 512.83 67.0528C513.404 72.0944 508.197 74.7799 504.683 71.2547ZM483.238 66.4714C479.243 64.1375 481.687 56.7079 486.449 56.7079C487.733 56.7079 490.919 60.6619 490.919 62.2554C490.919 64.0067 487.66 67.83 486.222 67.7654C485.764 67.7448 484.421 67.1625 483.238 66.4714ZM484.467 38.1175C481.638 36.4646 481.711 31.2314 484.584 29.6888C486.216 28.8125 487.594 28.9926 489.5 30.3317C492.636 32.5356 492.868 34.8523 490.216 37.5118C487.978 39.7573 487.381 39.8202 484.467 38.1175Z" fill="#FCF7DC"/>
<path d="M357.046 610.191C348.892 607.25 343.854 602.623 341.983 596.358C338.954 586.217 347.559 570.996 359.784 564.871C362.776 563.373 366.659 562.146 368.413 562.146C372.801 562.146 387.276 567.553 390.343 570.337C399.055 578.246 397.721 592.683 387.245 603.861C378.936 612.726 369.535 614.697 357.046 610.191ZM372.943 590.5C375.895 587.539 376.099 583.981 373.469 581.342C370.639 578.503 368.63 578.947 365.064 583.198C361.338 587.64 361.062 589.898 364.033 591.634C367.349 593.571 370.249 593.202 372.943 590.5ZM415.747 611.415C414.619 610.754 412.751 607.732 411.596 604.698C409.765 599.888 409.574 595.585 410.102 571.11C410.435 555.671 411.124 542.052 411.633 540.847C413.018 537.563 416.743 535.935 419.494 537.411C422.934 539.259 425.286 546.48 427.064 560.66C427.939 567.64 429.092 573.622 429.626 573.952C430.159 574.283 433.799 572.108 437.715 569.118C446.842 562.148 449.765 561.433 453.56 565.24C457.271 568.963 456.609 570.888 448.851 578.942C442.765 585.259 442.765 585.259 452.996 590.701C458.944 593.865 463.958 597.45 464.973 599.263C468.695 605.916 462.817 613.734 455.331 612.085C453.277 611.632 447.68 608.188 442.894 604.432C438.107 600.675 433.75 598.084 433.209 598.674C432.669 599.263 431.565 601.825 430.756 604.365C428.461 611.569 421.553 614.813 415.747 611.415ZM487.086 604.052C483.651 602.039 482.31 596.551 481.216 580.022C479.973 561.242 480.772 558.043 486.857 557.451C489.855 557.159 491.209 557.747 492.662 559.971C495.044 563.617 499.521 585.136 499.521 592.935C499.521 602.414 493.49 607.806 487.086 604.052ZM294.327 597.808C278.7 590.697 273.805 581.225 279.387 568.899C283.757 559.248 296.914 549.859 306.109 549.831C312.056 549.812 326.88 557.811 329.859 562.647C334.011 569.386 334.243 573.499 330.885 580.857C323.451 597.145 308.305 604.168 294.327 597.808ZM307.863 579.377C311.945 577.185 313.169 573.488 310.941 570.077C308.445 566.255 306.466 566.297 301.76 570.269C297.288 574.044 296.917 577.282 300.744 579.133C304.325 580.866 305.043 580.891 307.863 579.377ZM521.203 594.118C518.834 592.248 517.006 588.397 514.327 579.632C507.947 558.759 507.555 556.42 509.85 552.906C512.177 549.343 517.947 548.687 520.441 551.702C521.792 553.335 522.755 552.739 527.67 547.235C532.805 541.483 533.928 540.827 539.576 540.283C547.207 539.547 551.223 541.415 558.1 548.899C563.553 554.835 568.34 565.947 568.34 572.671C568.34 578.243 564.749 581.871 559.233 581.871C554.273 581.871 550.851 578.34 546.304 568.535C544.66 564.99 542.73 562.286 542.014 562.525C539.924 563.224 537.814 571.994 537.712 580.411C537.615 588.372 536.261 592.425 532.808 595.084C529.838 597.371 524.795 596.951 521.203 594.118ZM608.984 586.019C605.646 581.762 605.758 580.294 609.993 572.775C614.155 565.387 615.49 560.062 614.336 555.452C613.508 552.139 613.508 552.139 610.877 554.618C603.291 561.768 592.057 562.359 583.396 556.065C569.639 546.068 571.517 522.087 586.815 512.406C590.27 510.22 606.248 508.44 608.464 509.995C610.583 511.482 625.685 535.742 630.148 544.829C635.26 555.236 635.661 568.025 631.166 577.281C625.645 588.65 614.491 593.043 608.984 586.019ZM598.232 539.032C599.637 536.636 600.166 530.52 599.109 528.867C598.098 527.285 597.67 527.372 596.078 529.484C594.17 532.018 593.517 537.68 594.967 539.134C596.053 540.224 597.56 540.177 598.232 539.032ZM234.649 583.754C217.583 580.027 205.095 570.372 197.56 555.078C193.555 546.947 192.977 544.662 192.994 537.008C193.018 525.87 196.966 516.784 205.896 507.312C216.48 496.085 228.944 490.553 243.814 490.482C257.011 490.418 268.343 496.235 274.048 506.001C278.584 513.764 279.245 519.3 276.025 522.531C272.788 525.777 270.923 525.106 262.551 517.678C254.197 510.266 247.742 508.264 238.993 510.369C227.104 513.23 216.689 522.624 214.92 532.081C212.173 546.769 224.152 559.373 245.195 563.933C252.703 565.561 255.515 566.771 257.415 569.194C260.25 572.81 260.429 574.388 258.487 578.664C257.014 581.907 249.51 585.639 244.803 585.471C243.296 585.417 238.727 584.644 234.649 583.754ZM478.629 550.196C470.775 547.38 472.951 535.025 481.301 535.025C486.687 535.025 490.53 542.338 487.52 546.86C486.678 548.126 481.725 551.171 480.861 550.954C480.647 550.901 479.643 550.559 478.629 550.196ZM123.473 503.994C117.797 502.348 103.584 492.808 99.3804 487.822C97.5455 485.646 94.4765 480.516 92.5603 476.423C80.9345 451.588 88.785 428.132 112.645 416.412C131.541 407.13 156.009 410.591 168.278 424.279C177.516 434.587 180.297 449.913 173.876 455.128C169.875 458.378 166.559 456.276 162.075 447.648C156.937 437.763 155.796 436.462 149.894 433.769C138.955 428.777 120.453 432.312 113.922 440.64C103.385 454.078 109.557 470.694 130.232 484.547C137.743 489.58 139.359 491.553 139.41 495.748C139.493 502.688 132.122 506.502 123.473 503.994ZM676.424 498.828C664.627 495.637 654.273 486.065 647.807 472.375C644.175 464.683 643.919 463.247 643.919 450.58C643.919 438.208 644.221 436.4 647.376 429.956C652.57 419.347 662.581 412.044 673.646 410.793C680.594 410.007 685.398 412.956 684.854 417.672C684.562 420.204 682.603 422.197 676.485 426.186C666.775 432.517 662.963 438.671 662.974 448C662.994 466.786 674.119 479.672 688.81 477.927C700.254 476.567 707.783 470.329 715.913 455.468C722.588 443.267 726.787 441.087 733.464 446.355C738.534 450.355 737.994 458.183 731.79 470.618C724.457 485.315 713.221 494.629 698.04 498.594C689.431 500.843 684.084 500.901 676.424 498.828ZM736.702 425.808C733.66 424.066 722.427 416.489 711.74 408.971C689.397 393.255 685.323 388.142 691.021 382.968C695.643 378.772 697.623 379.509 727.892 396.685C752.818 410.829 759.597 418.388 753.887 425.67C750.442 430.063 744.216 430.113 736.702 425.808ZM66.2199 419.277C60.9878 417.936 52.0869 411.585 46.6224 405.292C37.0316 394.248 32.0406 376.055 37.0002 370.218C38.2607 368.734 50.9053 361.628 65.0993 354.425C83.2922 345.194 91.9947 340.079 94.5947 337.088C97.9204 333.263 98.6584 332.954 102.104 333.945C108.735 335.853 110.879 337.572 118.054 346.728C126.827 357.924 129.556 363.844 129.59 371.749C129.611 376.52 128.792 379.285 126.096 383.549C121.387 390.998 115.479 393.812 106.719 392.779C100.328 392.026 100.157 392.087 99.4327 395.405C97.049 406.33 93.6251 411.639 86.1183 416.052C80.3501 419.443 72.0932 420.781 66.2199 419.277ZM76.9588 399.321C80.4857 397.427 83.2409 390.149 82.2197 385.423C80.8891 379.266 76.4394 372.319 73.8198 372.308C70.5021 372.295 55.8824 380.725 55.8824 382.652C55.8824 384.984 62.1357 393.902 65.7137 396.673C70.9179 400.702 73.328 401.27 76.9588 399.321ZM111.61 368.841C111.384 363.976 105.82 355.04 103.016 355.04C100.15 355.04 92.7499 359.887 92.7499 361.764C92.7499 362.639 95.2622 365.678 98.3327 368.517C102.86 372.704 104.661 373.607 107.857 373.297C111.466 372.947 111.782 372.572 111.61 368.841ZM751.449 392.103C740.91 388.876 728.099 378.5 728.099 373.192C728.099 370.283 730.835 366.135 732.753 366.135C733.188 366.135 739.293 368.126 746.319 370.56C765.536 377.216 765.957 373.551 747.733 358.249C739.112 351.009 737.931 349.526 737.931 345.939C737.931 337.293 745.322 335.539 757.09 341.394C761.084 343.382 768.683 346.11 773.976 347.458C779.27 348.806 784.662 350.871 785.958 352.049C790.396 356.077 788.29 363.011 781.946 365.261C780.247 365.863 779.986 367.165 780.485 372.537C781.648 385.047 773.97 393.343 761.405 393.15C757.619 393.092 753.138 392.621 751.449 392.103ZM31.7025 336.006C23.2555 333.357 17.9086 329.278 14.0607 322.548C7.08897 310.354 9.95126 294.095 21.0031 283.112C23.6271 280.505 27.4006 277.523 29.3888 276.487C39.9422 270.984 66.8099 264.348 72.6167 265.81C78.785 267.363 79.9786 275.796 74.5764 279.654C72.6919 281.001 64.535 284.735 56.4499 287.953C39.7655 294.593 35.7191 297.042 33.1289 302.066C30.9298 306.332 30.7459 313.305 32.7788 315.344C35.0327 317.605 51.3032 317.144 67.1012 314.371C84.726 311.277 87.9645 311.287 91.9697 314.448C98.4221 319.539 95.3125 328.59 86.0976 331.54C81.0734 333.148 47.3265 337.803 41.4522 337.698C38.9123 337.653 34.5249 336.892 31.7025 336.006ZM779.714 330.53C768.553 326.835 740.525 315.612 732.4 311.585C722.428 306.642 719.825 301.931 723.868 296.141C727.177 291.401 734.778 292.901 747.617 300.825C756.14 306.086 756.505 305.875 755.636 296.175C754.973 288.763 755.207 287.394 757.779 283.652C762.715 276.468 766.557 274.423 776.131 273.88C794.818 272.821 807.274 283.029 808.873 300.712C809.369 306.204 808.879 309.073 806.435 314.979C804.753 319.044 803.006 324.445 802.552 326.979C801.103 335.086 795.911 335.893 779.714 330.53ZM788.362 309.923C791.08 302.751 783.822 290.935 776.698 290.935C769.455 290.935 770.529 298.516 779.123 308.058C784.414 313.933 786.669 314.389 788.362 309.923Z" fill="#9AA9B4"/>
<path d="M358.196 609.354C341.626 603.633 337.845 590.47 348.523 575.683C352.515 570.154 363.358 563.408 368.278 563.391C373.69 563.372 388.089 569.19 391.014 572.578C396.928 579.426 395.414 592.447 387.6 601.939C380.177 610.956 370.157 613.483 358.196 609.354ZM373.613 591.173C377.528 587.245 377.53 582.52 373.618 579.948C369.497 577.24 366.775 578.054 363.462 582.986C359.909 588.275 359.895 591.506 363.419 592.927C367.997 594.773 370.444 594.352 373.613 591.173ZM414.877 608.289C411.229 603.637 410.613 596.589 411.348 567.922C411.956 544.199 412.208 541.934 414.488 539.647C416.966 537.161 416.966 537.161 419.983 540.187C423.072 543.285 424.679 549.853 426.514 566.873C426.995 571.337 428.021 574.939 428.909 575.281C429.763 575.609 433.895 573.343 438.091 570.245C446.294 564.187 451.885 562.953 453.842 566.769C455.465 569.935 454.448 571.916 447.526 579.066C444.097 582.609 441.536 585.733 441.834 586.009C442.132 586.284 445.971 588.298 450.364 590.484C464.355 597.446 468.235 603.392 462.525 609.12C458.766 612.891 453.981 611.457 443.528 603.426C438.688 599.707 434.142 596.664 433.425 596.664C432.708 596.664 431.457 598.744 430.646 601.287C427.478 611.21 419.831 614.606 414.877 608.289ZM486.255 601.02C482.537 596.278 480.383 564.119 483.529 560.317C485.758 557.622 490.59 557.994 492.185 560.984C494.049 564.479 498.292 586.964 498.292 593.351C498.292 603.095 491.35 607.518 486.255 601.02ZM291.631 595.007C278.804 588.214 275.428 580.004 280.846 568.778C286.377 557.315 301.292 549.071 311.141 552.032C317.513 553.947 326.866 560.071 329.442 564.015C334.179 571.267 330.704 583.851 321.797 591.696C311.961 600.359 303.493 601.289 291.631 595.007ZM310.362 578.267C314.639 573.977 314.715 573.311 311.408 569.093C308.021 564.773 305.424 564.998 300.562 570.029C295.961 574.791 295.925 577.985 300.447 580.281C304.933 582.557 306.378 582.264 310.362 578.267ZM521.933 593.525C519.356 591.714 514.441 578.129 510.516 561.969C508.249 552.63 513.205 547.804 519.87 552.861C523.23 555.41 523.571 555.281 526.635 550.308C532.587 540.648 543.222 538.385 552.156 544.878C557.975 549.106 562.496 555.456 565.22 563.226C569.076 574.225 566.688 580.638 558.737 580.638C554.623 580.638 552.723 578.425 546.069 565.888C544.462 562.861 542.594 560.365 541.919 560.341C539.719 560.263 536.497 572.419 536.442 581.002C536.396 588.213 535.968 589.801 533.372 592.405C529.913 595.875 525.844 596.273 521.933 593.525ZM610.123 585.569C606.845 582.28 607.015 580.252 611.197 572.775C615.535 565.021 616.588 560.798 615.559 555.292C614.62 550.271 612.816 549.946 608.928 554.097C600.353 563.254 583.876 559.611 577.445 547.136C574.613 541.641 574.874 530.415 577.976 524.314C582.326 515.761 587.846 511.947 597.355 510.926C602.304 510.394 606.415 510.525 607.572 511.25C608.637 511.918 612.953 517.957 617.163 524.669C631.919 548.199 634.977 557.295 632.315 569.747C629.227 584.195 617.259 592.727 610.123 585.569ZM598.743 539.648C601.883 535.649 601.626 526.396 598.375 526.396C594.631 526.396 590.929 537.55 593.738 540.367C595.036 541.67 597.425 541.326 598.743 539.648ZM237.182 583.022C218.709 579.923 205.371 569.718 197.549 552.698C188.232 532.427 198.469 508.561 221.343 497.22C229.202 493.324 232.052 492.581 240.939 492.113C248.959 491.691 252.652 492.068 257.075 493.763C268.493 498.137 278.611 511.509 276.596 519.562C275.306 524.717 270.515 523.679 262.753 516.563C252.563 507.221 244.704 506.009 231.617 511.763C221.266 516.314 213.184 526.78 213.184 535.632C213.184 549.048 225.396 560.825 243.292 564.667C247.347 565.538 252.178 567.001 254.027 567.919C261.208 571.484 258.995 580.633 250.37 583.035C245.266 584.457 245.745 584.458 237.182 583.022ZM477.674 547.899C474.665 545.785 473.973 540.189 476.417 537.737C477.228 536.924 479.33 536.258 481.087 536.258C485.199 536.258 487.232 538.356 487.232 542.598C487.232 545.527 483.58 549.818 481.087 549.818C480.712 549.818 479.176 548.955 477.674 547.899ZM123.281 502.515C105.392 495.996 91.9897 479.881 89.0067 461.3C86.8057 447.59 92.0565 432.772 102.017 424.584C126.815 404.2 166.836 410.99 174.5 436.881C176.68 444.244 176.775 447.603 174.921 451.687C172.017 458.079 166.909 455.916 162.777 446.546C157.83 435.327 150.12 430.312 137.748 430.266C127.88 430.229 121.836 432.285 115.585 437.805C109.487 443.189 106.762 450.582 108.052 458.242C109.287 465.575 115.431 475.291 121.699 479.823C124.774 482.046 129.611 485.553 132.448 487.615C143.571 495.704 136.433 507.307 123.281 502.515ZM676.243 497.549C664.669 494.424 654.931 485.221 648.626 471.451C644.321 462.049 643.249 446.394 646.211 436.174C650.758 420.483 670.832 407.306 681.481 413.024C685.286 415.066 684.529 420.122 680.048 422.592C666.703 429.948 661.814 436.803 661.765 448.227C661.662 472.001 679.558 485.759 698.361 476.359C705.567 472.757 711.327 466.596 716.394 457.071C722.798 445.03 727.726 442.192 733.015 447.498C736.982 451.478 736.27 459.129 730.935 469.83C725.577 480.578 717.733 488.708 708.218 493.375C696.265 499.238 686.984 500.45 676.243 497.549ZM721.065 413.917C699.805 399.599 690.003 391.423 690.003 388.008C690.003 385.193 693.403 382.161 696.559 382.161C699.71 382.161 729.764 398.299 742.232 406.685C747.52 410.243 751.754 414.175 753.223 416.893C755.497 421.102 755.51 421.469 753.502 424.544C751.812 427.13 750.42 427.774 746.516 427.774C742.343 427.774 738.672 425.775 721.065 413.917ZM65.7137 417.696C49.8699 413.181 33.3426 388.054 36.9357 373.945C38.0281 369.655 38.9368 369.07 66.2468 355.094C84.9069 345.544 94.8221 339.789 95.5893 338.064C97.0722 334.731 98.6015 334.228 103.361 335.508C108.093 336.781 114.384 343.107 121.997 354.248C127.492 362.289 127.774 363.112 127.774 371.108C127.774 380.522 125.87 384.246 118.444 389.359C114.438 392.117 108.711 392.548 101.405 390.641C100.164 390.317 99.1734 391.899 98.1783 395.794C96.1487 403.739 93.5339 408.336 88.545 412.73C81.9337 418.553 74.4402 420.183 65.7137 417.696ZM79.4487 398.352C82.8842 395.272 83.3912 394.03 83.3912 388.694C83.3912 380.894 78.1227 371.058 73.9571 371.08C70.6342 371.098 57.1434 378.477 55.419 381.219C53.0265 385.024 60.6587 395.719 68.786 399.95C73.8331 402.578 74.9138 402.416 79.4487 398.352ZM112.445 372.876C115.595 369.068 107.975 353.807 102.924 353.807C100.84 353.807 92.6256 358.502 91.3027 360.45C90.3159 361.903 95.2629 368.083 100.541 371.99C104.876 375.199 110.195 375.595 112.445 372.876ZM751.441 390.871C742.071 388.012 729.328 377.661 729.328 372.909C729.328 367.144 732.211 366.713 743.174 370.838C756.808 375.969 761.074 376.737 762.03 374.236C763.16 371.285 759.779 367.011 749.551 358.462C739.866 350.368 737.945 346.983 740.206 342.005C742.03 337.988 747.678 338.042 755.75 342.154C759.129 343.875 764.936 346.122 768.653 347.146C772.371 348.171 777.737 349.847 780.578 350.872C788.446 353.709 789.229 359.905 782.222 363.892C778.769 365.858 778.617 366.278 779.296 372.022C780.181 379.523 777.295 386.352 771.824 389.698C767.867 392.119 757.487 392.716 751.441 390.871ZM33.4147 335.202C7.60337 329.105 3.65664 296.501 26.7028 279.754C32.2881 275.695 49.7305 269.765 62.4612 267.597C69.6893 266.367 71.301 266.438 73.8287 268.099C77.4307 270.467 77.6915 275.188 74.3906 278.273C73.0798 279.498 64.5598 283.457 55.4573 287.071C39.2916 293.489 34.7187 296.5 31.4542 302.874C29.3302 307.021 29.7715 313.7 32.3225 316.016C35.4612 318.866 49.4461 318.697 67.5571 315.591C84.9239 312.612 87.7033 312.554 91.3147 315.092C93.4977 316.625 94.0308 318.022 93.7387 321.441C93.1229 328.651 89.741 330.174 66.8252 333.561C45.42 336.725 40.8194 336.951 33.4147 335.202ZM777.87 328.63C763.292 323.674 732.051 310.693 727.493 307.697C723.604 305.141 722.673 303.006 723.684 298.964C725.317 292.439 732.517 293.431 747.75 302.277C757.633 308.017 759.484 307.62 757.441 300.198C755.823 294.321 756.654 287.008 759.422 282.772C764.63 274.797 781.575 272.395 792.852 278.032C806.527 284.868 811.412 300.086 804.906 315.591C803.217 319.618 801.834 323.916 801.834 325.142C801.834 326.367 800.973 328.603 799.921 330.11C797.251 333.934 792.545 333.618 777.87 328.63ZM789.635 309.612C792.533 299.907 783.199 287.939 774.449 290.142C772.762 290.567 771.026 291.845 770.591 292.984C769.487 295.869 775.361 307.413 779.871 311.219C785.255 315.765 787.929 315.325 789.635 309.612Z" fill="#7289A2"/>
<path d="M358.81 608.897C348.604 605.468 343.449 599.907 343.449 592.328C343.449 585.378 345.635 579.973 350.859 574.004C357.009 566.978 363.426 564.173 371.449 565.003C379.352 565.821 388.512 570.157 391.722 574.598C399.036 584.716 388.659 606.21 374.566 610.136C368.352 611.867 367.432 611.795 358.81 608.897ZM372.273 593.433C375.072 592.356 378.134 585.916 377.22 583.029C376.799 581.699 374.779 579.742 372.73 578.679C369.187 576.841 368.856 576.886 365.942 579.617C363.247 582.141 359.425 588.076 359.425 589.735C359.425 590.059 360.294 591.196 361.356 592.262C363.325 594.237 368.69 594.813 372.273 593.433ZM418.089 610.605C412.995 609.272 412.268 604.565 412.268 572.922C412.268 540.733 412.815 537.558 418.067 539.23C421.548 540.338 422.89 544.398 425.237 560.914C426.344 568.711 427.507 575.507 427.82 576.015C428.836 577.667 430.162 577.026 437.42 571.372C445.423 565.138 449.524 563.611 452.224 565.858C455.327 568.442 454.291 571.248 447.907 577.556C444.527 580.895 441.762 584.314 441.762 585.152C441.762 585.991 446.21 588.999 451.647 591.836C462.85 597.683 465.957 601.568 463.464 606.612C462.437 608.689 460.764 609.727 458.01 609.995C453.808 610.404 450.719 608.678 440.363 600.134C437.227 597.548 434.093 595.432 433.398 595.432C432.703 595.432 431.179 598.067 430.013 601.287C427.869 607.205 424.225 611.577 421.656 611.315C420.886 611.236 419.281 610.917 418.089 610.605ZM485.454 598.862C484.499 596.568 483.349 587.608 482.866 578.689C482.097 564.492 482.238 562.402 484.088 560.546C489.6 555.016 492.321 559.422 495.981 579.803C498.549 594.101 498.644 595.925 496.981 598.911C495.684 601.24 493.97 602.326 491.158 602.6C487.65 602.942 486.968 602.495 485.454 598.862ZM299.64 597.949C294.247 596.664 284.549 590.472 281.49 586.361C271.938 573.524 290.26 550.535 308.408 552.587C315.106 553.344 326.331 559.874 329.142 564.649C333.315 571.735 330.591 582.252 322.474 590.394C315.803 597.087 307.52 599.827 299.64 597.949ZM311.408 578.623C314.734 574.381 314.625 571.337 311.018 567.718C307.319 564.007 304.138 564.715 299.21 570.346C294.853 575.324 294.74 576.156 297.979 579.405C301.638 583.076 308.216 582.693 311.408 578.623ZM524.671 594.259C520.516 592.569 519.267 590.127 514.835 575.016C509.833 557.963 509.557 554.154 513.187 552.205C515.329 551.055 516.441 551.288 519.451 553.521C521.464 555.013 523.502 555.762 523.98 555.184C524.458 554.606 526.395 552.018 528.283 549.432C535.704 539.273 544.932 538.809 554.83 548.097C560.966 553.854 565.038 561.656 566.458 570.375C567.152 574.635 566.857 575.962 564.746 578.08C559.354 583.488 554.001 580.098 547.484 567.147C544.785 561.783 543.042 559.639 541.606 559.917C538.844 560.45 536.389 569.251 535.834 580.605C535.437 588.751 535.009 590.142 532.131 592.624C528.575 595.693 528.33 595.746 524.671 594.259ZM611.626 586.116C607.944 583.529 608.188 579.771 612.581 571.392C616.163 564.563 617.36 556.573 615.522 551.769C614.579 549.303 611.837 549.239 610.911 551.661C609.626 555.019 602.39 558.44 596.605 558.423C576.295 558.366 568.536 532.554 584.127 516.913C587.983 513.045 589.685 512.43 600.446 511.013C605.734 510.317 606.359 510.538 609.419 514.186C614.117 519.787 629.203 545.856 630.997 551.472C633.136 558.174 632.133 571.551 629.04 577.556C626.423 582.637 619.891 588.035 616.36 588.035C615.258 588.035 613.128 587.171 611.626 586.116ZM599.967 538.626C601.776 535.07 601.946 528.973 600.308 526.396C598.593 523.697 595.16 526.233 593.069 531.745C591.57 535.695 591.615 536.576 593.454 539.392C595.859 543.074 597.822 542.843 599.967 538.626ZM231.746 581.217C204.607 573.632 188.517 546.755 197.217 523.54C200.975 513.51 211.9 501.976 221.907 497.47C231.141 493.314 242.656 491.212 250.057 492.333C263.678 494.396 276.359 506.71 275.601 517.14C275.092 524.147 272.271 524.128 264.469 517.067C255.983 509.385 251.207 507.457 242.605 508.239C229.6 509.422 215.508 519.899 213.665 529.756C210.506 546.646 221.953 560.431 243.127 565.237C247.949 566.331 253.139 568.038 254.66 569.03C258.189 571.332 258.323 576.975 254.921 580.064C251.598 583.08 240.404 583.637 231.746 581.217ZM476.874 546.649C474.268 544.035 474.444 541.689 477.476 538.648C480.674 535.44 483.557 535.967 485.92 540.189C487.604 543.2 487.565 543.708 485.465 546.036C482.721 549.077 479.522 549.305 476.874 546.649ZM117.843 499.474C103.012 491.269 94.8308 481.319 90.8812 466.682C85.1449 445.424 93.7674 427.349 114.226 417.745C127.162 411.672 145.853 411.755 157.936 417.939C163.449 420.76 170.751 428.759 173.216 434.677C175.368 439.844 175.676 449.022 173.815 452.51C171.28 457.262 168.08 455.337 163.28 446.176C160.768 441.38 156.972 436.125 154.845 434.497C149.023 430.042 140.205 428.392 130.954 430.027C116.897 432.511 108.71 440.238 107.743 451.934C106.714 464.387 112.995 474.833 127.426 484.663C136.292 490.703 138.713 494.115 137.118 498.324C134.922 504.118 127.082 504.585 117.843 499.474ZM673.085 496.046C665.36 493.215 655.098 483.204 650.708 474.215C639.728 451.736 644.692 426.699 662.114 416.676C666.905 413.92 670.069 413.001 674.798 412.992C685.447 412.973 686.51 418.939 676.751 423.945C664.01 430.48 659.16 440.555 661.757 455.094C664.507 470.497 673.697 479.576 686.484 479.523C699.273 479.471 709.298 471.916 717.595 456.077C722.467 446.776 726.234 443.945 730.609 446.294C736.935 449.69 736.651 457.952 729.757 471.113C724.379 481.38 717 488.395 706.2 493.512C699.425 496.722 696.273 497.451 688.16 497.684C681.678 497.871 676.542 497.312 673.085 496.046ZM738.572 424.643C731.395 420.815 697.821 397.481 693.997 393.663C690.533 390.205 690.389 385.166 693.704 383.386C696.879 381.682 701.994 383.918 725.589 397.324C751.108 411.823 758.322 419.685 751.659 425.734C748.552 428.555 745.416 428.294 738.572 424.643ZM62.0271 415.835C55.6718 412.648 44.4984 400.921 41.1023 393.873C39.1822 389.888 37.9674 384.857 37.6661 379.642C37.1468 370.653 37.8699 369.473 45.9421 366.135C58.595 360.903 92.4885 342.146 95.4707 338.725C98.699 335.021 98.9646 334.946 103.749 336.384C112.317 338.959 126.854 359.21 128.029 370.208C128.73 376.767 124.373 385.45 118.721 388.762C115.064 390.904 113.012 391.106 102.018 390.406C98.661 390.192 98.3132 390.568 97.4928 395.298C95.1232 408.961 86.6914 416.918 73.8657 417.594C68.5019 417.877 65.0879 417.37 62.0271 415.835ZM79.9356 399.039C85.0723 394.607 85.42 386.025 80.8193 377.23C78.594 372.976 76.3783 370.333 74.8727 370.135C73.5528 369.963 68.6018 371.942 63.8704 374.533C53.4478 380.242 52.4397 383.13 58.1498 390.919C65.9139 401.509 73.7067 404.414 79.9356 399.039ZM110.489 374.795C113.002 373.837 113.642 372.76 113.642 369.489C113.642 364.564 107.565 354.386 103.933 353.23C101.092 352.325 90.2921 358.97 90.2921 361.623C90.2921 364.754 100.924 373.792 107.11 375.919C107.235 375.962 108.755 375.456 110.489 374.795ZM750.626 389.807C743.112 387.124 731.08 378.36 729.933 374.735C729.002 371.792 731.166 368.598 734.087 368.605C735.187 368.608 740.235 370.253 745.304 372.261C756.561 376.72 762.509 377.145 762.509 373.488C762.509 369.55 759.388 365.703 749.609 357.589C739.517 349.215 738.007 346.509 740.929 342.036C743.527 338.058 745.667 338.214 756.499 343.168C761.494 345.453 769.622 348.295 774.56 349.482C787.35 352.558 790.676 358.641 782.023 363.13C778.703 364.852 778.484 365.44 778.467 372.639C778.457 376.859 777.765 381.645 776.931 383.275C772.907 391.129 761.948 393.851 750.626 389.807ZM31.0142 334.088C17.1353 329.896 9.09009 315.165 12.8262 300.785C14.8332 293.061 20.827 284.604 27.4968 280.086C37.0333 273.626 64.828 266.094 72.243 267.961C75.888 268.879 77.4579 272.557 75.6505 275.945C74.4108 278.268 69.6971 280.582 48.0105 289.511C35.4536 294.682 30.3146 299.724 29.214 307.955C28.6441 312.218 29.0313 313.423 31.8909 316.292C35.1796 319.591 35.4168 319.633 46.4799 318.864C52.6652 318.435 63.6932 317.025 70.9865 315.733C78.2799 314.44 85.4691 313.68 86.9624 314.044C90.9968 315.028 93.9789 318.077 93.9789 321.22C93.9789 324.005 87.7566 330.358 84.9749 330.413C84.1819 330.428 76.3439 331.525 67.5572 332.85C50.9522 335.354 36.7927 335.834 31.0142 334.088ZM783.401 329.902C762.543 323.529 728.08 308.495 725.344 304.576C722.925 301.112 723.936 297.264 727.72 295.535C730.285 294.362 732.383 295.047 743.218 300.59C750.111 304.116 756.504 306.992 757.426 306.982C758.745 306.966 758.889 305.715 758.103 301.106C755.961 288.546 757.956 282.936 766.324 277.991C769.448 276.146 772.659 275.535 779.099 275.563C789.608 275.607 796.498 278.811 801.762 286.1C808.37 295.251 808.868 305.991 803.245 318.057C801.823 321.108 800.647 324.813 800.632 326.29C800.6 329.522 797.526 332.875 794.68 332.784C793.546 332.748 788.47 331.451 783.401 329.902ZM788.861 312.851C792.947 307 789.927 296.132 782.939 291.539C781.096 290.328 778.052 289.695 775.199 289.931C771.133 290.267 770.445 290.765 770.117 293.616C769.591 298.178 773.667 305.649 779.628 311.052C785.477 316.353 786.304 316.514 788.861 312.851Z" fill="#516F94"/>
<path d="M356.352 607.142C352.297 605.478 348.029 602.955 346.868 601.535C339.314 592.3 346.52 574.311 360.674 567.067C366.714 563.976 369.402 563.99 378.766 567.163C387.608 570.158 392.235 574.32 393.349 580.279C395.082 589.547 387.757 603.251 378.724 607.637C371.782 611.008 365.436 610.868 356.352 607.142ZM374.266 591.828C378.539 587.541 378.834 583.688 375.186 579.793C371.293 575.636 367.606 576.179 363.16 581.563C358.609 587.075 358.591 591.561 363.111 593.844C367.814 596.218 370.346 595.761 374.266 591.828ZM415.061 606.877C413.12 603.892 412.89 600.217 412.947 573.086C413.016 540.694 413.576 537.36 418.5 540.003C421.27 541.49 422.68 546.617 424.696 562.523C426.871 579.679 427.235 579.955 437.455 572.194C447.294 564.722 452.822 563.631 452.822 569.16C452.822 571.569 451.097 574.075 446.515 578.324C442.642 581.914 440.468 584.854 440.883 585.939C441.255 586.912 445.192 589.413 449.632 591.497C462.98 597.763 467.301 604.223 460.94 608.403C456.704 611.188 453.175 609.839 443.065 601.573C438.2 597.595 433.507 594.615 432.636 594.951C431.765 595.286 430.366 597.889 429.527 600.735C427.54 607.475 424.985 610.225 420.708 610.225C418.29 610.225 416.581 609.212 415.061 606.877ZM486.475 599.701C484.823 597.172 484.406 593.104 484.296 578.436C484.164 560.932 484.249 560.284 486.725 559.93C488.136 559.727 489.952 560.362 490.761 561.339C492.612 563.577 497.063 586.316 497.063 593.538C497.063 602.357 490.648 606.091 486.475 599.701ZM293.678 594.862C290.298 593.082 285.671 589.646 283.396 587.226C279.612 583.203 279.308 582.315 279.833 576.832C280.89 565.799 289.535 556.626 301.992 553.318C307.681 551.807 308.111 551.893 316.995 556.302C322.025 558.799 327.086 562.289 328.241 564.057C331.552 569.127 330.945 577.101 326.727 583.945C318.792 596.819 305.642 601.163 293.678 594.862ZM308.164 581.766C309.774 581.03 312.034 578.827 313.187 576.869C315.104 573.613 315.12 572.994 313.367 569.595C310.617 564.26 306.332 563.57 301.048 567.613C294.136 572.901 294.119 579.129 301.009 581.931C304.402 583.311 304.804 583.301 308.164 581.766ZM521.859 591.952C520.627 590.716 517.493 582.147 514.895 572.91C510.969 558.951 510.439 555.791 511.755 554.2C513.764 551.771 517.204 551.741 519.184 554.133C521.716 557.194 524.549 556.185 527.668 551.11C536.121 537.358 552.679 540.511 561.413 557.535C565.465 565.434 566.977 574.747 564.662 577.546C562.634 579.997 556.74 579.92 554.238 577.41C553.144 576.313 550.314 571.561 547.95 566.852C544.872 560.72 543.068 558.401 541.597 558.686C538.665 559.252 535.325 570.938 535.235 580.946C535.175 587.558 534.655 589.774 532.702 591.733C529.637 594.807 524.803 594.905 521.859 591.952ZM610.826 584.865C608.141 582.172 608.408 579.464 611.859 574.368C617.471 566.084 618.881 553.529 614.601 549.965C613.391 548.958 612.13 549.54 609.461 552.334C602.756 559.355 591.951 559.806 583.838 553.404C573.612 545.335 574.543 525.393 585.58 516.077C590.005 512.342 605.681 510.214 608.209 513.006C610.718 515.776 623.127 536.303 627.482 544.888C631.023 551.868 631.544 554.093 631.524 562.147C631.498 572.49 628.704 579.637 622.896 584.22C619.02 587.278 613.524 587.572 610.826 584.865ZM601.182 537.181C603.11 531.26 602.002 525.163 598.999 525.163C595.802 525.163 591.69 531.013 591.69 535.561C591.69 543.706 598.669 544.897 601.182 537.181ZM239.605 582.26C226.497 580.316 216.441 575.141 207.833 565.909C190.981 547.837 191.176 525.508 208.338 507.832C217.171 498.736 228.042 493.983 241.492 493.338C250.414 492.91 253.007 493.257 258.464 495.612C265.856 498.802 272.781 506.161 274.822 512.995C277.856 523.152 272.73 524.181 263.024 515.364C251.702 505.079 241.043 504.442 226.701 513.194C210.257 523.228 207.386 539.761 219.749 553.215C225.815 559.817 233.105 563.664 244.41 566.229C254.32 568.478 258.128 571.497 256.957 576.176C256.522 577.913 255.195 579.856 254.008 580.493C251.076 582.067 244.088 582.924 239.605 582.26ZM478.133 546.976C473.525 543.596 478.424 535.212 483.238 538.24C486.265 540.143 486.713 545.016 484.041 546.976C482.834 547.861 481.505 548.586 481.087 548.586C480.67 548.586 479.34 547.861 478.133 546.976ZM125.11 501.777C114.384 499.251 100.614 487.672 95.1883 476.616C85.8991 457.687 88.4025 439.215 101.955 426.683C119.466 410.492 150.494 409.349 165.444 424.346C172.857 431.783 177.11 445.102 173.957 451.012C171.396 455.812 168.059 454.277 164.145 446.5C159.775 437.815 152.241 430.677 146.256 429.551C132.161 426.898 117.171 431.793 110.581 441.2C107.413 445.721 106.891 447.567 106.941 454.077C107.04 467.104 113.082 475.948 129.31 486.823C135.725 491.122 136.991 492.547 136.991 495.472C136.991 500.959 132.271 503.464 125.11 501.777ZM676.422 496.439C664.029 492.917 651.636 479.464 647.437 464.976C645.032 456.676 645.706 439.443 648.709 432.443C653.359 421.603 663.802 414.012 674.429 413.747C679.033 413.632 680.785 414.126 681.85 415.838C683.366 418.276 682.96 418.713 671.569 426.911C664.527 431.979 660.509 439.696 660.509 448.152C660.509 466.456 672.055 480.699 686.931 480.744C697.904 480.778 710.887 470.833 717.717 457.163C721.955 448.682 724.143 446.265 727.588 446.265C735.477 446.265 736.481 456.242 729.917 469.403C724.407 480.453 717.772 487.075 706.747 492.529C696.546 497.575 685.453 499.005 676.422 496.439ZM738.217 423.748C728.674 418.628 694.971 394.482 692.864 391.256C690.194 387.169 691.972 384.01 696.941 384.01C702.4 384.01 739.428 404.886 747.358 412.434C754.236 418.981 755.158 421.411 751.975 424.604C749.265 427.323 744.305 427.014 738.217 423.748ZM65.5727 416.259C51.938 411.223 39.5236 395.515 37.8932 381.235C36.953 373.001 38.7495 369.175 44.4389 367.293C52.8829 364.5 93.2923 342.511 96.4368 338.998C99.3253 335.771 99.7664 335.656 103.81 337.079C108.719 338.806 120.668 352.229 124.659 360.498C129.557 370.648 126.942 382.251 118.432 388.127C115.109 390.421 113.127 390.892 108.726 390.433C105.684 390.116 102.233 389.454 101.056 388.963C98.7137 387.985 98.8491 387.737 95.8959 398.413C93.8059 405.969 89.4772 412.065 84.2923 414.755C79.1786 417.407 70.5571 418.1 65.5727 416.259ZM78.8623 400.704C83.8623 397.646 86.0707 390.558 84.1976 383.58C82.4294 376.993 77.8304 370.526 74.5797 370.055C70.5203 369.468 54.7093 378.427 53.8675 381.792C52.312 388.009 65.906 402.569 73.7018 403.036C74.3777 403.076 76.6999 402.027 78.8623 400.704ZM112.939 374.06C114.002 372.994 114.871 371.025 114.871 369.684C114.871 363.928 106.506 352.574 102.266 352.574C99.6365 352.574 89.0633 359.498 89.0633 361.22C89.0633 363.056 96.7474 371.291 100.738 373.733C105.267 376.503 110.368 376.64 112.939 374.06ZM748.376 388.269C740.325 385.134 730.557 376.738 730.557 372.951C730.557 368.516 733.557 368.352 743.345 372.253C754.45 376.678 761.024 377.445 762.901 374.534C764.753 371.661 760.599 366.127 749.298 356.417C743.132 351.118 740.388 347.905 740.388 345.983C740.388 339.605 745.858 338.613 755.103 343.312C758.42 344.998 765.453 347.547 770.731 348.977C776.01 350.406 781.573 352.367 783.093 353.336C787.064 355.865 786.563 359.577 781.864 362.444C777.963 364.825 777.87 365.083 777.87 373.613C777.87 382.123 777.753 382.454 773.28 386.568C769.135 390.381 768.002 390.784 761.605 390.726C757.673 390.691 751.787 389.597 748.376 388.269ZM32.3126 333.596C16.4524 329.312 8.90628 313.612 14.738 297.031C19.8593 282.47 30.8072 275.619 58.0288 269.941C71.2455 267.184 75.5452 267.946 75.5452 273.048C75.5452 277.051 71.5296 279.557 54.6536 286.086C38.8749 292.191 33.5294 295.585 30.8819 301.182C26.7157 309.989 29.5459 319.122 36.5271 319.399C44.8457 319.729 53.3046 318.985 68.5255 316.586C88.9161 313.372 91.9397 313.901 92.5126 320.779C93.0759 327.541 90.0146 328.91 66.6602 332.336C44.0711 335.649 40.4119 335.783 32.3126 333.596ZM779.714 328.066C765.998 323.526 736.249 311.265 729.635 307.425C724.224 304.283 722.797 300.446 725.887 297.346C728.594 294.631 733.23 295.815 745.408 302.33C759.099 309.655 761.207 309.487 758.928 301.254C754.594 285.597 762.161 276.196 779.099 276.196C800.446 276.196 812.749 295.832 803.666 315.405C801.982 319.032 800.605 323.091 800.605 324.424C800.605 332.481 795.659 333.343 779.714 328.066ZM789.253 314.05C792.019 310.606 792.201 304.683 789.713 299.042C785.656 289.842 775.399 285.501 770.513 290.917C768.397 293.264 768.395 293.599 770.478 299.071C771.673 302.21 774.975 307.211 777.815 310.184C782.989 315.601 786.936 316.935 789.253 314.05Z" fill="#305585"/>
<path d="M360.653 608.151C349.242 604.154 344.652 599.358 344.705 591.486C344.78 580.117 357.82 565.845 368.132 565.845C371.968 565.845 384.185 569.383 386.517 571.17C393.353 576.406 394.385 585.201 389.353 595.331C384.986 604.121 377.511 609.032 368.708 608.895C365.292 608.841 361.667 608.507 360.653 608.151ZM377 590.583C378.148 588.633 379.087 585.925 379.087 584.564C379.087 581.653 372.509 575.707 369.289 575.707C366.538 575.707 359.741 583.259 358.682 587.491C356.43 596.491 371.975 599.115 377 590.583ZM415.798 606.956C413.187 603.804 412.658 545.254 415.209 541.806C418.643 537.165 420.791 541.737 423.374 559.183C424.67 567.932 425.742 575.801 425.758 576.67C425.82 580.173 429.621 579.345 435.733 574.498C444.892 567.236 448.876 565.327 451.067 567.151C453.82 569.443 453.278 570.549 445.945 577.617C442.163 581.262 439.289 584.959 439.559 585.832C439.828 586.704 444.233 589.637 449.348 592.349C454.463 595.061 459.577 598.065 460.713 599.024C463.198 601.123 462.83 606.397 460.079 608.124C456.893 610.124 452.704 608.282 443.941 601.032C434.019 592.822 431.451 592.431 429.431 598.821C427.042 606.381 424.875 608.992 420.992 608.992C419.063 608.992 416.726 608.076 415.798 606.956ZM487.298 599.826C485.739 597.942 482.895 565.624 484.028 562.663C484.396 561.701 485.801 560.914 487.15 560.914C490.961 560.914 491.425 562.238 495.219 583.959C497.319 595.985 496.156 601.595 491.563 601.595C490.022 601.595 488.103 600.799 487.298 599.826ZM292.912 593.581C284.734 589.308 280.774 584.127 280.774 577.703C280.774 566.911 292.445 555.211 304.58 553.839C308.749 553.368 311.356 554.032 317.453 557.12C330.274 563.612 332.841 571.193 326.169 582.863C318.721 595.892 305.493 600.155 292.912 593.581ZM312.17 579.842C316.087 575.602 316.086 570.336 312.168 566.405C308.649 562.876 307.674 562.749 302.931 565.21C297.983 567.776 293.882 573.898 294.76 577.407C296.297 583.55 307.32 585.092 312.17 579.842ZM522.381 591.066C519.468 588.144 511.024 558.582 512.214 555.472C513.16 553 517.175 552.939 519.184 555.366C521.877 558.622 524.96 557.445 528.182 551.931C529.88 549.024 532.729 545.862 534.514 544.904C545.669 538.915 559.594 549.462 564.237 567.414C566.008 574.265 565.044 577.491 560.824 578.834C557.346 579.942 554.277 576.728 548.763 566.206C543.845 556.82 541.108 555.313 538.452 560.529C536.1 565.15 533.931 575.751 533.931 582.629C533.931 585.691 533.358 589.27 532.658 590.581C531.101 593.5 525.09 593.783 522.381 591.066ZM613.504 585.938C609.673 584.959 609.756 580.356 613.741 572.757C617.726 565.157 618.857 554.672 616.225 549.738C614.524 546.551 613.1 546.732 609.808 550.552C604.204 557.056 596.661 558.848 588.885 555.525C580.749 552.047 576.046 542.857 577.483 533.244C578.397 527.128 584.144 517.372 588.077 515.261C591.201 513.584 603.872 511.649 606.115 512.506C608.279 513.334 625.884 542.464 628.679 549.842C632.968 561.166 631.227 574.177 624.473 581.276C620.437 585.518 617.216 586.887 613.504 585.938ZM600.252 541.854C602.151 539.558 603.291 531.192 602.264 527.087C600.686 520.779 592.564 525.402 590.943 533.529C589.512 540.709 596.229 546.717 600.252 541.854ZM237.147 581.033C226.164 578.567 218.795 575.036 212.405 569.178C204.014 561.485 200.462 556.03 197.749 546.667C193.774 532.95 197.979 519.158 209.599 507.805C217.132 500.444 226.464 495.964 238.016 494.162C248.975 492.453 257.9 494.567 265.141 500.584C270.637 505.152 274.927 512.974 274.395 517.457C273.794 522.518 271.626 522.062 264.195 515.312C260.383 511.848 255.882 508.487 254.192 507.843C249.22 505.947 239.483 506.494 232.787 509.046C210.52 517.534 204.57 539.238 220.111 555.289C225.534 560.892 231.577 563.974 242.221 566.566C252.933 569.174 256.196 571.186 256.196 575.182C256.196 580.187 246.562 583.147 237.147 581.033ZM477.588 545.239C475.886 542.049 478.057 538.724 481.841 538.724C484.585 538.724 484.887 539.17 484.545 542.73C484.253 545.76 483.505 546.83 481.478 547.12C479.846 547.353 478.323 546.616 477.588 545.239ZM118.722 498.35C107.681 492.427 100.698 485.375 95.5731 474.973C91.2406 466.179 90.9113 464.746 90.9733 454.959C91.053 442.356 92.8369 437.607 100.63 429.249C111.222 417.891 127.621 412.522 143.424 415.241C158.048 417.756 167.36 424.421 172.078 435.748C174.399 441.32 174.394 450.449 172.069 452.384C169.536 454.493 167.988 453.11 164.747 445.844C161.505 438.578 157.409 433.797 152.036 431.01C142.674 426.154 128.5 427.028 118.417 433.085C109.752 438.29 106.307 444.324 106.316 454.278C106.328 467.258 112.766 477.075 127.467 486.528C134.654 491.149 135.762 492.351 135.762 495.525C135.762 502.446 128.578 503.637 118.722 498.35ZM676.477 495.737C663.958 491.593 653.677 480.714 648.864 466.519C646.206 458.679 646.163 443.237 648.778 435.339C652.82 423.132 665.003 413.674 675.677 414.456C683.356 415.019 683.085 418.094 674.892 423.351C662.602 431.238 658.296 439.483 659.79 452.265C661.979 470.98 675.449 484.027 689.891 481.42C701.56 479.314 710.453 471.838 718.743 457.166C723.001 449.63 724.443 448.047 727.357 447.71C729.282 447.487 731.43 447.881 732.131 448.584C734.036 450.494 733.482 459.775 731.131 465.346C723.327 483.837 707.608 495.369 688.95 496.292C683.784 496.548 678.171 496.298 676.477 495.737ZM741.82 424.659C737.212 422.651 705.747 401.401 697.616 394.806C691.434 389.791 690.882 385.497 696.337 384.864C700.568 384.373 738.252 405.276 746.674 412.786C752.954 418.387 753.979 421.361 750.746 424.604C748.402 426.956 747.111 426.964 741.82 424.659ZM62.441 414.136C56.1512 411.013 46.0409 400.485 42.3368 393.202C38.9324 386.508 37.5637 373.341 40.0608 371.307C40.9898 370.55 53.3631 364.039 67.5571 356.838C83.5437 348.728 94.5928 342.346 96.5926 340.067C99.7391 336.482 99.9292 336.434 104.094 338.179C108.593 340.065 117.623 350.282 123.145 359.735C128.934 369.643 126.732 381.851 118.19 387.199C115.047 389.167 112.549 389.59 105.767 389.302C97.2782 388.941 97.2782 388.941 95.6072 396.249C93.5617 405.196 89.136 411.273 82.4468 414.32C75.8147 417.341 68.7652 417.277 62.441 414.136ZM79.2999 401.849C86.4641 398.003 87.3164 383.561 80.9192 374.413C78.8833 371.501 76.0922 369.043 74.5712 368.823C71.0132 368.306 53.7737 377.883 52.8168 380.907C51.7309 384.339 56.0919 391.999 62.5104 397.934C68.3962 403.377 74.0142 404.686 79.2999 401.849ZM110.971 376.428C117.495 374.676 116.558 364.449 109.115 356.185C106.716 353.521 103.843 351.341 102.731 351.341C100.248 351.341 88.7948 358.794 88.143 360.834C87.4895 362.879 96.8557 372.823 101.687 375.212C106.138 377.413 106.921 377.516 110.971 376.428ZM753.82 389.159C742.586 386.012 729.701 375.97 731.354 371.649C732.313 369.142 733.542 369.321 744.075 373.494C761.024 380.208 768.951 377.582 762.02 367.55C760.28 365.03 756.08 360.846 752.689 358.251C743.423 351.163 740.1 346.788 741.702 343.786C743.825 339.807 746.042 339.802 754.18 343.76C758.423 345.824 766.318 348.714 771.726 350.181C777.133 351.649 782.248 353.411 783.093 354.096C785.774 356.27 784.783 359.828 780.943 361.82C778.915 362.872 777.235 364.134 777.209 364.625C777.183 365.117 777.044 369.253 776.901 373.817C776.669 381.229 776.247 382.509 772.955 385.787C768.497 390.225 761.824 391.401 753.82 389.159ZM31.008 332.328C21.4872 328.92 16.6745 323.72 14.0144 313.966C11.1068 303.306 17.9634 287.732 28.5225 281.013C35.5041 276.571 49.1751 272.071 62.4665 269.841C71.5649 268.314 72.2215 268.355 73.8307 270.563C76.9142 274.793 73.4218 277.517 55.6137 284.772C35.8296 292.831 33.3302 294.397 30.091 300.767C26.6575 307.518 26.8583 313.709 30.6338 317.496C33.3068 320.178 34.6709 320.512 42.6157 320.432C47.5467 320.382 54.3463 319.904 57.7258 319.37C80.0532 315.836 85.163 315.27 88.0812 316.005C94.3362 317.579 93.6206 325.053 86.9595 327.72C82.2325 329.613 50.6219 334.08 42.3643 334.022C38.6469 333.996 33.5365 333.234 31.008 332.328ZM785.393 329.025C775.696 326.252 743.217 313.293 732.631 307.973C726.292 304.787 725.532 304.009 725.872 301.049C726.223 298.004 726.697 297.724 731.365 297.814C735.066 297.885 738.797 299.319 744.894 303.015C749.525 305.822 754.692 308.274 756.375 308.464C759.437 308.811 759.437 308.811 759.037 298.759C758.747 291.495 759.159 287.695 760.519 285.056C763.135 279.981 770.114 276.935 779.099 276.946C799.973 276.973 811.312 295.983 802.449 316.089C800.759 319.922 799.376 324.409 799.376 326.061C799.376 328.485 796.114 331.954 794.234 331.529C794.021 331.481 790.042 330.354 785.393 329.025ZM790.09 314.084C791.142 312.577 792.003 308.944 792.003 306.01C792.003 295.827 785.593 288.47 776.721 288.47C770.612 288.47 768.653 290.118 768.653 295.255C768.653 302.32 780.239 316.824 785.883 316.824C787.144 316.824 789.038 315.591 790.09 314.084Z" fill="#083674"/>
</g>
</svg>
