<svg width="326" height="301" viewBox="0 0 326 301" fill="none" xmlns="http://www.w3.org/2000/svg">
<path d="M113.265 300.543C85.2514 295.155 81.0972 266.431 108.332 266.431H114.354V258.372V250.312L109.901 249.561C101.86 248.204 88.923 240.855 82.8069 234.171L77.2106 228.055L67.2072 228.745C52.7352 229.745 47.6639 231.598 41.9113 237.989C29.8717 251.365 11.092 246.385 10.9053 229.768C10.8867 228.104 9.66451 224.786 8.18947 222.394C5.27753 217.671 4.73627 212.21 6.80842 208.458C7.53001 207.152 8.14234 203.061 8.16914 199.367C8.22801 191.253 10.4426 187.636 17.5273 184.083L22.3694 181.655L22.0229 171.323L21.6764 160.99L17.9663 159.232C4.11916 152.668 -4.23299 128.365 2.21407 113.395C5.35863 106.094 8.82621 102.88 12.7518 103.63C14.7552 104.012 16.6458 103.512 18.3971 102.136C36.7025 87.7532 53.2248 139.636 35.862 156.979C31.764 161.073 31.653 161.381 32.2987 166.869L32.9652 172.534L38.553 172.122C45.8435 171.586 50.207 174.264 53.8984 181.54C56.9468 187.549 58.6501 188.837 64.2827 189.396L68.0896 189.773L68.8183 181C70.5327 160.36 76.3227 143.93 93.7037 110.382C111.561 75.9163 113.99 66.8813 113.026 38.5189C112.406 20.2815 113.01 18.8456 120.861 19.8974C125.944 20.5784 126.125 20.0262 123.045 13.2457C118.049 2.24933 125.477 -2.68577 134.751 5.46819C141.568 11.4616 144.861 11.3498 150.766 4.92451C157.764 -2.68912 164.429 -1.28103 164.429 7.81122C164.429 29.4581 175.504 45.8245 215.48 83.2477C249.175 114.791 263.341 135.225 263.468 152.467C263.52 159.554 268.871 156.816 271.548 148.333C274.986 137.441 281.864 133.473 291.177 137.01C293.822 138.015 293.969 137.883 293.969 134.51C293.969 131.46 293.448 130.761 290.33 129.635C284.975 127.701 281.892 118.35 281.594 103.142C281.411 93.8087 282.053 93.2326 293.725 92.2681C311.045 90.8368 312.475 92.3026 312.475 111.484C312.475 126.357 311.717 128.789 306.555 130.491C302.93 131.686 302.679 132.065 302.694 136.306C302.716 142.224 303.381 143.086 309.109 144.624C315.421 146.318 319.838 150.817 320.744 156.474C321.135 158.918 322.104 161.455 322.897 162.112C325.851 164.562 326.932 170.451 325.101 174.119C323.904 176.515 323.721 178.084 324.474 179.49C332.091 193.706 305.466 213.232 292.884 202.658L289.455 199.776L274.567 200.445C255.398 201.307 253.599 201.896 246.628 209.59C243.489 213.055 239.63 216.58 238.053 217.423C234.282 219.439 234.309 219.563 240.586 228.854L245.986 236.848L250.655 235.231C271.535 228.003 280.267 250.341 263.739 268.703C246.953 287.352 230.971 280.323 199.529 240.462L197.485 237.871L190.714 242.488C180.228 249.637 170.316 252.757 158.262 252.702L148.285 252.657L147.92 269.602C147.478 290.151 146.219 293.75 138.061 297.793C132.926 300.338 119.778 301.796 113.265 300.543ZM131.95 286.537C134.188 285.679 135.003 282.7 135.022 275.315C135.041 268.082 132.864 248.756 131.915 247.72C129.675 245.275 128.411 249.607 127.385 263.24C126.03 281.259 126.249 281.005 112.993 279.983C104.968 279.364 103.468 279.502 103.468 280.862C103.468 286.249 122.701 290.082 131.95 286.537ZM253.391 260.372C261.869 251.534 261.869 246.695 253.391 249.683C243.643 253.119 240.01 251.234 229.093 237.075C224.481 231.093 220.569 226.199 220.398 226.199C220.227 226.199 218.831 226.676 217.295 227.26C215.515 227.936 213.516 227.945 211.782 227.287C207.809 225.778 208.001 226.108 220.519 242.335C239.02 266.319 244.698 269.434 253.391 260.372ZM121.492 235.856C126.827 234.514 126.835 234.5 125.133 229.624C124.188 226.914 123.32 226.199 120.977 226.199C109.695 226.199 92.5825 216.294 92.5825 209.763C92.5825 204.145 100.094 200.935 103.539 205.081C105.359 207.272 113.884 211.577 118.28 212.526L121.662 213.256L122.299 193.359C122.697 180.949 123.984 166.307 125.721 154.445C127.252 143.986 128.506 133.942 128.506 132.125C128.506 124.926 135.501 121.269 139.927 126.154C142.108 128.562 142.048 134.167 139.312 182.82C137.883 208.231 138.739 220.311 142.41 226.572C155.881 249.545 202.418 222.767 204.468 190.863C205.156 180.164 202.476 171.224 191.025 146.009C180.888 123.689 180.327 120.779 185.686 118.341C189.572 116.572 193.549 118.723 195.633 123.719C196.568 125.961 199.684 131.773 202.556 136.636C213.038 154.38 217.436 167.142 218.525 182.977C219.287 194.052 219.143 193.955 225.389 187.599C230.587 182.308 234.124 181.408 237.55 184.505C243.124 189.544 235.272 200.008 220.218 207.6C213.005 211.238 213.519 214.978 220.815 211.95C246.24 201.396 256.804 166.665 243.272 138.124C236.254 123.324 228.28 114.455 189.279 78.0681C168.556 58.7352 160.872 47.8582 154.696 29.1179C153.365 25.0812 152.044 21.7784 151.759 21.7784C150.469 21.7784 141.568 24.2547 141.568 24.6137C141.568 24.835 142.544 28.5691 143.736 32.9115C151.328 60.5737 151.072 90.2811 143.241 90.2811C137.614 90.2811 136.843 88.3587 135.989 72.1982C135.176 56.8076 133.978 47.3619 131.83 39.3928C129.527 30.8525 128.596 33.4113 129.25 46.4834C130.311 67.7099 129.35 70.3814 100.591 126.164C77.1716 171.588 74.8336 207.793 94.1416 226.033C104.311 235.64 111.741 238.309 121.492 235.856ZM105.673 185.995C103.577 183.902 102.789 181.728 102.114 176.181C101.757 173.245 101.469 173.203 96.0714 175.301C92.2798 176.775 89.9471 175.377 91.1167 172.333C91.83 170.476 106.354 163.949 109.772 163.949C117.858 163.949 119.07 182.788 111.252 186.967C108.345 188.522 108.172 188.492 105.673 185.995ZM110.69 171.275C110.348 170.385 109.563 169.657 108.945 169.657C107.665 169.657 107.396 178.654 108.639 179.897C109.701 180.959 111.501 173.387 110.69 171.275ZM224.379 167.879C217.743 159.453 218.814 150.494 226.413 150.85C234.758 151.24 241.97 156.416 236.885 158.365C236.024 158.695 234.996 160.515 234.601 162.409C232.885 170.643 228.432 173.026 224.379 167.879ZM228.266 156.946C226.746 155.428 225.757 157.399 226.799 159.871L227.944 162.59L228.387 160.05C228.631 158.653 228.577 157.256 228.266 156.946ZM31.9428 228.621C34.267 226.056 33.0422 224.499 28.0844 223.717C24.3917 223.135 24.0022 223.306 24.0022 225.507C24.0022 230.33 28.7182 232.18 31.9428 228.621ZM46.023 219.199C50.3763 217.741 57.7345 216.205 62.3745 215.787C71.6644 214.949 71.731 214.873 69.6652 207.443C69.0417 205.2 67.9422 203.348 67.222 203.327C54.7165 202.965 46.5971 199.483 43.3902 193.108C40.2375 186.84 37.9992 184.46 36.9076 186.214C35.431 188.586 37.2523 195.842 40.0179 198.604C43.123 201.706 42.7885 210.415 39.2817 217.772C38.2128 220.015 37.5114 221.85 37.7231 221.85C37.9347 221.85 41.6697 220.657 46.023 219.199ZM33.5273 216.111C37.2316 213.248 35.0569 210.976 28.6287 210.993C21.0545 211.013 18.5683 212.173 20.6712 214.704C23.4459 218.043 30.087 218.77 33.5273 216.111ZM36.4195 204.616C37.5117 202.851 31.5165 198.96 26.6854 198.298C22.2398 197.689 21.8251 197.831 21.8251 199.955C21.8251 201.233 21.9475 202.285 22.0972 202.294C22.2469 202.303 24.3288 203.016 26.7237 203.877C31.6963 205.667 35.5861 205.963 36.4195 204.616ZM308.878 187.612C311.145 182.862 310.43 182.124 305.344 183.961C300.796 185.604 299.631 187.417 301.601 189.787C303.923 192.582 306.935 191.681 308.878 187.612ZM285.128 185.259L295.126 184.55L292.925 182.209C287.096 176.011 284.315 163.015 288.292 160.559C289.293 159.942 288.324 150.608 287.137 149.422C285.711 147.998 284.252 150.441 283.037 156.287C281.431 164.014 277.943 167.678 269.731 170.264C263.749 172.147 263.564 172.325 262.521 177.182C261.932 179.923 261.122 183.022 260.72 184.067C259.883 186.248 266.569 186.574 285.128 185.259ZM304.777 177.853C307.623 176.382 309.209 174.196 309.209 171.743C309.209 170.109 303.038 170.608 298.905 172.577C294.59 174.632 294.319 175.288 296.768 177.735C298.897 179.861 300.834 179.889 304.777 177.853ZM299.613 165.637C307.336 161.439 308.841 158.033 302.678 158.704C297.197 159.3 290.703 164.843 292.355 167.513C293.274 168.998 293.575 168.92 299.613 165.637ZM16.6066 152.893C8.45795 143.622 5.47823 122.854 10.6804 111.588C14.7306 102.817 9.68984 103.982 5.33032 112.825C-0.498517 124.649 3.01312 141.886 13.3291 152.088C18.8343 157.533 21.1944 158.112 16.6066 152.893ZM34.3337 149.998C41.1138 138.471 33.9515 110.576 23.1592 106.478C19.2206 104.982 19.1792 105.693 22.8597 111.617C27.9341 119.784 30.9273 133.257 30.2609 144.931C29.6611 155.44 30.5109 156.497 34.3337 149.998ZM18.7042 146.134C15.9798 138.017 13.1165 124.152 13.1165 119.077C13.1165 116.744 12.6766 115.433 12.0279 115.834C8.14593 118.23 12.0051 142.418 17.4991 150.125C20.8327 154.801 21.2023 153.577 18.7042 146.134ZM23.4421 133.39C21.6453 121.964 19.6436 115.88 19.6514 121.869C19.6552 124.817 22.6305 142.853 23.6783 146.279C25.3316 151.686 25.2013 144.576 23.4421 133.39ZM27.118 130.81C26.0608 126.08 25.622 125.249 25.3385 127.44C24.9117 130.738 27.3076 140.468 28.0424 138.421C28.3058 137.687 27.8898 134.262 27.118 130.81ZM40.0605 126.701C39.4432 119.02 35.5767 109.715 31.3738 105.796C28.4757 103.094 22.9136 101.395 22.9136 103.211C22.9136 103.874 23.7131 104.417 24.6901 104.417C29.5983 104.417 37.002 117.206 38.7205 128.653C39.8482 136.165 40.7191 134.896 40.0605 126.701ZM299.176 112.494C298.906 101.174 298.629 99.5041 296.963 99.1851C294.583 98.7296 294.027 123.611 296.364 125.946C298.848 128.427 299.483 125.387 299.176 112.494ZM17.358 118.582C17.2526 114.412 16.7451 111.26 16.23 111.578C14.6162 112.575 15.4201 126.164 17.0928 126.164C17.344 126.164 17.4633 122.752 17.358 118.582ZM292.417 115.562C291.432 101.123 290.9 98.7826 288.699 99.2061C287.706 99.3971 286.903 100.036 286.915 100.626C287.015 105.637 288.771 124.592 289.199 125.284C291.841 129.554 293.109 125.723 292.417 115.562ZM305.707 112.573C306.014 99.7868 304.998 95.2771 302.649 98.989C301.476 100.842 301.2 124.325 302.338 125.461C304.585 127.706 305.422 124.506 305.707 112.573Z" fill="#DD8004"/>
</svg>
