<svg width="141" height="186" viewBox="0 0 141 186" fill="none" xmlns="http://www.w3.org/2000/svg">
<path fill-rule="evenodd" clip-rule="evenodd" d="M50.5926 12.6503C50.395 12.8941 49.9444 13.23 49.5995 13.3841C49.2386 13.5728 48.9674 13.9293 48.9491 14.1937C48.9652 14.4742 48.9032 14.6973 48.8526 14.7157C48.7768 14.7433 48.4917 14.9043 48.2411 15.0815C47.8985 15.3207 47.8365 15.5438 48.0413 15.8702C48.2092 16.0955 48.2162 16.3507 48.0644 16.406C47.9127 16.4612 47.8507 16.6842 47.9243 16.8866C47.998 17.0889 47.9107 17.3212 47.7083 17.3948C47.2025 17.5789 47.2444 19.1103 47.771 19.3768C48.0814 19.5216 48.0746 19.5814 47.7688 19.6068C47.548 19.6298 47.4423 19.8115 47.5481 19.9449C47.6378 20.1127 47.5919 20.3012 47.4402 20.3565C47.2884 20.4117 47.3023 20.6071 47.461 20.8071C47.6105 20.9818 47.6221 21.0922 47.4427 21.0716C47.2633 21.0509 47.2358 21.2901 47.3647 21.6441C47.4936 21.9982 47.4775 22.3477 47.3258 22.4029C47.1993 22.449 47.1948 22.5938 47.3167 22.6926C47.4731 22.8076 47.5146 23.0789 47.4525 23.302C47.3905 23.525 47.4322 24.4263 47.5842 25.3162C47.7362 26.206 47.909 27.2314 47.962 27.6131C48.0496 28.3259 48.6459 31.1447 49.1363 33.2002C49.2906 33.8601 49.3989 34.7085 49.4266 35.0994C49.4543 35.4903 49.6845 36.4376 49.9354 37.2055C50.2115 37.9642 50.4901 39.123 50.5661 39.7254C50.6514 40.3531 51.2958 42.4385 52.0299 44.3766C53.1137 47.2758 53.4566 47.9816 54.0384 48.3999C54.7859 48.9584 55.678 48.8915 55.1513 48.3099C54.7557 47.8525 54.9668 46.5441 55.4612 46.5646C55.836 46.5714 55.8681 46.1874 55.5552 45.6425C55.3942 45.3574 55.7043 44.5572 56.0584 44.4283C56.2354 44.3639 56.247 44.4742 56.0907 44.6743C55.8769 44.9526 55.8953 45.0032 56.2701 45.01C56.8243 45.0374 56.9 44.6948 56.587 43.5199C56.4627 43.021 56.4119 42.4094 56.5245 42.1679C56.6026 41.9104 56.5473 41.4436 56.4023 41.124C56.1769 40.6619 56.2159 40.5331 56.639 40.4364C57.0873 40.3305 57.0781 40.3052 56.6918 40.1881C56.2802 40.0801 56.2525 40.0043 56.5214 39.5627C56.7674 39.2154 56.7236 38.859 56.3923 38.2636C56.0886 37.744 55.932 36.9991 55.964 36.3001C56.0304 35.3021 55.9752 35.1504 55.4186 34.7229C54.8805 34.3459 54.8529 34.27 55.2069 34.1412C55.6621 33.9755 55.4734 33.2996 54.979 33.279C54.7491 33.2768 54.772 33.1825 55.0249 33.0904C55.3192 32.9547 55.3491 32.8006 55.1374 32.534C54.9005 32.2765 54.9488 32.173 55.2638 32.1729C55.5535 32.182 55.7259 31.9474 55.781 31.4692C55.7946 31.0346 55.7463 30.823 55.6314 30.9794C55.5072 31.1105 55.4451 31.0186 55.4474 30.7886C55.4404 30.5334 55.5806 30.3678 55.7347 30.3976C55.8887 30.4275 55.8794 30.0872 55.7138 29.632C55.4284 28.848 55.3939 28.8319 55.2147 29.4413C55.0654 29.8966 54.9987 29.6345 54.9362 28.2825C54.8761 27.3306 54.7448 26.5764 54.6689 26.604C54.5931 26.6316 54.5976 26.4868 54.6941 26.2798C54.7906 26.0728 54.756 25.7417 54.6157 25.5923C54.4662 25.4176 54.4225 25.0612 54.5258 24.7944C54.6292 24.5277 54.6154 24.3323 54.4889 24.3783C54.3625 24.4243 54.4176 24.261 54.6153 24.0172C54.7969 23.8079 54.8427 23.3044 54.7139 22.9503C54.5206 22.4192 54.4424 22.3617 54.2148 22.7596C54.0609 23.0448 53.9183 23.1253 53.8539 22.9483C53.7987 22.7965 53.8354 22.5827 53.9503 22.4263C54.0491 22.3044 54.0169 22.0584 53.8673 21.8836C53.6833 21.6929 53.7959 21.4514 54.1638 21.2029C54.7822 20.7774 54.6578 19.9635 53.9379 19.4808C53.6873 19.3429 53.701 19.2233 53.9792 19.1221C54.1815 19.0484 54.4206 18.7609 54.524 18.4942C54.6825 18.0641 54.648 18.0481 54.4066 18.2505C54.1905 18.4437 54.0089 18.338 53.8639 18.0184C53.719 17.6988 53.781 17.4758 54.0592 17.3745C54.4385 17.2365 54.4201 17.1859 54.0177 17.1032C53.6406 17.0113 53.6222 16.9608 54.0429 16.779C54.3211 16.6777 54.3694 16.5743 54.19 16.5536C53.9095 16.5698 53.8888 16.4341 54.0565 16.0294C54.2656 15.581 54.2288 15.4798 53.7251 15.119C53.0398 14.6524 52.6946 13.8615 53.0993 13.7142C53.5039 13.5669 52.6551 12.4152 52.002 12.1947C51.3328 12.0086 51.0454 12.0846 50.5926 12.6503ZM50.2 14.4831C50.246 14.6095 50.1909 14.7728 50.0644 14.8188C49.9127 14.874 49.6896 14.812 49.5677 14.7132C49.4366 14.589 49.501 14.4511 49.7033 14.3774C49.9309 14.2946 50.1448 14.3313 50.2 14.4831Z" fill="#DD8004"/>
<path fill-rule="evenodd" clip-rule="evenodd" d="M74.6481 18.7019C73.3998 19.7577 71.7517 21.7609 71.8622 22.0644C71.9082 22.1908 71.7749 22.2967 71.5702 22.2852C71.3403 22.283 70.9312 22.8902 70.6371 23.6559C70.3338 24.3964 69.9431 25.0542 69.7913 25.1094C69.6396 25.1646 69.3225 25.7097 69.0743 26.2869C68.8032 26.9584 68.6308 27.1929 68.6215 26.8526C68.6212 25.9076 67.4836 27.8969 67.4517 28.9109C67.422 29.38 67.2543 30.0998 67.0774 30.4792C66.8752 30.8679 66.8545 31.0472 66.9947 30.8816C67.5303 30.2284 67.3765 31.1436 66.8111 31.9509C65.9745 33.1146 65.5976 33.9678 65.8483 34.1057C65.9771 34.1447 65.9288 34.2482 65.7518 34.3126C65.5495 34.3863 65.5288 34.5656 65.722 34.7817C65.8715 34.9564 65.8923 35.0921 65.7382 35.0622C65.5841 35.0324 65.5245 35.3405 65.5959 35.7728C65.6673 36.205 65.6146 36.7684 65.4859 37.0444C65.3572 37.3203 65.2769 37.8078 65.2862 38.1481C65.314 39.169 66.0298 41.3716 66.3379 41.4313C66.5173 41.4519 66.6438 41.7209 66.66 42.0015C66.6854 42.3073 66.8625 42.5579 67.1361 42.6015C67.3753 42.629 67.626 42.7669 67.6812 42.9186C67.8308 43.4083 68.3251 43.1139 68.2927 42.5528C68.2834 42.2125 69.322 39.7151 70.602 37.0153C71.8819 34.3154 72.8906 31.9721 72.8354 31.8203C72.7802 31.6686 72.8652 31.3512 73.0031 31.1006C73.1409 30.8499 73.1592 30.5855 73.0373 30.4867C72.9154 30.3878 72.9545 30.259 73.1315 30.1946C73.435 30.0841 75.0599 27.5452 75.0828 27.1359C75.0874 26.991 75.2115 26.8599 75.3127 26.8231C75.5909 26.7218 76.3882 25.0568 76.287 24.7786C76.2502 24.6775 76.3811 24.1716 76.581 23.6979C76.7809 23.2242 76.8451 22.7711 76.7072 22.7068C76.5945 22.6333 76.7209 22.5872 76.9761 22.5803C77.3164 22.571 77.4314 22.4146 77.3347 21.9915C77.2656 21.6443 77.3851 21.3431 77.638 21.251C77.8656 21.1682 78.2035 20.7588 78.3804 20.3794C78.5481 19.9746 78.817 19.5331 78.9757 19.418C79.1917 19.2248 79.1204 19.1076 78.6812 18.9238C78.3707 18.779 77.9936 18.6871 77.8419 18.7423C77.6901 18.7976 77.4993 18.6666 77.4256 18.4642C77.3428 18.2366 77.1634 18.216 76.9634 18.3747C76.7473 18.5679 76.5841 18.5128 76.446 18.1334C76.2159 17.5012 75.9883 17.584 74.6481 18.7019Z" fill="#DD8004"/>
<path fill-rule="evenodd" clip-rule="evenodd" d="M28.0873 40.2884C28.207 40.6172 26.722 42.0455 26.138 42.1722C25.554 42.2988 25.6276 42.5011 27.1 44.9725C27.9926 46.4806 29.0299 47.6783 31.4081 49.9632C33.1309 51.6274 35.0698 53.4135 35.7321 53.9743C36.3853 54.5099 37.0063 55.1144 37.1053 55.3075C37.356 55.7605 39.6374 56.9922 39.9914 56.8634C40.1685 56.7989 40.5111 56.8747 40.7618 57.0126C41.0124 57.1505 41.3551 57.2263 41.5321 57.1618C42.0126 56.9869 41.9388 56.1546 41.4535 55.8443C41.1339 55.6743 41.0694 55.4972 41.182 55.2558C41.3107 54.9798 41.4464 54.9591 41.612 55.0993C41.7683 55.2142 42.0926 55.2394 42.3202 55.1565C42.6995 55.0185 42.6811 54.9679 42.2787 54.8852C41.8763 54.8026 41.8579 54.752 42.212 54.6231C42.4396 54.5403 42.812 54.147 43.0303 53.7238C43.6232 52.6774 44.8806 51.3319 45.191 51.4767C45.329 51.5411 45.2554 51.3387 45.0253 51.0215C44.7953 50.7042 44.4733 50.4491 44.3629 50.4607C44.0134 50.4447 43.7649 49.7618 44.0684 49.6513C44.1948 49.6053 43.2656 48.6261 42.0075 47.4515C40.7149 46.2608 39.611 45.431 39.4524 45.546C39.2684 45.6703 39.1373 45.5461 39.1027 45.215C39.0682 44.8839 38.569 44.3782 37.8147 43.8795C37.1133 43.4474 36.0806 42.7349 35.5241 42.3074C33.169 40.5583 27.6363 39.0492 28.0873 40.2884Z" fill="#DD8004"/>
<path fill-rule="evenodd" clip-rule="evenodd" d="M52.1184 56.3447C49.0009 57.8517 45.2467 60.0487 45.1548 60.4258C45.1158 60.5546 44.6146 60.9089 44.01 61.2149C42.4489 62.0408 41.2903 62.9494 41.0329 63.5013C40.9043 63.7773 40.7135 63.9613 40.61 63.913C40.403 63.8165 38.5802 65.6543 37.6171 66.864C37.3137 67.2895 36.4632 68.2578 35.7598 69.0007C35.0656 69.7689 34.5002 70.5761 34.4888 70.7807C34.4866 71.0107 34.3395 71.2361 34.1371 71.3097C33.9601 71.3741 33.6567 71.7996 33.4821 72.2641C33.2983 72.7034 32.8961 73.2507 32.5788 73.4808C32.211 73.7292 32.0662 74.0397 32.1859 74.3685C32.2872 74.6467 32.1861 74.9985 31.9102 75.1848C31.6596 75.3619 31.5631 75.5689 31.685 75.6677C31.8069 75.7666 31.7149 75.8287 31.485 75.8265C31.2298 75.8334 30.9678 76.2152 30.7794 76.7993C30.6324 77.3397 30.3888 77.772 30.2347 77.7422C30.0714 77.6871 30.0255 77.8756 30.1176 78.1285C30.2096 78.3814 29.98 79.3242 29.587 80.2119C29.2033 81.1249 28.9552 82.0171 29.0289 82.2194C29.1025 82.4217 29.0336 82.7046 28.8589 82.8541C28.5762 83.1002 27.508 86.6967 27.6277 87.0255C27.6461 87.0761 27.5612 87.7084 27.4096 88.3937C27.2581 89.0789 27.2239 90.0079 27.3643 90.4724C27.5047 90.9368 27.4611 91.5254 27.298 91.7853C27.1095 92.0544 27.0637 92.558 27.1833 92.8867C27.303 93.2155 27.3307 93.6064 27.2066 93.7375C27.1077 93.8594 27.1102 94.2595 27.2298 94.5882C27.3495 94.917 27.368 95.2826 27.2691 95.4045C27.1703 95.5264 27.159 96.0461 27.258 96.5542C27.3409 97.0968 27.3711 97.8878 27.3068 98.3408C27.2426 98.7938 27.2772 99.4399 27.3969 99.7687C27.5166 100.097 27.565 100.624 27.5306 100.923C27.4801 101.256 27.5861 102.02 27.722 102.629C28.6658 106.324 28.8016 106.933 28.666 107.269C28.5948 107.467 28.634 107.653 28.7122 107.71C28.8157 107.759 29.0688 108.612 29.2416 109.637C29.4396 110.653 29.7136 111.957 29.8656 112.532C30.4157 114.594 32.8481 121.041 33.2966 121.565C33.568 121.838 33.713 122.158 33.6739 122.287C33.6256 122.39 33.743 122.634 33.9362 122.85C34.1294 123.066 34.4952 123.678 34.7483 124.216C34.9761 124.763 35.5535 125.641 36.002 126.165C36.4253 126.699 36.8324 127.266 36.9061 127.469C36.9705 127.646 37.7249 128.459 38.6081 129.312C41.1796 131.813 41.9385 132.482 42.2467 132.542C42.4007 132.572 42.5571 132.687 42.594 132.788C42.6446 133.084 43.8912 134.149 44.2683 134.24C44.5167 134.293 44.5236 134.233 44.3143 134.052C44.105 133.87 44.1118 133.81 44.3602 133.863C44.5487 133.909 44.7327 134.1 44.7719 134.286C44.8249 134.668 48.9989 136.929 49.4035 136.782C49.53 136.736 49.7967 136.839 49.9555 137.039C50.105 137.214 50.3189 137.251 50.443 137.12C50.5418 136.998 50.7051 137.053 50.7787 137.255C50.9444 137.711 51.9976 137.929 52.1745 137.549C52.2642 137.402 52.2826 137.453 52.2711 137.657C52.1885 138.06 53.72 138.648 54.2511 138.455C54.4534 138.381 54.6512 138.452 54.7064 138.604C54.8169 138.907 56.1599 139.45 56.5485 139.337C56.7002 139.282 57.1624 139.371 57.6177 139.52C58.073 139.67 58.687 139.704 59.0157 139.584C59.3951 139.446 59.5837 139.492 59.5308 139.741C59.478 139.989 59.6137 139.968 59.9401 139.763C60.2988 139.49 60.4781 139.51 60.6139 139.805C60.7427 140.159 60.7841 140.115 60.8139 139.646C60.8367 139.237 60.8942 139.158 61.0046 139.462C61.214 139.959 62.6421 140.498 63.8953 140.558C65.1485 140.617 65.1232 140.627 64.7804 139.921C64.4744 139.316 64.6697 138.987 65.1136 139.341C65.2608 139.431 65.224 139.645 65.0999 139.776C64.8333 139.987 64.9805 140.077 66.8201 140.725C67.2502 140.883 68.4757 140.867 68.7263 140.69C68.8183 140.628 68.9218 140.676 68.9586 140.777C69.0046 140.904 69.2185 140.94 69.4208 140.867C69.699 140.765 69.6874 140.655 69.446 140.542C68.894 140.285 68.9308 140.071 69.5722 139.866C69.8849 139.781 70.2619 139.558 70.3837 139.342C70.5561 139.107 70.7332 139.043 70.8988 139.183C71.0552 139.298 71.4484 139.355 71.8139 139.337C72.1543 139.328 72.4808 139.438 72.5268 139.564C72.6465 139.893 72.274 139.971 71.7566 139.73C71.3864 139.578 71.3542 139.647 71.6463 140.057C71.8418 140.358 71.8833 140.629 71.7568 140.675C71.6304 140.721 71.5753 140.884 71.6305 141.036C71.6765 141.163 71.8214 141.167 71.9202 141.045C72.0444 140.914 72.1639 140.928 72.21 141.054C72.2652 141.206 72.4882 141.268 72.6906 141.195C72.8929 141.121 73.1067 141.158 73.162 141.309C73.208 141.436 73.4311 141.498 73.6587 141.415C73.8863 141.332 74.0772 141.463 74.1186 141.734C74.1854 141.997 74.3648 142.332 74.5649 142.489C74.7558 142.62 75.1539 143.477 75.46 144.397C75.766 145.316 77.0982 148.268 78.4235 150.965C79.7142 153.646 81.0326 156.402 81.3409 157.092C82.0012 158.513 82.7029 159.89 83.867 161.987C84.3157 162.826 84.9369 164.06 85.2797 164.766C86.4209 167.272 87.1571 168.665 87.3664 168.847C87.4883 168.946 87.7896 169.38 88.022 169.783C88.5603 170.79 89.6274 171.518 90.3724 171.362C90.8046 171.29 90.9519 171.38 90.9796 171.771C90.9957 172.051 91.1476 172.311 91.3016 172.341C91.4649 172.396 91.5867 172.18 91.5866 171.865C91.5681 171.499 91.7336 171.324 92.09 171.281C92.3958 171.255 92.5958 171.097 92.5406 170.945C92.4854 170.793 92.2278 170.715 91.991 170.773C91.7381 170.865 91.4162 170.924 91.2552 170.954C91.1104 170.95 90.8736 171.007 90.7126 171.037C90.577 171.058 90.6137 170.844 90.7929 170.55C90.9975 170.246 91.0089 170.042 90.8572 170.097C90.6802 170.161 90.4985 170.056 90.4248 169.853C90.3512 169.651 90.5075 169.451 90.7788 169.409C91.0156 169.352 91.2663 169.49 91.3054 169.676C91.3377 169.922 91.57 170.009 91.8481 169.908C92.1516 169.798 92.2229 169.6 92.0549 169.374C91.8962 169.174 92.0664 169.17 92.4987 169.413C92.8621 169.625 93.6301 169.689 94.1888 169.572C95.2051 169.374 95.8535 169.424 95.2466 169.645C95.0442 169.718 95.065 169.854 95.3709 170.144C95.8676 170.564 95.7919 170.907 95.2124 170.889C94.9825 170.887 94.8584 171.018 94.9136 171.169C94.9688 171.321 95.293 171.346 95.6218 171.227C96.0264 171.079 96.2149 170.81 96.1527 170.403C96.1135 169.902 96.2054 169.84 96.601 169.982C96.8677 170.086 97.2241 170.042 97.3643 169.876C97.5045 169.711 97.4747 169.865 97.2954 170.159C97.0564 170.552 97.1055 170.687 97.4427 170.564C97.6956 170.472 98.1738 170.212 98.4911 169.982L99.0589 169.575L98.3622 169.628C97.9315 169.651 97.9659 169.562 98.4656 169.361C99.0128 169.133 99.3024 168.827 99.3506 168.409C99.4584 167.682 99.6378 167.703 100.084 168.457C100.326 168.885 100.319 168.944 99.9232 168.802C99.6565 168.699 99.4702 168.738 99.5163 168.864C99.728 169.446 100.905 169.218 102.032 168.378C102.841 167.769 103.211 167.605 103.37 167.805C103.643 168.164 104.055 167.957 103.889 167.502C103.816 167.299 103.878 167.076 104.029 167.021C104.181 166.966 104.324 167.2 104.358 167.531C104.402 167.888 104.439 167.989 104.45 167.784C104.471 167.605 104.643 167.37 104.82 167.306C104.997 167.241 105.154 167.041 105.149 166.871C105.144 166.701 105.418 166.43 105.797 166.292C106.285 166.057 106.358 165.944 106.064 165.765C105.848 165.643 105.533 165.643 105.358 165.793C105.209 165.933 105.02 165.887 104.946 165.685C104.873 165.482 104.985 165.241 105.188 165.167C105.39 165.094 105.521 164.903 105.475 164.776C105.411 164.599 105.562 164.544 105.981 164.592C106.468 164.673 106.535 164.62 106.254 164.321C105.999 164.013 106.05 163.994 106.631 164.098C106.983 164.199 107.319 164.334 107.356 164.436C107.402 164.562 107.606 164.573 107.834 164.491C108.087 164.399 108.184 164.507 108.131 164.755C108.048 165.157 108.143 165.81 108.269 165.764C108.32 165.746 108.483 165.486 108.628 165.176C108.965 164.451 109.276 164.596 109.145 165.417C109.09 165.895 109.136 166.022 109.389 165.929C109.996 165.709 110.085 165.246 109.747 164.081C109.448 163.101 109.489 162.743 110.05 161.765C110.39 161.126 110.999 160.36 111.349 160.061C113.627 158.058 113.764 157.807 113.173 156.733C113.136 156.632 112.911 156.17 112.685 155.708C112.35 154.942 112.281 154.91 112.166 155.382C111.938 156.094 111.727 155.513 111.892 154.708C111.997 154.211 111.908 154.043 111.174 153.68C110.691 153.455 110.489 153.214 110.666 153.149C110.843 153.085 110.889 152.896 110.705 152.705C110.555 152.531 110.553 152.131 110.707 151.845C110.826 151.544 110.861 151.245 110.732 151.206C110.628 151.158 110.596 150.912 110.684 150.68C110.819 150.344 110.722 150.236 110.373 150.22C109.973 150.222 109.945 150.146 110.18 149.689C110.347 149.284 110.317 149.123 109.989 148.928C109.66 148.732 109.657 148.647 109.901 148.53C110.103 148.456 109.991 148.383 109.667 148.358C109.342 148.332 109.204 148.268 109.356 148.213C109.869 147.969 109.685 147.148 109.1 146.96C108.654 146.836 108.601 146.769 108.87 146.643C109.149 146.541 109.087 146.449 108.65 146.351C108.254 146.208 108.148 146.075 108.279 145.884C108.419 145.718 108.564 145.723 108.61 145.849C108.666 146.001 108.787 146.1 108.914 146.054C109.015 146.017 108.99 145.711 108.87 145.382C108.75 145.054 108.592 144.854 108.518 144.966C108.254 145.263 108.088 144.493 108.297 144.044C108.442 143.734 108.389 143.667 108.06 143.787C107.681 143.925 107.628 143.858 107.722 143.251C107.853 142.43 107.678 141.635 107.349 141.755C107.223 141.801 107.161 141.709 107.181 141.529C107.211 141.375 107.041 141.065 106.788 140.842C106.438 140.511 106.434 140.341 106.689 140.019C106.912 139.766 106.916 139.621 106.714 139.695C106.461 139.787 106.415 139.66 106.479 139.207C106.56 138.72 106.516 138.678 106.224 138.899C106.008 139.092 105.845 139.037 105.706 138.658C105.587 138.329 105.665 138.071 105.968 137.961C106.364 137.788 106.355 137.763 105.874 137.623C105.23 137.428 104.425 135.372 104.88 135.207C105.057 135.142 105.064 134.767 104.933 134.328C104.748 133.822 104.521 133.59 104.13 133.618C103.84 133.609 103.539 133.489 103.484 133.338C103.346 132.958 103.504 132.213 103.741 132.156C104.224 132.066 104.247 131.972 103.81 131.873C103.338 131.758 102.701 130.558 103.055 130.429C103.156 130.392 103.193 130.178 103.119 129.976C103.046 129.774 102.855 129.643 102.678 129.707C102.526 129.762 102.521 129.592 102.71 129.323C102.972 128.941 102.928 128.585 102.65 128.056C102.433 127.62 102.305 127.265 102.406 127.229C102.507 127.192 102.81 126.766 103.086 126.265C103.541 125.469 103.608 125.416 103.932 125.757C104.116 125.947 104.21 125.97 104.146 125.793C104.107 125.607 104.206 125.485 104.36 125.515C104.548 125.561 104.799 125.384 104.946 125.158C105.084 124.908 105.242 124.793 105.289 124.919C105.335 125.046 105.408 124.933 105.461 124.685C105.539 124.427 105.472 124.165 105.35 124.066C105.228 123.967 105.095 124.073 105.033 124.296C104.973 124.604 104.898 124.632 104.824 124.43C104.658 123.974 105.106 123.553 105.472 123.85C105.829 124.121 106.036 123.903 107.014 122.028C107.426 121.191 107.46 120.892 107.154 120.603C106.605 120.115 106.559 119.989 107.014 119.823C107.216 119.75 107.347 119.559 107.301 119.432C107.237 119.255 107.556 119.11 108.149 119.009C108.904 118.878 109.062 118.763 108.943 118.434C108.86 118.206 108.947 117.974 109.149 117.9C109.352 117.827 109.669 117.282 109.883 116.688C110.105 116.12 110.76 114.536 111.328 113.184C111.895 111.832 112.29 110.714 112.187 110.666C112.084 110.617 112.132 110.514 112.284 110.459C112.435 110.403 112.555 110.102 112.529 109.796C112.504 109.491 112.649 109.18 112.8 109.125C112.978 109.06 113.173 108.732 113.239 108.364C113.37 107.858 113.478 107.761 113.865 107.878C114.433 108.101 114.336 107.678 113.74 107.379C113.37 107.228 113.375 107.083 113.653 106.667C113.832 106.372 114.124 106.151 114.253 106.19C114.407 106.22 114.531 105.774 114.549 105.195C114.577 104.641 114.707 104.135 114.834 104.089C114.986 104.033 115.061 103.691 115.008 103.309C114.981 102.918 115.057 102.576 115.183 102.53C115.335 102.474 115.284 102.178 115.054 101.861C114.753 101.426 114.773 101.247 115.051 101.145C115.608 100.943 116.015 99.9357 115.716 99.5863C115.575 99.4369 115.543 99.1908 115.642 99.0689C115.757 98.9125 115.775 98.6481 115.692 98.4205C115.49 97.8641 115.74 95.1669 116.018 95.0656C116.119 95.0288 116.234 95.1874 116.206 95.4266C116.209 96.1417 116.565 95.7829 116.629 95.0149C116.68 94.3664 116.627 94.2998 116.015 94.3505C115.192 94.4496 115.279 93.9024 116.164 93.5802C116.67 93.3961 116.719 93.2926 116.408 93.1479C115.753 92.8422 115.778 92.518 116.47 92.6098C117.052 92.7131 117.068 92.6786 116.606 92.274C116.309 92.0097 116.219 91.8419 116.408 91.8878C116.587 91.9084 116.755 91.8187 116.801 91.6301C116.831 91.4761 116.759 91.3588 116.608 91.4141C116.456 91.4693 116.341 91.3107 116.343 91.0807C116.371 90.8416 116.207 90.4714 116.014 90.2554C115.471 89.7083 115.381 88.9104 115.758 88.3723C115.963 88.0687 115.979 87.7192 115.783 87.418C115.606 87.1674 115.574 86.9214 115.7 86.8754C115.827 86.8293 115.721 86.381 115.486 85.8936L115.028 85.0292L114.992 85.873C114.937 86.6663 114.884 86.5997 114.504 85.1627C114.251 84.3097 113.943 83.305 113.804 82.9256C113.595 82.429 113.641 82.2405 113.931 82.2496C114.161 82.2518 114.282 82.0356 114.22 81.6287C114.087 80.7894 113.166 78.8904 112.985 79.0997C112.911 79.2124 112.665 79.2447 112.408 79.1666C112.159 79.1138 112.072 79.031 112.224 78.9758C112.502 78.8745 111.904 77.2306 111.333 76.6077C111.105 76.3755 111.064 76.1042 111.22 75.9041C111.402 75.6948 111.317 75.3821 111.015 74.9476C110.767 74.5798 110.551 74.458 110.555 74.6282C110.549 75.318 110.22 75.1226 109.872 74.2467C109.67 73.6903 109.663 73.4351 109.863 73.5914C110.072 73.773 110.093 73.5936 109.927 73.1384C109.789 72.759 109.474 72.4441 109.244 72.4418C109.005 72.4143 108.849 72.2994 108.878 72.1453C108.908 71.9913 108.681 71.7591 108.37 71.6143C107.947 71.396 107.866 71.2535 107.993 70.8924C108.096 70.6257 108.064 70.3797 107.926 70.3153C107.822 70.2671 107.765 70.3453 107.82 70.497C107.885 70.674 107.829 70.8373 107.678 70.8925C107.551 70.9386 107.36 70.8075 107.287 70.6052C107.213 70.4029 107.275 70.1798 107.427 70.1246C107.579 70.0694 107.562 69.7889 107.392 69.4785C107.231 69.1935 106.971 69.0303 106.787 69.1545C106.553 69.2971 106.438 69.1385 106.346 68.5706C106.265 68.113 106.005 67.6348 105.727 67.4211C105.458 67.2326 105.021 66.8188 104.791 66.5016C104.066 65.5338 102.422 63.927 102.245 63.9914C102.118 64.0375 101.987 63.9133 101.923 63.7363C101.858 63.5593 101.511 63.3133 101.141 63.1617C100.78 63.0353 100.405 62.7135 100.313 62.4606C100.221 62.2077 99.5169 61.6906 98.774 61.3022C98.0059 60.923 97.2516 60.4243 97.0584 60.2082C96.6352 59.6749 94.8827 58.7947 94.2182 58.7788C93.7836 58.7652 93.7308 58.6985 93.9698 58.411C94.2249 58.089 94.1812 58.0476 93.8272 58.1765C93.5743 58.2686 93.3259 58.2158 93.2615 58.0387C93.2063 57.887 92.9188 57.6479 92.6336 57.4939C90.5961 56.4598 88.2159 55.35 88.1147 55.3868C87.8618 55.4788 85.2631 54.162 85.1711 53.9091C85.1159 53.7574 84.9204 53.7712 84.7457 53.9208C84.5802 54.0956 84.3756 54.0841 84.3296 53.9577C84.2743 53.8059 83.681 53.5923 83.0395 53.4821C82.3979 53.3719 81.6068 53.087 81.3101 52.8227C81.0134 52.5583 80.6087 52.3906 80.4064 52.4642C80.204 52.5379 79.5809 52.4783 79.0313 52.306C77.2285 51.7593 71.88 51.3861 71.2087 51.745C71.1328 51.7726 70.8592 51.729 70.5924 51.6256C70.3257 51.5222 69.3048 51.5501 68.3299 51.7044C67.355 51.8588 66.4376 51.9349 66.249 51.889C66.0949 51.8591 65.4167 51.9628 64.7752 52.1676C64.1337 52.3725 63.1933 52.5429 62.6576 52.5661C61.9264 52.6031 61.708 52.7112 61.623 53.0285C61.5472 53.3712 61.4967 53.3896 61.4046 53.1367C61.3218 52.9091 60.8803 52.9552 59.979 53.3118C59.2456 53.5788 57.8455 54.0598 56.8407 54.3682C55.8613 54.6674 53.7231 55.5602 52.1184 56.3447ZM60.5626 59.4004C61.1098 59.4876 61.1283 59.5382 60.9031 60.0211C60.7032 60.4948 60.5767 60.5409 60.1122 60.3663C59.6914 60.233 59.5902 60.2699 59.5972 60.5251C59.6111 61.0355 58.9857 61.2059 58.6338 60.7898C58.4843 60.6151 58.4728 60.5047 58.6521 60.5253C58.8315 60.546 58.9717 60.3804 58.9739 60.1504C58.9853 59.6308 59.6911 59.288 60.5626 59.4004ZM52.9664 62.7666C52.8378 63.0426 52.6354 63.1162 52.2077 63.0427C51.7202 62.9624 51.7616 62.9187 52.41 62.6541C52.9411 62.4608 53.0951 62.4906 52.9664 62.7666ZM54.0907 62.1569C54.1091 62.2075 53.9689 62.3731 53.8034 62.5479C53.6287 62.6974 53.4332 62.7113 53.3872 62.5848C53.332 62.4331 53.4722 62.2675 53.6745 62.1938C53.8768 62.1202 54.0723 62.1064 54.0907 62.1569ZM55.1759 61.9911C55.2312 62.1428 55.1737 62.221 55.0449 62.182C54.9322 62.1084 54.723 62.2419 54.5851 62.4925C54.3806 62.7961 54.3461 62.78 54.3529 62.4052C54.3642 61.8855 55.0102 61.5359 55.1759 61.9911ZM56.6221 61.6365C56.5739 61.74 56.3439 61.7378 56.1024 61.6252C55.7828 61.4551 55.7989 61.4206 56.2082 61.4435C56.4887 61.4273 56.6704 61.5331 56.6221 61.6365ZM58.0314 60.8658C58.1533 60.9647 58.0568 61.1716 57.8062 61.3488C57.3464 61.6593 57.121 61.5122 57.3302 61.0638C57.4657 60.7281 57.7784 60.6429 58.0314 60.8658ZM62.8828 59.8734C62.8852 60.2735 62.784 60.3103 62.354 60.1518C61.8895 59.9771 61.8711 59.9266 62.1653 59.4758C62.5583 58.9031 62.8964 59.1238 62.8828 59.8734ZM68.1087 57.9427C68.2927 58.1335 68.1846 58.2301 67.8282 58.2739C67.5477 58.29 67.2465 58.1706 67.1728 57.9682C67.0256 57.5636 67.7567 57.5266 68.1087 57.9427ZM48.3868 64.9776C48.5179 65.1018 48.3524 65.2766 47.9983 65.4054C47.6695 65.5251 47.1086 65.8725 46.7752 66.137C46.2764 66.5763 46.2258 66.5947 46.3591 66.1739C46.4625 65.9072 46.8348 65.5139 47.1705 65.3344C47.5314 65.1458 47.8832 64.9318 47.9751 64.8697C48.0763 64.8329 48.2557 64.8535 48.3868 64.9776ZM50.4237 64.1217C50.3755 64.2252 50.1571 64.3333 49.9524 64.3219C49.7225 64.3197 49.7707 64.2161 50.0489 64.1149C50.3179 63.9883 50.4973 64.009 50.4237 64.1217ZM45.444 66.3351C45.5659 66.434 45.3889 66.8134 45.0418 67.1975C44.6534 67.6253 44.3936 67.7772 44.32 67.5748C44.2647 67.4231 44.4279 67.1632 44.6785 66.9861C44.9291 66.809 45.1014 66.5744 45.0554 66.4479C44.945 66.1444 45.1312 66.1053 45.444 66.3351ZM52.8494 63.4679C52.877 63.5438 52.8219 63.7071 52.6978 63.8382C52.5989 63.9601 52.4541 63.9555 52.408 63.8291C52.3528 63.6773 52.4332 63.5049 52.5597 63.4588C52.7114 63.4036 52.831 63.4174 52.8494 63.4679ZM50.8218 64.9792C50.8678 65.1057 50.8035 65.2437 50.6517 65.2989C50.5253 65.3449 50.3344 65.2139 50.2516 64.9863C50.1779 64.784 50.2676 64.6368 50.4216 64.6666C50.601 64.6873 50.7666 64.8275 50.8218 64.9792ZM55.289 63.3247C55.4661 63.5752 55.7766 63.72 55.9789 63.6464C56.2318 63.5543 56.2524 63.375 56.0408 63.1083C55.7418 62.7589 55.7671 62.7497 56.2523 63.06C56.6594 63.3128 57.1009 63.2667 58.2205 62.8018C59.0551 62.4981 60.1518 62.1276 60.6852 62.0193C61.2439 61.9019 61.7313 61.6672 61.7612 61.5132C61.7818 61.3338 61.9933 61.2854 62.2854 61.3796C62.8787 61.5933 66.2126 61.1531 67.2564 60.7159C67.7024 60.525 68.0933 60.4973 68.1578 60.6743C68.2222 60.8513 68.5533 60.8168 68.9809 60.5752C69.3832 60.3428 69.7304 60.2738 69.7765 60.4002C69.8133 60.5014 69.6983 60.6578 69.5466 60.713C68.9649 60.9247 70.1353 61.0715 70.7423 60.8506C71.0458 60.7401 71.3355 60.7492 71.3907 60.901C71.4368 61.0274 71.7794 61.1032 72.1703 61.0755C72.5267 61.0317 73.0142 61.112 73.2303 61.2338C73.4557 61.3809 73.7868 61.3464 73.9615 61.1969C74.1362 61.0473 74.3248 61.0933 74.3892 61.2703C74.4813 61.5232 74.5571 61.4956 74.6192 61.2725C74.6651 61.084 74.8973 60.8563 75.1502 60.7642C75.4536 60.6538 75.61 60.7687 75.6032 61.1435C75.6217 61.5091 75.8472 61.6562 76.4105 61.7089C76.8198 61.7318 77.7212 62.0051 78.3674 62.2855C79.0389 62.5566 79.784 62.715 80.0622 62.6138C80.3151 62.5217 80.545 62.524 80.5565 62.6343C80.5658 62.9746 82.2492 63.8226 82.6033 63.6937C82.755 63.6385 83.0471 63.7327 83.2058 63.9327C83.3898 64.1235 83.6634 64.1671 83.8542 63.9831C84.0289 63.8335 84.1393 63.822 84.1187 64.0014C84.0888 64.1554 84.5074 64.5186 85.034 64.7852C85.5699 65.0771 86.6669 65.6516 87.4626 66.1066C88.2583 66.5616 89.399 67.1776 90.0038 67.5016C90.5994 67.8003 91.0502 68.0945 91.018 68.1635C90.9858 68.2325 91.3676 68.4945 91.8252 68.7289C92.3174 68.9794 92.6301 69.2092 92.5543 69.2369C92.4784 69.2645 92.6187 69.4139 92.8694 69.5518C93.1201 69.6897 93.3845 69.708 93.4833 69.5861C93.5822 69.4642 93.7478 69.6044 93.849 69.8826C93.9503 70.1608 94.1872 70.4182 94.3413 70.4481C94.5206 70.4687 95.0519 70.9055 95.5418 71.3859C96.0317 71.8663 96.5998 72.4042 96.8252 72.5513C98.7226 74.066 102.704 78.9464 103.88 81.1534C104.634 82.5972 107.691 90.9936 107.56 91.1845C107.451 91.2811 107.505 91.6628 107.633 92.0169C108.066 93.2055 108.545 97.0407 108.396 98.126C108.293 98.7078 108.275 99.2873 108.321 99.4137C108.459 99.7931 108.117 102.237 107.915 102.311C107.738 102.375 107.575 104.525 107.699 105.339C107.858 106.169 107.642 106.993 107.263 107.131C107.061 107.204 106.875 107.558 106.799 107.901C106.735 108.354 106.771 108.455 106.937 108.28C107.052 108.124 107.197 108.129 107.243 108.255C107.298 108.407 107.167 108.598 106.965 108.671C106.762 108.745 106.65 108.986 106.732 109.214C106.806 109.416 106.751 109.58 106.622 109.541C106.493 109.502 106.091 110.049 105.735 110.723C105.404 111.387 105.011 111.96 104.91 111.997C104.809 112.034 104.572 112.406 104.404 112.811C103.844 114.103 102.977 115.736 102.485 116.431C102.214 116.787 102.056 117.217 102.12 117.394C102.175 117.546 101.987 117.815 101.702 117.976C101.417 118.137 101.18 118.51 101.196 118.79C101.222 119.096 100.932 119.717 100.553 120.17C100.183 120.648 99.7598 121.375 99.6265 121.796C99.4933 122.217 99.0428 122.868 98.6359 123.245C98.229 123.622 97.6613 124.344 97.4109 124.836C97.1443 125.363 96.5306 126.274 96.0019 126.867C95.5077 127.477 94.9354 128.344 94.7424 128.758C94.5586 129.197 94.1472 129.719 93.8299 129.949L93.2276 130.34L93.3722 129.4C93.4686 128.878 93.6685 128.404 93.8456 128.339C94.0226 128.275 94.034 128.07 93.8845 127.896C93.7097 127.73 93.7211 127.525 93.8729 127.47C94.0246 127.415 94.0591 127.116 93.9394 126.787C93.8289 126.484 93.9345 125.987 94.1644 125.674C94.5344 125.196 94.5413 125.136 94.0791 125.047C93.6859 124.989 93.5709 124.831 93.6536 124.428C93.688 124.129 93.6028 123.817 93.4648 123.752C93.3176 123.663 93.4441 123.617 93.7246 123.6C93.989 123.619 94.1729 123.495 94.1269 123.368C94.0717 123.216 94.1613 123.069 94.3131 123.014C94.4395 122.968 94.5269 123.051 94.5063 123.23C94.4764 123.384 94.573 123.492 94.6995 123.446C95.0535 123.317 94.805 122.634 94.4026 122.552C93.8116 122.423 93.8644 121.86 94.5218 121.305C95.1126 120.804 95.1332 120.625 94.8019 119.714C94.5809 119.107 94.5509 118.631 94.7026 118.576C94.905 118.502 94.8244 118.36 94.5048 118.19C94.0632 117.921 94.0793 117.886 94.6403 117.854C95.0151 117.861 95.2244 117.727 95.1691 117.576C95.1139 117.424 94.9506 117.369 94.7828 117.459C94.6495 117.564 94.3988 117.426 94.2469 117.167C94.1204 116.898 94.1181 116.813 94.2492 116.937C94.3895 117.086 94.6218 117.173 94.7482 117.127C94.8999 117.072 94.8792 116.937 94.7481 116.812C94.6009 116.723 94.5893 116.297 94.7662 115.918C94.9156 115.463 94.9293 115.343 94.7225 115.562C94.4834 115.849 94.4719 115.739 94.6326 115.079C94.7475 114.607 94.7588 114.088 94.6691 113.92C94.3447 113.265 94.3791 112.966 94.8596 112.791C95.1884 112.671 95.301 112.43 95.1813 112.101C95.0801 111.823 95.1489 111.54 95.3168 111.45C95.4685 111.395 95.3811 111.312 95.1259 111.319C94.6568 111.289 94.6545 111.204 95.006 110.36C95.2128 109.827 95.3759 109.252 95.346 109.091C95.3068 108.905 95.3067 108.59 95.3687 108.367C95.4055 108.153 95.3594 108.026 95.2422 108.098C94.7226 108.401 94.6398 108.174 94.8923 106.822C95.0324 106.026 95.2092 105.332 95.2667 105.253C95.3586 105.191 95.2205 104.812 95.0227 104.426C94.7719 103.973 94.7465 103.667 94.9489 103.593C95.3029 103.464 94.6473 102.529 94.1069 102.382C93.8931 102.345 93.9482 102.182 94.2655 101.952C94.7919 101.588 94.7547 100.227 94.1982 100.115C94.0442 100.085 94.1154 99.887 94.3913 99.7006C94.6671 99.5143 94.7797 99.2729 94.6578 99.174C94.5267 99.0499 94.4163 98.7464 94.4254 98.4567C94.4298 97.9968 94.4643 98.0129 94.9749 98.3139C95.4509 98.5989 95.4854 98.615 95.2117 98.2564C95.0277 98.0656 95.0047 97.8449 95.1311 97.7988C95.2576 97.7528 95.1563 97.4746 94.8412 97.1597C94.395 96.7207 94.365 96.5597 94.5949 96.2469C94.7926 96.0031 94.7649 95.9273 94.5626 96.0009C94.3856 96.0653 94.1418 95.8677 94.0474 95.5297C93.8541 94.9986 93.8794 94.9894 94.2819 95.3871C94.5533 95.6606 94.4682 95.3479 94.0103 94.4835C93.633 93.7616 93.2166 92.8535 93.0624 92.5086C92.8875 92.0281 92.7311 91.9132 92.4806 92.0903C92.23 92.2674 92.2208 92.2421 92.3679 92.0168C92.4989 91.8259 92.4896 91.4856 92.3377 91.2258C92.1859 90.966 92.0708 90.4923 92.0799 90.2026C92.0613 89.522 91.2126 88.6853 89.8397 87.9821C89.244 87.6834 88.7496 87.3478 88.6944 87.1961C88.5103 86.6903 85.4269 86.9533 83.6244 87.6666C83.2197 87.8139 82.7783 88.175 82.6497 88.451C82.521 88.727 82.2796 88.9294 82.1255 88.8995C81.9462 88.8789 81.4727 89.309 81.0704 89.8564C80.1671 91.073 79.705 91.2985 79.1116 90.7698C78.509 90.2158 78.4055 89.8526 78.8607 89.6869C79.063 89.6132 79.2032 89.4476 79.148 89.2959C79.102 89.1694 78.9065 89.1833 78.7318 89.3328C78.4996 89.5605 78.403 89.4525 78.3752 88.7466C78.336 88.2453 78.1979 87.866 78.0186 87.8453C77.8553 87.7902 77.7818 87.9029 77.837 88.0546C77.9014 88.2316 77.7658 88.2524 77.4645 88.1329C77.1288 87.9974 77.0298 87.8042 77.1332 87.5375C77.2205 87.3052 77.1262 86.9672 76.9674 86.7672C76.7558 86.5006 76.7788 86.4063 77.103 86.4315C77.418 86.4314 77.4732 86.2681 77.2983 85.7876C77.1694 85.4335 76.9946 85.268 76.8705 85.3991C76.7716 85.521 76.59 85.4153 76.4979 85.1624C76.3967 84.8842 76.1091 84.6452 75.8539 84.6521C75.624 84.6499 75.4331 84.5189 75.4629 84.3648C75.5181 84.2016 75.387 84.0775 75.2168 84.0821C74.9869 84.0799 74.9822 83.9097 75.1339 83.5395C75.3844 83.0473 75.3315 82.9807 74.7197 82.7164C74.2805 82.5326 74.131 82.3579 74.2873 82.1578C74.6091 81.7829 74.018 81.3393 73.6272 81.682C73.4364 81.866 73.2548 81.7603 73.1167 81.381C72.8429 80.7073 71.1388 79.7237 70.0189 79.5585C69.1819 79.4621 66.9104 80.1457 66.692 80.5689C66.653 80.6977 66.4622 80.8816 66.2944 80.9714C65.623 81.3303 64.0025 83.0944 64.1038 83.3726C64.159 83.5243 64.1015 83.6025 63.9728 83.5635C63.6623 83.4187 62.9362 84.8859 63.0926 85.3158C63.1571 85.4929 63.0858 85.6906 62.9341 85.7459C62.7823 85.8011 62.7709 86.0057 62.9457 86.1712C63.0952 86.3459 63.1091 86.5414 62.9826 86.5874C62.8309 86.6426 62.7826 86.7461 62.8447 86.8381C62.9161 86.9553 62.8932 87.3646 62.7944 87.8015C62.6957 88.2384 62.6545 88.9122 62.7167 89.3191C62.795 89.6916 62.8113 90.2872 62.7769 90.5861C62.7425 90.885 62.8784 91.8093 63.0971 92.6462C63.3066 93.4578 63.4494 94.3224 63.4034 94.5109C63.3414 94.734 63.4565 95.2076 63.6291 95.603C64.0456 96.5112 64.2233 98.6518 63.8576 98.3553C63.1699 97.8037 60.6475 97.7193 59.4772 98.2025C58.8542 98.4579 58.1782 98.6467 57.9736 98.6353C57.785 98.5894 57.6172 98.6791 57.562 98.8423C57.5414 99.0217 57.3322 99.1551 57.0931 99.1276C56.463 99.1278 55.4538 99.8961 55.7666 100.126C55.9322 100.266 55.8494 100.354 55.4838 100.372C55.0838 100.374 54.9114 100.609 54.8242 101.156C54.776 101.575 54.6243 101.945 54.4979 101.991C54.3714 102.037 54.3001 101.92 54.3369 101.706C54.3828 101.517 54.1277 101.839 53.7438 102.437C53.3279 103.104 53.1808 103.645 53.358 103.895C53.4914 104.105 53.457 104.403 53.2823 104.553C53.0501 104.781 53.156 105.229 53.89 106.852C55.3856 110.174 55.5213 110.469 56.0112 110.949C56.2826 111.223 57.0141 112.131 57.7019 112.997C58.8681 114.549 59.9331 115.822 60.906 116.843C61.1866 117.142 61.4511 117.475 61.5064 117.627C61.5777 117.744 61.9272 117.76 62.3066 117.622C62.8537 117.394 62.9664 117.468 63.0747 118.001C63.1461 118.434 63.2427 118.542 63.399 118.342C63.5645 118.167 63.599 118.183 63.5715 118.422C63.5186 118.67 63.3508 118.76 63.0841 118.657C62.8173 118.553 62.7437 118.666 62.8473 119.029C62.9141 119.291 63.0728 119.491 63.1993 119.445C63.3257 119.399 63.7581 119.643 64.1514 120.015C64.5447 120.388 65.0828 120.765 65.3335 120.902C65.9107 121.151 66.0833 121.546 65.6786 121.693C65.5269 121.749 65.6856 121.949 66.0398 122.135C66.4031 122.346 66.8216 122.394 66.9297 122.298C67.0791 122.157 67.3528 122.516 67.5898 123.089C67.8429 123.627 68.1972 124.128 68.4202 124.19C68.6341 124.226 68.7215 124.309 68.595 124.355C68.4433 124.41 68.5997 124.525 68.9423 124.601C69.2689 124.711 69.5126 124.909 69.4828 125.063C69.4001 125.466 70.1475 125.709 70.6257 125.449C70.8441 125.341 71.1499 125.316 71.2718 125.414C71.3937 125.513 71.3454 125.617 71.1339 125.665C70.7522 125.718 71.224 127.093 71.6954 127.208C71.8242 127.247 72.3118 127.642 72.7235 128.065C73.2571 128.587 73.6021 128.748 73.8273 128.58C74.0434 128.387 74.1561 128.46 74.2091 128.842C74.2598 129.138 74.8049 129.771 75.4052 130.24C76.0054 130.708 77.2957 131.814 78.2985 132.681C79.3105 133.572 80.3294 134.405 80.5961 134.508C80.8721 134.637 81.1435 134.91 81.2079 135.087C81.2724 135.264 81.5483 135.393 81.8288 135.377C82.1231 135.346 82.1515 135.45 81.914 135.689C81.5071 136.067 76.3061 136.413 75.1655 136.112C74.8482 136.027 74.4412 136.089 74.2917 136.23C74.0918 136.388 73.9285 136.333 73.8272 136.055C73.7444 135.827 73.5972 135.738 73.4984 135.86C73.4087 136.007 72.8707 135.945 72.3371 135.738C71.8036 135.531 71.2219 135.428 71.0701 135.483C70.9184 135.539 70.7551 135.483 70.6999 135.332C70.6539 135.205 70.0192 135.035 69.2857 134.987C68.543 134.914 67.6531 134.751 67.3173 134.615C66.5331 134.271 65.112 133.986 64.1325 133.97C63.6726 133.966 63.2771 133.823 63.2219 133.672C63.1574 133.494 62.2905 133.237 61.2649 133.095C60.2646 132.943 59.3034 132.663 59.1539 132.489C59.0044 132.314 58.671 132.263 58.3928 132.365C58.1399 132.457 57.926 132.42 57.9559 132.266C57.9857 132.112 57.4844 131.836 56.806 131.625C55.2952 131.172 49.9576 128.704 49.8472 128.401C49.8012 128.274 49.2883 127.888 48.6927 127.589C48.1223 127.281 47.575 126.879 47.5105 126.702C47.4461 126.525 47.2805 126.385 47.1356 126.38C46.8206 126.38 44.8105 124.792 44.6908 124.463C44.6356 124.312 44.0813 123.654 43.4511 123.024C42.8208 122.395 42.1147 121.477 41.8731 121.05C41.6476 120.588 41.2842 120.061 41.0657 119.854C40.8725 119.638 40.4814 119.036 40.2536 118.489C39.7727 117.403 39.4921 117.105 39.2783 117.383C39.2301 117.486 39.0645 117.346 38.9632 117.068C38.8712 116.815 38.9148 116.541 39.0665 116.486C39.193 116.44 39.1309 116.348 38.8825 116.295C38.5054 116.204 38.4065 116.01 38.3671 115.194C38.3024 114.072 37.8446 113.208 37.3894 113.373C37.2376 113.429 37.2422 113.284 37.3893 113.058C37.5364 112.833 37.557 112.654 37.3777 112.633C37.2075 112.638 36.9452 112.074 36.7472 111.373C36.4917 110.435 36.5124 110.256 36.8022 110.58C37.1357 110.945 37.1518 110.911 36.9309 110.304C36.8181 109.915 36.6065 109.649 36.5053 109.685C36.3789 109.731 36.1465 109.329 36.0038 108.78C35.8082 108.164 35.8494 107.805 36.0702 107.782C36.3415 107.74 36.3231 107.69 35.9689 107.504C35.0168 106.934 34.5079 104.512 35.437 104.862C35.575 104.926 35.5474 104.85 35.3818 104.71C35.2162 104.57 35.1471 104.223 35.2505 103.956C35.3929 103.56 35.3653 103.484 35.0894 103.671C34.5791 104 34.4062 102.659 34.8544 101.923C35.2129 101.335 35.2198 101.275 34.7047 101.119C34.1896 100.962 34.1619 100.886 34.2789 99.8701C34.3569 99.2976 34.2854 98.5503 34.1497 98.256C34.0047 97.9364 33.9839 97.4858 34.0965 97.2443C34.2091 97.0028 34.2113 96.7729 34.0986 96.6993C33.9699 96.6603 33.9928 96.566 34.1446 96.5108C34.271 96.4648 34.1789 95.8969 33.8798 95.2324C33.6151 94.5841 33.4517 93.8989 33.5068 93.7356C33.5528 93.5471 33.5181 92.901 33.4075 92.2825C33.2878 91.6387 33.3336 91.1351 33.4946 91.1052C33.6808 91.066 33.752 90.8682 33.7037 90.6567C33.4873 89.9049 33.464 88.7391 33.6916 88.6563C33.818 88.6102 33.8663 88.5068 33.795 88.3895C33.7076 88.3068 33.7557 87.8883 33.8798 87.4422C34.0199 86.9615 34.1348 86.8051 34.2177 87.0328C34.3373 87.3615 34.3879 87.3431 34.4545 86.9752C34.5234 86.6924 34.4037 86.3636 34.1599 86.1659C33.8977 85.9177 33.8839 85.7222 34.1 85.529C34.2747 85.3795 34.332 84.9863 34.2124 84.6575C34.0927 84.3288 34.1109 83.7493 34.2534 83.3538C34.3797 82.9927 34.5842 82.3741 34.6853 82.0223C34.7771 81.6452 34.9978 81.3071 35.1748 81.2427C35.3518 81.1782 35.4668 81.0218 35.4207 80.8954C35.2827 80.516 36.1283 78.7476 37.0155 77.5654C37.4591 76.9744 37.7832 76.3696 37.7371 76.2431C37.6911 76.1166 37.8083 76.0453 37.9624 76.0752C38.1418 76.0958 38.282 75.9302 38.2842 75.7003C38.2772 75.445 38.4404 75.1852 38.6427 75.1115C39.0727 74.955 38.9875 74.6424 38.4264 74.3597C38.0561 74.2081 38.1573 74.1712 38.8218 74.1871C39.5714 74.2007 39.6128 74.157 39.3114 73.7225C39.1343 73.4719 39.0584 73.1845 39.1572 73.0626C39.2307 72.95 39.4469 73.0718 39.624 73.3223C40.0496 73.9407 40.5462 73.7314 40.2977 73.0485C40.1412 72.6186 40.24 72.4967 40.7735 72.3885C41.1551 72.3355 41.4908 72.156 41.5298 72.0272C41.5597 71.8732 41.8263 71.6615 42.1298 71.5511C42.5597 71.3946 42.5919 71.3256 42.2493 71.2498C42.001 71.197 41.6538 71.2661 41.4446 71.3995C41.2446 71.5582 41.2836 71.4295 41.548 71.1328C41.9203 70.7395 42.1733 70.6474 42.6102 70.7462C43.0724 70.8357 43.3666 70.7 43.9229 70.1824C44.3298 69.8052 44.7827 69.5545 44.9207 69.6188C45.084 69.6739 45.0564 69.5981 44.8908 69.4579C44.7252 69.3176 44.5044 69.3407 44.3803 69.4718C44.2654 69.6282 44.1619 69.5799 44.1641 69.35C44.1663 69.1201 44.3134 68.8947 44.5158 68.821C44.7089 68.7221 45.1342 68.3955 45.4399 68.0551C45.895 67.5744 46.1732 67.4731 46.6354 67.5627C47.2862 67.6981 49.2335 66.9894 49.1644 66.6422C49.1529 66.5318 49.1045 66.3203 49.0838 66.1846C48.9664 65.6259 49.2928 65.4212 49.5942 65.8556C49.8426 66.2235 50.1071 66.2418 50.7646 66.0025C51.2106 65.8115 51.5118 65.616 51.4589 65.5493C51.3807 65.4918 51.875 65.1974 52.5992 64.9051C54.4178 64.1573 54.9718 63.8697 55.0752 63.603C55.1396 63.465 54.8085 63.4996 54.3187 63.6492C53.6106 63.9069 53.5416 63.8747 53.8818 63.5504C54.5623 62.9018 54.9692 62.8396 55.289 63.3247ZM44.0671 67.6669C44.1959 68.0209 44.1063 68.1681 43.6901 68.2051C43.3843 68.2304 43.0923 68.1362 43.0462 68.0098C43.0002 67.8833 43.0829 67.7959 43.2462 67.8511C43.4003 67.8809 43.5589 67.7659 43.6049 67.5773C43.6944 67.1151 43.8738 67.1358 44.0671 67.6669ZM65.6787 59.3713C65.7063 59.4472 65.6511 59.6104 65.527 59.7415C65.4282 59.8634 65.2833 59.8589 65.2373 59.7324C65.1821 59.5807 65.2625 59.4082 65.3889 59.3622C65.5407 59.3069 65.6603 59.3207 65.6787 59.3713ZM48.3022 66.555C48.4424 66.3894 48.4861 66.4308 48.4401 66.6194C48.3276 67.1759 47.9115 67.2128 47.7527 66.6978C47.6606 66.4449 47.7181 66.3667 47.8676 66.5414C47.9734 66.6747 48.2033 66.6769 48.3022 66.555ZM64.1959 60.5697C64.0373 60.6847 63.7338 60.7952 63.5637 60.7998C63.359 60.7884 63.4671 60.6918 63.8211 60.5629C64.1752 60.4341 64.32 60.4386 64.1959 60.5697ZM42.9958 68.6582C43.0419 68.7847 42.9867 68.9479 42.835 69.0032C42.7085 69.0492 42.5361 68.9688 42.49 68.8423C42.4348 68.6906 42.5244 68.5434 42.6509 68.4974C42.8026 68.4421 42.9406 68.5065 42.9958 68.6582ZM65.5525 60.3624C65.3939 60.4774 65.0904 60.5878 64.9202 60.5925C64.7156 60.5811 64.8236 60.4844 65.1777 60.3556C65.5318 60.2267 65.6766 60.2313 65.5525 60.3624ZM67.0931 60.3458C67.0448 60.4493 66.8264 60.5574 66.6217 60.546C66.3918 60.5438 66.44 60.4403 66.7182 60.339C66.9872 60.2125 67.1666 60.2331 67.0931 60.3458ZM69.875 59.3333C69.8267 59.4367 69.6083 59.5449 69.4037 59.5335C69.1737 59.5312 69.222 59.4277 69.5002 59.3265C69.7692 59.1999 69.9485 59.2206 69.875 59.3333ZM43.8146 69.334C43.833 69.3846 43.6928 69.5502 43.5273 69.725C43.3526 69.8745 43.1572 69.8883 43.1111 69.7619C43.0559 69.6101 43.1961 69.4445 43.3984 69.3709C43.6008 69.2973 43.7962 69.2834 43.8146 69.334ZM40.1548 71.869C40.1732 71.9196 40.0146 72.0346 39.8122 72.1082C39.6099 72.1819 39.3961 72.1451 39.3408 71.9934C39.2948 71.8669 39.4534 71.7519 39.6834 71.7541C39.9225 71.7817 40.1364 71.8184 40.1548 71.869ZM74.021 60.2587C74.0671 60.3851 74.0027 60.5231 73.9015 60.5599C73.7751 60.606 73.6095 60.4658 73.5359 60.2634C73.4622 60.0611 73.5266 59.9231 73.6806 59.953C73.8094 59.992 73.9658 60.1069 74.021 60.2587ZM92.0182 67.9999C92.0642 68.1264 92.0596 68.2713 92.0091 68.2897C91.9332 68.3173 91.7607 68.2369 91.6388 68.138C91.5077 68.0139 91.5215 67.8943 91.6479 67.8483C91.7997 67.7931 91.9629 67.8482 92.0182 67.9999ZM70.7188 90.2158C71.1696 90.825 71.7746 91.7791 72.053 92.3079C73.0561 94.1195 75.7461 101.274 75.8614 102.378C75.9122 102.99 76.009 103.728 76.0689 104.05C76.1978 104.719 75.9751 105.917 75.7222 106.009C75.5958 106.055 75.566 106.209 75.6212 106.361C75.6764 106.512 75.8719 106.498 76.0971 106.331C76.3301 106.131 76.3638 106.224 76.1984 106.609C75.8882 107.409 74.8307 107.966 75.0995 107.209C75.2419 106.814 75.3431 106.777 75.5869 106.974C75.9779 107.262 75.9456 107.016 75.5154 106.542C75.313 106.301 75.1429 106.306 74.9958 106.531C74.874 106.747 74.6211 106.839 74.3475 106.795C74.0048 106.72 73.9772 106.644 74.2048 106.561C74.4577 106.469 74.3818 106.182 73.9608 105.418C73.6226 104.883 73.243 104.076 73.0773 103.62C72.8955 103.2 72.7092 102.924 72.6356 103.037C72.3713 103.333 72.2699 102.74 72.4951 102.257C72.8329 101.533 72.4393 99.9003 71.8321 99.4912C71.2434 99.1326 70.9857 98.7395 71.3881 98.8222C71.5077 98.8359 71.3811 98.2519 71.1049 97.4932C70.8035 96.7437 70.6584 96.1091 70.7596 96.0723C70.8608 96.0355 70.8538 95.7803 70.7272 95.5113C70.6007 95.2423 70.4167 95.0515 70.3155 95.0883C70.2143 95.1251 70.0488 94.9849 69.9751 94.7826C69.9015 94.5803 69.998 94.3733 70.1842 94.3342C70.6004 94.2973 70.0321 93.1293 69.5101 93.0329C69.2526 92.9548 69.1881 92.7778 69.303 92.3064C69.3695 91.9385 69.2797 91.4556 69.1026 91.205C68.8818 90.9131 68.8771 90.7429 69.1553 90.6417C69.6105 90.476 69.5852 90.1702 69.093 89.9197C68.9206 89.8393 68.7135 89.4277 68.6421 88.9955L68.5269 88.2068L69.203 88.6481C69.5756 88.8848 70.2587 89.5813 70.7188 90.2158ZM113.698 81.5322C113.65 81.6357 113.42 81.6335 113.179 81.5209C112.859 81.3508 112.875 81.3163 113.284 81.3392C113.565 81.323 113.747 81.4288 113.698 81.5322ZM59.9064 103.316C59.9801 103.519 59.918 103.742 59.7663 103.797C59.6145 103.852 59.6284 104.047 59.7871 104.247C59.9895 104.489 59.9413 104.592 59.5941 104.661C59.3481 104.694 59.0882 104.531 59.0467 104.259C58.9868 103.937 58.8581 103.898 58.5661 104.119C58.2075 104.393 58.1983 104.368 58.4993 103.857C58.9475 103.121 59.7223 102.81 59.9064 103.316ZM61.1137 103.879C61.2356 103.978 61.2311 104.123 61.1046 104.169C60.9529 104.224 60.7804 104.144 60.7344 104.017C60.6792 103.866 60.6929 103.746 60.7435 103.728C60.8194 103.7 60.9826 103.755 61.1137 103.879ZM71.899 100.068C71.9174 100.119 71.7772 100.284 71.6117 100.459C71.4369 100.609 71.2415 100.623 71.1955 100.496C71.1403 100.344 71.2805 100.179 71.4828 100.105C71.6851 100.032 71.8806 100.018 71.899 100.068ZM85.7813 95.8747C85.9147 96.0839 86.1125 96.1551 86.2113 96.0333C86.8365 95.2329 88.4804 102.425 88.166 104.63C88.1224 104.904 88.1731 105.2 88.3019 105.239C88.4146 105.313 88.417 105.713 88.309 106.125C88.2103 106.561 88.2266 107.157 88.3278 107.435C88.4383 107.739 88.4798 108.325 88.4156 108.778C88.3766 109.222 88.4435 109.799 88.5861 110.033C88.7127 110.302 88.6875 110.942 88.4807 111.475C88.29 111.974 88.196 112.581 88.2696 112.784C88.3432 112.986 88.272 113.184 88.1203 113.239C87.9432 113.303 87.9939 113.6 88.2263 114.002C88.4402 114.354 88.5898 114.844 88.5117 115.101C88.4589 115.35 88.3762 115.437 88.3301 115.311C88.2496 115.168 88.1577 115.545 88.105 116.108C88.0133 116.801 88.0916 117.173 88.3146 117.235C88.5124 117.306 88.54 117.382 88.3376 117.456C88.1606 117.52 88.0733 117.753 88.147 117.955C88.2206 118.157 88.1839 118.371 88.0827 118.408C87.6781 118.555 87.5475 120.321 87.911 120.848C88.1939 121.231 88.187 121.291 87.8743 121.061C87.527 120.815 87.4764 120.834 87.6145 121.213C87.7065 121.466 87.6607 121.97 87.5343 122.331C87.3827 122.701 87.3 123.103 87.3115 123.214C87.3483 123.315 87.3301 123.894 87.2866 124.483C87.227 125.106 87.2801 125.803 87.3722 126.056C87.4734 126.334 87.4505 126.743 87.3035 126.969C87.0277 127.47 87.0648 128.516 87.3683 128.406C87.7223 128.277 87.764 129.178 87.4376 129.698C87.2491 129.967 87.2148 130.266 87.3711 130.381C87.5022 130.505 87.5162 131.015 87.3853 131.521C87.2291 132.036 87.1672 132.575 87.2224 132.726C87.3697 133.131 86.4316 133.386 85.921 133.085C85.6704 132.947 85.5554 132.789 85.6565 132.752C85.7577 132.715 85.5553 132.474 85.1988 132.203C84.8515 131.957 84.5088 131.566 84.4444 131.389C84.3707 131.187 84.0832 130.947 83.8165 130.844C83.5497 130.741 83.2438 130.451 83.1518 130.198C83.0505 129.92 82.7998 129.782 82.5975 129.856C82.3699 129.939 82.1353 129.766 81.988 129.362C81.8223 128.906 81.6751 128.817 81.4177 129.054C81.1349 129.3 81.1626 129.376 81.5052 129.451C81.8317 129.562 81.8409 129.587 81.5006 129.596C81.2293 129.638 81.0177 129.371 80.8657 128.796C80.6862 128.146 80.3803 127.856 79.5869 127.486C79.0258 127.203 78.4623 126.836 78.3887 126.633C78.1172 126.045 78.0298 125.962 77.1719 125.1C76.6912 124.645 75.9414 124.001 75.4653 123.716C75.0054 123.397 74.4994 122.951 74.3475 122.691C74.221 122.422 74.0186 122.181 73.9151 122.132C73.5357 121.955 72.687 121.119 72.5765 120.815C72.5121 120.638 72.174 120.418 71.8222 120.317C71.4703 120.215 71.0954 119.894 70.9758 119.565C70.8653 119.261 70.6537 118.995 70.4651 118.949C70.3111 118.919 70.1776 118.71 70.2051 118.471C70.205 118.156 70.1108 118.133 69.8441 118.344C69.5866 118.581 69.4648 118.482 69.3358 117.813C69.2 117.204 69.0504 117.029 68.7469 117.14C68.5193 117.223 68.3629 117.108 68.3812 116.843C68.3835 116.613 68.2685 116.455 68.142 116.501C68.0156 116.547 67.7557 116.384 67.5786 116.133C67.4015 115.882 67.0151 115.765 66.7622 115.857C66.484 115.958 66.0724 115.851 65.8194 115.628C65.5135 115.338 65.4583 115.186 65.6353 115.122C65.7618 115.076 65.925 115.131 65.9803 115.283C66.0263 115.409 66.1735 115.499 66.2999 115.453C66.5528 115.361 66.141 114.623 65.474 113.892C65.2463 113.659 64.7425 112.984 64.317 112.365C63.8753 111.781 63.4797 111.324 63.3785 111.361C63.2773 111.398 62.9875 111.073 62.7368 110.62C62.4607 110.177 62.049 109.754 61.7823 109.65C61.5155 109.547 61.1912 109.207 61.0715 108.878C60.8138 108.17 60.4068 108.232 60.2737 108.968C60.214 109.276 60.106 109.373 60.0415 109.196C59.9863 109.044 60.0758 108.582 60.2528 108.202C60.6227 107.409 60.5973 107.103 60.1813 107.455C60.0318 107.595 59.6547 107.503 59.3511 107.299C58.8636 106.904 58.8543 106.878 59.3786 107.06C59.8777 107.25 59.919 107.207 59.6407 106.678C59.4704 106.368 59.1967 106.009 59.0311 105.869C58.8747 105.754 58.8263 105.542 58.8999 105.43C59.1964 105.064 60.9461 104.599 61.0382 104.852C61.0842 104.978 61.2704 104.939 61.4704 104.78C61.7371 104.569 61.8314 104.592 61.8062 104.916C61.8039 105.146 61.9189 105.305 62.0707 105.249C62.2224 105.194 62.3535 105.318 62.3513 105.548C62.3491 105.778 62.5331 105.969 62.763 105.971C62.9929 105.973 63.2183 106.12 63.292 106.323C63.4577 106.778 64.4904 107.806 64.7433 107.713C64.8444 107.677 65.0032 107.877 65.1136 108.18C65.2149 108.458 65.3713 108.573 65.4954 108.442C65.6195 108.311 65.6816 108.403 65.6886 108.658C65.668 109.153 66.733 110.426 67.0365 110.316C67.1377 110.279 67.6138 110.879 68.0693 111.658C68.5501 112.428 69.0447 113.079 69.1987 113.109C69.3873 113.155 69.6634 113.598 69.8567 114.13C70.05 114.661 70.3352 115.13 70.5422 115.226C70.7147 115.307 71.0666 115.723 71.2829 116.159C71.4899 116.571 71.835 117.047 72.0764 117.159C72.3018 117.307 72.426 117.49 72.3778 117.594C72.3295 117.697 72.6171 118.251 73.0059 118.769C73.3785 119.32 73.7788 119.948 73.8777 120.141C73.9766 120.334 74.2849 120.709 74.5724 120.948C74.8691 121.212 75.0117 121.447 74.9105 121.484C74.6162 121.619 76.2145 122.155 76.5432 122.035C76.695 121.98 76.5707 121.481 76.1658 120.683C75.6711 119.718 75.5928 119.345 75.8387 118.998C76.2961 118.287 77.2411 118.287 77.8484 119.011C78.1474 119.36 78.2993 119.62 78.1452 119.59C77.7773 119.524 77.9616 120.66 78.4815 121.616C78.707 122.078 79.2223 123.179 79.6043 124.071C80.4119 125.897 82.0381 127.768 82.6198 127.556C82.8221 127.483 83.0452 127.545 83.1004 127.696C83.1464 127.823 83.0384 127.92 82.8245 127.883C82.6107 127.846 82.5946 127.881 82.7602 128.021C83.1259 128.317 83.7489 127.747 83.4406 127.372C83.2911 127.197 83.2865 127.027 83.4129 126.981C83.5141 126.944 83.5531 126.501 83.4885 126.009C83.2765 124.482 83.8555 122.925 84.9704 121.975C85.5451 121.508 86.1543 121.057 86.3313 120.993C86.4739 120.912 86.5704 120.705 86.506 120.528C86.4415 120.351 86.4989 119.958 86.6529 119.673C86.7724 119.372 86.7838 119.167 86.6321 119.222C86.4803 119.277 86.2894 119.146 86.2066 118.919C86.1329 118.717 86.2226 118.569 86.4019 118.59C86.625 118.652 86.5398 118.339 86.1096 117.551C85.661 116.712 85.585 116.424 85.8586 116.468C86.3553 116.573 86.1667 116.213 85.5021 115.882C85.0007 115.606 84.9823 115.555 85.4076 115.229C85.6835 115.042 85.8006 114.656 85.7086 114.403C85.6165 114.15 85.6325 113.801 85.7314 113.679C85.8555 113.548 85.8462 113.207 85.7542 112.954C85.6621 112.702 85.7126 112.368 85.8712 112.253C85.9953 112.122 85.9171 112.065 85.6389 112.166C85.1745 112.306 85.1653 112.281 85.4204 111.644C85.572 111.274 85.565 111.018 85.4133 111.074C85.211 111.147 85.1212 110.979 85.1418 110.485C85.1486 110.11 85.045 109.747 84.9415 109.699C84.8127 109.66 84.9368 109.529 85.1645 109.446C85.5944 109.289 85.576 109.239 84.9849 108.795C84.4376 108.393 84.3639 108.191 84.4166 107.627C84.4832 107.259 84.5084 106.935 84.4647 106.894C84.2048 106.731 84.2622 106.337 84.545 106.406C84.7244 106.427 84.5749 106.252 84.2092 105.956C83.8182 105.668 83.6411 105.418 83.8181 105.353C84.1975 105.215 83.7764 104.137 83.2497 103.87C82.9646 103.716 82.9209 103.675 83.1347 103.712C83.3739 103.739 83.406 103.355 83.2494 102.61C82.6392 99.9111 82.5609 99.2236 82.7379 99.1591C82.8391 99.1223 82.9056 98.7544 82.8526 98.3727C82.735 97.184 83.5279 95.9789 84.6017 95.7026C85.2362 95.5576 85.6295 95.6149 85.7813 95.8747ZM58.9102 109.235C58.9655 109.387 58.9287 109.601 58.8046 109.732C58.7058 109.854 58.5425 109.799 58.4689 109.596C58.386 109.369 58.448 109.146 58.5745 109.1C58.7262 109.044 58.8642 109.109 58.9102 109.235ZM59.6922 109.81C59.7382 109.936 59.9337 110.237 60.127 110.453C60.4007 110.812 60.3754 110.821 59.7545 110.532C59.0646 110.21 58.9012 109.84 59.3817 109.665C59.5082 109.619 59.6462 109.683 59.6922 109.81ZM58.6442 111.652C58.6902 111.778 58.6351 111.942 58.4834 111.997C58.3569 112.043 58.1844 111.962 58.1384 111.836C58.0832 111.684 58.1728 111.537 58.2993 111.491C58.451 111.436 58.589 111.5 58.6442 111.652ZM60.749 114.523C60.6754 114.636 60.8847 114.817 61.2113 114.928C61.5125 115.047 61.5999 115.13 61.4114 115.084C61.2067 115.072 61.0734 115.178 61.1286 115.33C61.1839 115.482 61.1011 115.569 60.9217 115.549C60.4848 115.45 60.1787 114.53 60.5581 114.392C60.7098 114.337 60.788 114.394 60.749 114.523ZM63.3219 114.274C63.3679 114.4 63.1174 114.578 62.7794 114.672C62.0183 114.863 61.9769 114.592 62.7172 114.265C63.0114 114.129 63.2667 114.122 63.3219 114.274ZM94.2431 103.936C94.0339 104.385 93.6131 104.251 93.728 103.78C93.7486 103.601 93.9325 103.476 94.1119 103.497C94.3004 103.543 94.3557 103.695 94.2431 103.936ZM64.0603 115.122C64.1822 115.221 64.127 115.384 63.9247 115.458C63.6971 115.541 63.474 115.479 63.428 115.352C63.3728 115.201 63.4371 115.063 63.5635 115.017C63.7153 114.961 63.9292 114.998 64.0603 115.122ZM64.3805 117.182C64.3989 117.233 64.2403 117.348 64.0379 117.422C63.8356 117.495 63.6218 117.459 63.5665 117.307C63.5205 117.18 63.6791 117.065 63.9091 117.068C64.1482 117.095 64.3621 117.132 64.3805 117.182ZM64.6204 119.73C64.5468 119.843 64.3422 119.831 64.1421 119.675C63.5418 119.206 63.5601 118.942 64.1557 119.24C64.4662 119.385 64.6594 119.601 64.6204 119.73ZM67.1314 120.019C67.1774 120.145 67.0969 120.318 66.9452 120.373C66.8187 120.419 66.7222 120.311 66.752 120.157C66.7726 119.978 66.8623 119.831 66.9381 119.803C66.9887 119.784 67.0761 119.867 67.1314 120.019ZM67.9823 120.626C67.8697 120.867 67.7525 120.939 67.6972 120.787C67.5684 120.433 67.7614 120.019 68.0028 120.131C68.081 120.189 68.0788 120.419 67.9823 120.626ZM67.318 121.555C67.2698 121.658 67.0514 121.767 66.8467 121.755C66.6168 121.753 66.665 121.649 66.9432 121.548C67.2122 121.422 67.3916 121.442 67.318 121.555ZM70.6315 121.924C70.6293 122.154 70.4821 122.064 70.2613 121.772C70.0037 121.379 69.9921 121.269 70.2681 121.398C70.4406 121.478 70.6177 121.729 70.6315 121.924ZM71.7078 122.363C71.7538 122.489 71.6987 122.653 71.5469 122.708C71.4205 122.754 71.248 122.674 71.202 122.547C71.1468 122.395 71.2364 122.248 71.3628 122.202C71.5146 122.147 71.6526 122.211 71.7078 122.363ZM73.2254 122.441C73.1128 122.682 72.9955 122.754 72.9403 122.602C72.8115 122.248 73.0044 121.834 73.2459 121.946C73.3241 122.004 73.3219 122.234 73.2254 122.441ZM69.7722 124.127C69.9679 124.743 69.961 124.803 69.5861 124.481C69.3768 124.3 69.2066 123.989 69.2364 123.835C69.3328 123.313 69.5145 123.419 69.7722 124.127ZM72.1058 123.221C72.1128 123.476 72.0324 123.648 71.9542 123.591C71.8507 123.543 71.8208 123.382 71.8667 123.193C71.947 122.706 72.1264 122.726 72.1058 123.221ZM73.9481 124.899C73.7873 125.244 73.4216 124.947 73.5295 124.535C73.58 124.202 73.6306 124.184 73.833 124.425C73.948 124.584 73.9964 124.795 73.9481 124.899ZM72.9992 127.249C72.9993 127.564 73.0521 127.63 73.2084 127.43C73.3739 127.256 73.512 127.32 73.6132 127.598C73.7605 128.003 73.7352 128.012 73.2177 127.771C72.9073 127.626 72.6957 127.359 72.7163 127.18C72.838 126.649 73.0013 126.704 72.9992 127.249ZM76.7221 128.271C76.7682 128.397 76.7636 128.542 76.713 128.561C76.6372 128.588 76.4647 128.508 76.3428 128.409C76.2117 128.285 76.2254 128.165 76.3519 128.119C76.5036 128.064 76.6669 128.119 76.7221 128.271ZM78.3064 128.296C78.7411 128.624 78.4744 128.836 77.9639 128.535C77.6787 128.381 77.6235 128.229 77.7752 128.174C77.927 128.119 78.1753 128.172 78.3064 128.296ZM76.8262 130.209C77.0745 130.262 77.1551 130.405 77.0401 130.561C76.9413 130.683 76.6516 130.674 76.4009 130.536C75.8996 130.26 76.1409 130.058 76.8262 130.209ZM78.1853 130.717C78.2037 130.768 78.0635 130.933 77.898 131.108C77.7233 131.257 77.5278 131.271 77.4818 131.145C77.4266 130.993 77.5668 130.828 77.7691 130.754C77.9714 130.68 78.1669 130.666 78.1853 130.717ZM78.4246 131.375C78.4706 131.501 78.3902 131.673 78.2384 131.729C78.112 131.775 78.0154 131.667 78.0452 131.513C78.0659 131.333 78.1555 131.186 78.2314 131.158C78.282 131.14 78.3694 131.223 78.4246 131.375ZM58.7397 139.141C58.6892 139.474 58.1511 139.412 58.0315 139.083C57.9855 138.957 58.1441 138.842 58.374 138.844C58.6132 138.872 58.7695 138.987 58.7397 139.141ZM104.452 124.823C104.339 125.064 104.222 125.136 104.166 124.984C104.038 124.63 104.231 124.216 104.472 124.328C104.55 124.386 104.548 124.616 104.452 124.823ZM68.057 139.874C68.1305 139.761 68.319 139.807 68.4686 139.982C68.6618 140.198 68.579 140.285 68.1973 140.338C67.9168 140.354 67.5972 140.184 67.5396 139.947C67.4476 139.695 67.4889 139.651 67.6637 139.816C67.7695 139.95 67.9581 139.996 68.057 139.874ZM85.2452 133.589C85.3464 133.867 84.9027 134.143 84.6681 133.971C84.5463 133.872 84.6014 133.709 84.8037 133.635C85.0313 133.552 85.2268 133.539 85.2452 133.589ZM72.9202 140.252C73.0421 140.351 73.0376 140.495 72.9111 140.541C72.7594 140.597 72.5869 140.516 72.5409 140.39C72.4856 140.238 72.4994 140.118 72.55 140.1C72.6258 140.072 72.7891 140.128 72.9202 140.252ZM96.6715 136.104C96.8647 136.32 97.143 136.533 97.297 136.563C97.8374 136.71 97.6054 137.568 96.9732 137.798C96.6444 137.918 96.3548 138.224 96.3618 138.479C96.3595 138.709 96.1366 138.962 95.8905 138.994C95.6284 139.061 95.302 139.266 95.1365 139.44C94.6676 140.041 93.4697 140.448 93.3317 140.069C93.2672 139.892 93.4396 139.657 93.6925 139.565C93.9707 139.464 94.3017 139.114 94.4626 138.769C94.6326 138.45 94.7958 138.19 94.8648 138.222C94.9338 138.254 95.0602 138.208 95.1338 138.095C95.2165 138.008 95.1406 138.035 94.9981 138.116C94.5889 138.408 94.4002 137.732 94.7173 137.187C95.0184 136.677 95.5817 136.729 95.5635 137.309C95.5706 137.879 95.9407 137.716 96.3889 136.98C96.5682 136.685 96.6233 136.522 96.4739 136.662C96.359 136.819 96.113 136.851 95.9819 136.727C95.8255 136.612 95.8139 136.502 95.9496 136.481C96.483 136.373 96.614 136.182 96.1771 136.083C95.8598 135.998 95.8068 135.931 96.0345 135.849C96.2115 135.784 96.5128 135.904 96.6715 136.104ZM81.3939 141.893C81.6446 142.031 81.7343 142.199 81.5825 142.254C81.4561 142.3 81.1387 142.215 80.8881 142.077C80.6374 141.939 80.5477 141.772 80.6994 141.716C80.8259 141.67 81.1432 141.755 81.3939 141.893ZM84.399 141.573C84.5577 141.458 84.8474 141.467 85.0383 141.598C85.5604 142.009 85.5834 142.23 85.1029 142.405C84.7235 142.543 84.6799 142.502 84.935 142.18C85.0913 141.98 85.1211 141.825 84.9602 141.855C84.8245 141.876 84.5877 141.934 84.4176 141.938C84.2819 141.959 83.9347 142.028 83.7071 142.111C83.445 142.178 83.1875 142.1 83.1414 141.973C83.077 141.796 83.2287 141.741 83.5782 141.757C83.8519 141.801 84.2243 141.722 84.399 141.573ZM87.0616 141.177C87.0594 141.406 86.9559 141.358 86.8546 141.08C86.7281 140.811 86.7487 140.632 86.8614 140.705C86.9649 140.753 87.073 140.972 87.0616 141.177ZM82.9418 143.392C83.1487 143.174 83.2682 143.187 83.2154 143.436C83.1626 143.684 83.3742 143.636 83.9443 143.314C84.4386 143.019 84.6409 142.945 84.4938 143.171C84.2961 143.415 84.5192 143.477 85.2733 143.345C85.8505 143.278 86.4505 143.117 86.5931 143.037C87.046 142.786 88.0992 143.004 88.228 143.358C88.4213 143.889 87.4696 144.579 86.2326 144.801C85.5888 144.92 84.906 145.169 84.7244 145.378C84.0049 146.156 82.14 145.517 81.7073 144.328C81.4864 143.721 81.8886 143.174 82.298 143.512C82.4452 143.601 82.7165 143.56 82.9418 143.392ZM86.9631 142.243C87.0551 142.496 86.1354 142.802 85.7905 142.642C85.6525 142.577 85.8525 142.419 86.2066 142.29C86.5859 142.152 86.9262 142.142 86.9631 142.243ZM98.8784 142.403C99.4785 142.242 99.8075 142.752 100.247 144.511L100.556 145.831L98.9855 146.947C98.1166 147.549 97.5281 148.136 97.65 148.235C97.7811 148.359 97.765 148.393 97.6109 148.364C97.4569 148.334 96.5832 148.766 95.6958 149.318C94.7832 149.88 93.39 150.616 92.5646 150.945C91.7484 151.299 90.9506 151.704 90.8196 151.895C90.7047 152.051 90.461 152.169 90.3069 152.139C90.1437 152.084 89.3574 152.284 88.5734 152.569C87.502 152.931 86.9409 152.963 86.5431 152.736C86.2234 152.566 85.9152 152.506 85.8325 152.593C85.7589 152.706 85.6255 152.497 85.5219 152.133C85.3931 151.779 85.4689 151.437 85.6459 151.372C85.7976 151.317 85.9034 151.135 85.8573 151.009C85.8021 150.857 85.6135 150.811 85.4526 150.841C85.225 150.924 85.2066 150.873 85.4226 150.68C85.6548 150.453 85.6364 150.402 85.2938 150.326C84.9856 150.267 85.0845 150.145 85.6156 149.951C86.1467 149.758 86.3008 149.788 86.1031 150.032C85.6342 150.632 87.0162 151.045 88.0692 150.633C88.5911 150.415 88.9728 150.362 88.9269 150.55C88.8442 150.953 89.8948 150.141 90.1935 149.545C90.3544 149.2 90.3175 149.099 90.1152 149.173C89.9382 149.237 89.7381 149.081 89.6553 148.853C89.5172 148.474 89.577 148.481 90.1381 148.763C90.6647 149.03 90.736 149.147 90.5591 149.527C90.2696 150.148 90.357 150.23 90.9387 150.019C91.2169 149.917 91.5892 149.524 91.7823 149.11C92.0396 148.558 92.1982 148.443 92.5846 148.56C92.826 148.673 93.2238 148.586 93.4146 148.402C93.7801 148.068 93.7456 148.052 93.2259 148.041L92.6373 147.997L93.1431 147.813C93.5638 147.631 93.5707 147.571 93.1591 147.463C92.7728 147.346 92.7635 147.321 93.1889 147.309C94.7203 147.268 95.0491 147.148 94.7592 146.824C94.6097 146.649 94.5683 146.378 94.6832 146.221C94.8326 146.081 94.9798 146.171 95.0903 146.474C95.3112 147.081 95.5319 147.058 95.9801 146.322C96.1938 146.044 96.5111 145.814 96.6812 145.809C96.8859 145.821 97.1433 145.584 97.2467 145.317C97.3409 145.025 97.5317 144.841 97.6858 144.871C98.0882 144.953 97.8443 144.441 97.2693 143.963C96.8346 143.634 96.8139 143.498 97.1242 143.013C97.3287 142.709 97.6713 142.47 97.9357 142.489C98.1749 142.516 98.6071 142.445 98.8784 142.403ZM96.8741 144.765C97.1316 144.843 97.1247 144.903 96.9224 144.977C96.7707 145.032 96.497 144.988 96.3752 144.89C96.2188 144.775 96.0072 144.823 95.8923 144.979C95.7521 145.145 95.7567 145 95.8669 144.674C96.0163 144.218 96.1082 144.156 96.3014 144.372C96.4256 144.556 96.6855 144.719 96.8741 144.765ZM95.2003 145.203C95.2739 145.405 95.2096 145.543 95.0302 145.522C94.8761 145.492 94.6853 145.361 94.63 145.21C94.584 145.083 94.6736 144.936 94.8001 144.89C94.9518 144.835 95.1174 144.975 95.2003 145.203ZM92.3496 147.128C92.3911 147.399 92.221 147.719 91.9359 147.88C91.6762 148.032 91.4555 148.37 91.4878 148.616C91.504 148.896 91.4258 148.839 91.2532 148.444C91.0622 147.998 91.138 147.655 91.469 147.305C92.1149 146.641 92.2506 146.62 92.3496 147.128ZM88.6482 149.077C88.4896 149.192 88.4689 149.371 88.6161 149.461C88.738 149.559 88.7748 149.661 88.699 149.688C88.6231 149.716 88.3632 149.553 88.1447 149.346C87.7606 148.999 87.7767 148.964 88.3032 148.916C88.6596 148.872 88.7976 148.936 88.6482 149.077ZM87.5194 149.831C87.5448 150.137 87.4506 150.429 87.3242 150.475C87.1724 150.53 87.0666 150.397 87.0688 150.167C87.0711 149.937 86.9377 149.728 86.733 149.716C86.5376 149.73 86.6364 149.608 86.9399 149.498C87.3353 149.325 87.4733 149.39 87.5194 149.831ZM101.281 150.894C101.438 151.324 101.38 151.402 101.137 151.204C100.937 151.048 100.776 151.078 100.73 151.267C100.654 151.609 100.792 151.674 101.643 151.65C102.077 151.664 102.1 151.57 101.836 151.236C101.659 150.986 101.608 150.689 101.723 150.533C102.035 150.133 102.132 150.241 102.767 151.356L103.305 152.363L102.409 152.89C101.88 153.168 101.413 153.538 101.298 153.695C101.11 153.964 100.802 154.219 99.2984 155.282C98.9306 155.53 97.8363 156.301 96.8754 156.966C95.1213 158.206 93.1005 159.342 91.3141 160.021C90.337 160.405 90.3117 160.414 89.5479 159.26C89.1224 158.642 88.8233 157.977 88.8692 157.789C88.9496 157.616 88.8092 157.152 88.6206 156.791C88.4135 156.38 88.3812 156.134 88.5606 156.154C88.7147 156.184 88.8641 156.044 88.8847 155.864C88.8962 155.66 89.048 155.919 89.2068 156.434C89.3403 156.959 89.6003 157.437 89.7383 157.501C89.8763 157.566 89.9337 157.487 89.8785 157.336C89.8141 157.159 90.0209 156.94 90.3497 156.82C90.8049 156.655 90.8118 156.595 90.4347 156.503C90.1864 156.45 90.0898 156.342 90.2162 156.296C90.3679 156.241 90.2805 156.158 90.0322 156.105C89.7241 156.046 89.77 155.857 90.2412 155.342L90.8871 154.677L91.0437 155.422C91.2256 156.158 91.7292 156.204 91.9911 155.507C92.0554 155.369 91.9956 155.362 91.8393 155.562C91.6577 155.772 91.5727 155.774 91.6347 155.551C91.7862 154.866 92.1818 155.008 92.4856 155.843C92.6512 156.298 93.0492 156.84 93.378 157.036C93.6724 157.215 93.8357 157.27 93.6954 157.121C93.3458 156.79 93.7503 156.327 94.2401 156.493C94.8587 156.697 96.0957 156.476 96.6888 156.06C97.082 155.802 97.1761 155.51 97.0105 155.055L96.7711 154.397L96.5115 155.179C96.2841 155.892 96.0887 155.906 95.9597 155.237C95.939 155.101 95.7275 155.15 95.4516 155.336C95.201 155.513 94.9136 155.589 94.7917 155.49C94.679 155.417 94.2054 155.532 93.7433 155.757C93.272 155.957 92.8489 156.054 92.7937 155.902C92.7477 155.776 92.7959 155.672 92.9223 155.626C93.0327 155.615 93.1592 155.569 93.2258 155.516C93.2925 155.463 94.0834 155.118 94.9754 154.736C95.8928 154.345 96.7572 153.887 96.8882 153.696C97.2836 153.208 98.7481 152.589 98.8493 152.868C98.9046 153.019 98.5138 153.362 97.985 153.64C97.4654 153.944 97.1505 154.259 97.2724 154.358C97.4288 154.473 97.8932 154.333 98.3875 154.038C99.9876 153.083 100.316 152.964 100.399 153.191C100.519 153.52 101.107 153.249 101.333 152.766C101.606 152.179 100.465 151.563 100.107 152.152C99.9368 152.472 99.8425 152.449 99.686 152.019C99.5296 151.589 99.5939 151.451 100.019 151.439C100.3 151.423 100.617 151.193 100.711 150.901C100.957 150.239 101.042 150.236 101.281 150.894ZM104.748 156.878C105.126 157.915 105.372 158.828 105.315 158.906C105.094 159.244 103.563 160.231 103.616 159.983C103.646 159.829 103.432 159.792 103.154 159.893C102.875 159.994 102.696 160.289 102.728 160.535C102.791 160.942 102.765 160.951 102.188 160.703C101.696 160.452 101.535 160.482 101.307 160.88C101.112 161.209 100.884 161.292 100.372 161.221C100.013 161.179 99.445 161.272 99.1186 161.476C98.7829 161.656 98.2794 161.925 97.9507 162.045C97.6058 162.199 97.4656 162.364 97.6565 162.495C97.8313 162.661 97.7301 162.698 97.2771 162.633C96.9345 162.558 96.5896 162.397 96.5343 162.245C96.4515 162.018 96.5274 161.99 96.8033 162.119C97.3552 162.376 98.5874 161.355 98.2355 160.939C98.086 160.764 98.0813 160.594 98.2078 160.548C98.3595 160.492 98.5343 160.658 98.6172 160.886C98.746 161.24 98.8058 161.247 98.8816 160.904C98.9413 160.596 99.1183 160.531 99.5966 160.586C100.468 160.699 101.608 159.74 101.245 159.213C100.925 158.728 99.9364 159.002 100.121 159.508C100.185 159.685 100.111 159.798 99.9321 159.777C99.778 159.747 99.5595 159.54 99.4859 159.338C99.4122 159.136 99.4673 158.972 99.5961 159.011C99.7502 159.041 100.093 158.802 100.398 158.462C100.895 157.937 100.971 157.909 101.09 158.238C101.173 158.466 101.327 158.496 101.468 158.33C101.624 158.13 101.686 158.222 101.679 158.597C101.666 159.031 101.709 159.073 101.861 158.703C102.031 158.383 101.976 158.231 101.665 158.086C101.355 157.942 101.516 157.597 102.424 156.55C103.051 155.835 103.697 155.17 103.84 155.09C104.007 155 104.323 155.63 104.748 156.878ZM97.7596 161.284C97.8815 161.382 97.9022 161.518 97.7505 161.573C97.624 161.619 97.3757 161.567 97.2538 161.468C97.1227 161.344 97.1111 161.233 97.2629 161.178C97.3893 161.132 97.6285 161.159 97.7596 161.284ZM95.4767 162.487C95.8468 162.323 95.748 162.445 95.2308 162.834C94.5457 163.313 94.2583 163.389 93.9478 163.244C93.6282 163.074 93.6189 163.048 93.9179 163.083C94.1064 163.129 94.2398 163.023 94.1846 162.871C94.1293 162.719 94.2374 162.623 94.4857 162.676C94.6743 162.722 95.1318 162.641 95.4767 162.487ZM112.775 156.506C112.803 156.582 112.748 156.745 112.624 156.876C112.525 156.998 112.38 156.993 112.334 156.867C112.279 156.715 112.359 156.543 112.486 156.497C112.637 156.441 112.757 156.455 112.775 156.506ZM96.5707 168.561C96.6464 168.219 96.697 168.2 96.8259 168.555C96.9456 168.883 96.7893 169.083 96.3593 169.24C95.6512 169.498 95.4672 169.307 95.7889 168.617C95.9497 168.272 96.0348 168.27 96.2396 168.596C96.419 168.932 96.4949 168.904 96.5707 168.561ZM103.983 165.95C104.606 165.694 104.551 165.857 103.815 166.669C103.376 167.115 103.066 167.286 102.951 167.127C102.854 167.019 102.606 166.966 102.404 167.04C102.201 167.114 101.985 166.992 101.902 166.764C101.783 166.435 101.916 166.329 102.654 166.233C103.121 166.177 103.73 166.042 103.983 165.95ZM109.2 163.993C109.246 164.12 109.165 164.292 109.014 164.348C108.887 164.394 108.791 164.286 108.82 164.132C108.841 163.952 108.931 163.805 109.007 163.777C109.057 163.759 109.145 163.842 109.2 163.993ZM97.4399 168.904C97.4377 169.134 97.3342 169.085 97.233 168.807C97.1064 168.538 97.1271 168.359 97.2398 168.433C97.3432 168.481 97.4514 168.699 97.4399 168.904ZM101.649 166.856C101.668 166.907 101.537 167.098 101.337 167.256C101.162 167.406 101.052 167.417 101.072 167.238C101.132 166.93 101.576 166.654 101.649 166.856ZM101.006 168.236C101.034 168.312 100.979 168.475 100.854 168.606C100.756 168.728 100.611 168.724 100.565 168.597C100.509 168.445 100.59 168.273 100.716 168.227C100.868 168.172 100.988 168.185 101.006 168.236Z" fill="#DD8004"/>
</svg>
