<svg width="394" height="790" viewBox="0 0 394 790" fill="none" xmlns="http://www.w3.org/2000/svg">
<g clip-path="url(#clip0_152_121)">
<path d="M319.532 782.683C342.391 775.754 349.973 766.259 349.662 744.953C349.476 732.276 348.315 728.274 342.545 720.423C338.753 715.264 330.302 708.225 323.764 704.783C313.503 699.379 309.265 698.569 292.762 698.857L273.646 699.191L273.317 680.478L272.988 661.765L288.017 658.731C306.538 654.992 314.334 651.635 315.69 646.815C325.277 612.76 338.412 528.452 340.634 486.708L341.822 464.405L350.291 462.768C355.653 461.731 362.641 457.375 369.344 450.891C383.139 437.546 388.315 421.037 386.241 396.996C384.554 377.441 380.515 371 365.336 363.664C359.903 361.038 354.137 357.405 352.522 355.59C349.602 352.308 341.137 324.739 341.022 318.136C340.854 308.539 329.492 283.588 320.746 273.61C315.4 267.511 310.141 258.978 309.059 254.648C306.191 243.164 298.927 231.317 288.835 221.663C283.955 216.997 279.937 211.683 279.905 209.857C279.82 204.974 252.89 144.965 240.099 121.156C218.077 80.1655 195.258 55.1538 155.826 28.7859C127.077 9.56236 114.329 4.63028 94.2924 4.98002C84.4704 5.15147 76.2196 6.45 74.5229 8.09141C72.9212 9.64084 71.7027 16.1781 71.8152 22.6186C71.9898 32.6269 74.1063 37.6106 86.3799 56.9143C103.256 83.4574 103.825 87.9524 95.9622 132.612C90.2426 165.096 89.5066 167.202 79.7372 179.032C75.6028 184.038 70.6498 193.39 68.7305 199.813C65.1704 211.729 64.8615 243.895 68.2063 254.403C69.588 258.744 68.2659 262.564 62.7581 270.147C56.672 278.526 55.3707 282.874 54.7813 296.797C54.1064 312.74 53.6912 313.755 44.8366 321.112C32.7208 331.179 27.1287 345.598 28.8964 362.213C30.0924 373.455 29.6187 375.318 24.7804 378.396C21.7733 380.31 16.3922 387.697 12.8225 394.812C6.72884 406.959 6.42701 409.204 7.8828 431.56C9.83977 461.613 13.583 468.277 33.5052 477.178L47.7804 483.556L48.1184 502.923C48.5166 525.731 55.4935 581.637 61.0512 606.552C63.2028 616.197 64.3603 628.023 63.6235 632.831C61.0421 649.674 63.4241 652.473 85.5328 658.58C96.5018 661.61 107.549 664.053 110.081 664.009C122.105 663.799 124.788 669.005 121.446 686.063L120.131 692.779L102.916 692.171C81.2702 691.407 67.3415 696.299 55.7147 708.749C39.0864 726.554 38.2302 752.061 53.8159 765.316C73.1248 781.739 122.065 783.003 156.255 767.963C183.903 755.801 187.078 748.319 193.194 680.918C194.165 670.215 195.138 668.123 199.176 668.052C203.706 667.973 204.029 669.728 204.505 697.01C205.087 730.319 208.737 750.485 215.805 759.429C221.98 767.244 252.257 780.662 269.894 783.401C285.21 785.779 310.525 785.413 319.532 782.683ZM275.996 752.122C256.742 747.792 241.484 738.457 239.308 729.676C236.452 718.157 235.808 666.425 238.519 666.377C240.003 666.352 241.152 675.747 241.402 689.956C241.716 707.828 242.902 715.523 246.272 721.568L250.726 729.559L272.935 729.495C302.141 729.41 299.86 729.016 308.635 735.669C318.477 743.131 318.438 747.38 308.486 751.624C298.219 756.003 293.571 756.075 275.996 752.122ZM84.415 744.463C75.6711 740.515 76.5157 733.76 86.5804 727.142C93.263 722.747 97.0022 721.817 103.78 722.865C136.809 727.971 144.586 726.614 149.594 714.871C151.536 710.316 153.632 697.868 154.25 687.209C154.869 676.55 156.484 667.809 157.839 667.786C161.288 667.726 158.712 707.891 154.325 722.574C150.784 734.424 148.529 736.315 128.559 744.179C120.013 747.544 91.6447 747.726 84.415 744.463ZM128.442 634.683C116.358 633.039 105.624 631.224 104.589 630.65C97.9403 626.965 84.8179 561.316 81.1755 513.519L79.2457 488.195L94.183 488.704C114.586 489.401 119.397 486.545 119.175 473.867C119.079 468.363 117.595 462.859 115.877 461.637C114.159 460.414 105.474 458.875 96.5764 458.217C77.8211 456.83 48.0414 450.109 43.8321 446.312C42.2031 444.842 40.8104 436.717 40.6475 427.732C40.3913 413.622 41.0886 411.056 46.6382 405.682L52.9183 399.601L68.8242 404.335C82.1799 408.311 88.4843 408.825 108.147 407.541C128.019 406.245 136.204 404.343 162.218 394.981C206.678 378.979 219.192 376.24 249.843 375.8C285.194 375.292 323.305 379.359 329.34 384.283C331.899 386.371 335.698 388.05 337.783 388.014C344.414 387.898 354.734 396.93 354.839 402.941C354.98 411.008 349.424 422.675 342.507 428.839C338.193 432.683 332.266 434.586 320.718 435.835C302.906 437.762 298.745 440.928 298.945 452.396C299.033 457.424 300.82 460.989 304.375 463.228C309.3 466.329 309.572 467.841 308.218 484.615C305.939 512.848 294.549 592.02 290.355 608.779C288.271 617.106 285.322 624.857 283.801 626.004C278.57 629.95 249.012 634.621 217.023 636.557C177.318 638.96 156.655 638.523 128.442 634.683ZM245.429 627.245C253.478 619.458 253.966 615.414 248.511 601.7C244.078 590.553 244.598 588.964 253.418 586.734C265.5 583.677 281.158 575.31 282.473 571.207C284.306 565.483 281.481 560.015 275.887 558.462C273.269 557.735 264.136 559.91 255.458 563.327C225.927 574.954 187.198 580.634 165.13 576.574C154.936 574.698 137.399 566.888 125.735 559.028C114.635 551.549 106.491 551.634 102.932 559.267C100.591 564.286 101.038 565.894 106.128 570.782C121.152 585.209 150.181 596.889 177.08 599.332L191.827 600.671L198.149 612.498C209.662 634.037 231.399 640.817 245.429 627.245ZM222.162 609.608C216.27 603.555 214.017 595.342 218.229 595.269C220.15 595.235 223.538 599.325 225.759 604.358C230.032 614.045 228.565 616.186 222.162 609.608ZM161.845 554.869C173.741 544.145 173.628 520.05 161.599 502.259C157.548 496.268 155.063 494.94 148.129 495.061C137.282 495.25 129.944 504.494 128.248 520.108C125.192 548.226 145.689 569.433 161.845 554.869ZM265.983 550.757C276.858 540.237 277.591 510.62 267.27 498.788C256.786 486.769 242.021 494.726 234.771 516.304C230.071 530.29 231.471 540.862 239.194 549.716C245.611 557.072 258.921 557.589 265.983 550.757ZM81.2023 373.849C75.3057 371.305 68.2407 366.656 65.5021 363.516C60.9378 358.284 60.8183 357.252 64.068 351.132C70.6372 338.76 75.7202 338.275 90.2681 348.63C105.343 359.36 117.488 365.197 129.658 367.56L138.325 369.243L124.827 373.548C106.726 379.322 94.0916 379.409 81.2023 373.849ZM259.355 344.167C247.431 343.531 237.069 342.13 236.329 341.052C235.588 339.974 216.932 339.407 194.871 339.792C147.09 340.626 136.063 338.414 114.17 323.604C98.7087 313.145 85.598 298.834 88.0089 295.048C88.7312 293.914 94.573 297.4 100.991 302.794C113.802 313.564 131.247 324.575 142.052 328.712C157.352 334.569 175.88 329.453 175.705 319.418C175.643 315.89 177.319 315.781 195.309 318.135C206.129 319.551 228.644 321.153 245.343 321.695C284.311 322.961 292 324.722 301.598 334.584C312.801 346.093 311.886 347.805 295.245 346.466C287.43 345.837 271.279 344.803 259.355 344.167ZM210.953 288.798C200.073 287.586 185.36 284.109 178.255 281.07C167.046 276.275 164.309 273.699 157.556 261.589C153.276 253.913 149.727 244.918 149.669 241.6C149.49 231.321 142.991 225.435 132.033 225.626C113.844 225.944 110.831 241.4 123.267 270.596L128.198 282.172L118.242 272.359C106.705 260.987 97.8269 241.794 97.6616 227.869C97.5444 218.003 104.221 200.324 109.191 197.337C118.355 191.831 130.068 145.693 133.665 100.931C135.096 83.1239 130.132 58.2235 123.775 51.3144C116.945 43.8915 127.333 49.4754 145.071 62.7618C169.85 81.322 181.803 93.6575 196.902 116.25C209.46 135.039 236.231 188.96 234.049 191.07C231.463 193.572 212.395 179.901 204.082 169.584C199.311 163.664 193.424 153.149 190.999 146.218C185.236 129.747 183.365 127.909 172.557 128.098C160.227 128.313 157.621 131.661 157.888 146.947C158.069 157.287 159.99 163.362 167.121 176.136C179.175 197.729 196.219 211.443 230.399 227.049C260.533 240.807 269.575 247.283 255.526 245.046C209.376 237.695 199.259 231.958 170.297 196.719C164.371 189.509 161.868 188.221 154.043 188.358C142.13 188.566 138.931 191.899 139.14 203.887C139.334 214.975 147.611 226.364 171.669 248.644C187.223 263.049 196.601 266.603 236.592 273.245C265.837 278.102 279.597 282.28 285.721 288.16L290.967 293.197L260.85 292.099C244.285 291.495 221.832 290.009 210.953 288.798Z" fill="#DD8004"/>
<path d="M320.642 781.573C328.766 779.293 335.488 775.348 340.794 769.746C348.104 762.03 348.735 760.102 348.492 746.214C348.187 728.724 344.635 721.289 331.69 711.044C319.43 701.341 313.658 699.702 292.013 699.776L273.651 699.839L273.317 680.733L272.984 661.628L291.221 657.505C301.251 655.237 310.717 651.912 312.258 650.116C319.46 641.718 336.868 539.383 340.45 484.386C341.697 465.237 342.033 464.297 348.188 462.786C370.193 457.386 384.764 436.463 386.355 407.981C387.669 384.449 381.741 372.038 365.513 364.345C359.57 361.528 353.652 357.613 352.362 355.646C348.795 350.203 341.889 328.605 338.43 312.075C334.914 295.27 326.444 278.927 317.237 271.185C313.788 268.285 310.149 262.182 309.151 257.622C306.492 245.484 296.753 229.64 286.484 220.749C280.956 215.962 277.453 210.784 277.392 207.311C277.269 200.238 252.149 143.984 236.886 116.601C214.959 77.2617 195.652 56.5141 155.82 29.4871C126.753 9.76446 113.808 4.68996 93.4025 5.01804C73.133 5.34393 70.5222 7.74622 72.354 24.3848C73.3695 33.6092 76.9312 41.5753 87.4375 58.1206C100.407 78.5446 101.19 80.6356 101.157 94.7653C101.119 110.938 92.577 160.002 88.476 167.602C87.0946 170.162 82.8207 176.054 78.9784 180.695C66.9608 195.211 61.5329 230.991 68.2326 251.528C70.3436 258 69.5739 260.679 62.247 272.365C54.6012 284.559 53.9428 287.06 54.9856 299.95C56.0782 313.455 55.8058 314.312 49.2189 318.099C45.4165 320.284 39.3692 326.375 35.7803 331.633C30.2486 339.737 29.2749 343.736 29.386 357.897C29.5107 373.775 29.0814 375.069 20.7208 384.021C15.8829 389.202 10.7003 397.929 9.20388 403.416C5.78304 415.958 8.45347 449.99 13.7451 461.288C17.7838 469.911 28.9621 477.531 40.8279 479.75C47.6786 481.032 47.739 481.195 48.0546 499.275C48.4702 523.085 56.067 582.302 61.9923 607.92C64.564 619.038 65.7718 628.674 64.6762 629.332C63.5807 629.991 62.7552 634.592 62.8419 639.558C62.9617 646.422 64.3446 649.345 68.6069 651.744C75.6568 655.712 90.0974 659.807 107.667 662.82L121.28 665.155L121.52 678.888L121.76 692.621L106.122 692.071C86.6125 691.386 71.8954 695.394 60.4847 704.502C48.7141 713.898 44.2476 723.009 44.2093 737.703C44.1643 754.935 48.7808 763.236 62.3791 770.377C72.5459 775.716 76.9323 776.455 100.505 776.798C123.024 777.125 129.798 776.337 144.32 771.697C168.85 763.859 179.758 755.529 183.977 741.41C187.174 730.708 191.483 698.29 192.463 677.555C192.823 669.947 193.872 668.18 198.438 667.493C203.923 666.668 203.98 666.93 204.485 695.051C205.088 728.574 208.543 748.825 215.002 756.681C221.912 765.085 237.347 774.147 252.882 778.92C271.577 784.663 304.977 785.971 320.642 781.573ZM257.872 746.609C244.33 740.693 242.088 738.783 239.962 731.36C236.633 719.731 233.593 682.108 235.285 673.47C237.919 660.029 240.359 666.454 241.981 691.099C244.468 728.881 248.012 732.636 278.196 729.471C295.389 727.669 303.302 729.348 311.208 736.48C330.623 753.992 291.694 761.385 257.872 746.609ZM83.5023 744.871C74.7736 741.335 75.1638 735.516 84.6478 727.789C91.7679 721.989 93.5733 721.559 104.922 722.97C111.775 723.822 122.803 724.526 129.431 724.535C146.53 724.556 150.578 718.708 153.415 689.885C154.886 674.933 156.588 667.808 158.698 667.771C161.982 667.713 161.757 676.12 157.641 707.394C154.889 728.31 152.368 733.886 143.687 738.268C123.691 748.362 98.8455 751.088 83.5023 744.871ZM155.351 637.825C141.762 636.84 124.697 634.998 117.429 633.73C106.048 631.746 103.746 630.424 100.832 624.199C93.5913 608.734 83.4874 551.457 79.4327 502.891L78.1597 487.644L93.4597 488.523C114.242 489.717 119.401 486.813 119.178 474.046C118.963 461.708 115.691 458.743 102.543 458.972C89.1876 459.205 59.0259 453.849 49.8586 449.616C41.2457 445.639 39.6562 442.263 39.3967 427.392C39.18 414.978 44.6285 403.181 51.5941 400.983C53.8846 400.26 62.5177 401.666 70.7788 404.109C98.1758 412.208 121.766 409.051 174.473 390.234C210.048 377.534 237.233 372.535 261.78 374.181C300.288 376.762 327.29 379.79 327.32 381.529C327.338 382.541 332.624 385.441 339.068 387.973C352.574 393.28 354.619 395.494 354.838 405.041C355.241 422.668 339.299 436.387 317.973 436.766C310.774 436.894 304.996 438.359 302.618 440.66C297.183 445.918 298.075 456.977 304.393 462.677C309.255 467.062 309.63 469.12 308.471 485.082C306.416 513.383 294.412 596.094 289.999 612.355L285.942 627.308L269.969 630.73C236.883 637.818 192.858 640.543 155.351 637.825ZM245.429 627.245C253.664 619.278 254.093 613.335 247.39 600.134C242.358 590.225 242.708 587.941 249.28 587.788C256.269 587.626 278.436 576.278 281.05 571.524C283.035 567.915 282.593 565.774 279.048 561.825L274.498 556.758L257.531 563.439C233.195 573.021 196.977 580.233 179.791 578.92C161.65 577.533 143.763 571.447 128.116 561.337C114.706 552.673 110.869 551.768 106.299 556.189C100.372 561.923 103.257 569.371 114.181 576.537C136.192 590.975 155.9 597.667 179.345 598.664L191.693 599.19L198.52 612.253C210.06 634.335 231.136 641.071 245.429 627.245ZM220.398 607.599C214.26 600.562 213.572 595.35 218.769 595.259C220.805 595.224 222.477 595.586 222.485 596.065C222.493 596.544 224.246 600.663 226.379 605.218C230.922 614.916 227.848 616.14 220.398 607.599ZM162.96 552.355C169.967 545.576 170.261 544.486 169.043 529.772C166.933 504.269 157.687 492.383 142.874 496.13C124.782 500.707 124.649 548.693 142.705 557.329C150.482 561.049 155.16 559.9 162.96 552.355ZM265.874 549.704C281.692 533.416 273.779 492.867 254.846 493.198C243.573 493.395 233.373 512.965 233.735 533.704C233.881 542.081 235.297 545.727 240.077 550.039C248.072 557.25 258.679 557.112 265.874 549.704ZM80.4575 373.487C65.8627 366.83 58.902 358.31 62.5862 351.61C64.0822 348.89 67.9856 344.959 71.2604 342.876C77.0272 339.206 77.741 339.441 93.9395 350.358C103.138 356.557 116.609 363.263 123.875 365.261C131.14 367.259 137.091 369.284 137.1 369.761C137.108 370.239 131.868 372.236 125.456 374.2C108.106 379.513 93.1516 379.276 80.4575 373.487ZM261.741 345.735C245.903 345.87 238.952 344.997 236.215 342.529C233.181 339.792 224.711 339.272 192.373 339.836C164.12 340.329 148.684 339.592 140.066 337.338C126.512 333.794 103.26 318.409 92.8359 306.087C83.207 294.705 87.1485 290.864 98.5423 300.525C130.745 327.832 158.965 337.916 170.891 326.379C173.56 323.797 175.717 320.109 175.683 318.183C175.639 315.667 177.361 314.989 181.81 315.771C185.214 316.37 190.906 317.376 194.46 318.007C198.013 318.638 220.694 320.186 244.862 321.446C276.099 323.075 290.39 324.737 294.29 327.192C298.962 330.134 311.877 345.044 311.921 347.546C311.929 347.997 305.539 347.732 297.721 346.958C289.903 346.184 273.713 345.633 261.741 345.735ZM217.135 289.571C172.334 284.949 160.699 277.5 150.951 247.196C148.517 239.631 145.674 231.9 144.632 230.017C142.264 225.736 125.564 224.5 120.885 228.26C115.265 232.776 116.989 254.823 124.206 270.715L130.438 284.438L118.446 272.822C98.0133 253.029 91.0861 219.444 104.156 203.541C117.661 187.109 121.166 178.293 126.879 146.386C134.211 105.433 134.114 72.4415 126.619 57.6698C123.813 52.1414 121.823 47.3238 122.195 46.9639C124.154 45.068 168.538 79.9372 179.412 91.9159C195.883 110.06 242.116 193.91 235.585 193.793C231.684 193.723 210.104 177.676 203.648 170.045C199.747 165.434 193.977 154.838 190.827 146.499C184.414 129.526 178.038 125.241 165.604 129.548C159.6 131.627 158.801 133.17 158.331 143.578C157.339 165.545 174.326 193.857 197.86 209.458C204.374 213.777 219.777 221.805 232.088 227.297C255.556 237.768 269.407 246.142 263.573 246.331C253.884 246.647 213.781 236.867 205.782 232.238C200.715 229.306 190.794 220.501 183.734 212.672C176.674 204.843 168.772 196.14 166.174 193.333C161.109 187.861 151.524 186.834 143.687 190.925C140.21 192.74 139 195.858 139.119 202.692C139.312 213.764 146.603 224.046 169.875 246.068C187.84 263.067 196.363 266.316 243.826 274.264C266.921 278.131 288.184 285.784 292.241 291.69C294.056 294.333 251.712 293.138 217.135 289.571Z" fill="#DD8004" />
<path d="M328.268 778.131C344.015 770.927 348.791 763.308 348.486 745.87C348.203 729.644 344.794 721.895 333.94 712.809C321.641 702.514 312.371 699.667 292.284 700.018L273.66 700.343L273.32 680.91C272.941 659.187 271.003 661.344 295.74 655.949C303.531 654.25 310.867 651.714 312.043 650.314C318.852 642.206 336.504 537.742 340.282 483.195C341.577 464.499 341.675 464.268 348.999 462.632C358.571 460.493 374.349 446.645 380.417 435.056C386.262 423.896 388.357 398.457 384.466 385.896C381.349 375.832 374.103 368.533 360.016 361.267C352.908 357.6 350.146 354.091 346.473 344.062C343.936 337.133 341.161 326.278 340.307 319.94C337.986 302.707 329.12 283.872 317.93 272.405C312.408 266.746 307.91 259.779 307.845 256.783C307.656 248.195 296.462 229.238 286.566 220.748C281.151 216.102 277.453 210.774 277.396 207.537C277.288 201.353 250.264 140.607 236.942 116.601C213.205 73.8292 178.756 40.5971 131.186 14.5812C117.729 7.22176 112.72 5.79196 98.6506 5.29536C75.9636 4.49457 71.5282 7.09523 71.8429 21.0137C72.025 29.0719 74.4313 35.7079 81.1579 46.7042C86.146 54.8585 92.9789 66.0454 96.3422 71.5641C103.979 84.096 104.086 90.7213 97.2865 129.99C91.7244 162.11 89.5737 168.603 81.7245 176.97C68.7363 190.816 61.9233 226.959 68.0068 249.742C70.549 259.262 70.2349 260.765 63.7083 270.319C55.7622 281.951 53.1471 292.5 55.1314 304.917C56.3604 312.609 55.6541 313.964 47.4956 319.573C34.7654 328.326 29.2639 340.463 29.4721 359.339C29.6199 372.745 28.7971 375.722 23.3894 381.345C9.28307 396.013 8.05839 399.825 8.69136 427.089C9.14505 446.634 10.3446 454.509 13.8656 461.06C18.6228 469.912 29.1816 477.19 40.9269 479.713C47.5893 481.144 47.7452 481.549 48.0357 498.19C48.4392 521.308 56.1998 580.797 62.1083 606.062C65.1274 618.973 66.1552 628.196 64.8475 630.645C60.8072 638.211 62.6891 648.405 68.7887 651.994C73.3903 654.701 94.5573 659.959 121.332 665.045C122.884 665.339 123.455 670.737 122.809 679.021L121.758 692.517L100.79 692.974C78.842 693.453 69.0886 696.638 57.0031 707.276C47.72 715.447 44.5721 723.892 44.8511 739.874C45.0858 753.321 45.9121 755.709 52.7687 762.753C64.4166 774.72 79.8219 778.287 112.071 776.481C136.148 775.133 140.163 774.232 157.063 766.379C170.887 759.955 176.616 755.877 179.532 750.386C185.028 740.035 189.586 716.075 191.079 689.682C192.279 668.462 192.662 667.178 197.816 667.088C203.167 666.995 203.324 667.752 205.334 703.265C206.463 723.214 208.628 743.205 210.145 747.688C213.872 758.699 223.348 766.328 244.117 775.036C260.171 781.768 263.716 782.347 289.9 782.516C313.673 782.669 319.904 781.957 328.268 778.131ZM259.984 747.781C251.655 744.459 243.627 740.422 242.143 738.809C240.659 737.196 238.07 722.594 236.391 706.359C234.006 683.318 233.997 675.313 236.349 669.873C239.12 663.465 239.562 665.033 241.84 689.372C245.683 730.418 247.782 732.65 279.429 729.345C298.596 727.343 307.59 730.002 314.699 739.77C320.238 747.381 320.159 747.633 310.956 751.726C299.657 756.75 278.334 755.1 259.984 747.781ZM84.9213 745.143C75.5689 741.369 74.5473 740.266 76.7312 736.295C80.3619 729.693 91.2985 721.968 97.1601 721.866C99.9483 721.817 108.478 722.871 116.116 724.206C143.305 728.962 149.592 723.15 153.163 689.956C154.895 673.852 156.476 667.81 158.97 667.766C162.646 667.702 162.315 676.912 157.44 710.44C154.47 730.867 152.899 733.657 141.043 739.563C120.881 749.608 100.906 751.594 84.9213 745.143ZM152.885 637.892C120.392 635.568 105.141 632.346 102.043 627.151C94.7171 614.865 85.2067 563.687 79.1198 503.792L77.4277 487.142L92.1794 488.323C111.847 489.897 119.379 485.547 119.155 472.743C119.07 467.858 117.595 462.862 115.877 461.643C114.159 460.423 104.417 458.939 94.2268 458.344C71.6288 457.024 51.0641 451.928 44.5213 446.027C34.9883 437.428 38.9631 406.587 50.4085 400.347C53.2113 398.819 57.9543 399.575 65.8749 402.812C75.1511 406.603 81.9365 407.382 101.967 406.953C124.215 406.478 129.161 405.521 152.385 397.201C194.429 382.139 216.324 376.171 235.891 374.44C259.332 372.366 325.226 378.005 327.911 382.315C328.945 383.975 332.708 385.964 336.274 386.734C348.821 389.446 354.693 394.603 354.841 403.039C355.014 412.948 350.106 424.492 343.182 430.466C339.407 433.722 333.182 435.428 321.903 436.297C309.192 437.276 305.239 438.521 302.408 442.438C297.479 449.256 298.12 457.019 304.054 462.371C307.498 465.478 309.12 469.961 309.233 476.688C309.477 491.218 294.782 595.056 290.026 612.409L285.913 627.417L271.204 630.734C239.997 637.772 191.892 640.682 152.885 637.892ZM239.623 631.865C242.576 630.635 246.853 626.875 249.128 623.509C253.031 617.731 253.015 616.695 248.833 604.981C246.397 598.157 244.372 591.856 244.332 590.978C244.292 590.101 250.944 586.99 259.114 584.067C277.173 577.605 281.334 574.478 281.211 567.458C281.059 558.743 272.956 556.474 261.812 562.026C244.029 570.885 212.618 577.781 187.627 578.312C161.491 578.867 150.246 575.636 127.759 561.107C114.7 552.669 110.85 551.787 106.299 556.189C100.234 562.056 103.3 569.041 115.422 576.974C137.627 591.505 159.08 598.504 180.571 598.228L191.674 598.086L198.633 611.469C202.46 618.83 208.515 626.573 212.088 628.675C220.118 633.4 232.495 634.833 239.623 631.865ZM219.036 606.895C214.154 598.429 214.074 595.341 218.736 595.26C220.753 595.225 224.149 598.923 226.283 603.478C231.03 613.614 231.027 613.488 226.555 613.566C224.555 613.6 221.171 610.599 219.036 606.895ZM161.398 554.114C169.323 547.515 171.553 532.217 166.936 516.128C157.632 483.71 129.328 490.009 129.927 524.363C130.247 542.659 134.159 552.243 142.969 556.31C152.302 560.62 153.799 560.441 161.398 554.114ZM266.235 549.332C271.059 544.365 272.179 540.403 272.687 526.507C273.37 507.828 269.034 496.712 260.097 494.231C242.526 489.354 226.318 526.849 237.566 546.356C243.935 557.402 257.074 558.766 266.235 549.332ZM80.9395 374.279C75.8633 371.956 68.9822 367.418 65.6482 364.195C60.4672 359.188 59.9732 357.507 62.2491 352.626C63.7137 349.485 67.7707 345.096 71.2644 342.873C77.3541 338.998 77.8953 339.034 84.3476 343.739C99.417 354.729 114.254 362.335 127.158 365.685L140.792 369.225L127.294 373.518C109.271 379.25 92.4024 379.527 80.9395 374.279ZM271.324 346.082C252.239 345.584 238.348 344.219 237.284 342.738C236.128 341.13 218.436 340.122 187.776 339.916L140.066 339.597L125.581 331.781C110.37 323.574 86.5647 302.13 86.4672 296.546C86.3789 291.486 89.7476 292.568 97.7907 300.184C110.666 312.375 140.369 328.802 152.143 330.242C165.753 331.907 173.392 328.313 173.252 320.311C173.162 315.15 173.966 314.582 179.956 315.568C195.858 318.187 225.765 320.64 252.24 321.495C288.262 322.659 295.203 324.606 304.48 336.149C312.858 346.571 313.895 350.424 307.763 348.346C305.454 347.564 289.057 346.545 271.324 346.082ZM223.323 290.668C194.354 288.072 177.128 283.781 168.052 276.9C159.909 270.725 150.462 253.015 147.533 238.43C145.291 227.269 136.963 223.02 125.356 227.115C118.835 229.416 118.629 230.026 119.163 245.534C119.537 256.427 121.457 265.09 125.147 272.533L130.579 283.493L125.308 280.174C116.919 274.891 103.985 257.056 100.408 245.838C95.1426 229.324 97.5558 211.758 106.692 200.095C118.394 185.158 121.271 177.143 127.178 143.033C133.961 103.865 133.835 75.7817 126.804 59.3248C124.008 52.7792 122.036 47.1179 122.422 46.7441C124.001 45.2167 164.56 76.1642 174.747 86.6696C191.055 103.487 208.314 130.514 223.69 163.316C231.223 179.384 236.956 192.946 236.43 193.454C234.53 195.292 218.051 184.631 209.327 175.92C198.976 165.585 191.764 153.673 187.547 139.949C184.211 129.089 176.753 125.661 165.26 129.702C159.241 131.819 158.881 132.84 159.216 146.852C159.991 179.266 181.907 203.719 230.082 225.922C259.438 239.452 270.498 246.323 262.953 246.344C255.337 246.365 216.04 238.016 209.466 234.98C201.008 231.075 182.177 213.299 172.389 199.982C164.728 189.558 156.689 186.428 146.57 189.929C141.219 191.781 140.072 193.76 139.577 201.994C138.888 213.484 143.895 220.607 170.168 245.511C188.755 263.129 193.223 264.909 239.912 273.287C271.036 278.873 283.021 282.83 290.056 289.843C294.313 294.086 293.904 294.159 269.984 293.418C256.555 293.002 235.558 291.764 223.323 290.668Z" fill="#DD8004"/>
<path d="M328.075 778.191C342.081 771.684 346.899 765.411 348.024 752.219C349.443 735.579 346.451 725.43 337.379 716.109C325.848 704.263 312.968 699.768 291.45 700.083L273.468 700.346L273.83 680.267L274.193 660.188L289.696 656.981C310.612 652.655 312.63 651.225 316.209 638.194C324.286 608.791 336.604 527.71 340.28 479.75C341.423 464.84 341.718 464.259 348.935 462.646C359.171 460.359 375.153 445.879 380.541 434.009C386.249 421.436 388.169 397.877 384.463 385.896C381.35 375.833 374.105 368.534 360.017 361.267C352.912 357.602 350.142 354.085 346.464 344.062C343.922 337.133 341.007 325.945 339.987 319.199C337.242 301.05 329.169 283.922 317.93 272.404C312.448 266.786 307.896 259.757 307.815 256.783C307.578 248.166 298.792 233.058 287.71 222.212C282.083 216.705 277.442 210.145 277.398 207.636C277.305 202.314 248.018 136.119 237.626 117.741C216.95 81.1784 190.022 52.575 153.348 28.2185C129.47 12.3603 109.985 4.71013 94.1716 4.98397C75.48 5.3077 71.5594 7.96409 71.7722 20.1609C71.9425 29.9163 73.7719 33.7558 95.7425 70.469C104.131 84.4861 104.295 91.6639 97.1673 132.872C93.3304 155.055 90.0564 167.083 86.7643 171.09C68.4203 193.417 62.1992 217.461 67.7009 244.769C70.7679 259.992 70.7448 260.127 63.0868 271.7C56.4452 281.737 55.3928 285.506 55.4087 299.193C55.4264 314.41 55.11 315.251 47.6405 319.846C35.8576 327.096 29.4951 340.937 29.6762 358.926C29.8174 372.936 29.1843 374.748 20.8604 384.157C8.70851 397.893 5.55617 413.338 9.34614 440.572C11.8737 458.735 12.9984 461.612 20.1833 468.299C24.5926 472.403 32.4317 476.985 37.6035 478.481L47.0068 481.201L49.1325 510.847C51.4166 542.704 60.6051 605.749 64.8094 618.412C66.47 623.414 66.5614 627.642 65.0673 630.359C61.7023 636.477 62.4508 647.725 66.4205 650.693C70.466 653.718 90.9812 659.364 110.133 662.724C117.888 664.084 123.662 666.313 123.549 667.902C123.44 669.437 123.275 675.881 123.182 682.222L123.013 693.751L99.856 694.156C77.7926 694.541 76.1476 694.924 65.0398 702.256C49.7624 712.34 44.5434 722.239 44.8626 740.528C45.0855 753.294 45.9761 755.774 52.8881 762.876C71.4868 781.984 125.713 782.158 163.954 763.232C173.84 758.339 177.293 755.007 181.024 746.757C185.698 736.426 192.001 695.497 191.769 676.991C191.659 668.251 192.273 667.185 197.46 667.094C203.249 666.993 203.281 667.136 205.32 702.112C208.413 755.172 211.899 761.777 243.697 774.839C260.012 781.541 263.91 782.183 289.899 782.449C313.833 782.694 319.818 782.026 328.075 778.191ZM256.713 746.303C244.806 740.63 240.813 737.407 239.272 732.226C235.958 721.088 233.131 670.224 235.63 666.709C240.95 659.226 243.467 667.101 243.912 692.619C244.319 715.894 244.952 719.345 249.851 724.961C255.277 731.181 255.556 731.229 275.923 729.408C298.409 727.399 307.427 729.69 314.908 739.312C320.221 746.147 319.982 747.223 312.186 751.532C301.074 757.676 275.53 755.268 256.713 746.303ZM89.0504 747.313C84.0867 746.117 78.5291 743.512 76.7001 741.525C73.8371 738.413 74.6679 736.764 82.6748 729.663C91.3375 721.981 92.7608 721.506 103.44 722.727C137.835 726.66 137.655 726.67 143.989 720.542C149.985 714.742 151.278 709.698 153.8 682.264C154.731 672.127 156.155 667.815 158.584 667.773C162.832 667.699 162.857 669.61 158.999 700.533C155.449 728.998 153.663 733.221 142.85 738.721C123.785 748.419 105.657 751.314 89.0504 747.313ZM149.697 637.928C112.6 634.93 104.751 632.57 100.304 623.074C92.7085 606.859 86.4545 572.141 78.8334 503.886L76.9847 487.329L94.0976 487.483C114.778 487.669 119.368 484.89 119.148 472.313C118.963 461.71 114.382 458.766 98.4979 459.043C83.6524 459.302 49.4656 451.494 44.0474 446.607C37.6664 440.851 36.8264 417.265 42.6933 408.582C49.157 399.015 54.3189 397.076 63.0165 400.946C88.1124 412.112 119.663 409.401 167.101 392.003C203.094 378.803 223.692 373.963 245.761 373.523C269.307 373.053 325.005 378.602 329.282 381.844C331.31 383.382 337.576 386.634 343.205 389.072C352.262 392.993 353.549 394.531 354.381 402.428C355.576 413.762 351.591 423.198 342.474 430.626C336.669 435.355 332.615 436.514 321.185 436.714C313.419 436.849 305.755 438.228 304.153 439.777C299.621 444.162 300.748 462.273 305.657 463.937C309.166 465.126 309.562 468.088 308.543 485.521C306.86 514.311 294.57 598.786 289.803 614.329L285.78 627.445L272.352 630.567C240.213 638.037 189.048 641.108 149.697 637.928ZM241.872 629.764C252.073 623.554 253.585 615.946 247.465 601.621C243.889 593.251 243.297 589.682 245.369 588.974C277.618 577.951 282.266 574.943 280.76 566.065C279.486 558.557 271.579 558.382 253.419 565.462C231.001 574.203 199.172 580.197 180.243 579.243C161.921 578.32 142.12 571.492 126.359 560.664C114.476 552.5 110.271 551.696 105.929 556.76C100.474 563.12 104.438 570.078 118.541 578.897C136.631 590.21 155.738 596.497 176.486 597.964L193.402 599.16L196.881 608.15C204.814 628.647 226.552 639.091 241.872 629.764ZM219.036 606.895C214.154 598.428 214.075 595.341 218.736 595.26C220.753 595.225 224.149 598.923 226.283 603.478C231.031 613.614 231.027 613.487 226.556 613.565C224.555 613.6 221.171 610.599 219.036 606.895ZM156.898 557.123C168.788 552.411 173.007 530.828 165.628 512.468C158.448 494.603 147.382 490.25 136.813 501.134C129.101 509.074 127.459 534.471 133.875 546.572C137.15 552.75 147.5 560.504 151.014 559.412C151.288 559.326 153.936 558.296 156.898 557.123ZM265.204 549.807C270.955 545.018 272 542.123 272.656 529.157C273.613 510.275 269.368 498.047 260.867 495.194C252.283 492.313 243.911 497.901 238.111 510.383C231.434 524.754 232.339 539.976 240.384 548.6C248.262 557.044 256.057 557.423 265.204 549.807ZM83.6994 376.17C75.5406 373.456 60.4467 360.952 60.375 356.849C60.2933 352.167 72.5332 339.623 77.2643 339.54C79.6912 339.498 83.2307 341.171 85.1299 343.258C91.4088 350.159 116.822 363.557 128.904 366.335L140.79 369.068L127.293 373.439C111.867 378.435 93.892 379.561 83.6994 376.17ZM271.594 346.215C250.694 345.642 237.744 344.287 235.332 342.42C232.646 340.34 218.606 339.524 185.927 339.549C144.332 339.579 139.352 339.142 129.893 334.627C110.095 325.177 82.3322 298.783 87.2182 294.056C87.8915 293.405 96.5447 299.002 106.448 306.494C130.491 324.684 142.335 329.627 159.03 328.442C171.288 327.571 172.188 327.095 172.815 321.159C173.549 314.2 174.223 314.033 190.466 316.812C196.592 317.86 219.386 319.548 241.12 320.564C262.853 321.579 284.335 323.429 288.857 324.675C293.82 326.042 300.012 330.589 304.481 336.148C312.746 346.432 313.9 350.426 308.032 348.437C305.871 347.705 289.474 346.705 271.594 346.215ZM212.388 289.721C168.657 284.793 156.311 274.439 146.018 234.062C144.153 226.749 134.966 223.744 125.011 227.191C119.406 229.132 118.544 230.859 118.082 241.076C117.722 249.042 119.524 257.562 123.761 267.926C129.058 280.885 129.339 282.71 125.676 280.394C113.695 272.817 104.6 259.396 99.2356 241.38C94.3889 225.101 97.4262 211.833 110.059 194.1C120.261 179.777 121.697 175.17 128.196 135.91C134.221 99.5064 133.097 69.9961 125.142 55.7336C122.165 50.397 120.346 46.0199 121.1 46.0068C124.28 45.9513 159.254 71.588 169.493 81.4789C175.611 87.3897 185.556 98.7847 191.592 106.801C208.291 128.979 240.996 193.756 235.542 193.851C231.523 193.921 213.585 180.872 204.414 171.207C199.102 165.61 193.246 155.94 190.763 148.665C185.32 132.722 183.166 130.552 172.306 130.071C158.526 129.46 156.829 131.636 158.501 147.779C161.917 180.774 183.508 204.294 230.242 225.932C246.843 233.618 261.874 241.482 263.646 243.407C266.498 246.507 265.599 246.742 255.793 245.462C238.86 243.252 215.959 237.978 208.663 234.609C200.997 231.07 176.043 207.299 169.435 197.241C164.245 189.343 155.94 186.687 146.57 189.929C141.312 191.748 140.067 193.797 139.598 201.401C138.905 212.642 145.667 222.477 169.345 244.67C187.932 262.091 194.918 264.834 242.316 273.327C270.804 278.431 284.213 283.271 291.35 291.028C294.261 294.191 291.709 294.453 266.378 293.588C250.861 293.059 226.565 291.319 212.388 289.721Z" fill="#DD8004"/>
<path d="M325.032 779.284C343.837 772.354 349.757 762.571 347.943 741.419C346.919 729.47 345.349 725.398 339.064 718.395C327.043 705 313.246 699.652 291.678 700.028L273.468 700.346L273.832 680.391L274.197 660.435L292.191 656.16C302.087 653.809 311.024 650.96 312.049 649.829C319.053 642.105 339.504 514.052 338.936 481.483L338.671 466.319L351.614 460.705C372.456 451.666 382.962 436.795 385.657 412.52C387.856 392.722 382.962 377.135 371.99 368.987C366.977 365.264 361.634 362.239 360.118 362.266C352.318 362.402 345.657 348.366 339.586 318.995C335.172 297.643 326.573 280.128 315.324 269.575C311.28 265.782 307.903 260.135 307.819 257.027C307.579 248.185 298.907 233.171 287.71 222.212C282.082 216.705 277.445 210.346 277.406 208.082C277.315 202.88 251.88 145.554 238.885 121.263C218.247 82.6865 194.364 56.2813 157.423 31.1962C127.43 10.8297 116.464 6.58622 94.4325 6.82142C72.8046 7.05232 70.9135 8.56334 72.595 24.2694C73.4316 32.0839 77.5147 40.948 87.2878 56.1665C97.6647 72.3251 101.083 79.954 101.938 88.8685C103.36 103.683 93.2143 162.719 88.085 169.474C67.5951 196.46 62.5304 215.309 67.9083 244.565C70.8349 260.485 70.719 261.526 65.1303 269.508C56.7386 281.494 53.5266 292.983 55.3943 304.33C56.9274 313.644 56.5473 314.526 49.0636 319.023C36.2238 326.738 30.4555 339.29 30.7956 358.775C31.0583 373.827 30.499 375.861 24.9298 380.105C12.6795 389.441 8.33095 401.929 8.90445 426.127C9.19107 438.221 10.8382 451.904 12.5649 456.532C16.1221 466.068 26.4225 474.811 38.7084 478.724L47.0432 481.378L49.171 508.644C51.9766 544.598 58.4961 590.474 63.7835 611.468C66.8583 623.677 67.3023 629.066 65.3862 630.92C61.8137 634.376 62.2126 644.656 66.0941 649.168C69.5835 653.223 95.3104 660.645 113.662 662.89L125.509 664.339L124.178 672.707C123.445 677.31 122.882 683.83 122.926 687.197L123.006 693.32L98.777 694.535C77.2427 695.615 73.4211 696.475 64.4125 702.269C50.9121 710.952 44.5646 723.471 44.8674 740.818C45.1474 756.862 50.0428 763.925 65.9915 771.298C78.7364 777.189 111.98 778.73 132.485 774.381C152.069 770.227 173.86 759.073 179.044 750.55C184.274 741.951 188.992 717.082 190.81 688.534C192.118 668.005 192.396 667.182 198.075 667.083C203.853 666.983 203.989 667.416 204.353 687.145C204.855 714.332 209.58 746.488 214.268 754.619C218.848 762.561 232.341 770.963 250.619 777.252C267.894 783.195 311.209 784.378 325.032 779.284ZM257.687 747.529C238.506 738.775 236.931 735.135 235.761 696.835C234.947 670.16 235.369 665.28 238.498 665.225C241.517 665.172 242.516 670.316 243.921 693.134C246.219 730.46 247.505 731.908 276.1 729.376C298.744 727.371 307.933 729.842 315.257 739.905C322.76 750.215 313.397 755.369 288.656 754.549C276.229 754.138 268.16 752.308 257.687 747.529ZM85.9061 746.503C75.5681 742.674 73.498 739.796 76.7847 733.819C81.0731 726.021 93.3051 721.236 105.418 722.618C140.029 726.565 137.63 726.694 143.983 720.548C148.211 716.458 150.357 711.126 151.339 702.274C152.102 695.399 153.261 684.838 153.915 678.804C154.752 671.085 156.218 667.814 158.861 667.768C162.019 667.713 162.394 670.186 161.218 683.287C158.671 711.657 155.244 727.671 150.459 733.559C144.915 740.38 120.425 748.802 104.778 749.266C98.9691 749.439 90.4768 748.195 85.9061 746.503ZM120.922 635.08C111.483 633.337 102.862 630.615 101.765 629.031C95.1803 619.527 83.7422 559.274 78.8597 508.372L76.8178 487.084L95.1449 486.764C116.191 486.397 119.36 484.465 119.145 472.134C118.962 461.645 114.303 458.767 97.9732 459.052C82.0216 459.33 53.56 453.429 46.4019 448.359C33.8273 439.453 35.7366 409.994 49.4541 401.265C54.9592 397.762 56.2307 397.829 67.4099 402.222C76.9026 405.952 84.189 406.852 101.944 406.485C122.926 406.052 127.482 405.003 169.372 390.947C208.807 377.714 217.199 375.683 238.035 374.323C265.619 372.523 323.279 377.224 329.439 381.776C331.698 383.446 337.766 386.507 342.923 388.579C348.135 390.673 353.35 394.805 354.666 397.884C358.153 406.041 353.511 419.682 344.176 428.712C336.935 435.718 334.795 436.476 321.62 436.706C313.589 436.846 305.76 438.223 304.153 439.777C299.882 443.91 300.861 457.937 305.763 462.823C311.343 468.385 310.922 478.866 302.68 539.621C296.022 588.696 290.683 617.316 286.853 624.45C284.651 628.553 269.388 632.532 240.82 636.449C217.091 639.704 141.271 638.837 120.922 635.08ZM239.416 630.781C250.739 625.946 253.083 616.906 246.991 601.565C241.103 586.734 241.155 587.953 246.402 587.859C248.776 587.817 257.678 584.56 266.184 580.622C280.216 574.126 281.566 572.875 280.755 567.115C279.534 558.45 272.463 558.03 253.419 565.492C204.169 584.791 162.491 583.752 128.601 562.381C115.803 554.31 112.836 553.307 108.482 555.58C103.335 558.266 102.011 563.985 105.445 568.698C109.378 574.097 137.047 589.723 148.665 593.107C155.366 595.058 168.235 597.218 177.263 597.905L193.676 599.155L197.207 608.212C201.54 619.325 209.38 627.278 219.935 631.267C229.549 634.901 229.785 634.895 239.416 630.781ZM217.795 606.901C214.009 600.552 214.502 595.334 218.895 595.257C222.39 595.196 230.09 607.636 230.193 613.509C230.257 617.175 220.97 612.225 217.795 606.901ZM261.831 552.828C272.268 546.911 276.79 520.882 270.1 505.231C266.815 497.548 263.532 495.434 255.044 495.535C243.448 495.674 233.69 512.602 233.82 532.355C233.873 540.382 235.316 543.619 241.214 548.939C248.861 555.837 254.611 556.922 261.831 552.828ZM159.52 555.561C164.388 553.634 169.715 541.806 169.566 533.256C169.37 522.009 162.45 503.129 156.85 498.559C149.872 492.866 141.559 495.131 135.008 504.511C130.047 511.613 129.453 514.838 130.459 529.226C131.413 542.877 132.673 546.789 137.659 551.576C143.368 557.058 151.838 558.602 159.52 555.561ZM73.3547 371.244C59.5762 363.055 57.5126 355.585 66.5171 346.493C70.2674 342.707 74.8944 339.581 76.7994 339.548C78.7043 339.515 84.8663 343.039 90.4927 347.379C102.638 356.747 123.445 366.397 131.208 366.261C141.568 366.081 139.788 370.525 128.008 374.25C109.697 380.041 85.9596 378.736 73.3547 371.244ZM269.946 346.226C250.527 345.593 237.119 344.077 233.789 342.139C229.79 339.811 218.829 339.307 188.964 340.077C146.112 341.181 137.097 339.793 120.357 329.516C107.982 321.919 86.5534 301.488 86.4788 297.215C86.3712 291.049 88.9405 291.833 100.404 301.459C106.777 306.81 118.31 314.982 126.032 319.618C138.662 327.2 141.684 328.02 156.109 327.779C171.772 327.517 172.16 327.363 172.814 321.159C173.555 314.137 175.338 313.75 192.933 316.785C199.059 317.842 222.28 319.512 244.534 320.495C289.475 322.482 295.621 324.173 305.501 337.269C313.374 347.704 313.569 350.185 306.385 348.523C303.319 347.814 286.922 346.78 269.946 346.226ZM210.196 289.737C184.978 286.577 170.833 281.341 162.876 272.219C157.044 265.533 147.236 243.589 147.12 236.967C146.941 226.677 129.389 221.567 121.254 229.437C115.763 234.749 116.851 249.794 124.029 267.837C127.411 276.336 129.25 283.306 128.115 283.326C125.31 283.375 109.677 265.752 104.657 256.884C93.2722 236.771 94.0802 213.703 106.706 198.405C118.228 184.444 120.9 176.951 127.046 141.367C134.381 98.9053 133.628 70.8868 124.739 55.5897C121.642 50.2601 119.098 45.3486 119.087 44.6751C119.043 42.1667 142.853 58.829 160.593 73.7214C180.128 90.1211 195.635 109.457 210.265 135.662C221.469 155.73 237.973 191.961 236.541 193.346C234.464 195.356 218.231 184.759 207.905 174.654C197.588 164.556 187.508 147.365 187.373 139.636C187.335 137.459 185.95 134.457 184.295 132.965C180.029 129.117 163.735 129.875 160.12 134.09C155.35 139.652 158.941 158.818 167.76 174.867C179.459 196.157 196.583 210.175 229.23 225.188C256.164 237.574 265.678 243.084 265.735 246.331C265.771 248.394 228.168 241.426 214.632 236.861C203.821 233.216 178.55 211.115 169.576 197.457C165.496 191.247 163.707 190.494 153.447 190.674C145.201 190.817 141.499 191.923 140.475 194.546C135.618 206.983 143.178 219.848 170.565 245.749C187.563 261.825 195.756 265.028 238.27 272.217C268.151 277.269 282.512 282.097 289.862 289.558L294.814 294.585L264.021 293.604C247.085 293.065 222.864 291.324 210.196 289.737Z" fill="#DD8004"/>
<path d="M326.59 778.393C341.304 772.602 347.04 764.442 347.908 748.064C348.809 731.062 341.319 717.089 326.266 707.689C317.085 701.955 312.944 701.004 294.644 700.427C270.284 699.659 270.418 699.803 271.236 675.051L271.725 660.225L286.478 657.154C312.899 651.654 312.374 652.118 318.299 629.077C325.005 602.998 336.916 518.87 338.314 487.702L339.376 464.05L348.718 461.525C361.734 458.009 372.595 448.419 379.164 434.643C383.643 425.252 384.687 419.036 384.425 403.336C384.04 380.275 379.605 371.591 364.758 364.828C348.215 357.292 347.608 356.209 339.626 319.976C334.873 298.399 326.883 281.726 315.877 270.418C311.525 265.947 307.929 260.258 307.886 257.776C307.758 250.447 292.828 225.776 284.869 219.742C280.823 216.674 277.472 211.886 277.424 209.103C277.315 202.887 249.663 141.56 235.723 116.622C214.102 77.9391 189.233 51.9121 149.616 26.504C124.094 10.1353 115.196 7.02993 94.6765 7.32902C81.9625 7.51433 76.2537 8.56285 74.0651 11.1147C68.309 17.8261 73.0903 33.482 88.1112 57.1064C105.151 83.9066 105.715 88.6711 97.3143 134.821C93.0926 158.012 90.4155 166.578 85.1126 173.864C69.3567 195.512 68.7182 197.803 69.0966 231.335C69.4106 259.146 68.8906 263.316 64.1996 270.61C57.0254 281.765 53.6495 295.323 55.7074 304.718C57.2775 311.886 56.4917 313.35 46.5088 321.855C33.7414 332.733 29.9526 342.169 31.002 360.476C31.7137 372.891 31.19 374.342 22.9966 382.655C11.0708 394.754 8.61618 404.599 10.2767 433.669C11.9238 462.505 14.9444 467.798 34.5598 476.223L47.2924 481.692L49.2811 504.782C52.2473 539.219 59.4862 593.166 62.7153 604.899C64.2781 610.577 65.8271 623.47 66.1576 633.55L66.7583 651.877L85.1601 656.765C95.2811 659.454 108.378 662.243 114.264 662.963C126.025 664.402 126.177 664.76 123.278 684.085L121.784 694.045L97.9619 694.901C75.3937 695.712 73.6557 696.137 64.9481 702.967C49.7155 714.915 46.0828 721.278 45.4025 737.202C44.6175 755.574 50.3551 764.669 67.0619 771.533C77.059 775.641 83.0136 776.262 107.17 775.718C132.389 775.151 137.369 774.335 152.038 768.366C175.674 758.751 181.695 751.203 186.042 725.745C187.964 714.483 190.127 696.7 190.848 686.228C192.153 667.286 192.196 667.186 199.055 667.066L205.95 666.946L207.61 705.53C209.524 750.027 211.982 757.631 227.416 766.804C246.012 777.856 262.048 781.818 289.895 782.241C310.434 782.553 318.05 781.754 326.59 778.393ZM259.287 748.571C237.979 739.79 236.457 736.544 235.559 697.976C234.891 669.318 235.293 665.296 238.899 664.563C242.52 663.827 243.155 667.137 244.329 692.863C245.596 720.625 245.949 722.208 251.833 726.495C257.367 730.527 260.216 730.791 279.287 729.046L300.567 727.099L309.682 734.313C314.696 738.281 318.822 742.916 318.851 744.615C319.059 756.526 284.208 758.841 259.287 748.571ZM85.9061 746.502C75.0765 742.492 73.2053 739.393 77.6446 732.823C83.5501 724.083 96.0112 719.472 107.542 721.759C112.946 722.831 123.167 723.632 130.256 723.538C142.019 723.383 143.459 722.777 146.74 716.598C148.717 712.874 151.282 700.718 152.439 689.585C154.574 669.049 157.834 661.146 161.073 668.655C163.046 673.229 159.217 713.144 155.57 726.029C153.84 732.137 150.786 735.896 145.275 738.699C125.19 748.916 101.006 752.095 85.9061 746.502ZM141.717 637.992C130.196 636.867 116.61 634.995 111.525 633.831C102.778 631.83 102.002 630.887 97.1177 616.323C94.2784 607.857 90.6841 594.66 89.1304 586.995C85.1929 567.572 77.9336 511.204 77.6716 498.019L77.4541 487.073L95.463 486.759C115.726 486.405 119.358 484.354 119.166 473.37C118.983 462.885 113.646 459.03 99.762 459.354C87.0559 459.65 57.5757 454.427 48.8818 450.339C41.5468 446.89 40.2851 444.753 38.2288 432.299C36.0996 419.404 40.7083 406.83 49.6489 401.14C55.3618 397.505 56.3182 397.515 64.047 401.286C70.8357 404.599 77.8753 405.209 103.161 404.676C133.717 404.033 134.262 403.927 163.415 392.945C207.579 376.31 225.609 372.871 262.904 373.968C298.872 375.025 324.391 378.108 329.766 382.043C331.846 383.566 337.761 386.505 342.911 388.574C348.061 390.643 353.5 394.741 354.998 397.681C359.251 406.026 354.204 420.577 344.072 429.188C336.93 435.257 333.453 436.499 323.099 436.68C305.577 436.986 301.193 439.845 301.385 450.841C301.498 457.291 302.986 460.756 306.628 463.05C311.655 466.216 311.676 466.612 308.384 497.556C303.741 541.201 294.863 599.166 290.385 615.077L286.625 628.44L274.009 631.099C237.609 638.772 180.279 641.759 141.717 637.992ZM244.769 626.989C251.045 621.331 251.479 611.889 246 600.191C243.886 595.676 242.142 591.236 242.126 590.324C242.111 589.412 246.793 587.267 252.531 585.557C258.27 583.847 267.161 580.362 272.289 577.812C280.076 573.941 281.469 572.153 280.737 566.971C279.992 561.701 278.747 560.824 272.464 561.148C268.396 561.357 258.684 563.883 250.882 566.76C230.973 574.102 204.83 579.365 186.703 579.682C162.124 580.111 146.45 574.761 118.946 556.554C114.694 553.74 112.405 553.532 108.442 555.601C87.1871 566.695 144.882 598.854 184.79 598.157C192.674 598.02 195.389 598.877 195.435 601.521C195.54 607.548 205.193 622.472 212.191 627.429C221.106 633.743 237.522 633.521 244.769 626.989ZM222.082 611.91C219.892 609.727 216.928 605.199 215.495 601.847C213.402 596.95 213.654 595.465 216.778 594.283C221.325 592.563 220.707 592.086 225.965 601.358C233.029 613.814 230.603 620.404 222.082 611.91ZM260.708 552.901C269.403 549.5 274.052 535.775 272.287 518.721C270.58 502.236 265.512 495.317 255.278 495.495C246.883 495.642 241.62 501.259 236.806 515.21C228.467 539.373 241.748 560.316 260.708 552.901ZM160.569 554.305C169.978 547.384 171.764 532.414 165.424 513.612C158.427 492.864 142.457 489.643 133.183 507.108C127.71 517.416 129.787 541.352 136.903 549.982C142.73 557.048 154.033 559.113 160.569 554.305ZM77.7581 374.019C58.7803 365.378 55.4614 350.903 70.4283 342.051L78.0612 337.537L89.5588 346.166C103.4 356.555 117.991 363.675 128.986 365.405C133.449 366.107 137.666 367.505 138.358 368.512C139.461 370.117 125.912 375.363 111.349 378.97C103.293 380.965 88.0932 378.725 77.7581 374.019ZM264.303 346.23C249.654 345.689 237.072 344.381 236.345 343.322C235.618 342.263 218.158 341.675 197.546 342.015C153.752 342.737 137.39 340.098 120.353 329.564C104.656 319.858 86.5763 302.798 86.4856 297.608C86.3912 292.195 90.9399 289.679 92.8428 294.091C94.6071 298.181 126.467 320.347 138.056 325.547C147.402 329.741 166.218 329.962 170.389 325.927C171.991 324.377 173.269 321.243 173.229 318.962C173.142 313.995 174.457 313.946 206.521 317.717C220.122 319.317 239.147 320.508 248.799 320.364C284.895 319.826 298.649 324.803 310.371 342.644L315.165 349.939L303.052 348.577C296.39 347.827 278.953 346.771 264.303 346.23ZM199.956 289.019C181.271 286.173 173.814 283.057 164.606 274.25C157.283 267.246 147.291 246.74 147.146 238.417C147.096 235.549 145.701 231.98 144.046 230.488C139.76 226.622 123.485 227.4 119.844 231.645C115.658 236.526 118.547 257.167 125.335 270.879C131.417 283.164 130.639 286.019 122.918 279.753C106.177 266.167 93.5767 238.305 96.3378 220.977C98.1938 209.33 100.814 203.888 108.327 196.071C117.159 186.885 120.808 175.708 126.859 139.312C134.135 95.5482 133.806 76.6922 125.452 58.6096C121.966 51.063 119.103 44.5796 119.09 44.202C119.009 41.8217 145.382 60.5021 161.064 73.9328C182.616 92.3906 194.887 107.824 210.82 136.513C223.827 159.933 238.167 191.213 237.159 193.968C235.888 197.444 209.602 179.394 202.072 169.875C197.962 164.679 192.066 153.89 188.968 145.898C183.492 131.769 183.079 131.352 173.996 130.805C160.183 129.974 156.807 133.828 158.663 148.311C162.664 179.523 187.589 206.55 229.463 225.082C253.577 235.755 265.673 242.802 265.733 246.214C265.768 248.242 226.818 241.974 215.002 238.049C206.258 235.146 184.614 216.637 172.024 201.299C164.22 191.791 162.07 190.523 153.999 190.664C148.958 190.752 143.524 192.091 141.922 193.641C137.234 198.177 138.76 208.775 145.482 218.357C155.932 233.255 182.671 257.505 193.204 261.638C198.67 263.782 217.624 268.084 235.322 271.197C253.021 274.31 270.859 278.346 274.962 280.167C282.733 283.614 293.673 291.764 293.714 294.135C293.747 296.041 219.437 291.986 199.956 289.019Z" fill="#DD8004"/>
<path d="M317.02 781.084C341.902 773.031 347.506 766.323 347.194 744.967C347.005 732.108 345.906 728.404 339.993 720.718C329.093 706.549 315.71 700.962 292.175 700.757L272.43 700.585L271.369 680.13L270.308 659.674L287.617 656.473C297.138 654.712 306.924 651.516 309.365 649.37C311.806 647.224 316.008 636.612 318.703 625.788C324.663 601.85 336.655 517.135 338.504 485.904L339.85 463.18L348.358 460.968C360.728 457.753 369.559 450.84 376.952 438.585C382.468 429.442 383.544 424.586 383.971 406.916C384.583 381.589 380.43 372.89 364.024 365.139C358.14 362.359 352.006 358.291 350.393 356.099C346.788 351.199 342.302 337.209 339.917 323.429C336.725 304.986 328.32 285.865 318.025 273.625C312.485 267.039 307.911 259.858 307.86 257.665C307.687 250.299 295.864 230.905 286.682 222.927C281.675 218.576 277.533 213.049 277.477 210.644C277.321 204.023 250.642 145.053 234.882 116.497C227.205 102.586 213.752 83.0404 204.932 72.9823C187.124 52.6731 154.672 28.0235 129.07 15.3585C114.021 7.91378 110.382 7.07199 94.3213 7.32032C77.7137 7.5771 76.1872 8.01579 73.7556 13.2303C69.7346 21.8531 73.2974 32.4904 87.6761 54.7927C104.381 80.7028 105.669 91.4012 97.4714 136.127C92.7596 161.834 90.5921 168.587 84.8227 175.537C69.814 193.617 68.7028 197.599 69.2529 231.334C69.7273 260.436 69.374 263.052 63.7894 271.772C58.9134 279.385 57.8702 284.053 58.1001 297.227C58.3801 313.268 58.3291 313.396 49.0297 320.021C36.2525 329.123 29.8645 343.791 31.2207 360.914C32.19 373.151 31.6983 374.685 24.6049 381.547C12.1782 393.568 8.66037 406.062 10.332 432.235C12.2244 461.865 15.905 468.251 35.5303 475.956L50.2157 481.721L50.584 502.824C51.0018 526.76 57.9055 583.659 62.6893 602.594C64.4433 609.537 66.0678 622.974 66.2993 632.456C66.7031 649.001 66.9993 649.814 73.6601 652.669C77.4772 654.306 90.3061 657.655 102.169 660.112C114.032 662.569 124.155 664.861 124.665 665.207C125.175 665.552 124.958 672.376 124.183 680.371L122.774 694.908L102.538 694.548C85.2832 694.241 80.703 694.999 71.4377 699.701C56.1574 707.455 47.1703 719.232 45.6086 733.548C42.8572 758.771 55.5205 771.636 87.0311 775.633C122.362 780.113 168.613 766.582 179.073 748.705C183.375 741.351 188.195 714.166 190.764 682.771C192.007 667.581 192.213 667.186 198.959 667.068L205.878 666.947L207.504 705.532C209.546 754.03 211.459 758.288 236.68 770.492C246.347 775.17 260.322 779.699 268.941 780.947C284.373 783.182 310.311 783.256 317.02 781.084ZM258.092 747.734C248.322 743.538 239.47 738.306 238.42 736.108C237.369 733.91 235.705 716.825 234.722 698.141C232.961 664.695 233.015 664.168 238.173 664.078C243.182 663.991 243.431 665.052 243.836 688.258C244.517 727.258 250.682 734.013 280.28 728.18C294.246 725.427 304.499 728.066 313.429 736.713C321.343 744.377 320.291 749.214 309.754 753.593C296.87 758.947 279.645 756.994 258.092 747.734ZM82.9645 746.056C72.3883 741.587 72.0474 736.087 81.8514 728.1C91.5301 720.215 98.4371 718.596 110.253 721.442C125.167 725.034 139.435 724.069 144.029 719.158C148.385 714.502 152.654 695.372 152.413 681.586C152.222 670.629 154.163 665.544 158.565 665.468C164.517 665.364 162.453 705.433 155.382 727.242C152.956 734.728 142.071 742.098 126.408 746.863C115.36 750.223 91.7898 749.785 82.9645 746.056ZM152.047 639.106C129.076 638.021 107.423 634.658 103.045 631.495C95.1568 625.795 82.6504 564.588 78.7373 512.533L76.7377 485.933L90.7947 486.484C98.5261 486.787 107.618 486.335 110.999 485.48C116.618 484.059 117.066 482.992 116.208 473.066C115.292 462.469 115.062 462.196 106.624 461.703C89.8346 460.723 58.2676 454.563 49.3976 450.536C42.1264 447.235 40.0913 444.795 38.7133 437.727C36.0746 424.192 36.4527 418.817 40.6515 410.182C46.5633 398.023 51.0457 396.752 69.1153 402.113C81.759 405.864 88.8625 406.479 106.875 405.385C126.023 404.223 134.772 402.084 170.763 389.772C210.388 376.217 213.878 375.435 240.819 374.061C273.997 372.37 326.221 376.988 330.688 382.009C332.265 383.78 336.362 385.783 339.794 386.46C348.895 388.255 357.188 396.167 357.311 403.171C357.458 411.617 348.802 428.219 341.993 432.552C338.883 434.531 329.264 437.009 320.618 438.058C303.298 440.161 301.318 441.656 301.452 452.537C301.516 457.738 303.108 460.695 306.791 462.457C311.673 464.792 311.945 466.199 310.686 482.641C308.505 511.143 294.781 603.241 290.745 616.456C287.985 625.495 285.646 628.92 281.595 629.853C278.602 630.542 270.622 632.365 263.863 633.903C251.602 636.693 190.556 641.473 178.842 640.56C175.445 640.296 163.387 639.641 152.047 639.106ZM244.096 626.043C250.943 619.419 251.467 612.547 246.013 600.902C243.898 596.387 242.151 591.737 242.131 590.568C242.11 589.399 249.288 585.929 258.081 582.858C275.373 576.819 282.728 571.04 280.296 565.403C277.681 559.34 271.592 559.03 259.061 564.321C239.402 572.623 207.759 579.285 186.416 579.616C164.313 579.959 147.812 575.222 127.625 562.74C113.911 554.26 106.786 553.682 104.486 560.862C100.702 572.672 140 592.918 173.931 596.64L194.337 598.878L199.382 610.384C208.25 630.606 231.105 638.61 244.096 626.043ZM220.767 610.7C213.746 603.958 212.329 594.698 218.13 593.465C221.281 592.795 223.819 595.415 227.554 603.194C230.366 609.05 232.674 614.273 232.683 614.802C232.733 617.691 225.428 615.176 220.767 610.7ZM162.661 551.094C170.406 543.112 170.26 523.832 162.334 508.068C157.355 498.166 156.13 497.226 148.386 497.361C138.61 497.532 133.415 503.36 130.933 516.939C125.659 545.804 146.268 567.99 162.661 551.094ZM264.483 549.529C278.051 536.404 273.026 495.186 257.889 495.45C249.301 495.6 245.288 498.471 240.148 508.146C233.649 520.377 233.383 538.633 239.579 547.156C243.001 551.863 246.05 553.288 252.463 553.176C257.084 553.095 262.493 551.454 264.483 549.529ZM81.2905 376.174C75.4204 373.642 67.772 368.52 64.2939 364.791C58.3177 358.385 58.1687 357.638 61.5828 351.208C63.5699 347.466 67.8813 342.695 71.1639 340.606C76.9367 336.933 77.6057 337.139 91.5811 346.894C109.396 359.33 118.725 363.602 131.828 365.326C137.412 366.061 141.996 367.529 142.015 368.589C142.065 371.494 112.731 380.138 101.667 380.479C96.3299 380.643 87.1605 378.706 81.2905 376.174ZM273.1 347.506C255.751 346.463 239.32 344.709 236.586 343.609C233.852 342.509 212.183 341.655 188.432 341.71C147.14 341.807 144.65 341.547 131.571 335.791C106.903 324.932 81.4831 301.012 86.4028 293.286C88.0383 290.718 91.1251 292.236 100.716 300.326C121.18 317.587 139.76 327.461 153.663 328.465C167.674 329.477 173.359 326.417 173.211 317.944C173.132 313.405 174.107 312.613 178.686 313.499C194.27 316.515 219.423 318.772 246.037 319.544C262.332 320.016 279.695 321.268 284.622 322.326C294.321 324.409 305.101 332.851 310.898 342.906C315.277 350.5 317.796 350.193 273.1 347.506ZM256.692 293.765C215.312 292.416 192.903 289.515 178.229 283.606C163.541 277.691 157.178 270.061 150.75 250.657C143.181 227.811 143.122 227.738 132.511 227.923C126.992 228.019 121.616 229.58 119.897 231.584C115.794 236.367 118.971 255.709 126.6 272.402C129.906 279.635 131.766 285.567 130.734 285.585C129.701 285.603 124.093 280.956 118.27 275.258C93.8264 251.335 88.4352 218.853 105.604 198.942C115.392 187.59 119.213 177.5 125.002 147.709C128.684 128.764 130.671 109.52 130.641 93.0979C130.598 70.0292 129.997 66.659 123.976 55.7537C120.336 49.1608 118.188 43.7521 119.203 43.7344C120.218 43.7167 128.181 48.5052 136.898 54.3755C173.787 79.2177 198.127 107.794 219.335 151.161C234.39 181.946 240.339 196.072 238.266 196.109C237.252 196.126 230.866 192.866 224.073 188.864C209.386 180.21 194.527 163.241 190.08 150.042C183.524 130.582 183.195 130.217 172.405 130.406C164.29 130.547 161.95 131.612 159.848 136.121C153.524 149.682 170.698 185.858 191.441 202.672C198.129 208.092 215.601 218.085 230.27 224.877C257.043 237.275 270.079 245.267 267.538 247.725C266.788 248.451 259.681 247.965 251.746 246.644C209.905 239.681 198.425 233.566 175.881 206.238C162.992 190.613 162.515 190.303 152.678 191.15C142.715 192.008 142.629 192.095 142.038 202.067C141.333 213.962 145.948 221.061 169.185 243.823C186.634 260.916 194.687 264.085 241.304 272.205C272.056 277.561 276.414 278.915 287.582 286.582C297.446 293.354 298.696 297.043 290.656 295.653C287.593 295.124 272.309 294.274 256.692 293.765Z" fill="#DD8004"/>
</g>
<defs>
<clipPath id="clip0_152_121">
<rect width="379.656" height="783.399" fill="white" transform="matrix(-0.999848 0.0174524 0.0174524 0.999848 379.598 0)"/>
</clipPath>
</defs>
</svg>
