<svg width="137" height="205" viewBox="0 0 137 205" fill="none" xmlns="http://www.w3.org/2000/svg">
<path fill-rule="evenodd" clip-rule="evenodd" d="M2.94666 21.0269C3.03031 21.1911 2.81844 21.5058 2.49011 21.6731C2.12894 21.8571 1.8186 22.222 1.80374 22.4364C1.77341 22.7827 1.55965 22.8503 1.09748 22.7549C0.68487 22.6756 0.503998 22.7264 0.620479 22.8739C0.73696 23.0213 0.804511 23.235 0.821866 23.3503C0.860954 24.1575 3.5178 28.966 4.21356 29.4387C4.64477 29.798 5.0103 30.1907 4.99545 30.4051C4.9806 30.6194 5.24642 30.8976 5.57726 31.0599C5.9081 31.2222 6.19061 31.5331 6.17576 31.7475C6.12807 31.9786 6.50909 32.2394 6.9217 32.3186C7.4167 32.3973 7.93092 32.8384 8.24941 33.5446C8.51771 34.1523 8.93346 34.6436 9.14781 34.6584C9.32934 34.69 9.71163 35.1156 9.96257 35.6081C10.2135 36.1006 10.5797 36.5757 10.8107 36.6234C11.009 36.6878 11.4749 37.2776 11.8095 37.9343C12.1937 38.607 12.7104 39.3777 12.9929 39.6887C13.2755 39.9996 14.2897 41.1785 15.2215 42.358C16.1695 43.488 17.3163 44.7647 17.781 45.1897C18.229 45.5818 18.8938 46.3184 19.2438 46.8431C19.5772 47.3349 20.0939 48.1056 20.4266 48.5151C20.7593 48.9246 21.4421 49.8587 21.9421 50.5966C22.4589 51.3672 23.1069 52.0709 23.3715 52.1843C23.6528 52.3305 23.8522 52.5597 23.8039 52.7084C23.7228 52.8738 23.9397 53.2182 24.2383 53.4796C24.5697 53.7243 25.0518 54.2645 25.3516 54.6907C25.6515 55.117 26.084 55.641 26.3492 55.8368C26.5815 56.0493 27.014 56.5733 27.281 57.0163C27.5809 57.4425 28.2302 58.311 28.7952 58.933C29.3603 59.5549 30.6577 61.1272 31.6893 62.4213C32.6881 63.7321 33.9186 65.173 34.3671 65.6476C34.8485 66.1054 35.465 66.9906 35.7829 67.6145C36.1007 68.2383 36.817 69.2381 37.3659 69.9097C37.9149 70.5812 38.6806 71.5972 39.1137 72.2036C39.4973 72.794 40.1453 73.4977 40.5263 73.7585C40.9074 74.0193 41.7729 75.1499 42.4241 76.2656C43.0914 77.3318 43.9254 78.6438 44.3083 79.1518C45.6231 80.8393 46.6051 82.1173 46.7544 82.248C47.5524 83.1648 49.752 86.3453 51.4199 88.9695C52.1535 90.0846 53.2855 91.5757 53.9831 92.2955C54.7136 92.9986 55.3629 93.8672 55.4645 94.2289C55.599 94.574 55.8822 94.9674 56.081 95.1142C56.3127 95.2443 57.1957 96.4901 58.0135 97.8517C58.8314 99.2134 59.8153 100.739 60.1982 101.247C60.5315 101.738 61.4826 103.28 62.2509 104.626C63.0688 105.988 63.9021 107.217 64.1834 107.363C64.4318 107.526 64.8476 108.018 65.1146 108.461C66.6004 110.971 68.9685 114.644 70.5676 116.89C71.5838 118.316 72.8187 120.334 73.3044 121.368C73.823 122.386 74.3565 123.19 74.4878 123.123C74.6192 123.056 74.8868 123.581 75.1229 124.288C75.3764 125.11 75.7097 125.602 76.0393 125.599C76.6167 125.677 81.128 133.801 80.7012 134.018C80.537 134.102 80.5556 134.382 80.6895 134.645C80.8233 134.907 81.0717 135.07 81.2359 134.987C81.3672 134.92 81.8332 135.51 82.2347 136.298C82.7867 137.381 82.8555 137.76 82.4274 137.812C82.065 137.831 82.0663 137.996 82.4151 138.356C82.7253 138.694 82.6652 138.739 82.2349 138.489C81.7051 138.18 81.5713 137.918 81.7001 137.521C81.9256 136.827 81.5408 136.072 81.114 136.29C80.9498 136.373 81.0012 136.636 81.2336 136.849C81.4988 137.045 81.5502 137.308 81.3532 137.408C80.8278 137.676 80.0131 136.726 80.3389 136.23C80.469 135.998 80.7806 135.798 80.995 135.813C81.2093 135.827 81.0594 135.614 80.6784 135.353C80.2974 135.093 79.6698 134.916 79.2417 134.969C78.5503 135.073 77.274 134.11 77.7994 133.843C77.9307 133.776 78.0434 133.429 77.9913 133.083C77.9213 132.54 77.8717 132.524 77.6289 133.102C77.4022 133.631 77.2374 133.633 76.6234 133.077C76.2251 132.701 75.8081 132.045 75.7058 131.601C75.5862 131.041 75.2708 130.747 74.8093 130.734C74.4302 130.721 73.9828 130.411 73.7988 130.05C73.6148 129.688 73.2164 129.312 72.9351 129.166C72.621 129.037 72.0257 128.761 71.579 128.534C70.8014 128.144 70.8182 128.177 71.5821 128.946L72.4123 129.764L71.387 129.293C70.8244 129.001 70.3102 128.56 70.2916 128.28C70.2562 127.967 70.0741 127.853 69.8449 128.053C69.6485 128.235 69.3846 128.204 69.2681 128.057C69.1677 127.86 68.8691 127.599 68.5711 127.42C68.174 127.208 68.2062 127.109 68.6349 127.139C68.9812 127.169 68.716 126.973 68.0878 126.715C67.4435 126.505 66.7638 125.983 66.5798 125.622C66.1783 124.834 63.9325 124.241 63.4257 124.789C63.2461 125.004 62.7338 124.811 62.2363 124.402C61.2741 123.569 60.0555 123.694 59.371 124.704C58.9956 125.185 58.7657 125.302 58.3686 125.091C58.0539 124.879 58.1047 125.06 58.5204 125.551C58.9529 126.075 59.0545 126.437 58.7919 126.571C58.5949 126.671 58.5633 126.853 58.7287 126.934C58.9108 127.048 58.567 127.347 57.9426 127.583C56.1355 128.338 55.9242 128.735 56.56 129.983C56.928 130.705 57.3097 131.048 57.5723 130.914C57.8022 130.797 58.1163 130.927 58.2669 131.222C58.4007 131.485 58.353 131.716 58.1715 131.684C58.0067 131.686 57.959 131.917 58.0767 132.229C58.2112 132.574 58.363 133.034 58.4312 133.331C58.4993 133.627 58.9783 133.755 59.5048 133.652L60.4261 133.431L59.8375 134.061C59.1995 134.676 59.2026 135.088 59.8141 135.314C59.9956 135.346 60.3444 135.706 60.6108 136.066C60.8773 136.427 61.2589 136.77 61.4733 136.785C61.6876 136.8 62.2521 137.339 62.7515 137.995C63.2508 138.65 63.8159 139.272 64.0476 139.402C64.2297 139.516 64.4788 139.761 64.612 139.942C64.7285 140.089 65.5098 140.973 66.3735 141.856C67.221 142.789 68.1188 143.821 68.3685 144.148C68.6349 144.509 69.4831 145.524 70.2476 146.376C71.0122 147.227 72.5252 148.979 73.5568 150.273C74.6213 151.55 76.7328 153.99 78.2458 155.742C79.7749 157.444 81.2376 159.097 81.4539 159.359C86.8231 165.433 92.0895 170.98 94.0795 172.612C94.6433 173.07 95.2251 173.724 95.3924 174.053C95.5597 174.381 95.8422 174.692 96.0404 174.756C96.222 174.788 96.5373 175.082 96.704 175.328C96.8874 175.607 97.5677 176.212 98.2306 176.701C98.8935 177.19 99.5403 177.729 99.7064 177.893C100.638 178.99 102.828 180.934 103.324 181.178C103.969 181.47 105.214 182.614 107.555 184.936C108.402 185.787 109.679 186.832 110.407 187.205C111.135 187.579 111.698 187.954 111.666 188.053C111.536 188.367 114.223 190.555 114.402 190.257C114.63 189.893 115.787 190.378 115.658 190.775C115.449 191.419 117.498 192.194 118.286 191.793C119.074 191.391 119.088 191.012 118.419 189.781C118.269 189.568 118.351 189.403 118.565 189.418C118.779 189.433 118.81 189.169 118.66 188.873C118.191 187.954 117.975 185.582 118.267 184.855C118.526 184.309 118.477 184.293 118.002 184.742C117.691 185.024 117.739 184.793 118.13 184.18C118.504 183.617 118.927 182.823 119.056 182.426C119.184 182.03 119.577 181.664 119.972 181.546C120.383 181.46 120.661 181.112 120.657 180.618C120.67 180.156 120.915 179.825 121.31 179.789C121.968 179.701 122.698 178.13 122.347 177.441C122.029 176.817 122.432 175.578 122.91 175.706C123.142 175.754 123.091 175.655 122.843 175.492C122.479 175.264 122.314 175.348 122.12 175.778C121.925 176.208 121.81 176.225 121.692 175.831C121.574 175.519 121.555 175.156 121.586 174.975C121.668 174.809 121.517 174.514 121.285 174.301C121.052 174.089 121.018 173.858 121.182 173.775C121.609 173.557 121.629 171.892 121.198 171.616C120.967 171.485 120.821 171.849 120.843 172.541L120.901 173.711L120.513 172.461C120.293 171.787 120.106 170.932 120.12 170.635C120.15 170.289 119.833 169.747 119.451 169.404C119.07 169.061 118.902 168.65 119.016 168.468C119.146 168.236 119.344 168.301 119.494 168.514C119.611 168.744 119.675 168.545 119.622 168.035C119.585 167.557 119.681 167.095 119.878 166.995C120.042 166.911 120.088 166.515 120.003 166.104C119.917 165.692 119.701 165.43 119.504 165.531C119.34 165.614 119.207 165.434 119.254 165.121C119.33 164.296 119.029 163.705 118.685 164.004C118.505 164.137 118.09 163.729 117.689 163.023C116.97 161.694 117.23 161.23 118.226 162.129C118.724 162.62 118.839 162.602 118.769 162.059C118.733 161.664 118.55 161.467 118.353 161.568C118.156 161.668 117.907 161.423 117.822 161.011C117.736 160.6 117.586 160.387 117.521 160.503C117.423 160.635 117.024 160.095 116.622 159.307C115.936 157.96 115.936 157.878 116.791 157.608C117.53 157.355 117.579 157.289 116.985 157.178C116.193 157.003 114.843 155.085 115.336 154.834C115.533 154.733 115.732 154.963 115.784 155.308C115.854 155.852 115.904 155.868 115.983 155.373C116.061 154.878 116.127 154.844 116.475 155.122C116.774 155.383 116.823 155.317 116.622 154.923C116.504 154.611 116.19 154.399 115.926 154.45C115.696 154.485 115.331 154.257 115.115 153.995C114.932 153.716 114.93 153.469 115.112 153.501C115.326 153.515 115.489 153.349 115.52 153.085C115.535 152.871 115.386 152.74 115.189 152.841C114.959 152.958 114.76 152.811 114.742 152.531C114.707 152.301 114.919 151.986 115.281 151.884C115.609 151.799 115.772 151.551 115.672 151.354C115.588 151.19 115.341 151.109 115.144 151.21C114.947 151.31 114.928 151.03 115.04 150.601C115.347 149.741 115.11 148.952 114.752 149.548C114.638 149.73 114.44 149.748 114.34 149.551C114.24 149.354 114.042 149.372 113.879 149.621C113.667 149.935 113.634 149.87 113.761 149.308C113.841 148.896 114.085 148.564 114.3 148.579C114.514 148.594 114.595 148.429 114.511 148.264C114.411 148.067 114.13 148.004 113.933 148.104C113.638 148.255 113.621 148.139 113.849 147.775C114.011 147.444 114.355 147.227 114.602 147.225C114.817 147.24 114.767 147.142 114.42 147.029C114.006 146.867 113.806 146.556 113.835 146.045C113.845 145.171 113.445 144.548 112.785 144.471C112.505 144.407 112.487 144.292 112.75 144.158C112.947 144.057 112.96 143.596 112.726 143.136C112.491 142.676 112.504 142.215 112.734 142.098C112.997 141.964 112.979 141.849 112.633 141.818C111.941 141.758 111.437 140.608 112.096 140.52C112.409 140.485 112.473 140.205 112.271 139.728C111.082 137.232 110.393 135.474 110.44 135.078C110.454 134.864 110.189 134.668 109.844 134.72C109.3 134.79 109.217 134.626 109.322 133.29C109.379 132.186 109.227 131.643 108.713 131.202C108.198 130.761 108.116 130.761 108.334 131.188C108.468 131.533 108.471 131.863 108.274 131.963C107.847 132.181 107.771 130.896 108.159 129.954C108.37 129.474 108.264 128.535 107.911 127.599C107.558 126.744 107.204 125.643 107.052 125.183C106.933 124.706 106.566 124.148 106.284 123.92C105.92 123.692 105.719 123.215 105.732 122.754C105.761 122.243 105.677 122.078 105.531 122.36C105.417 122.542 105.12 122.528 104.904 122.348C104.672 122.135 104.571 121.856 104.735 121.69C104.865 121.541 104.778 120.882 104.542 120.175C104.155 119.091 103.939 118.911 103.215 119.032C102.491 119.153 102.424 119.104 102.883 118.705C103.221 118.394 103.115 118.187 102.565 118.081C101.921 117.954 101.888 117.888 102.365 117.852C102.777 117.766 102.923 117.485 102.82 116.958C102.667 116.333 102.551 116.268 102.093 116.75C101.733 117.098 101.536 117.116 101.567 116.852C101.565 116.605 101.415 116.392 101.201 116.377C101.019 116.346 100.522 115.937 100.106 115.446C99.7229 114.938 99.2923 114.661 99.195 114.876C99.0811 115.058 98.7682 115.094 98.4869 114.948C97.8909 114.59 96.0609 114.488 96.2281 114.816C96.3118 114.981 95.771 115.38 95.0319 115.715C93.8499 116.318 93.752 116.45 94.2502 116.941C94.6324 117.366 94.6331 117.449 94.2359 117.238C93.5743 116.913 93.0849 117.576 93.4529 118.298C93.6035 118.594 93.4734 118.826 93.1277 118.878C92.7981 118.88 92.5361 119.096 92.5213 119.311C92.4903 119.575 92.6557 119.656 92.8855 119.539C93.1154 119.422 93.2312 119.487 93.1829 119.635C93.1185 119.834 92.7728 119.886 92.3602 119.806C91.6174 119.647 91.6707 120.158 92.4637 120.415C92.7611 120.512 92.9116 120.807 92.8324 121.22C92.7872 121.781 92.7544 121.797 92.5691 121.271C92.3832 120.663 92.3336 120.647 91.2173 121.216C90.6263 121.517 90.6269 121.599 91.2892 122.006C91.8852 122.364 91.9856 122.561 91.7905 122.909C91.5303 123.372 91.9987 124.292 92.5935 124.485C93.2378 124.694 93.2583 125.222 92.6654 125.275C91.974 125.38 91.2301 127.248 91.7598 127.557C92.538 128.029 91.4012 128.07 90.4254 127.616C89.7309 127.308 89.2823 126.834 89.1627 126.274C89.009 125.567 88.9266 125.568 88.6838 126.146C88.4893 126.576 88.2105 126.76 88.0284 126.646C87.8295 126.499 87.8605 126.235 88.0562 125.97C88.5629 125.422 88.1782 124.667 87.2365 124.361C86.5922 124.151 86.542 124.053 86.918 123.655C87.5226 122.974 87.605 122.974 87.8571 123.631C88.2773 124.699 88.6261 125.059 88.8379 124.744C89.0002 124.413 87.7809 122.264 86.9172 121.38C86.6346 121.069 86.5033 121.136 86.2766 121.665C86.0338 122.244 85.9508 122.162 85.6298 121.126C85.4433 120.436 85.2883 119.563 85.2691 119.201C85.2988 118.772 85.1154 118.493 84.8515 118.463C84.5876 118.432 84.473 118.531 84.5894 118.679C85.0058 119.252 85.0424 119.73 84.6831 120.161C84.3232 120.51 84.2897 120.444 84.2847 119.785C84.2816 119.373 84.0796 118.814 83.8472 118.602C83.5319 118.308 83.5468 118.093 83.9408 117.893C84.2363 117.742 84.2839 117.511 84.0522 117.381C83.8533 117.234 83.442 117.32 83.1639 117.585C82.7872 117.901 82.6057 117.87 82.5864 117.507C82.5511 117.195 82.2519 116.851 81.921 116.688C81.4415 116.478 81.4402 116.313 81.8658 115.931C82.1935 115.681 82.6538 115.529 82.9512 115.626C83.3477 115.755 83.4128 115.639 83.212 115.245C83.0614 114.949 82.8458 114.77 82.7151 114.919C82.437 115.185 80.3386 114.476 80.4513 114.129C80.5325 113.963 80.8781 113.911 81.2907 113.99C81.8849 114.101 81.8514 114.036 81.0237 113.548C80.0801 112.994 80.03 112.896 80.3192 111.921C80.4964 111.376 80.4604 110.981 80.2962 111.065C80.0992 111.165 79.9376 111.578 79.924 111.957C79.8943 112.386 79.7803 112.568 79.6799 112.371C79.5963 112.207 79.5931 111.795 79.7058 111.448C79.8025 111.151 79.8316 110.64 79.7138 110.327C79.5787 109.9 79.4641 110 78.976 110.827C78.4228 111.771 78.39 111.788 78.3354 111.112C78.2995 110.717 78.214 110.306 78.1805 110.24C78.1303 110.142 78.3112 110.091 78.608 110.105C78.9214 110.152 78.9208 110.07 78.6556 109.874C78.3744 109.728 78.3545 109.283 78.5323 108.82C78.9058 108.092 78.873 108.109 78.2516 108.756C77.3032 109.736 76.7425 109.691 76.4544 108.638C76.2517 107.997 76.3651 107.732 76.8589 107.646C77.8464 107.474 77.8066 106.584 76.8166 106.427C76.3384 106.381 75.9103 106.434 75.8124 106.566C75.7313 106.732 75.6148 106.584 75.5795 106.272C75.5274 105.926 75.3446 105.73 75.1476 105.83C74.9506 105.93 74.7028 105.85 74.6024 105.653C74.5188 105.489 74.6167 105.356 74.8639 105.354C75.5893 105.398 75.311 103.472 74.5328 103C73.9529 102.592 73.9536 102.675 74.3724 103.578C74.707 104.235 74.7269 104.679 74.3985 104.847C74.103 104.997 73.9704 104.9 74.0175 104.586C74.1283 103.992 71.9033 99.625 71.575 99.7923C71.4437 99.8593 71.2751 99.3661 71.1877 98.7076C71.0811 97.6866 70.9479 97.5063 70.3544 97.4779C69.8928 97.4649 69.5608 97.1378 69.3247 96.431C69.1555 95.8554 68.7893 95.3803 68.5254 95.3493C68.3111 95.3345 67.9963 95.1226 67.8959 94.9256C67.7788 94.6958 67.9269 94.6617 68.3073 94.8401C68.7874 95.1331 68.8364 95.0668 68.4702 94.5917C68.0873 94.0837 67.461 94.072 66.1959 94.5924C65.6371 94.7944 65.4036 94.4172 65.7127 93.8875C65.8595 93.6886 66.0075 93.6545 66.1079 93.8515C66.2083 94.0485 66.4387 94.0138 66.6512 93.7815C66.8309 93.5659 66.894 93.2028 66.7937 93.0058C66.6766 92.776 66.4417 92.2339 66.2403 91.7575C65.9386 91.0841 65.9708 90.985 66.4342 91.2451C66.7322 91.4242 66.9299 91.4062 66.8295 91.2092C66.5283 90.6182 66.034 90.6219 65.7744 91.1677C65.6128 91.581 65.4151 91.599 65.0669 91.3214C64.8179 91.0761 64.816 90.8289 65.1115 90.6784C65.407 90.5278 65.4051 90.2806 65.156 90.0353C64.8078 89.7578 64.8729 89.6419 65.3338 89.5725C66.1243 89.5006 65.9905 89.2379 64.7985 88.5219C64.0538 88.1155 63.8369 87.7711 63.7823 87.0958C63.7619 86.5686 63.4935 85.9608 63.0952 85.5848C62.1826 84.7677 62.0853 84.9827 62.8357 86.1306C63.252 86.7043 63.3369 87.0332 63.0563 86.9694C62.7917 86.8561 62.1765 86.1356 61.6591 85.2826C60.9082 84.0523 60.8896 83.7722 61.3505 83.7028C61.6797 83.6454 61.635 83.5578 61.2167 83.4402C60.3419 83.2655 58.7019 82.1573 59.3289 82.2514C59.576 82.2496 59.7235 82.1331 59.6231 81.9361C59.5395 81.7719 59.4205 81.2949 59.3517 80.9164C59.2649 80.3402 59.2321 80.3569 59.1373 80.9015C59.0277 81.6604 58.8784 81.5297 57.7755 79.5275C57.3573 78.7067 57.1038 77.8846 57.2011 77.6696C57.3312 77.4379 56.8671 77.0953 56.0741 76.8377C55.3307 76.5961 54.5854 76.1074 54.4174 75.6966C54.1324 75.0561 54.182 75.0722 54.7799 75.6774C55.2338 76.1354 55.3434 76.1071 55.1088 75.5925C54.9242 75.1489 54.9384 74.8522 55.1856 74.8503C55.4328 74.8484 55.3987 74.7004 55.1663 74.4879C54.9173 74.2426 54.6038 74.1955 54.5227 74.3609C54.4415 74.5263 54.0444 74.3151 53.6621 73.8895C53.3127 73.4472 53.1113 72.9708 53.2742 72.7224C53.4371 72.4739 53.1707 72.1134 52.4743 71.5584C51.6788 70.9711 51.4124 70.6106 51.4402 69.9347C51.452 69.3083 51.3683 69.1442 51.04 69.3115C50.7444 69.462 50.3455 69.0036 49.8095 67.8705C49.3076 66.8855 48.7252 66.1483 48.3454 66.0523C48.0319 66.0053 47.7829 65.76 47.7977 65.5456C47.8429 64.9849 47.3707 63.5712 47.2747 63.951C47.2264 64.0997 46.8305 64.0533 46.3838 63.8259C45.9371 63.5986 45.3597 63.5206 45.0971 63.6544C44.7359 63.8384 44.6851 63.6575 44.9261 62.8317C45.2952 61.5269 45.1112 61.1658 44.356 61.5506C43.9948 61.7346 43.6479 61.6219 43.4304 61.195C43.2464 60.8339 43.2928 60.438 43.5226 60.3209C44.048 60.0532 43.8299 59.544 43.0201 59.2535C42.6732 59.1407 42.1081 58.5188 41.8231 57.8782C40.9687 56.0389 37.2952 51.9138 36.8027 52.1647C36.5401 52.2986 36.1609 52.285 35.9124 52.1221C35.664 51.9591 35.6801 51.9096 36.0097 51.9071C36.2736 51.938 36.4694 51.6729 36.4334 51.2776C36.3974 50.8824 36.1812 50.6203 35.9507 50.655C35.7203 50.6897 35.4378 50.3788 35.369 50.0002C35.2494 49.4408 35.0344 49.3436 34.5908 49.5282C34.2296 49.7122 34.081 49.6639 34.2445 49.4979C34.6366 49.0499 33.439 47.5923 32.5642 47.4176C32.1683 47.3712 31.8864 47.1426 31.9676 46.9772C32.032 46.779 31.7984 46.4017 31.4341 46.1737C31.0196 45.8473 30.9193 45.6503 31.1491 45.5332C31.8058 45.1986 31.0257 44.4794 30.0209 44.5364C28.8512 44.5947 28.6015 44.267 28.9397 43.2262C29.1162 42.5986 29.0493 42.4673 28.2898 42.2753C27.7117 42.1149 27.2136 41.6243 26.962 41.0494C26.7104 40.4745 26.2953 40.0656 26.0153 40.0842C25.604 40.1697 25.5036 39.9727 25.4986 39.3136C25.5252 38.4729 25.2445 38.4091 24.3264 39.0423C24.179 39.1588 24.161 38.9611 24.3394 38.5807C24.5983 37.9525 24.5481 37.854 23.6888 37.5474C23.1436 37.3703 22.679 36.9453 22.5773 36.5835C22.5253 36.2379 21.9937 35.6816 21.4305 35.3068C20.8841 34.9648 20.0861 34.048 19.7341 33.2761C19.3661 32.5538 18.9831 32.0458 18.9181 32.1617C18.6901 32.526 18.1084 31.8712 17.5222 30.6396C17.2372 29.999 16.8555 29.6558 16.6257 29.7729C16.3959 29.8901 16.0316 29.6621 15.8141 29.2353C15.513 28.6442 15.5619 28.578 16.0253 28.8381C16.3233 29.0171 16.5209 28.9992 16.4045 28.8517C16.3041 28.6547 15.6914 28.2639 14.9969 27.956C14.2695 27.6649 13.689 27.1749 13.6537 26.862C13.6183 26.5492 13.2205 26.2556 12.7584 26.1602C12.2801 26.1144 11.9487 25.8697 12.0131 25.6714C12.0775 25.4732 11.6289 24.9986 10.9666 24.5917C10.3043 24.1847 9.82292 23.7269 9.90406 23.5615C9.93565 23.38 9.81979 23.3149 9.62279 23.4153C9.42579 23.5157 9.17674 23.2704 9.05838 22.8757C8.94003 22.4811 8.69094 22.2358 8.49393 22.3362C8.32977 22.4198 8.13089 22.273 8.09555 21.9602C8.06022 21.6473 7.74549 21.4354 7.38307 21.4547C6.92215 21.5241 6.8224 21.4095 7.01752 21.0619C7.22937 20.7472 6.99769 20.6171 6.27285 20.6556C5.58084 20.6773 5.24999 20.515 5.26359 20.1359C5.29455 19.8719 5.03252 20.0882 4.67447 20.6842C4.26234 21.3905 4.02136 21.4857 3.95152 20.9698C3.86475 20.3937 3.66586 20.2469 3.30469 20.4309C3.00919 20.5815 2.84628 20.8299 2.94666 21.0269ZM7.56837 21.9806C7.65201 22.1448 7.66999 22.3424 7.60432 22.3759C7.50582 22.4261 7.25801 22.3455 7.07586 22.2316C6.87699 22.0848 6.8757 21.92 7.03987 21.8363C7.23687 21.736 7.46799 21.7836 7.56837 21.9806ZM8.59716 27.2465C8.6808 27.4107 8.69877 27.6083 8.63311 27.6417C8.53461 27.6919 8.2868 27.6114 8.10465 27.4974C7.90578 27.3506 7.90449 27.1858 8.06866 27.1022C8.26566 27.0018 8.49678 27.0495 8.59716 27.2465ZM24.7292 39.9951C24.7478 40.2751 24.7497 40.5223 24.684 40.5558C24.6184 40.5892 24.4195 40.4424 24.2039 40.2628C23.9715 40.0503 24.0025 39.7864 24.2323 39.6693C24.4622 39.5521 24.6938 39.6822 24.7292 39.9951ZM38.6305 54.1285C38.8293 54.2753 38.7147 54.375 38.4019 54.4104C37.6938 54.4817 37.4781 54.302 37.9378 54.0678C38.1348 53.9675 38.4316 53.9817 38.6305 54.1285ZM39.6491 55.8841C39.6007 56.0328 39.3201 55.969 39.0543 55.6909C38.6231 55.3316 38.6392 55.282 39.1181 55.4102C39.4651 55.523 39.6974 55.7355 39.6491 55.8841ZM40.7309 57.2768C40.7495 57.5568 40.6001 57.4261 40.3659 56.9664C40.1317 56.5067 40.1137 56.3091 40.3126 56.4559C40.4954 56.6523 40.6961 57.0463 40.7309 57.2768ZM44.2663 62.7543C44.2179 62.903 43.9051 62.9383 43.5581 62.8256C43.0953 62.6478 43.1114 62.5983 43.6715 62.5611C44.05 62.4923 44.3146 62.6056 44.2663 62.7543ZM50.2768 70.817C50.9713 71.1248 50.9552 71.1744 50.2452 70.9985C49.4696 70.856 49.1716 70.677 49.4342 70.5432C49.4999 70.5097 49.8964 70.6386 50.2768 70.817ZM58.6883 82.5365C58.7385 82.635 58.6908 82.866 58.544 83.0649C58.43 83.2471 58.2324 83.2651 58.1488 83.1009C58.0484 82.9039 58.1289 82.6561 58.2931 82.5724C58.4901 82.472 58.6549 82.4708 58.6883 82.5365ZM60.0554 88.9534C60.2878 89.1659 60.3219 89.3139 60.0747 89.3158C59.8275 89.3177 59.5791 89.1548 59.4787 88.9578C59.2445 88.4981 59.5245 88.4795 60.0554 88.9534ZM61.1596 91.1204C61.5636 92.238 61.7135 92.4511 61.7922 91.9561C61.9018 91.1972 62.2512 91.6395 62.3578 92.6604C62.4651 93.7638 61.8543 93.6201 61.252 92.4381C60.9341 91.8143 60.5351 91.3558 60.3381 91.4562C60.174 91.5399 59.9262 91.4593 59.8425 91.2952C59.7421 91.0982 59.905 90.8497 60.1677 90.7159C60.4304 90.5821 60.5766 90.3008 60.4929 90.1366C60.3925 89.9396 60.3913 89.7748 60.4898 89.7246C60.5883 89.6745 60.9061 90.2983 61.1596 91.1204ZM76.7721 107.07C76.971 107.217 76.8564 107.317 76.5435 107.352C75.8354 107.423 75.6198 107.244 76.0794 107.009C76.2764 106.909 76.5732 106.923 76.7721 107.07ZM79.5481 114.548C79.6819 114.81 79.6677 115.107 79.4707 115.207C79.3065 115.291 79.1238 115.095 79.0884 114.782C79.0859 114.452 79.1002 114.155 79.1658 114.122C79.2315 114.088 79.4143 114.285 79.5481 114.548ZM57.3238 128.56C57.4074 128.724 57.3268 128.972 57.1298 129.072C56.9657 129.156 56.8164 129.025 56.8313 128.811C56.8294 128.563 56.9266 128.348 57.0251 128.298C57.0908 128.265 57.2234 128.363 57.3238 128.56ZM58.6222 128.105C58.7561 128.367 58.6762 128.698 58.4135 128.832C57.8553 129.116 57.5709 128.558 58.0287 128.076C58.1755 127.877 58.3224 127.679 58.3552 127.662C58.3385 127.629 58.4884 127.842 58.6222 128.105ZM85.0227 121.477C85.2755 122.217 85.1337 123.075 84.8326 122.484C84.6151 122.057 84.4911 120.921 84.6553 120.837C84.7209 120.804 84.9043 121.082 85.0227 121.477ZM73.4222 130.366C73.4575 130.678 73.3088 130.63 73.1248 130.269C72.9079 129.925 72.9061 129.677 73.0715 129.759C73.2202 129.807 73.4036 130.086 73.4222 130.366ZM104.25 120.82C104.334 120.984 104.269 121.183 104.072 121.283C103.908 121.367 103.627 121.221 103.476 120.925C103.343 120.662 103.44 120.447 103.654 120.462C103.901 120.46 104.15 120.623 104.25 120.82ZM90.7581 128.026C90.9403 128.14 90.9917 128.403 90.8616 128.635C90.7476 128.817 90.5165 128.769 90.3827 128.506C90.0816 127.915 90.2284 127.717 90.7581 128.026ZM107.278 126.763C107.345 126.894 107.281 127.093 107.117 127.176C106.92 127.277 106.656 127.246 106.49 127.165C106.308 127.051 106.372 126.852 106.635 126.719C106.898 126.585 107.195 126.599 107.278 126.763ZM83.8767 139.845C84.1592 140.156 84.2106 140.419 83.9795 140.371C83.7652 140.357 83.4833 140.128 83.3495 139.865C83.0149 139.209 83.2949 139.19 83.8767 139.845ZM110.783 136.888C110.867 137.052 110.72 137.334 110.458 137.468C110.195 137.601 109.882 137.554 109.798 137.39C109.698 137.193 109.86 136.945 110.123 136.811C110.386 136.677 110.683 136.691 110.783 136.888ZM119.061 165.715C119.361 166.224 119.463 166.668 119.282 166.637C119.117 166.638 119.053 166.918 119.138 167.247C119.24 167.609 119.159 167.775 118.976 167.661C118.678 167.482 118.247 164.93 118.51 164.797C118.543 164.78 118.793 165.19 119.061 165.715ZM117.012 188.886C117.062 188.984 117.014 189.215 116.867 189.414C116.753 189.596 116.556 189.614 116.472 189.45C116.372 189.253 116.452 189.005 116.616 188.922C116.813 188.821 116.978 188.82 117.012 188.886Z" fill="#DD8004"/>
<path fill-rule="evenodd" clip-rule="evenodd" d="M60.1879 82.5581C60.4537 82.8363 60.7343 82.9001 60.7826 82.7514C60.831 82.6027 60.5986 82.3902 60.2517 82.2775C59.7728 82.1493 59.7567 82.1989 60.1879 82.5581Z" fill="#DD8004"/>
<path d="M62.2645 84.6846C62.4458 84.5922 62.5179 84.3703 62.4255 84.189C62.3331 84.0076 62.1112 83.9355 61.9299 84.0279C61.7486 84.1203 61.6765 84.3422 61.7689 84.5236C61.8613 84.7049 62.0832 84.777 62.2645 84.6846Z" fill="#DD8004"/>
<path fill-rule="evenodd" clip-rule="evenodd" d="M73.0841 101.05C73.1677 101.214 73.4657 101.393 73.6801 101.408C73.9273 101.406 74.0419 101.306 73.9415 101.109C73.8578 100.945 73.5927 100.749 73.3455 100.751C73.1311 100.736 72.9837 100.853 73.0841 101.05Z" fill="#DD8004"/>
<path fill-rule="evenodd" clip-rule="evenodd" d="M77.1131 108.551C77.115 108.798 77.263 108.764 77.4755 108.531C77.9494 108.001 77.9308 107.72 77.4711 107.955C77.2741 108.055 77.1112 108.304 77.1131 108.551Z" fill="#DD8004"/>
<path fill-rule="evenodd" clip-rule="evenodd" d="M69.3947 127.331C69.5477 127.956 69.6475 128.071 69.7763 127.674C69.8568 127.426 69.7713 127.015 69.5885 126.818C69.3562 126.606 69.3085 126.837 69.3947 127.331Z" fill="#DD8004"/>
<path fill-rule="evenodd" clip-rule="evenodd" d="M90.8953 120.015C90.7175 120.478 90.9846 120.921 91.3129 120.754C91.4771 120.67 91.4913 120.373 91.3575 120.111C91.0731 119.552 91.0235 119.536 90.8953 120.015Z" fill="#DD8004"/>
<path fill-rule="evenodd" clip-rule="evenodd" d="M78.4454 134.299C78.529 134.463 78.827 134.642 79.0414 134.657C79.2886 134.655 79.4032 134.556 79.3028 134.359C79.2192 134.194 78.954 133.999 78.7068 134.001C78.4925 133.986 78.345 134.102 78.4454 134.299Z" fill="#DD8004"/>
<path fill-rule="evenodd" clip-rule="evenodd" d="M122.776 177.47C122.767 178.509 122.867 178.706 123.36 178.455C123.557 178.354 123.572 178.223 123.424 178.174C123.258 178.093 123.107 177.715 123.137 177.286C123.117 176.842 123.049 176.546 122.983 176.579C122.885 176.629 122.805 177.042 122.776 177.47Z" fill="#DD8004"/>
</svg>
