<svg width="36" height="34" viewBox="0 0 36 34" fill="none" xmlns="http://www.w3.org/2000/svg">
<path d="M17.7665 9.17411C13.3544 9.17411 9.79556 12.5119 9.79556 16.6499C9.79556 20.788 13.3544 24.1257 17.7665 24.1257C22.1786 24.1257 25.7374 20.788 25.7374 16.6499C25.7374 12.5119 22.1786 9.17411 17.7665 9.17411ZM17.7665 21.5102C14.9153 21.5102 12.5843 19.3305 12.5843 16.6499C12.5843 13.9693 14.9083 11.7897 17.7665 11.7897C20.6247 11.7897 22.9487 13.9693 22.9487 16.6499C22.9487 19.3305 20.6177 21.5102 17.7665 21.5102ZM27.9227 8.86831C27.9227 9.83776 27.0902 10.612 26.0635 10.612C25.0298 10.612 24.2043 9.83125 24.2043 8.86831C24.2043 7.90537 25.0368 7.12461 26.0635 7.12461C27.0902 7.12461 27.9227 7.90537 27.9227 8.86831ZM33.202 10.638C33.084 8.30226 32.5152 6.23324 30.6907 4.52858C28.8731 2.82391 26.667 2.29039 24.1766 2.17328C21.6098 2.03664 13.9163 2.03664 11.3495 2.17328C8.86597 2.28388 6.65991 2.8174 4.8354 4.52207C3.0109 6.22673 2.44898 8.29576 2.32411 10.6315C2.17842 13.0389 2.17842 20.2544 2.32411 22.6618C2.44204 24.9976 3.0109 27.0666 4.8354 28.7713C6.65991 30.4759 8.85903 31.0094 11.3495 31.1266C13.9163 31.2632 21.6098 31.2632 24.1766 31.1266C26.667 31.0159 28.8731 30.4824 30.6907 28.7713C32.5082 27.0666 33.0771 24.9976 33.202 22.6618C33.3476 20.2544 33.3476 13.0454 33.202 10.638ZM29.8859 25.2448C29.3448 26.5201 28.2973 27.5025 26.9307 28.0165C24.8842 28.7778 20.0281 28.6021 17.7665 28.6021C15.5049 28.6021 10.6419 28.7713 8.60235 28.0165C7.24264 27.509 6.19511 26.5266 5.64707 25.2448C4.8354 23.3254 5.02271 18.771 5.02271 16.6499C5.02271 14.5288 4.84234 9.96789 5.64707 8.05502C6.18817 6.77977 7.2357 5.79731 8.60235 5.28331C10.6488 4.52207 15.5049 4.69774 17.7665 4.69774C20.0281 4.69774 24.8911 4.52858 26.9307 5.28331C28.2904 5.79081 29.3379 6.77327 29.8859 8.05502C30.6976 9.97439 30.5103 14.5288 30.5103 16.6499C30.5103 18.771 30.6976 23.3319 29.8859 25.2448Z" fill="#073574"/>
</svg>
